<svg width="74" height="35" viewBox="0 0 74 35" fill="none" xmlns="http://www.w3.org/2000/svg">
<path d="M66.1645 18.6355C65.1073 19.3866 63.8889 19.7621 62.5113 19.7621C60.5806 19.7621 58.9417 19.058 57.5947 17.6477C56.2457 16.2395 55.5722 14.5537 55.5722 12.5924C55.5722 10.6311 56.2457 8.93916 57.5947 7.51461C58.9417 6.09006 60.5826 5.37778 62.5113 5.37778C63.8583 5.37778 65.0624 5.75331 66.1176 6.50436C67.1748 7.25542 67.9789 8.24321 68.5299 9.46776L73.9995 7.95136C73.0811 5.56146 71.579 3.63893 69.4953 2.18377C67.4115 0.728603 65.0828 0 62.5092 0C59.0458 0 56.0906 1.21026 53.6395 3.63077C53.166 4.10426 52.7537 4.60224 52.3721 5.11451C53.6844 7.32889 54.3518 9.81063 54.3518 12.5638C54.3518 15.3782 53.7048 17.8722 52.4353 20.058C52.7945 20.5315 53.1782 20.9968 53.617 21.4397C56.0539 23.9072 59.0173 25.1399 62.5092 25.1399C65.1134 25.1399 67.4482 24.4133 69.5177 22.9561C71.5851 21.5009 73.0791 19.5947 73.9975 17.2334L68.5279 15.6701C68.0095 16.8966 67.2197 17.8865 66.1645 18.6355Z" fill="#191919"/>
<path d="M51.3838 6.65539C50.8307 5.61657 50.1205 4.63694 49.245 3.72261C46.8694 1.24087 44.0284 0 40.7201 0C37.7485 0 35.3117 0.995961 33.4137 2.98788V0.367363H27.5134H27.4399V34.375H27.5134H33.4137V22.0132C35.3138 24.0663 37.7485 25.0929 40.7201 25.0929C44.059 25.0929 46.9081 23.8827 49.2674 21.4622C50.1511 20.556 50.8695 19.5702 51.4226 18.509C52.3451 16.7375 52.8063 14.7496 52.8063 12.5475C52.8063 10.4004 52.3308 8.4371 51.3838 6.65539ZM33.0443 12.5475C33.0443 10.6168 33.7402 8.93916 35.1342 7.51461C35.1688 7.47787 35.2076 7.4493 35.2423 7.41257C36.6138 6.05945 38.2384 5.37778 40.1201 5.37778C42.112 5.37778 43.7896 6.0819 45.153 7.49216C46.5163 8.90243 47.1979 10.5862 47.1979 12.5475C47.1979 14.5088 46.5163 16.1946 45.153 17.6028C43.7896 19.0131 42.112 19.7172 40.1201 19.7172C38.1894 19.7172 36.5281 19.0049 35.1342 17.5804C35.128 17.5742 35.1239 17.5681 35.1178 17.562C33.7361 16.1395 33.0443 14.47 33.0443 12.5475Z" fill="#191919"/>
<path d="M19.3947 3.07973C17.4334 1.02658 14.9966 0 12.0862 0C8.74732 0 5.89821 1.21026 3.53893 3.63077C1.17964 6.0819 0 9.06978 0 12.5924C0 15.9925 1.18781 18.9335 3.56138 21.4152C5.93495 23.897 8.77793 25.1378 12.0862 25.1378C15.0272 25.1378 17.464 24.1419 19.3927 22.1499V24.7684H25.3664V0.414304H19.3947V3.07973ZM17.6702 17.6028C16.2762 19.0131 14.6149 19.7172 12.6842 19.7172C10.6923 19.7172 9.01468 19.0212 7.65135 17.6253C6.28803 16.2313 5.60637 14.5537 5.60637 12.5924C5.60637 10.6311 6.28803 8.94733 7.65135 7.53706C9.01468 6.12884 10.6923 5.42268 12.6842 5.42268C14.6149 5.42268 16.2762 6.13496 17.6702 7.55951C19.0641 8.98406 19.7621 10.6617 19.7621 12.5924C19.7621 14.5231 19.0641 16.1925 17.6702 17.6028Z" fill="#191919"/>
</svg>
