<svg width="36" height="26" viewBox="0 0 36 26" fill="none" xmlns="http://www.w3.org/2000/svg">
<path d="M6.41065 11.4186H33.5332C33.9946 11.4186 34.4371 11.5854 34.7634 11.8824C35.0896 12.1793 35.2729 12.582 35.2729 13.0019C35.2729 13.4219 35.0896 13.8246 34.7634 14.1215C34.4371 14.4185 33.9946 14.5853 33.5332 14.5853H6.41065L15.6313 22.9769C15.9141 23.2816 16.0601 23.6723 16.0402 24.0707C16.0202 24.4692 15.8358 24.8461 15.5237 25.1262C15.2116 25.4062 14.7948 25.5687 14.3568 25.5812C13.9187 25.5937 13.4916 25.4553 13.1608 25.1936L0.982668 14.1103C0.663901 13.8143 0.485352 13.4164 0.485352 13.0019C0.485352 12.5875 0.663901 12.1896 0.982668 11.8936L13.1608 0.810271C13.4916 0.548581 13.9187 0.410151 14.3568 0.422654C14.7948 0.435157 15.2116 0.597673 15.5237 0.877712C15.8358 1.15775 16.0202 1.53468 16.0402 1.93314C16.0601 2.3316 15.9141 2.72223 15.6313 3.02694L6.39325 11.4186H6.41065Z" fill="#191919"/>
</svg>
