<svg width="36" height="26" viewBox="0 0 36 26" fill="none" xmlns="http://www.w3.org/2000/svg">
<path d="M29.2705 14.5853L2.14798 14.5853C1.68657 14.5853 1.24406 14.4185 0.917796 14.1216C0.591533 13.8246 0.40824 13.4219 0.40824 13.002C0.40824 12.582 0.591532 12.1793 0.917796 11.8824C1.24406 11.5855 1.68657 11.4186 2.14798 11.4186L29.2705 11.4186L20.0499 3.02697C19.7671 2.72226 19.621 2.33163 19.641 1.93317C19.6609 1.53471 19.8454 1.15778 20.1575 0.877744C20.4696 0.597707 20.8863 0.435189 21.3244 0.422687C21.7624 0.410184 22.1895 0.548614 22.5203 0.810302L34.6985 11.8936C35.0172 12.1896 35.1958 12.5875 35.1958 13.002C35.1958 13.4164 35.0172 13.8143 34.6985 14.1103L22.5203 25.1936C22.1896 25.4553 21.7624 25.5938 21.3244 25.5813C20.8863 25.5688 20.4696 25.4062 20.1575 25.1262C19.8454 24.8462 19.6609 24.4692 19.641 24.0708C19.621 23.6723 19.7671 23.2817 20.0499 22.977L29.2879 14.5853L29.2705 14.5853Z" fill="#191919"/>
</svg>
