<svg width="305" height="10" viewBox="0 0 305 10" fill="none" xmlns="http://www.w3.org/2000/svg">
<path d="M9.62645 8.27309C9.93206 8.27309 10.2377 8.27309 10.5433 8.27309C9.93206 8.19277 9.16804 8.19277 8.0984 8.15261C10.5433 8.15261 13.141 8.19277 15.7387 8.23293C17.1139 8.27309 18.3364 8.31325 19.7116 8.35341C21.0869 8.39357 22.4621 8.43374 23.6846 8.4739C29.0328 8.6747 34.2282 8.91566 38.2011 9.19679C41.1044 9.23695 43.7021 9.35743 44.0077 9.51807C44.3133 9.67871 42.0212 9.7992 39.1179 9.7992C38.5067 9.7992 37.7427 9.7992 37.2843 9.7992C32.8529 9.95984 27.6575 10 21.8509 10C22.9205 9.95984 24.143 9.95984 25.2126 9.91968C23.5318 9.91968 21.8509 9.91968 20.0172 9.87952C20.17 9.83936 20.4756 9.83936 20.6285 9.7992C19.2532 9.83936 17.5723 9.7992 16.0443 9.75904C14.5162 9.71888 12.8354 9.67871 11.3073 9.59839C8.2512 9.47791 5.3479 9.27711 3.51423 9.07631C-0.305911 8.63454 1.37495 8.27309 7.18156 8.31325L9.62645 8.27309Z" fill="#7CEBDB"/>
<path d="M20.476 7.75226C17.1143 7.75226 13.9053 7.75226 10.5436 7.7121L9.93239 7.75226L10.238 7.5113C11.7661 7.7121 13.7525 7.83258 15.8918 7.99322C16.9615 8.07355 18.0311 8.11371 19.2535 8.19403C20.476 8.23419 21.5456 8.27435 22.7681 8.31451L24.4489 8.39483C25.213 8.43499 25.6714 8.51531 25.8242 8.55547C26.1298 8.67595 24.7545 8.75628 22.6153 8.71612L20.1704 8.67595C14.0581 8.59563 4.5842 8.27435 1.52809 7.75226C0.611252 7.59162 1.37528 7.5113 1.52809 7.39081C1.37528 7.23017 3.82017 7.19001 6.72348 7.31049C9.77959 7.39081 12.2245 7.59162 12.3773 7.75226C12.8357 7.75226 13.4469 7.75226 13.9053 7.79242C13.4469 7.75226 13.1413 7.7121 12.6829 7.67194C13.4469 7.83258 16.1974 7.95306 18.1839 8.11371C19.2535 8.15387 20.1704 8.19403 21.24 8.23419L19.4063 8.55547L17.8783 8.43499C18.0311 8.43499 18.1839 8.39483 18.1839 8.39483C15.1278 8.23419 12.3773 8.03338 9.16837 7.83258L5.04261 7.55146C3.97298 7.47114 4.12578 7.35065 5.34823 7.35065H7.18189C6.87628 7.35065 6.57067 7.35065 6.26506 7.35065C10.6964 7.43097 15.1278 7.5113 19.4063 7.59162C20.0176 7.59162 20.9344 7.63178 21.24 7.67194C21.3928 7.7121 21.0872 7.75226 20.476 7.75226Z" fill="#7CEBDB"/>
<path d="M5.65382 7.1875C4.88979 7.1875 4.27857 7.1875 3.20893 7.14734C3.05613 7.10718 2.90332 7.10718 2.90332 7.10718C3.20893 7.10718 3.82015 7.10718 4.27857 7.10718C5.1954 7.06702 5.65382 7.10718 5.65382 7.1875Z" fill="#7CEBDB"/>
<path d="M2.9037 7.10938C2.59809 7.10938 2.29248 7.10938 2.29248 7.10938C2.44529 7.10938 2.59809 7.10937 2.7509 7.06921C2.7509 7.06921 2.7509 7.06921 2.9037 7.10938C2.7509 7.06921 2.7509 7.06921 2.9037 7.10938Z" fill="#7CEBDB"/>
<path d="M185.659 6.7478C191.924 6.547 198.341 6.46668 204.606 6.30604C207.815 6.22572 210.872 6.18556 214.08 6.14539L223.554 6.02491C224.013 6.02491 224.318 6.02491 224.318 6.06507C224.318 6.06507 224.013 6.10523 223.554 6.10523C220.345 6.14539 217.289 6.18556 214.08 6.22572C211.024 6.26588 207.815 6.30604 204.759 6.38636C198.494 6.547 192.229 6.62732 185.811 6.82812C185.353 6.82812 185.047 6.82812 184.895 6.82812C184.895 6.78796 185.2 6.7478 185.659 6.7478Z" fill="#7CEBDB"/>
<path d="M280.398 4.495C280.093 4.45484 280.093 4.45483 280.398 4.45483C280.704 4.45483 281.162 4.45484 281.468 4.495C281.773 4.53516 281.621 4.53516 281.468 4.53516C281.162 4.53516 280.704 4.53516 280.398 4.495Z" fill="#7CEBDB"/>
<path d="M278.412 2.64938C276.578 2.56906 274.897 2.48874 273.369 2.40842C273.064 2.40842 272.758 2.36826 272.452 2.40842C272.605 2.36826 272.3 2.32809 271.536 2.28793C269.855 2.20761 268.327 2.12729 266.646 2.04697C264.965 1.96665 263.284 1.92649 261.756 1.88633C258.394 1.80601 255.033 1.68552 251.671 1.6052C249.99 1.56504 248.309 1.52488 246.475 1.48472C244.795 1.44456 243.114 1.44456 241.28 1.4044C237.766 1.36424 234.404 1.32408 230.889 1.28392C230.736 1.24376 230.584 1.24376 230.278 1.2036C229.361 1.12328 227.375 1.04295 225.388 1.08311L223.86 1.12328C217.901 1.24376 211.789 1.32408 205.829 1.44456C204.607 1.4044 203.231 1.4044 201.703 1.44456C196.508 1.4044 191.313 1.36424 185.964 1.4044C186.27 1.36424 186.423 1.32408 186.423 1.32408C186.27 1.24376 185.048 1.2036 183.672 1.24376L181.533 1.28392C183.52 1.2036 185.659 1.16344 187.645 1.08311C187.951 1.08311 188.257 1.08312 188.409 1.04295C190.701 1.00279 192.993 0.962633 195.286 0.922472C200.328 0.882311 205.371 0.801991 210.413 0.801991C215.456 0.801991 220.346 0.801991 225.235 0.842151C230.125 0.882312 235.015 0.962633 239.752 1.04295C242.197 1.08312 244.489 1.12328 246.934 1.16344L254.116 1.36424C254.421 1.36424 254.88 1.4044 255.185 1.36424C255.338 1.36424 255.338 1.32408 255.033 1.32408C251.976 1.2036 249.073 1.04295 246.17 0.922472C243.267 0.80199 240.363 0.681509 237.46 0.601187C231.653 0.400384 225.541 0.15942 218.665 0.119259C214.539 0.0790987 210.566 0.0389384 206.44 -0.00122225C202.315 -0.00122225 198.342 -0.00122225 194.216 -0.00122225C186.117 -0.00122225 178.019 0.0790989 169.614 0.15942C161.057 0.360223 152.806 0.520866 144.554 0.641348C140.428 0.721669 136.303 0.76183 132.177 0.842151C128.051 0.882312 123.773 0.962633 119.494 1.00279C96.2675 1.32408 74.5691 1.6052 52.4123 1.44456C48.2866 1.36424 44.3136 1.4044 41.2575 1.52488C38.2014 1.64536 35.9093 1.76585 35.4509 1.96665C34.6869 2.24777 36.5205 2.5289 39.8823 2.81002C39.271 2.81002 38.507 2.76986 37.8958 2.76986H34.6869C31.6308 2.76986 29.0331 2.81002 27.3522 2.9305L25.0601 3.09115C21.8512 3.41243 16.8086 3.53291 14.2109 3.8542L14.6693 4.01484L14.0581 4.055C12.0716 4.09516 10.6964 4.17548 10.0852 4.29597L10.6964 4.45661C11.002 4.65741 11.9188 4.89838 13.2941 5.13934C13.1413 5.21966 13.2941 5.29998 13.7525 5.3803C12.3773 5.50079 11.6132 5.66143 12.5301 5.94255C11.6132 5.98271 11.766 6.06303 12.6829 6.14336C12.9885 6.18352 13.4469 6.18352 13.7525 6.22368C13.4469 6.22368 13.4469 6.22368 12.6829 6.22368C11.9188 6.22368 11.3076 6.18352 11.3076 6.18352C9.32114 6.18352 9.32114 6.18352 7.33467 6.14336C5.65381 6.14336 4.58417 6.18352 4.58417 6.18352C2.5977 6.42448 2.5977 6.42448 2.7505 6.58512C2.90331 6.58512 2.90331 6.62528 3.05611 6.62528C1.52806 6.62528 1.52806 6.62528 1.06964 6.62528C0.611222 6.62528 0.305611 6.66544 0.305611 6.66544C0.305611 6.7056 0.305611 6.7056 0.152806 6.74576C0 6.74576 0 6.78593 0 6.78593C0.764028 6.90641 0.764028 6.90641 0.764028 6.90641C0.916834 6.94657 1.22244 6.94657 1.22244 6.94657C2.13928 6.98673 2.5977 7.02689 2.7505 7.02689C4.88978 6.90641 4.88978 6.90641 4.88978 6.90641C5.3482 6.98673 5.3482 6.98673 5.3482 6.98673C5.80661 6.90641 5.80661 6.90641 5.80661 6.90641C5.501 7.02689 5.501 7.02689 5.501 7.02689C6.57064 7.02689 6.57064 7.02689 6.57064 7.02689C5.3482 7.06705 5.3482 7.06705 5.3482 7.06705C7.79309 7.14737 7.79309 7.14737 8.70992 7.14737C9.77956 7.18753 10.5436 7.22769 10.6964 7.22769C10.5436 7.26785 10.5436 7.26785 10.5436 7.26785C13.1413 7.34817 13.1413 7.34817 15.739 7.38833C16.0446 7.38833 16.1974 7.38833 16.3502 7.34817C16.6558 7.38833 17.1142 7.4285 17.5726 7.4285L18.9479 7.46866C19.1007 7.46866 19.1007 7.46866 19.2535 7.50882C19.7119 7.54898 20.0175 7.54898 20.3231 7.58914C20.476 7.58914 20.6288 7.58914 20.6288 7.58914C21.3928 7.6293 22.4624 7.70962 25.5185 7.87026C26.2826 7.87026 27.0466 7.87026 27.8106 7.87026C27.6578 7.87026 27.3522 7.87026 27.1994 7.91042C26.741 7.91042 27.1994 7.99074 26.8938 7.99074C24.1433 7.99074 21.0872 8.03091 18.1839 7.95058C15.1278 7.87026 12.0716 7.8301 9.16834 7.74978C8.0987 7.70962 7.02906 7.70962 6.87625 7.74978C6.41784 7.78994 7.02906 7.87026 8.2515 7.91042C11.3076 8.11123 14.5165 8.31203 17.7255 8.47267C21.0872 8.63331 24.4489 8.71364 27.9634 8.79396C31.478 8.87428 34.8397 8.91444 38.2014 8.9546C41.5631 8.9546 44.9248 8.91444 48.1338 8.87428C51.4955 8.87428 54.8572 8.87428 58.0661 8.87428L57.6077 8.91444C58.5245 8.91444 59.2886 8.87428 60.2054 8.87428H60.511C59.8998 8.91444 59.1358 8.9546 58.5245 8.99476C58.0661 8.99476 57.6077 8.99476 57.1493 9.03492C53.3292 9.03492 49.509 9.07508 45.8417 9.11524C42.1743 9.1554 38.507 9.23572 34.6869 9.19556C30.5611 9.19556 27.0466 9.23572 23.2265 9.23572C22.3096 9.23572 21.5456 9.23572 21.6984 9.31605C21.8512 9.35621 22.768 9.43653 23.6849 9.43653C26.8938 9.51685 30.2555 9.59717 33.4644 9.67749C35.1453 9.71765 36.8262 9.75781 38.507 9.75781C40.1879 9.75781 41.8687 9.75781 43.3968 9.75781C46.6057 9.75781 49.8146 9.71765 52.8707 9.67749C55.9268 9.63733 58.6773 9.59717 61.275 9.43653C63.5671 9.43653 65.8592 9.39637 67.6929 9.31605H67.8457C67.3873 9.35621 66.9289 9.39637 66.4704 9.43653C68.1513 9.39637 69.0681 9.31605 70.749 9.27588L70.1378 9.43653C72.2771 9.39637 74.4163 9.39637 76.7084 9.35621C78.8477 9.35621 81.1398 9.27588 83.2791 9.27588C87.5576 9.19556 91.8362 9.11524 95.8091 8.9546C96.1147 8.9546 96.4203 8.9546 96.7259 8.91444C100.088 8.9546 103.449 8.99476 107.575 8.9546C106.2 8.99476 104.977 9.03492 103.602 9.07508C106.506 9.07508 109.409 9.07508 112.465 8.99476C120.869 8.83412 130.038 8.35219 134.316 7.91042C150.361 7.58914 166.405 7.18753 182.144 6.94657C182.908 6.94657 183.672 6.90641 183.825 6.82609C183.825 6.78593 183.367 6.74576 182.45 6.74576C170.989 6.82609 159.529 7.02689 147.763 7.26785C157.39 6.94657 167.169 6.62528 177.102 6.42448C178.324 6.38432 179.699 6.38432 180.922 6.34416C182.144 6.304 183.367 6.304 184.589 6.22368C197.272 5.98271 209.191 5.74175 222.027 5.78191C227.528 5.74175 232.57 5.82207 237.766 5.90239C240.363 5.94255 242.808 5.94255 245.406 5.98271C248.004 6.02287 250.601 6.10319 253.352 6.18352C257.172 6.26384 260.839 6.38432 264.507 6.46464C268.174 6.58512 271.688 6.7056 275.203 6.86625L280.551 7.06705C282.385 7.10721 284.066 7.18753 285.899 7.26785C289.414 7.4285 293.081 7.58914 296.748 7.74978C298.735 7.8301 300.569 7.8301 300.874 7.74978C301.18 7.66946 299.805 7.50882 297.818 7.38833C293.998 7.18753 290.178 6.98673 286.358 6.78593C284.524 6.66544 282.538 6.62528 280.551 6.54496L274.744 6.34416L268.938 6.14336C266.951 6.06303 265.118 5.98271 263.131 5.94255C259.158 5.86223 255.338 5.78191 251.365 5.70159C249.379 5.66143 247.392 5.62127 245.406 5.58111C243.419 5.58111 241.433 5.54095 239.446 5.54095C235.473 5.50078 231.5 5.50078 227.528 5.46062C223.555 5.46062 219.429 5.50078 215.303 5.54095C213.317 5.54095 211.177 5.58111 209.191 5.58111C207.204 5.62127 205.065 5.66143 202.926 5.70159C199.411 5.78191 195.897 5.82207 192.382 5.90239C192.382 5.90239 192.535 5.86223 192.382 5.86223C192.382 5.78191 192.077 5.74175 191.465 5.70159C195.438 5.62127 199.411 5.54095 203.384 5.42046C214.539 5.42046 225.694 5.3803 237.613 5.3803C245.711 5.29998 253.046 5.29998 260.686 5.25982C265.423 5.29998 270.16 5.54095 274.897 5.66143C279.634 5.82207 284.371 5.94255 289.108 6.18352C289.414 6.22368 289.872 6.22368 290.025 6.18352C290.178 6.18352 290.025 6.14336 289.567 6.10319C287.886 6.02287 286.358 5.90239 284.677 5.82207C282.996 5.74175 281.315 5.66143 279.634 5.62127C276.273 5.50079 272.911 5.34014 269.549 5.21966C270.619 5.1795 271.383 5.09918 271.23 5.01886C271.23 4.89838 270.313 4.81805 269.091 4.69757L273.828 4.81805C274.744 4.85821 275.509 4.81805 275.509 4.77789C275.509 4.73773 274.744 4.65741 273.828 4.65741C270.619 4.57709 267.41 4.49677 264.354 4.45661L254.727 4.37629L248.92 4.25581C247.087 4.21564 245.1 4.17548 243.114 4.17548C239.294 4.13532 235.473 4.13532 231.653 4.09516C232.723 4.01484 233.487 3.93452 233.945 3.8542C235.168 3.8542 236.39 3.8542 237.46 3.8542C259.158 4.17548 281.315 4.73773 303.319 5.70159C303.778 5.70159 304.083 5.70159 304.083 5.70159C304.083 5.66143 303.778 5.66143 303.319 5.62127C296.596 5.3803 290.025 5.09918 283.302 4.81805C283.607 4.81805 283.607 4.77789 283.302 4.77789C282.996 4.73773 282.538 4.73773 282.232 4.73773C281.926 4.73773 281.926 4.77789 282.232 4.77789C275.967 4.57709 269.855 4.41645 263.59 4.21564C257.325 4.09516 251.212 3.97468 245.1 3.81404L262.214 4.01484C265.118 4.01484 267.868 4.13532 270.772 4.17548L279.329 4.37629C280.551 4.41645 281.774 4.49677 282.996 4.53693C283.302 4.53693 283.76 4.53693 283.913 4.53693C284.066 4.53693 283.76 4.49677 283.454 4.45661L282.385 4.41645C284.524 4.45661 286.205 4.45661 286.205 4.29597C286.205 4.17548 284.371 3.97468 282.079 3.93452C276.12 3.77388 270.16 3.57307 264.048 3.45259L262.062 3.41243L260.075 3.33211C264.812 3.33211 269.396 3.45259 274.133 3.53291L281.162 3.6534L284.677 3.73372L288.191 3.8542C288.955 3.89436 289.719 3.89436 289.719 3.8542C289.719 3.81404 289.108 3.73372 288.344 3.73372C284.371 3.49275 280.245 3.41243 276.12 3.25179C271.994 3.13131 267.868 2.97067 263.742 2.85018C259.617 2.76986 255.491 2.68954 251.212 2.60922C249.073 2.56906 247.087 2.5289 244.947 2.48874L238.682 2.44858C235.932 2.36826 233.181 2.24777 230.431 2.16745C229.056 2.12729 227.68 2.08713 226.305 2.00681C224.93 1.96665 223.555 1.92649 222.027 1.88633C222.791 1.88633 223.402 1.88633 224.166 1.84617C228.75 1.80601 233.181 1.88633 237.46 1.92649C241.738 1.96665 246.017 2.04697 250.143 2.16745C254.269 2.28793 258.394 2.40842 262.673 2.5289C264.812 2.56906 266.951 2.64938 268.938 2.7297C271.077 2.81002 273.216 2.89034 275.356 2.97066C275.814 2.97066 276.12 2.97066 276.273 2.97066C276.273 2.9305 275.967 2.9305 275.661 2.89034C273.522 2.81002 271.383 2.7297 269.396 2.64938C267.257 2.56906 265.271 2.48874 263.284 2.40842C259.158 2.28793 255.033 2.16745 250.754 2.04697C248.92 2.00681 247.239 1.96665 245.559 1.92649C243.878 1.88633 242.044 1.88633 240.363 1.84617C237.001 1.80601 233.64 1.72569 230.278 1.64536C243.725 1.68552 256.713 2.00681 270.007 2.36826C270.619 2.40842 271.23 2.40842 271.536 2.36826C271.536 2.36826 271.688 2.40842 271.841 2.40842C273.522 2.5289 275.356 2.60922 277.189 2.68954C277.495 2.68954 277.953 2.7297 278.259 2.68954C279.023 2.68954 278.717 2.68954 278.412 2.64938ZM46.1473 7.34817C45.9945 7.34817 45.8417 7.34817 45.8417 7.38833C46.1473 7.38833 46.6057 7.34817 47.0641 7.34817C47.0641 7.34817 47.0641 7.34817 48.745 7.18753C48.5922 7.18753 47.3697 7.26785 46.1473 7.34817ZM25.6713 6.34416C25.0601 6.38432 24.7545 6.42448 24.7545 6.42448C25.0601 6.42448 25.3657 6.38432 25.6713 6.34416ZM156.931 6.78593C149.902 6.94657 143.026 7.18753 136.15 7.4285C137.831 7.38833 139.512 7.34817 141.192 7.34817C146.541 7.14737 151.736 6.94657 156.931 6.78593ZM32.0892 7.8301C33.9228 7.78994 35.4509 7.70962 36.8262 7.6293C38.0486 7.66946 39.271 7.70962 40.6463 7.70962C44.1608 7.70962 47.5225 7.74978 50.8843 7.70962C50.4258 7.74978 51.1899 7.74978 51.6483 7.78994C52.1067 7.78994 52.5651 7.78994 52.8707 7.8301C49.2034 7.8301 45.6889 7.87026 42.0215 7.87026C38.8126 7.91042 35.2981 7.78994 32.0892 7.8301ZM7.18186 6.86625C7.02906 6.86625 7.02906 6.86625 6.87625 6.86625C6.87625 6.86625 6.87625 6.86625 7.48747 6.98673C7.48747 6.98673 7.33467 6.90641 7.18186 6.86625ZM6.11222 6.66544C6.26503 6.66544 6.41784 6.66544 6.57064 6.66544C6.57064 6.62528 6.26503 6.62528 6.11222 6.66544ZM10.8492 6.7056C10.5436 6.7056 10.3908 6.74576 10.0852 6.74576C10.8492 6.7056 10.8492 6.7056 10.8492 6.7056ZM15.5862 4.13532L17.1142 4.65741L15.4334 4.13532H15.5862Z" fill="#7CEBDB"/>
</svg>
