<svg width="675" height="794" viewBox="0 0 675 794" fill="none" xmlns="http://www.w3.org/2000/svg">
<g clip-path="url(#clip0)">
<path d="M562.783 290.243C529.152 299.048 497.49 313.486 469.067 332.977C484.146 324.244 499.803 316.507 515.947 309.812C531.89 303.517 548.23 298.182 564.886 293.834C594.795 286.008 625.507 281.033 656.632 278.972C624.864 279.38 593.41 283.157 562.783 290.243Z" fill="#7D4AC4"/>
<path d="M354.017 444.152C357.499 439.807 361.495 436.05 364.997 432.068C368.5 428.086 372.104 424.119 375.642 420.631C379.181 417.143 382.62 413.307 386.011 409.747C389.402 406.187 392.997 402.939 396.348 399.553C399.698 396.168 403.114 392.92 406.494 389.796C409.874 386.671 413.162 383.431 416.51 380.38C423.439 374.567 429.845 368.268 436.836 362.927C407.824 383.474 381.754 407.865 359.265 435.503C357.448 438.282 355.512 441.25 354.017 444.152Z" fill="#7D4AC4"/>
<path d="M383.076 403.258C386.867 399.806 390.529 396.361 394.141 392.91C397.753 389.458 401.487 386.384 405.004 383.15C412.023 376.553 419.351 370.848 426.246 364.824C440.49 353.459 454.241 342.487 469.016 333.024C436.621 351.468 407.613 375.174 383.076 403.258Z" fill="#7D4AC4"/>
<path d="M719.874 237.153C747.511 240.576 774.971 246.086 802.021 253.637C774.828 245.536 747.105 239.9 719.188 236.799C693.714 233.952 668.166 233.665 642.919 235.942C646.379 235.84 649.868 235.999 653.357 236.158C656.846 236.317 660.361 236.789 663.858 236.846C667.356 236.903 671.215 236.008 675.462 235.657C679.71 235.306 684.227 235.404 689.147 235.277C694.066 235.149 699.027 235.131 704.176 235.628C709.324 236.124 714.555 236.555 719.874 237.153Z" fill="#7D4AC4"/>
<path d="M1134.03 641.98C1124.47 606.064 1110.72 571.21 1093.07 538.177C1076.2 506.195 1055.68 476.188 1031.95 448.811C988.417 393.425 933.382 348.275 871.136 316.885C813.637 288.257 751.105 273.158 688.443 272.772C658.699 272.725 629.136 275.135 600.047 279.978L594.009 280.95C592.006 281.362 589.999 281.824 587.996 282.236L575.791 284.806C571.683 285.615 567.717 286.88 563.593 287.892C559.469 288.904 555.419 289.953 551.352 291.204L539.164 295.089L533.046 297.028L527.053 299.294C523.042 300.785 519.031 302.276 515.017 303.818C511.002 305.36 507.14 307.207 503.191 308.887C487.629 315.761 472.559 323.632 458.066 332.455C451.107 337.105 444.069 341.487 437.478 346.319L427.792 353.62C426.231 354.866 424.669 356.112 423.108 357.357C421.547 358.603 420.013 359.827 418.567 361.218C396.69 379.299 377.651 400.597 362.023 424.469C365.49 420.611 369.231 417.151 372.769 413.664C376.307 410.176 379.648 406.609 383.215 403.382C378.524 408.74 374.426 414.335 370.307 419.568C366.188 424.801 362.788 430.315 359.431 435.604C309.611 496.653 278.313 571.487 269.03 651.76C259.747 732.034 272.843 814.589 306.857 890.22C309.534 895.822 312.221 900.988 314.903 905.922C317.584 910.855 320.723 915.519 323.438 920.046C324.908 922.338 326.273 924.667 327.771 926.938L332.412 933.821C335.55 938.485 338.484 943.454 342.025 948.509C355.451 969.217 370.673 988.727 387.496 1006.79C387.66 1006.66 387.663 1006.32 387.383 1005.69C456.571 1081.06 549.844 1128.81 648.62 1139.42C695.335 1145.33 742.262 1143.39 787.49 1133.67C790.81 1132.88 794.197 1132.33 797.622 1132.04C799.812 1131.79 802.024 1131.69 804.243 1131.74C808.571 1132.06 812.89 1131.81 817.09 1130.99C838.676 1126.84 859.751 1120.74 880.072 1112.78C901.983 1104.15 922.701 1092.93 941.819 1079.36L943.693 1081.71L948.377 1077.98L952.815 1074.44C955.554 1072.25 958.293 1070.06 960.649 1068.18C956.684 1075.71 951.889 1082.72 946.35 1089.09C943.403 1092.53 940.484 1095.95 937.875 1099.03C935.265 1102.11 932.621 1104.69 930.745 1106.95C927.044 1111.47 925.713 1114.24 929.409 1113.76C933.105 1113.28 942.051 1109.94 957.753 1100.4C954.714 1103.11 951.981 1105.53 949.358 1107.86L948.399 1108.63C938.456 1116.84 929.029 1125.66 920.166 1135.05C924.938 1132.09 929.96 1129.51 934.574 1126.3C939.188 1123.1 943.937 1120.11 948.621 1116.99C947.686 1119.31 947.455 1121.15 949.116 1121.77L947.057 1124.08L939.316 1129.21C938.533 1130.44 937.93 1131.78 937.526 1133.2C931.822 1138.14 924.925 1143.26 918.097 1148.18C911.268 1153.11 903.886 1157.62 897.679 1161.53C885.163 1169.05 876.961 1174.5 882.047 1174.53C888.753 1172.7 895.172 1170.05 901.165 1166.63C905.446 1164.36 910.053 1161.53 915.027 1158.61C917.505 1157.11 920.107 1155.65 922.698 1154.01L930.443 1148.82C931.964 1148.37 933.676 1147.76 935.393 1147.11C921.279 1155.99 922.217 1157.62 924.47 1158.19C925.643 1158.54 927.167 1158.65 927.361 1159.4C927.554 1160.15 926.416 1161.53 922.067 1164C898.406 1177.33 873.463 1188.34 847.553 1196.92C821.857 1205.24 795.402 1211.35 768.461 1215.17C742.784 1218.86 716.731 1220.38 690.567 1219.69C637.233 1218.6 583.946 1208.74 532.782 1190.5C528.039 1188.83 523.314 1187.23 518.702 1185.22C493.39 1175.33 468.946 1163.04 445.708 1148.52C422.627 1134.3 400.792 1118 380.492 1099.82C383.593 1101.57 386.758 1103.46 389.994 1105.44L377.529 1094.59L365.514 1083.24C357.337 1075.86 349.943 1067.66 342.157 1059.87C327.255 1043.61 312.557 1027.04 299.175 1009.43C282.305 987.981 267.161 965.242 253.9 941.447C240.572 917.285 229.144 892.176 219.726 866.367C210.116 839.98 202.838 812.898 197.979 785.454C192.822 757.32 190.113 728.918 189.882 700.579C189.261 579.044 230.589 463.467 306.739 373.78C275.634 412.012 250.023 454.627 230.605 500.466C228.348 505.653 226.1 510.833 223.862 516.005C221.813 521.248 219.889 526.533 217.918 531.761L215.135 539.678L212.572 547.704C210.951 553.033 209.233 558.296 207.745 563.567L212.846 547.486L215.409 539.46L218.339 531.615C220.186 526.438 222.114 521.213 224.123 515.939L230.605 500.466C232.687 495.434 235.138 490.583 237.561 485.754C239.984 480.924 242.342 475.957 244.913 471.201C250.325 461.802 255.3 452.137 261.239 443.173C264.123 438.641 266.841 433.956 269.836 429.62C272.832 425.283 275.909 420.881 278.955 416.552C280.442 414.369 281.951 412.215 283.46 410.061L288.224 403.839C291.386 399.655 294.516 395.544 297.716 391.519C321.721 362.053 347.52 334.16 374.975 307.989C379.336 305.946 383.573 303.659 387.665 301.139C407.87 287.394 429.071 275.141 451.116 264.468C472.511 253.805 494.062 245.249 513.705 236.886C513.373 235.965 534.139 230.076 526.616 230.144C529.214 229.354 531.811 228.563 534.458 227.78C537.106 226.997 539.838 226.431 542.555 225.735C548.008 224.422 553.524 222.964 559.147 221.752C570.474 219.598 582.024 217.218 593.751 215.789C605.477 214.36 617.214 213.112 628.768 211.916C640.394 211.374 651.784 210.309 662.776 210.32C667.563 210.251 672.326 210.153 677.098 209.953L691.422 209.87C701.013 209.528 710.63 209.782 720.319 209.789C760.35 213.738 800.036 222.523 838.524 235.954C857.939 242.674 877.012 250.519 895.645 259.447C904.92 264.104 914.241 268.819 923.381 273.869L937.043 281.72L943.89 285.75L950.491 289.978C1024.56 336.815 1087.17 400.712 1132.83 476.076C1157.12 517.38 1175.8 561.591 1188.33 607.436C1166.95 542.224 1134.22 480.846 1091.73 426.314C1072.76 399.513 1051.2 374.622 1027.4 352.036C1006.2 332.051 982.882 314.552 957.919 299.906L942.105 290.593C936.779 287.626 931.409 284.885 926.006 281.934C989.715 318.675 1046.11 367.733 1091.77 426.139C1115.1 459.039 1135.03 494.179 1151.2 530.961L1150.07 528.871C1135.99 500.663 1119.63 473.584 1101.18 447.926C1085.37 423.579 1067.44 400.652 1047.61 379.443C1042.93 374.252 1037.85 369.571 1033.06 364.751L1025.8 357.728L1018.32 351.164C1013.31 346.853 1008.45 342.563 1003.47 338.616C998.478 334.668 993.437 331.047 988.497 327.441C983.558 323.834 978.537 320.577 973.656 317.493C968.775 314.41 963.555 310.79 958.398 307.641L942.809 298.386L956.97 307.594C961.727 310.634 966.194 314.096 970.805 317.347C975.417 320.599 980.083 323.806 984.439 327.356L997.656 338.077C1002.15 341.517 1006.43 345.314 1010.6 348.966L1023.32 360.131L1035.49 371.836C1039.58 375.734 1043.61 379.597 1047.45 383.794C1066.93 403.854 1084.89 425.367 1101.16 448.129C1105.91 455.492 1110.74 462.84 1115.03 470.574C1119.32 478.308 1123.98 485.838 1127.81 493.609L1124.56 489.084C1121.73 484.744 1118.49 480.681 1114.88 476.96C1110.99 472.682 1106.85 468.648 1102.47 464.886C1094.33 458.511 1088.73 456.432 1093.69 466.526C1110.17 492.291 1124.63 519.249 1136.94 547.135C1148.97 574.445 1158.84 602.578 1166.45 631.256C1169.61 644.441 1172.7 656.791 1174.6 667.995C1176.5 679.2 1178.09 689.229 1179.32 697.457C1180.55 705.684 1180.94 712.403 1181.43 716.95L1182.08 722.317C1182.16 723.537 1182.18 724.132 1182.11 724.147C1181.7 725.042 1181.04 722.813 1180.14 718.26C1179.72 715.987 1179.25 713.09 1178.8 709.836C1178.36 706.583 1177.61 702.72 1176.87 698.421C1175.33 690.15 1173.75 680.02 1171.24 669.398C1169.99 664.076 1168.97 658.528 1167.55 652.974L1163.07 636.131C1150.95 590.879 1130.88 548.413 1131.76 551.934C1135.74 562.045 1139.03 572.287 1142.36 582.588C1138.03 573.227 1134.1 563.973 1129.51 555.862C1120.78 535.818 1107.92 509.528 1099.22 497.619C1084.06 476.871 1068.37 454.735 1050.54 433.07C1032.59 410.833 1012.39 390.528 990.305 372.52C975.06 360.59 959.161 349.576 942.695 339.539C938.371 336.818 933.816 334.424 929.351 331.862C924.887 329.301 920.435 326.587 915.688 324.346C906.362 319.682 897.081 314.792 887.448 310.753C887.018 311.619 882.353 309.312 878.448 307.396C874.543 305.48 871.404 304.186 874.009 306.665L860.701 300.099L853.973 296.78L847.137 293.832L833.605 288.11C829.096 286.391 824.666 284.941 820.365 283.483C816.063 282.026 812.038 280.633 808.006 279.625C803.974 278.617 800.287 277.761 796.904 276.948C793.746 276.259 790.564 275.74 787.37 275.394C784.862 275.162 782.351 275.134 779.86 275.309C778.959 275.079 778.054 274.899 777.148 274.72C774.574 274.021 770.824 273.31 766.812 272.666C739.543 265.46 711.639 261.997 683.866 262.373C657.688 262.718 631.716 265.381 606.247 270.331L592.139 272.426L578.053 275.168C575.688 275.631 573.322 276.094 570.934 276.528L563.864 278.23L549.575 281.561C555.858 280.108 563.733 278.572 571.616 276.934C579.5 275.296 587.41 274.253 593.775 272.735L606.247 270.331C630.141 266.894 654.334 265.149 678.652 265.109C702.548 265.262 726.5 267.291 750.293 271.178C754.206 271.474 760.615 271.866 766.467 272.514L776.621 275.52C777.573 275.33 778.54 275.209 779.515 275.157C803.044 280.272 826.186 287.516 848.653 296.8C851.529 297.876 854.323 299.017 857.053 300.304L865.261 303.961L873.372 307.553C876.006 308.774 878.576 310.141 881.155 311.407L896.145 318.957L910.457 326.668C944.689 346.557 976.116 371.291 1003.73 400.073C1017.78 414.575 1030.97 429.916 1043.2 446.003C1055.16 462.071 1066.22 478.782 1076.32 496.052C1065.66 479.66 1054.05 463.891 1041.56 448.833C1038.55 445.062 1035.18 441.575 1032.03 437.965C1028.88 434.354 1025.79 430.649 1022.36 427.308L1012.38 417.044L1007.39 411.964L1002.19 407.137C1018.78 423.21 1034.24 440.431 1048.46 458.66C1055.54 467.252 1061.91 476.696 1068.33 485.53C1071.42 490.135 1074.45 494.887 1077.39 499.42L1081.93 506.34L1086.09 513.414C1089.17 519.458 1092.52 525.182 1095.31 531.263C1098.1 537.344 1101.4 543.831 1104.26 550.232L1112.39 569.522L1105.37 551.392C1103.03 545.375 1100.17 539.541 1097.71 533.764C1100.68 539.561 1103.96 545.249 1106.72 551.12L1115.04 568.739C1120.08 580.67 1125.28 592.47 1129.58 604.607C1141.3 638.251 1149.31 672.917 1153.44 707.948C1157.6 743.488 1157.84 779.166 1154.17 814.32C1146.8 885.197 1123.13 952.444 1085.05 1010.75C1085.47 1007.75 1086.13 1004.47 1086.92 1000.9C1103.73 973.073 1117.34 943.267 1127.5 912.03C1136.75 883.765 1142.24 854.187 1143.82 824.049C1142.35 833.438 1141.25 842.34 1139.48 850.582L1137.07 862.668C1136.37 866.687 1135.29 870.547 1134.36 874.326L1131.59 886.029C1130.62 889.932 1129.41 893.799 1128.28 897.783C1127.15 901.766 1125.79 905.896 1124.58 909.996C1123.36 914.096 1121.61 918.248 1120.07 922.559C1119.56 922.306 1118.69 922.337 1119.4 919.299C1111.71 944.132 1101.47 967.956 1088.84 990.394C1090.71 981.498 1093.43 972.157 1095.12 962.36C1097.19 955.963 1100.6 948.494 1103.6 939.784L1108.67 926.53C1110.21 921.884 1111.73 917.159 1113.28 912.411C1114.16 909.86 1115.08 907.366 1115.86 904.8L1118.14 897.094C1119.64 891.955 1121.31 886.917 1122.61 881.749C1125.14 871.427 1127.83 861.207 1129.7 850.793C1131.57 840.379 1133.25 830.016 1134.86 819.616C1135.5 814.355 1136.01 809.204 1136.6 803.986L1137.38 796.146L1137.84 788.285C1139.18 767.304 1139.07 746.171 1137.49 725.041C1135.83 703.762 1132.72 682.543 1128.2 661.534C1120.97 623.806 1109.4 586.827 1093.74 551.368C1078.02 516.3 1058.3 483.041 1035 452.305C1080.7 508.343 1114.48 573.035 1134.03 641.98ZM837.816 1158.93C834.85 1160.16 831.806 1161.4 828.758 1162.69C825.71 1163.99 822.509 1164.97 819.372 1166.1L822.478 1165.95C825.373 1165.17 828.187 1164.15 830.889 1162.89C833.272 1161.7 835.585 1160.38 837.816 1158.93ZM692.1 1179.31C716.837 1180.85 741.509 1179.52 765.628 1175.32C792.555 1170.67 818.821 1163.34 844.053 1153.43C844.14 1153.31 844.2 1153.18 844.23 1153.03C844.26 1152.88 844.258 1152.73 844.227 1152.58C820.728 1160.62 796.628 1167 772.094 1171.69C745.854 1176.73 719.077 1179.28 692.1 1179.31ZM528.771 1120.69L529.606 1121.4L529.667 1120.97L528.771 1120.69ZM297.841 465.616C284.946 490.856 273.694 516.989 264.154 543.86C253.697 573.592 246.442 604.539 242.508 636.183C242.152 638.603 241.805 640.921 241.574 643.384C241.343 645.847 241.314 648.339 241.211 650.794C241.005 655.706 240.856 660.857 240.951 666.145C241.046 671.433 241.253 676.918 241.232 682.678C241.211 688.439 241.678 694.475 241.391 700.97C241.331 709.041 242.178 716.34 242.636 723.095C243.095 729.85 244.101 736.167 244.88 742.144L246.106 751.041L247.721 759.863C248.843 765.709 249.645 771.714 251.134 778.075C250.494 771.654 250.629 765.138 250.421 758.753C252.382 777.872 256.388 796.834 262.367 815.301L266.546 828.012L268.586 834.502L270.925 841.085C272.47 845.549 274.001 850.166 275.512 855.037C277.023 859.908 278.906 864.909 280.662 870.201C281.555 869.915 285.502 875.311 288.107 881.16C301.085 910.348 315.013 939.491 330.773 959.861C349.084 986.123 369.728 1010.76 388.953 1027.61C392.251 1030.71 395.775 1033.55 399.493 1036.1C404.163 1039.25 409.383 1042.87 414.348 1046.79C420.1 1051.7 426.18 1056.34 432.176 1061.38C438.172 1066.42 444.529 1070.51 450.637 1075.14L449.583 1073.37C444.66 1069.56 439.71 1065.77 434.627 1062.04C429.544 1058.31 424.807 1054.11 419.686 1050.22C415.877 1047.47 412.343 1044.17 408.536 1041.08C404.729 1038 400.879 1034.8 397.142 1031.18C389.817 1024.31 382.161 1017.41 375.175 1009.83C368.189 1002.26 361.308 994.646 354.661 986.99C351.491 983.016 348.39 979.129 345.288 975.243C342.187 971.356 339.179 967.585 336.6 963.567C282.905 887.648 251.716 798.576 246.952 707.546C246.857 702.875 246.576 697.972 246.287 693.171L245.917 685.966L245.832 678.723L245.684 664.267L246.754 649.932C248.675 619.654 254.035 589.893 262.728 561.232C270.978 532.86 281.422 507.912 287.507 489.242C288.657 486.189 290.671 481.971 292.812 477.462C294.78 473.66 296.46 469.701 297.841 465.616ZM308.6 378.752C285.157 408.518 264.763 440.69 247.704 474.812C231.516 507.98 218.525 542.79 208.902 578.783C204.282 597.359 200.982 616.316 199.025 635.512C196.827 658.612 196.459 681.954 197.923 705.319C199.079 723.282 201.994 741.184 206.626 758.759C210.286 770.65 213.441 775.11 215.468 767.986C213.234 762.721 211.403 757.308 209.994 751.799C208.472 745.228 206.97 737.502 205.618 728.897C202.975 708.497 202.104 688.002 203.013 667.648C203.944 643.059 207.029 618.723 212.233 594.924C217.683 569.955 225.063 545.561 234.306 521.96C243.087 500.238 253.224 479.166 264.658 458.864C267.321 454.223 270.095 449.778 272.705 445.464C275.315 441.15 277.65 436.772 280.439 433.075C283.227 429.378 285.477 425.399 287.845 421.849C289.017 420.059 290.134 418.313 291.224 416.589L294.666 411.801C299.072 405.58 302.761 399.978 305.837 395.292C308.43 391.748 310.767 388.012 312.831 384.111C315.72 378.293 314.723 376.145 308.6 378.752ZM856.099 248.372C825.51 237.152 794.3 228.076 762.699 221.213C794.455 227.252 825.733 236.347 856.099 248.372ZM556.603 257.724C561.805 256.042 567.054 254.417 572.476 253.177C577.897 251.937 583.262 250.457 588.757 249.253C599.772 247.157 610.897 244.974 622.271 243.779C627.934 243.01 633.644 242.3 639.393 242.032C645.142 241.765 650.921 241.142 656.716 240.932L674.151 240.645C679.965 240.516 685.737 240.895 691.673 241.143C715.057 242.085 738.433 244.876 761.59 249.489C784.426 253.87 807.018 259.86 829.198 267.416C863.793 279.547 896.872 296.266 927.541 317.12C956.631 337.082 984.778 358.481 1011.87 381.232L1013.86 379.171C1011.91 377.687 1010.07 376.114 1008.05 374.695C998.769 365.767 990.841 357.234 982.538 349.807C978.433 346.01 974.529 342.242 970.512 338.611L958.086 328.208L961.305 330.387L956.024 326.578C950.512 321.861 944.467 317.713 938.085 313.311C934.867 311.131 931.731 308.887 928.403 306.795C925.075 304.703 921.284 302.648 917.548 300.55C913.811 298.452 910.563 296.629 906.934 294.778L896.127 289.492C886.162 283.914 875.707 279.296 865.38 274.387C860.159 272.002 854.858 269.965 849.597 267.754L841.709 264.554C839.085 263.514 836.376 262.59 833.601 261.529L817.559 255.863L801.324 250.967C795.943 249.28 790.504 247.97 785.066 246.661C779.627 245.351 774.225 243.918 768.656 242.95C757.782 240.897 746.996 238.728 736.179 237.532C725.362 236.336 714.716 235.242 704.214 234.554C683.675 233.391 663.168 233.88 642.887 236.017C630.725 236.844 619.204 238.868 607.958 240.673C596.711 242.479 585.824 245.184 575.156 248.333C564.487 251.481 553.962 254.752 543.281 258.053C532.934 261.941 521.943 265.584 511.212 270.396L521.883 266.914C525.618 265.975 529.805 264.818 533.859 263.719C537.914 262.62 541.992 261.55 545.84 260.473C549.688 259.397 553.203 258.633 556.603 257.724Z" fill="#7D4AC4"/>
<path d="M1091.57 521C1106.81 547.708 1119.54 575.705 1129.58 604.6C1137.85 626.954 1144.59 649.781 1149.75 672.913C1161.94 732.202 1162.47 792.703 1151.3 850.882C1139.69 911.387 1117.05 968.587 1084.51 1019.62C1085.02 1024.25 1087.22 1026.39 1092.12 1024.56C1129.34 970.508 1153.95 908.192 1164.24 841.982C1174.47 776.069 1172.34 708.109 1157.94 641.598L1156.94 638.55C1147.58 610.799 1135.76 574.75 1118.16 538.759C1101.36 503.329 1079.98 470.125 1054.61 440.071C1030.83 413.23 1004.73 388.563 976.68 366.391C948.982 344.468 919.019 325.772 887.403 310.688C909.164 322.769 930.062 336.487 949.91 351.72C969.571 366.64 988.127 383.039 1005.41 400.767L1011.91 407.348C1014.03 409.602 1016.03 411.944 1018.12 414.22C1022.18 418.86 1026.43 423.347 1030.4 428.155L1041.97 442.657C1045.81 447.472 1049.35 452.578 1053.05 457.553C1067.63 477.627 1080.52 498.857 1091.57 521Z" fill="#7D4AC4"/>
<path d="M436.792 362.812C455.995 349.035 476.466 337.086 497.964 327.105C526.788 313.387 557.181 302.984 588.605 296.081C618.808 289.319 649.82 285.899 681.112 285.881C634.683 283.885 588.639 289.276 544.66 301.855C524.032 308.227 504.319 316.997 485.899 327.997C468.582 338.229 452.163 349.87 436.792 362.812Z" fill="#7D4AC4"/>
<path d="M732.291 288.953L719.37 287.537L706.523 286.775C698.023 286.01 689.473 286.138 681.123 286.012C743.637 289.271 805.527 305.601 862.888 333.973C920.249 362.344 971.834 402.141 1014.39 450.85C1053.35 495.78 1084.02 547.261 1104.82 602.616C1107.05 609.004 1109.51 615.297 1111.43 621.692L1117.14 640.872C1104.43 587.254 1082.54 535.817 1052.5 488.945C1022.94 443.052 985.733 402.479 942.672 369.173C901.475 337.307 855.354 312.906 806.516 297.137C760.996 282.622 713.736 276.302 666.95 278.475C663.692 278.606 660.045 278.81 656.58 278.964C741.434 277.954 826.138 301.838 900.514 347.745C848.474 316.639 791.161 296.609 732.291 288.953Z" fill="#7D4AC4"/>
<path d="M374.895 307.769C471.504 231.818 594.71 196.817 720.336 209.633C726.376 209.562 732.303 209.911 738.317 210.144C717.909 206.525 697.363 204.254 676.811 203.348C656.515 202.596 636.267 203.196 616.197 205.143C577.635 208.797 540.081 217.986 504.647 232.437C491.052 237.873 472.041 248.152 459.17 254.102C399.923 281.974 348.009 322.781 306.95 373.755C326.812 350.2 348.868 328.661 372.841 309.408L374.895 307.769Z" fill="#7D4AC4"/>
<path d="M494.015 279.178C495.275 278.173 494.918 277.556 493.239 277.756C491.39 278.023 489.656 278.74 488.182 279.845C487.114 280.698 487.486 281.445 488.958 281.267C490.807 281 492.541 280.284 494.015 279.178Z" fill="#7CEBDB"/>
<path d="M487.501 227.412C496.5 223.127 504.878 218.626 512.391 214.388C513.79 213.664 515.307 213.175 516.884 212.939C515.979 212.142 517.483 210.657 520.759 209.087C554.94 193.475 591.075 182.174 628.392 175.424C667.88 168.404 708.324 166.272 748.854 169.075C749.838 168.105 751.089 167.453 752.462 167.193C756.505 166.163 760.709 165.752 764.938 165.973C770.572 166.207 776.2 166.994 781.743 168.324L790.645 170.716C826.176 179.33 860.86 191.91 894.047 208.218C902.337 210.482 910.43 213.566 918.205 217.425C948.742 229.36 977.982 244.828 1005.32 263.508C1004.04 261.629 1003.55 260.17 1004.1 259.45C1005.82 258.073 1013 261.841 1020.15 267.818C1023.87 270.686 1027.42 273.787 1030.86 276.925C1026.13 272.112 1021.05 267.663 1015.98 263.214C1010.91 258.766 1005.98 254.106 1000.67 249.985C999.227 248.902 997.839 247.744 996.513 246.514C984.535 237.563 972.131 229.238 959.352 221.573C904.492 189.459 844.265 168.891 782.494 161.174C753.167 157.388 723.708 156.356 694.497 158.092C666.169 159.839 638.179 164.066 610.837 170.728C608.825 171.325 606.702 171.539 604.572 171.36C603.422 171.043 603.459 170.302 605.377 169.673C638.431 158.552 672.592 150.585 707.432 145.873C746.082 140.817 785.592 141.765 824.622 148.685C850.449 153.45 875.997 160.134 901.056 168.683C952.806 186.518 1001.71 212.867 1045.74 246.634C1056.7 255.595 1068.07 264.279 1078.38 274.331L1094.22 289.18L1098.12 292.949L1101.8 296.892L1109.15 304.801C1146.52 349.198 1178.19 398.09 1203.33 450.202C1228.3 501.633 1246.76 555.758 1258.24 611.225L1263.68 640.118C1265.33 649.717 1266.34 659.406 1267.6 669.028C1268.2 673.822 1268.87 678.651 1269.34 683.452L1270.38 697.906L1271.32 712.345C1271.73 717.241 1271.91 721.846 1271.84 726.648L1272.04 755.444C1271.96 765.004 1271.26 774.631 1270.77 784.185C1270.59 789.075 1270.28 793.739 1269.93 798.527L1268.3 812.835L1266.85 827.142C1266.21 831.967 1265.72 836.683 1264.74 841.356L1259.87 868.972C1258.17 878.071 1255.7 887.165 1253.58 896.258C1252.44 900.779 1251.47 905.35 1250.2 909.828L1246.24 923.189C1243.51 932.065 1241.14 941.122 1237.89 949.746L1228.45 975.89C1224.9 984.369 1221.35 992.898 1217.75 1001.42C1214.15 1009.94 1210.06 1018.14 1206.12 1026.51L1200.07 1038.93C1197.98 1043.06 1195.78 1047.1 1193.55 1051.11C1190.4 1057.26 1187.15 1063.25 1183.8 1069.05C1180.36 1074.74 1176.66 1080.06 1173.04 1085.18C1169.42 1090.3 1165.8 1095.09 1162.1 1099.56C1158.4 1104.03 1154.58 1107.84 1150.87 1111.51C1136.7 1126.05 1123.48 1133.36 1116.31 1131.96C1111.97 1131.01 1110.16 1126.95 1110.51 1120.64C1111.61 1111.91 1113.91 1103.45 1117.34 1095.49C1114.85 1098.95 1112.59 1102.46 1109.92 1105.69L1096.68 1120.57C1090.94 1127 1084.64 1132.9 1077.85 1138.2C1072.81 1142.44 1067.23 1146 1061.24 1148.8L1047.99 1155.05C1043.01 1156.56 1037.76 1158.7 1032.19 1160.87C1026.61 1163.04 1020.81 1165.21 1015.09 1167.54C1005.13 1171.87 994.544 1174.78 983.64 1176.16L983.183 1170.92L979.819 1172.32C975.585 1174.61 971.071 1176.37 966.369 1177.55C963.286 1178.31 960.015 1178.24 956.876 1177.34L954.39 1172.82C952.373 1166.98 952.81 1159.6 955.692 1149.9C954.838 1149.03 954.206 1147.96 953.855 1146.81C953.504 1145.65 953.447 1144.44 953.687 1143.28C944.964 1144.26 938.985 1142.39 939.082 1134.19C935.027 1135.91 934.19 1133.68 936.87 1129.45C938.008 1127.83 939.281 1126.3 940.676 1124.9C938.096 1125.48 937.34 1125.66 934.115 1126.62L928.835 1130.45C919.937 1136.89 919.891 1136.83 912.125 1142.27C908.113 1144.59 903.77 1146.31 899.221 1147.39C886.574 1145.75 886.657 1145.69 885.322 1141.77C885.496 1141.11 885.721 1140.47 885.993 1139.86C879.635 1143.13 879.182 1143.34 877.476 1144.18C876.324 1144.56 875.138 1144.84 873.929 1145.02C872.441 1143.55 872.441 1143.55 871.052 1143.66C870.574 1143.4 870.165 1143.02 869.865 1142.57C871.548 1138.33 871.521 1138.35 871.214 1137.74C871.474 1136.96 871.811 1136.22 872.218 1135.52C875.358 1132.2 876.62 1130.86 877.071 1130.36L888.153 1128.69L888.64 1125.92L891.948 1126.42L889.546 1125.49L894.172 1123.36L888.628 1125.46C893.107 1122.4 897.411 1119.09 901.523 1115.55C904.034 1113.63 906.39 1111.51 908.571 1109.21C908.148 1109.09 907.754 1108.87 907.424 1108.56C917.148 1100.8 917.148 1100.8 926.598 1093.26C927.807 1092.87 928.797 1092.65 929.713 1092.39C930.513 1090.53 931.733 1088.91 933.28 1087.65L938.08 1083.44L938.793 1082.25C940.02 1080.42 940.838 1079.2 941.833 1077.69L942.423 1076.74C944.514 1073.75 947.373 1068.9 954.768 1056.59C957.486 1054.04 959.991 1051.9 962.545 1049.49C961.669 1050.18 960.736 1050.64 959.826 1051.13C957.978 1052.13 957.689 1049.47 956.844 1050.09C936.422 1066.86 915.154 1085.5 892.587 1101.94C888.929 1105.33 884.587 1107.42 882.934 1106.69C881.282 1105.97 883.14 1102.4 886.783 1098.88C904.543 1076.64 924.799 1053.59 944.851 1030.23C964.903 1006.87 984.936 983.436 1002.84 961.268C1011.19 948.914 1019.28 936.24 1026.42 922.944L1024.59 924.409C1026.75 921.113 1028.92 917.868 1031.01 914.536L1031.59 913.409C1029.39 915.593 1026.86 917.655 1024.57 919.723C1023.36 921.353 1022.14 923.034 1020.93 924.715C1004.22 955.235 982.758 978.908 959.938 1002.96C956.83 1006.2 953.886 1009.3 950.757 1012.18L941.255 1020.33C938.051 1022.89 935.035 1025.63 931.807 1028.15C928.579 1030.68 925.343 1033.31 922.056 1035.94C918.768 1038.56 916.068 1040.29 915.397 1038.83C914.726 1037.37 916.635 1033.8 919.52 1030.79C937.249 1009.52 955.214 986.359 971.964 963.975C988.713 941.592 1003.93 919.763 1018.56 902.302C1022.35 893.656 1026.89 885.406 1032.15 877.644L1032.48 877.382L1027.56 882.065C1030.82 875.243 1034.5 872.394 1037.91 866.262C1036.38 866.484 1034.76 866.872 1033.21 867.116C1035.25 862.876 1036.77 858.434 1038.4 853.955L1043.27 840.57C1044.8 836.026 1045.94 831.324 1047.3 826.678C1048.66 822.033 1050.06 817.446 1051.22 812.772C1052.38 808.099 1053.38 803.454 1054.53 798.832C1055.69 794.209 1057.04 789.665 1057.85 785.174C1058.66 780.683 1059.76 776.336 1060.81 772.033C1061.42 769.881 1061.91 767.788 1062.58 765.593C1063.24 763.397 1063.58 761.232 1064.06 759.138C1064.23 757.721 1064.46 756.442 1064.68 755.134C1063.71 747.407 1063.27 739.78 1062.03 731.705C1061.55 727.674 1061.12 723.6 1060.84 719.365C1060.7 717.288 1060.58 715.16 1060.5 712.988L1059.98 706.378C1059.98 712.452 1059.29 718.323 1058.79 724.324C1058.42 721.056 1058.08 717.817 1057.76 714.556C1057.45 711.295 1056.98 707.962 1056.54 704.759C1055.76 698.165 1055.29 691.511 1054.95 684.618C1054.52 679.926 1054.18 675.169 1053.94 670.375C1053.7 665.581 1053.74 660.75 1053.25 655.971C1052.75 651.192 1052.64 646.441 1052.5 641.713C1052.35 636.984 1052.36 632.327 1052.02 627.853C1051.44 618.817 1051.78 610.194 1051.83 602.508C1051.72 595.648 1052.29 588.832 1053.53 582.163C1042.68 546.232 1027.34 511.62 1007.91 479.192C989.291 448.284 965.973 420.388 938.876 396.607C935.959 394.188 934.192 391.467 934.482 390.145C934.771 388.822 937.476 389.796 940.324 392.129C943.171 394.462 945.554 395.931 947.846 398.185L955.026 404.656C959.998 408.853 964.738 413.33 969.22 418.062L982.793 432.488L995.336 448.208C999.576 453.514 1003.55 459.024 1007.25 464.715L1013.07 473.129C1015.2 475.797 1016.64 479.012 1018.47 481.921C1021.93 487.892 1025.59 493.76 1028.97 499.796L1038.43 518.452L1031.72 502.296L1030.04 498.225C1029.47 496.882 1028.78 495.627 1028.15 494.328L1024.3 486.477C1021.64 481.289 1019.31 475.889 1016.35 470.891L1007.56 455.779C1006.08 453.305 1004.75 450.621 1003.08 448.3L998.13 441.09C994.821 436.325 991.653 431.4 988.211 426.693L977.334 413.06C975.529 410.798 973.7 408.507 971.895 406.244L965.9 399.967C961.641 395.865 957.472 391.596 953.131 387.559C948.701 383.727 944.5 379.626 940.555 375.282C918.318 356.072 893.878 339.719 867.844 326.631C841.31 313.213 813.208 303.656 784.414 298.258C760.284 293.671 735.891 291.565 711.615 291.974C687.472 292.389 663.553 295.149 640.185 300.216C631.531 301.899 623.066 304.381 614.588 306.398C606.111 308.416 597.946 311.275 589.805 314.163C581.664 317.051 573.643 320.033 565.516 323.052C557.39 326.071 549.646 329.401 541.826 333.03C526.07 339.858 510.603 347.499 495.024 355.562C479.446 363.625 463.894 372.284 447.978 381.328C444.254 383.749 440.201 385.642 435.926 386.957C432.354 388.098 429.45 388.279 428.08 387.236C425.409 385.237 429.928 378.878 438.343 373.635C454.486 362.796 470.788 352.494 487.585 343.317C504.381 334.14 521.258 325.231 538.795 317.599C556.024 309.944 573.711 303.28 591.773 297.639C609.736 292.097 628.076 287.688 646.693 284.437C665.249 281.353 684.062 279.57 703.001 279.099C722.031 278.849 741.134 280.08 760.141 282.782C779.372 285.537 798.428 289.928 817.105 295.91C835.975 301.842 854.361 309.499 872.028 318.783C887.113 326.594 901.683 335.466 915.625 345.33C915.63 344.881 915.745 344.446 915.96 344.065C916.842 342.697 919.047 342.314 921.883 342.947C906.081 331.156 889.537 320.466 872.374 310.959C846.953 300.303 820.733 292.028 794.059 286.243C766.571 280.385 738.823 276.434 711.011 274.417C701.251 273.423 691.676 273.277 682.185 272.733C672.694 272.188 663.231 272.238 653.897 272.565C644.564 272.891 635.258 273.196 625.92 273.573C616.583 273.951 607.314 275.032 597.974 276.361C551.822 289.149 507.584 307.387 466.14 330.711C464.865 331.674 463.302 332.191 461.67 332.189C460.742 331.98 461.414 330.969 463.041 329.861C491.419 311.063 521.684 295.197 553.412 282.486C547.646 282.339 543.524 280.881 543.056 278.216C542.588 275.551 545.617 271.425 551.382 267.918C543.635 270.064 536.117 272.834 528.427 275.22C523.742 276.822 519.673 277.173 519.251 275.801C518.829 274.429 522.057 271.901 526.539 270.27C557.568 259.476 589.63 251.526 622.352 246.514C641.699 242.845 661.311 240.37 681.083 239.1C700.908 238.059 720.852 238.337 740.787 239.93C736.425 238.372 732.498 235.664 729.426 232.096L719.92 231.42L710.509 231.144C652.911 233.156 596.455 244.149 543.115 263.738C488.952 283.763 437.058 309.021 388.12 339.179C386.205 340.374 384.318 340.931 383.906 340.358C383.493 339.785 384.705 338.438 386.479 337.403C416.337 319.218 447.178 302.643 478.882 287.742C477.433 287.948 476.865 287.405 478.078 286.341C479.544 285.219 481.248 284.442 483.075 284.063C484.731 283.834 484.901 284.553 483.879 285.464C513.156 271.922 543.42 260.463 574.461 251.164C605.221 241.851 636.879 235.335 669.072 231.689C639.067 233.638 609.413 238.118 580.415 245.084C551.353 252.193 522.861 261.165 495.106 271.948C492.262 273.552 489.418 275.157 486.597 276.791C483.776 278.424 480.974 280.138 478.145 281.874C476.7 282.722 475.028 283.136 473.315 283.069C472.648 282.794 473.535 281.659 475.145 280.754L479.904 277.954C475.489 279.888 470.815 281.224 465.996 281.93C462.273 282.433 459.626 281.981 458.941 280.392C458.255 278.803 460.036 276.147 463.227 273.459C467.311 270.264 471.809 267.632 476.613 265.626C505.58 252.219 535.743 241.363 566.786 233.173L576.715 229.997C580.126 228.653 583.294 227.454 586.571 226.168C537.222 235.749 489.402 250.976 444.006 271.563C440.168 273.439 436.473 274.203 435.912 273.275C435.35 272.346 437.843 269.74 441.732 267.871C460.979 256.997 480.829 247.179 501.202 238.459C521.802 229.501 542.991 221.852 564.653 215.554C586.565 209.14 608.942 204.192 631.646 200.741C654.638 197.351 677.926 195.616 701.339 195.547C732.885 191.011 764.993 189.827 797.149 192.015C793.117 191.007 789.039 189.941 784.881 189.224C759.527 184.12 733.849 181.842 708.315 182.433C684.111 182.872 660.112 185.47 636.592 190.196C613.692 194.846 591.133 200.786 569.017 207.989C546.939 215.21 525.152 223.526 502.979 232.484C500.774 233.484 498.714 233.656 498.188 233.221C497.662 232.786 498.989 231.585 501.283 230.751C544.392 212.636 585.224 197.004 632.858 187.764C671.102 180.665 710.192 177.649 749.502 178.765C710.855 174.763 672.143 176.046 634.416 182.581C597.774 188.961 561.909 198.522 527.208 211.158C524.565 212.291 521.726 212.951 518.812 213.109C518.521 213.743 518.008 214.237 517.367 214.5C513.315 216.783 508.974 218.871 504.697 221.096C500.421 223.322 495.801 225.679 491.24 227.941C489.629 228.86 487.783 229.318 485.888 229.268C484.789 229.576 485.525 228.419 487.501 227.412ZM1032.94 992.748L1031.54 993.863C1032.8 992.574 1034.14 991.169 1035.65 989.633L1044.08 985.422C1044.08 985.422 1038.35 988.908 1032.94 992.748ZM985.489 1086.39L980.217 1087.98C982.42 1087.32 984.124 1086.81 985.489 1086.39ZM1023.55 475.022C1027.47 482.474 1031.59 489.824 1035.28 497.421L1045.25 520.601C1048.12 528.571 1050.75 536.534 1053.38 544.497C1054.82 548.431 1055.62 552.585 1056.71 556.65L1059.65 568.877C1056.74 561.183 1054.19 553.438 1051.06 545.919C1046.97 533.993 1043.47 521.738 1038.51 510.076L1035.06 501.199L1033.37 496.713C1032.77 495.24 1032.07 493.854 1031.4 492.396L1023.55 475.022ZM979.153 1036.14C985.719 1031.5 992.668 1027.41 999.936 1023.92C1003.19 1018.9 1006.3 1013.53 1010.02 1008.47C1012.51 1005.07 1014.99 1001.66 1017.42 998.298C1019.85 994.936 1022.06 991.415 1024.36 988.01C1026.67 984.605 1029.02 981.207 1031.25 977.766C1033.48 974.325 1035.61 970.869 1037.81 967.45C1035.3 968.407 1037.37 965.097 1038.14 963.25L1040.72 957.723C1031.41 972.374 1021.33 986.485 1010.53 999.999C1005.42 1006.07 1000.6 1012.67 995.225 1018.81C989.855 1024.94 984.664 1031.08 979.153 1036.14ZM899.872 1126.12L898.324 1126.6L899.127 1122.49L899.872 1126.12ZM898.798 1132.87L900.951 1131.58C901.143 1132.94 900.141 1133.32 898.913 1133.01L898.798 1132.87ZM918.479 1120.68C917.243 1120.92 916.045 1121.3 914.907 1121.82L918.479 1120.68ZM982.775 1166.93L981.1 1150.56L981.762 1167.12L982.775 1166.93Z" fill="#7CEBDB"/>
<path d="M164.175 683.633C161.415 667.701 162.035 632.743 164.666 633.681C163.479 633.204 162.885 632.966 162.557 629.857C162.354 628.311 162.26 626.059 162.16 622.674C162.098 620.967 162.007 618.998 161.937 616.775L162.187 608.886C163.761 609.623 165.207 588.342 167.518 575.057C164.726 585.83 161.853 600.939 159.866 631.767C160.106 635.326 160.206 639.328 160.313 643.563C160.419 647.798 160.668 652.774 160.572 657.598C160.476 662.422 160.419 667.689 160.592 672.962L161.044 688.979L161.291 697.042L161.908 704.952C162.366 710.189 162.809 715.295 163.327 720.102C164.317 728.398 165.919 736.641 168.119 744.762C166.054 725.712 166.003 707.049 164.175 683.633Z" fill="white"/>
<path d="M183.455 561.435L183.317 557.273C182.687 561.146 181.905 564.998 181.371 568.937L179.954 580.702L178.579 592.575C178.224 596.513 178.021 600.473 177.717 604.418C177.742 601.977 177.932 598.17 178.197 593.782C178.461 589.393 179.282 584.466 179.902 579.794C180.522 575.121 181.172 570.71 181.783 567.374C182.057 565.309 182.619 563.309 183.455 561.435Z" fill="white"/>
<path d="M231.087 418.189C230.604 422.752 243.142 402.731 244.284 404.051C240.299 402.484 263.003 372.168 274.924 355.868L277.829 347.711C276.097 349.473 274.101 351.635 271.897 354.153C269.692 356.672 267.413 359.772 265.053 362.937C262.692 366.103 260.036 369.741 257.27 373.467C254.505 377.193 252.027 381.448 249.16 385.777C237.611 403.948 227.202 422.875 217.99 442.453C222.277 434.285 226.564 426.117 231.087 418.189Z" fill="#5F6AD8"/>
<path d="M252.315 386.584C254.238 382.533 256.023 378.309 258.093 374.33C252.237 383.845 238.716 405.837 252.315 386.584Z" fill="white"/>
<path d="M229.174 405.854C212.568 435.101 239.986 388.73 224.166 418.68C228.953 408.499 235.613 397.014 229.174 405.854Z" fill="white"/>
<path d="M318.064 298.804C301.688 315.592 286.453 333.489 272.452 352.383L281.962 341.377L286.607 335.962L291.484 330.836C295.767 325.473 299.841 319.848 304.29 314.636L318.064 298.804Z" fill="#5F6AD8"/>
<path d="M324.983 300.5C318.402 306.748 307.8 316.441 316.21 306.361C320.928 302.216 325.176 298.495 329.201 294.998C333.225 291.502 336.694 287.927 340.279 284.498C343.863 281.068 347.675 277.979 351.6 274.752C353.6 273.156 355.654 271.517 357.764 269.834C359.873 268.151 362.291 266.744 364.723 265.184C358.97 269.773 353.561 274.849 348.086 279.787C350.078 279.811 358.276 271.656 366.905 264.772C371.205 261.34 375.423 257.974 378.7 255.788C381.976 253.601 384.398 252.76 384.749 253.761C407.978 234.61 363.78 263.609 395.021 240.059C387.516 245.43 380.245 250.139 373.65 255.022C367.055 259.904 360.688 264.51 354.643 269.238C348.598 273.967 342.837 278.658 336.975 283.336C331.113 288.013 325.664 293.263 319.842 298.383C327.048 292.918 329.573 290.239 339.415 282.291C335.299 285.955 331.036 290.163 326.48 294.511C324.251 296.717 321.874 298.851 319.627 301.261C317.38 303.67 315.134 306.08 312.883 308.54C303.589 318.187 294.886 329.024 286.696 338.93C292.833 333.615 298.51 327.784 303.671 321.492C306.645 318.028 310.097 314.656 313.593 311.06C317.19 307.326 320.992 303.801 324.983 300.5Z" fill="#5F6AD8"/>
<path d="M413.559 234.194C433.917 222.176 466.933 206.75 471.78 201.981C463.537 204.281 455.666 207.627 448.347 211.943C443.451 214.853 440.305 217.316 435.706 220.653C432.458 222.201 425.481 225.537 420.463 228.069C415.445 230.601 412.205 232.047 415.873 228.835C419.069 227.615 403.827 238.684 413.559 234.194Z" fill="#5F6AD8"/>
<path d="M497.784 195.47C502.873 192.691 507.949 189.78 513.238 187.364C509.689 188.534 506.209 189.792 502.845 191.194L500.921 189.738C498.53 191.614 495.996 193.303 493.341 194.79C491.028 196.161 488.017 197.614 484.265 199.373C480.514 201.132 476.062 203.307 470.584 205.543C475.268 204.26 479.813 202.57 484.172 200.492C488.574 198.499 493.121 196.821 497.784 195.47Z" fill="#5F6AD8"/>
<path d="M498.348 180.777L504.052 179.217C505.88 178.755 507.74 178.22 509.33 177.853C512.73 176.945 515.927 176.008 519.183 174.976C522.44 173.944 525.713 172.709 529.386 171.582L541.599 168.009C528.74 171.053 513.442 175.759 500.528 180.082C494.118 182.443 488.286 184.629 483.607 186.463C480.219 187.736 476.939 189.258 473.793 191.018L475.436 189.707C475.436 189.707 469.892 192.422 462.398 196.122C458.619 197.903 454.532 200.31 450.422 202.688C446.312 205.065 442.193 207.545 438.5 209.827C444.293 206.581 451.42 202.983 458.666 199.48C465.913 195.976 473.688 193.19 480.256 190.466C493.8 185.64 502.963 181.842 498.348 180.777Z" fill="#5F6AD8"/>
<path d="M466.836 192.581L475.385 188.181L479.685 185.984L484.068 184.005L479.685 185.984L475.385 188.181L466.836 192.581Z" fill="#5F6AD8"/>
<path d="M568.657 175.803C556.598 177.545 544.729 180.37 532.8 183.005L541.732 181.669L555.001 178.297L568.657 175.803Z" fill="#5F6AD8"/>
<path d="M523.668 177.903C530.883 175.707 533.45 175.273 533.682 174.945C533.914 174.618 531.841 174.942 529.649 175.172C528.268 175.445 526.852 175.555 525.429 175.502C528.253 174.102 531.298 173.161 534.456 172.713C528.56 173.94 522.783 175.599 517.168 177.678C508.995 179.933 501.09 182.967 493.555 186.74C495.332 186.271 497.814 185.336 500.584 184.312L505.051 182.551L509.759 180.979C516.015 178.93 521.833 177.232 523.668 177.903Z" fill="#5F6AD8"/>
<path d="M592.352 172.23C597.266 171.252 602.154 169.963 607.148 169.254L622.048 166.859L607.148 169.254C602.062 169.847 597.173 171.136 592.352 172.23Z" fill="#5F6AD8"/>
<path d="M667.69 168.609L673.61 167.208C688.332 168.184 705.618 169.06 721.833 171.122C729.573 171.947 737.287 173.176 744.945 174.803C748.492 175.485 751.857 176.219 755.015 176.974C758.174 177.73 760.971 178.82 763.534 179.672C761.147 178.253 764.312 178.006 764.881 177.315C765.45 176.623 764.789 176.581 762.728 175.852C758.735 174.504 754.652 173.504 750.527 172.866C746.352 173.253 737.204 171.676 738.529 172.944C727.536 170.797 729.885 169.92 722.556 168.6C703.423 167.489 673.886 165.137 658.695 166.719C663.608 166.566 668.54 166.671 673.471 167.034C666.912 167.511 660.313 167.643 653.701 167.428C648.433 167.455 644.232 167.246 640.568 167.037C634.059 166.087 627.509 166.778 621.506 169.049C628.615 167.96 635.857 167.622 643.117 168.041C647.249 168.162 651.448 168.087 655.598 168.288C659.749 168.489 663.922 168.72 667.69 168.609Z" fill="#5F6AD8"/>
<path d="M664.538 158.641C660.063 158.651 655.746 158.298 651.345 158.344L638.128 158.636C640.892 157.975 643.724 157.574 646.588 157.44C650.293 157.107 654.025 156.982 657.766 157.065C663.419 157.439 669.061 157.202 674.597 156.358C672.983 155.178 646.485 154.389 656.128 153.72C653.211 158.042 620.023 155.328 634.116 159.844C625.513 160.299 620.804 160.971 617.567 160.848C615.562 160.915 613.543 160.776 611.543 160.433C608.612 160.018 605.361 159.147 587.64 161.94L578.119 165.74C587.898 164.061 595.697 162.823 602.497 161.906C609.298 160.99 615.135 160.89 621.025 160.462C626.916 160.034 632.707 159.876 639.608 159.591L650.826 159.043C655.047 158.713 659.564 158.812 664.538 158.641Z" fill="#5F6AD8"/>
<path d="M210.97 471.413C208.917 477.324 207.259 481.875 205.883 485.488L210.907 471.559L210.97 471.413Z" fill="#5F6AD8"/>
<path d="M201.133 486.004C203.775 476.375 207.826 467.273 213.156 458.989C215.507 455.024 218.071 450.652 221.069 444.747C224.068 438.841 228.032 431.785 232.478 422.019C228.882 429.873 224.924 437.779 221.321 446.017L216.077 458.604C214.366 462.865 212.43 467.069 210.986 471.496C199.516 493.417 216.163 452.981 201.133 486.004Z" fill="#5F6AD8"/>
<path d="M426.147 217.786L427.298 216.868C429.673 215.685 428.539 216.4 426.147 217.786Z" fill="#5F6AD8"/>
<path d="M1178.46 857.456L1170.82 880.023C1168.07 887.533 1164.91 895.088 1161.94 903.108C1158.97 911.128 1155.02 919.266 1151.3 928.26C1149.24 932.653 1147.08 937.183 1144.84 941.961C1142.6 946.739 1140.42 951.706 1137.67 956.696C1140.55 957.205 1129.4 973.074 1130.43 976.951C1118.91 996.034 1106.29 1014.38 1092.63 1031.89C1089.26 1036.53 1085.37 1040.77 1081.77 1045.07C1078.16 1049.37 1074.63 1053.66 1070.97 1057.44C1063.61 1065.07 1057.33 1072.26 1051.83 1077.45C1040.99 1087.96 1036.06 1093.03 1043.23 1086.84L1050.67 1078.19L1043.95 1088.3C1026.44 1102.99 1000.33 1119.88 988.152 1129.45C989.927 1127.93 991.82 1126.54 993.815 1125.31C995.876 1123.91 998.425 1122.16 1001.36 1120.1L1011.02 1112.82C1028.6 1099.63 1045.24 1085.24 1060.84 1069.75L1073.31 1056.95C1077.33 1052.6 1081.07 1048.19 1084.79 1044.03L1090.19 1037.88L1095.08 1031.75C1098.22 1027.77 1101.17 1023.99 1103.88 1020.59C1114.22 1006.46 1120.35 997.344 1119.22 998.857C1120.95 997.48 1119.75 999.524 1116.41 1004.71C1113.06 1009.9 1108 1018.11 1100.45 1027.65C1081.67 1052.39 1060.41 1075.05 1036.97 1095.29C1012.31 1116.67 985.582 1135.52 957.131 1151.59C951.104 1154.88 945.534 1157.9 940.55 1160.65C935.565 1163.39 930.874 1165.38 927.114 1167.24C919.585 1171.06 914.733 1173.13 913.948 1173.66L910.277 1173.22C906.279 1175.17 902.496 1177.01 898.794 1178.77C895.093 1180.54 891.495 1181.99 888.041 1183.56C881.015 1186.55 874.523 1189.59 867.926 1192.06C861.328 1194.52 855.104 1197.11 848.504 1199.29C841.905 1201.47 835.094 1203.44 827.81 1205.55L820.562 1204.78C825.229 1204.11 829.834 1203.15 834.353 1201.9C838.248 1200.88 841.683 1199.85 845.013 1198.85C851.871 1196.94 858.498 1194.12 869.058 1190.44L856.462 1194.32C852.656 1195.51 849.201 1196.46 845.971 1197.19C839.536 1198.62 834.193 1199.84 829.207 1201.07C824.222 1202.29 819.269 1202.83 813.868 1203.81C808.468 1204.8 802.634 1206.08 795.238 1207.09C796.026 1208.36 802.481 1207.91 804.031 1207.72C804.829 1207.65 804.454 1207.86 801.544 1208.42L783.913 1211.67C778.402 1211.84 781.752 1210.31 782.178 1209.49C782.604 1208.68 780.546 1208.52 763.837 1210.22C723.172 1212.24 731.614 1215.85 695.741 1215.28L701.799 1215.9L707.918 1216.1L720.035 1216.73C706.842 1217.05 682.039 1216.48 669.352 1213.5C671.226 1213.71 673.454 1213.98 675.938 1214.23C678.423 1214.47 681.135 1214.45 683.951 1214.72C689.662 1214.91 695.79 1215 701.44 1215C712.658 1214.45 721.821 1213.41 721.192 1212.06C706.131 1213.02 672.684 1210.03 659.618 1208.21L667.735 1207.15C661.481 1205.74 655.156 1204.82 648.816 1204.39C641.549 1203.65 634.316 1202.38 627.173 1200.59C618.647 1199.51 621.133 1200.66 624.543 1202.07C627.954 1203.48 632.409 1204.62 627.625 1204.35C625.873 1203.9 616.855 1201.36 606.766 1199.11L599.14 1197.37L591.733 1195.44C587.117 1194.38 582.833 1193.34 579.906 1192.87C582.806 1194.82 586.009 1196.22 589.352 1197.01C594.419 1198.51 599.552 1199.7 604.724 1200.6C610.464 1201.67 616.631 1202.83 622.625 1204.21C628.371 1205.35 634.061 1206.86 639.661 1208.71C634.399 1207.73 629.16 1206.79 623.875 1205.78L608.255 1202.1C598.064 1201.97 610.626 1204.63 624.428 1207.43C638.23 1210.23 653.391 1211.76 648.109 1212.55C635.817 1212.33 623.526 1210.19 611.669 1206.21C599.609 1203.07 588.053 1199.09 576.577 1198.75C583.72 1201.08 598.851 1205.71 611.661 1208.45C624.471 1211.19 634.685 1213.48 631.571 1213.74C623.849 1211.82 616.058 1210.29 608.228 1209.15C604.24 1208.53 600.002 1208.17 595.369 1207.31C590.737 1206.44 585.783 1205.46 579.976 1203.97C570.883 1201.11 562.045 1197.34 553.178 1193.93C541.366 1191.48 550.579 1194.43 559.398 1198.13C539.591 1191 513.233 1180.89 485.803 1167.7C457.681 1154.62 430.952 1138.41 406.136 1119.37C402.425 1116.97 399.7 1115.02 397.578 1113.48C395.457 1111.94 394 1111.02 393.004 1110.39C391.036 1109.16 390.914 1109.4 391.299 1109.99C392.014 1111.23 394.562 1114.08 387.772 1109.67C380.775 1103.15 371.117 1094.81 361.108 1086.71C356.155 1082.64 351.38 1078.28 346.797 1074.39C342.462 1070.83 338.297 1067.05 334.319 1063.08C330.279 1058.8 321.083 1052.89 324.424 1057.59C336.44 1069.22 349.048 1080.19 361.979 1090.66C359.345 1090.06 363.592 1096.45 377.72 1107.58C375.934 1104.78 378.45 1106.19 383.307 1109.87C385.738 1111.68 388.784 1114.09 392.166 1116.75C395.548 1119.42 399.254 1122.49 403.399 1125.21C419.015 1137.2 437.406 1148.73 440.174 1147.42L438.395 1149.13C442.971 1151.89 447.733 1154.26 452.528 1156.84L466.668 1164.17C476.291 1168.64 485.854 1173.21 495.557 1177.34L493.957 1176.29C496.468 1177.64 499.075 1178.78 501.751 1179.7L511.075 1183.47C514.54 1184.83 518.365 1186.48 522.569 1187.87L535.732 1192.51C540.3 1194.14 544.961 1195.88 549.68 1197.24L563.501 1201.64L570.194 1203.85L576.633 1205.74C571.579 1205.02 555.488 1199.63 544.433 1196.39C533.377 1193.16 527.697 1190.76 543.572 1198.13C537.5 1196.13 530.043 1193.59 521.862 1190.53C517.713 1189.09 513.5 1187.18 509.062 1185.22L495.229 1179.12C490.438 1177.1 485.702 1174.42 480.656 1172.09C475.61 1169.75 470.64 1167.12 465.573 1164.42L450.223 1155.97L442.392 1151.78L434.669 1147.21L441.886 1153.56C417.192 1139.99 393.757 1124.04 371.926 1105.94C349.182 1086.91 327.695 1066.37 307.624 1044.46C311.954 1048.03 316.156 1051.89 320.593 1055.09C317.209 1051.52 313.95 1047.38 310.466 1043.18L299.843 1030.49C296.395 1026.17 292.9 1021.79 289.66 1017.73C286.42 1013.67 282.788 1010.01 279.773 1006.63C283.334 1011.43 285.813 1014.2 287.018 1015.99C288.224 1017.78 288.543 1018.24 288.171 1018.11C286.241 1016.74 284.393 1015.24 282.638 1013.65C277.373 1007.5 271.945 1000.25 265.905 992.675C259.865 985.105 254.343 976.218 248.496 967.26L239.92 953.31C238.477 950.996 236.988 948.624 235.577 946.237L231.48 938.968L223.217 924.341L215.48 909.532C215.48 909.532 216.868 911.272 216.305 909.443C214.539 906.106 212.602 902.667 210.844 899.227L205.928 888.908C202.614 882.058 199.271 874.947 196.254 867.907C191.085 854.564 187.199 840.811 184.651 826.846C182.132 819.362 176.669 799.985 177.451 807.764C178.395 811.757 179.571 816.041 180.502 818.668C171.631 796.931 176.504 802.87 168.35 775.007C175.479 796.472 169.522 767.711 172.401 769.971C165.176 737.094 168.166 767.416 166.45 763.468C165.673 758.392 164.977 753.868 164.407 749.671C163.837 745.473 163.629 741.841 163.303 738.399C162.725 731.549 162.163 725.732 161.845 720.052C161.527 714.372 161.35 708.531 160.997 701.74C160.721 698.304 160.623 694.585 160.558 690.459L160.052 676.621C159.384 675.446 159.496 682.667 159.623 690.636L159.846 696.534L160.127 702.054C160.338 704.367 160.291 706.683 159.985 708.956C158.989 697.313 158.493 683.657 157.855 681.508L157.93 694.076C157.912 698.267 158.303 702.465 158.491 706.635C157.64 696.016 157.808 685.438 157.461 674.891C157.238 669.61 157.524 664.35 157.58 659.083L157.84 643.115C158.846 621.901 160.199 599.886 163.583 576.821L162.371 580.304L164.336 565.966C165.039 561.228 166.251 556.511 167.16 551.751L167.411 562.516C168.691 554.849 170.699 547.028 172.351 540.108C174.112 534.559 175.328 528.819 175.981 522.97L174.375 528.429C175.796 522.121 177.098 515.718 178.621 509.423C177.555 516.065 176.737 522.794 175.8 529.429C177.642 523.591 179.113 517.006 180.805 509.912C182.497 502.818 184.557 495.287 186.564 487.183C188.57 479.078 191.434 470.812 194.317 462.008C197.2 453.204 201.203 444.456 205.24 435.301C206.804 433.721 205.949 436.919 203.807 442.663C202.721 445.571 201.326 449.105 199.746 453.024C198.166 456.943 196.381 461.168 194.879 465.69C193.376 470.212 191.745 474.741 190.227 479.133L188.104 485.574L186.474 491.622C184.529 499.297 183.384 505.053 183.995 506.607C186.373 500.485 189.199 492.059 192.071 484.308C194.6 478.202 196.747 471.924 198.499 465.507C196.904 466.542 193.557 475.384 190.18 484.298C192.818 475.974 195.825 466.596 199.701 457.238L205.885 443.188L209.028 436.171C210.165 433.887 211.325 431.633 212.539 429.334C217.097 420.381 221.298 411.712 225.471 404.3C229.643 396.888 232.517 390.039 234.828 385.013C232.212 388.477 229.91 392.166 227.557 395.847L220.526 406.869C224.176 400.206 227.767 394.256 231.127 388.916C234.488 383.576 238.141 379.332 241.13 375.381C246.969 367.304 251.879 361.772 253.824 356.849L248.611 367.845C247.006 371.452 245.447 375.117 244.004 378.927C245.84 375.61 247.749 372.046 249.905 368.568L256.822 358.302C259.162 354.774 261.483 351.165 264.095 347.752C266.707 344.339 269.295 340.897 271.884 337.455C274.472 334.013 277.037 330.542 279.737 327.296C282.437 324.05 285.16 320.833 287.801 317.681C290.442 314.53 292.997 311.494 295.496 308.503C297.996 305.512 300.548 302.811 302.944 300.139C302.551 299.646 300.688 301.132 297.911 303.776C296.548 305.101 294.933 306.674 293.33 308.428C291.726 310.182 290.124 312.22 288.452 314.171C281.891 322.017 275.638 329.855 276.219 329.011C278.644 325.083 281.308 321.343 283.857 317.458C287.722 313.424 290.753 310.199 293.164 307.658C295.575 305.118 297.656 303.456 299.18 302.051C302.227 299.24 303.71 298.009 305.362 296.596C307.015 295.183 308.844 293.486 312.795 289.953C316.746 286.421 322.943 281.097 333.276 272.472L332.591 270.882C337.503 267.601 342.207 264.022 346.678 260.164C351.854 255.75 357.635 251.422 362.292 247.706C364.647 245.826 366.811 244.1 368.564 242.701C369.943 241.663 371.388 240.716 372.892 239.865C374.876 238.756 374.849 239.396 371.746 242.868C367.55 245.362 363.511 248.11 359.379 250.742L361.56 251.565C377.902 238.796 395.01 227.032 412.798 216.331C408.232 220.497 434.506 205.893 428.393 211.436C434.731 207.186 441.453 203.531 448.115 199.687C453.506 198.803 444.26 203.902 433.863 209.919C423.467 215.936 411.807 223.293 411.457 225.044C412.166 225.428 414.709 224.064 417.774 222.567C420.839 221.071 424.304 219.065 426.563 217.738C403.672 232.538 389.731 235.686 367.417 251.544L357.695 261.105L356.747 258.681C352.807 261.933 349.127 265.489 345.735 269.319C342.755 272.552 340.56 275.252 339.35 276.882C336.46 278.688 333.704 280.697 331.102 282.894C328.363 285.08 325.623 287.265 323.116 289.741C320.608 292.217 317.869 294.402 315.203 297.241C312.537 300.081 310.062 302.767 307.392 305.657C304.722 308.547 301.997 311.481 299.282 314.596C296.568 317.712 293.883 321.089 291.065 324.524C288.247 327.959 285.18 331.308 282.263 335.012C279.346 338.717 276.315 342.559 273.073 346.475C283.01 332.802 279.305 336.755 273.286 343.314C267.267 349.874 259.651 359.938 261.176 357.297C258.48 361.11 254.972 366.377 250.997 372.634L239.548 392.783C235.818 399.794 232.266 406.806 228.882 412.734C225.498 418.662 222.784 423.913 220.295 427.086C214.253 436.37 229.018 405.6 216.859 428.736C215.053 432.598 213.421 436.226 212.147 439.237C210.873 442.247 210.083 444.966 209.576 446.747C208.559 450.36 209.034 450.787 211.733 446.023C195.305 483.922 183.024 523.719 175.1 564.736L175.179 554.609C174.328 557.756 173.578 560.918 172.879 564.087C172.18 567.256 171.76 570.439 171.381 573.447C170.45 579.697 169.738 585.771 169.188 591.432C168.614 602.904 168.392 612.907 168.787 619.808C167.952 623.369 168.338 625.482 167.59 621.285C166.608 628.449 166.02 635.685 165.83 642.959C165.851 649.446 166.411 655.598 166.919 662.36C167.428 669.122 168.328 676.712 169.013 685.66C169.697 694.608 171.093 705.741 172.242 719.541C173.222 717.905 173.189 710.952 172.538 702.215C172.114 697.806 171.991 693.157 171.637 688.218C171.282 683.279 170.907 678.594 170.428 674.229L173.189 678.814C170.966 631.36 177.061 578.599 184.223 541.221L182.546 558.842C184.471 553.235 186.043 547.494 187.255 541.65C187.998 538.43 188.545 535.156 188.892 531.847C189.174 528.691 189.682 525.572 190.413 522.516C190.905 520.604 191.578 518.358 192.429 515.828C193.279 513.298 194.728 510.338 196.321 506.884C202.292 484.982 190.12 522.037 194.25 505.356C197.136 497.736 197.752 499.238 198.845 499.315C199.938 499.393 200.018 499.044 201.019 497.153C202.021 495.262 203.31 491.765 205.77 485.577C188.55 535.17 178.821 587.484 176.9 640.82C176.09 668.26 177.324 695.838 180.593 723.322C184.04 750.334 189.509 777.154 196.952 803.549C198.024 805.399 196.459 799.955 195.257 794.458C196.778 798.893 199.588 807.19 202.917 818.442C206.247 829.695 211.137 843.69 217.418 859.09C231.333 895.031 248.951 929.563 269.968 962.09C290.087 993.201 313.426 1022.15 339.559 1048.41L347.33 1056.07C349.811 1058.5 352.368 1060.64 354.673 1062.74C359.34 1066.85 363.514 1070.45 367.072 1073.45C371.144 1077.12 375.708 1080.16 380.609 1082.49C384.194 1086.7 370.029 1076.31 387.826 1090.98C389.773 1091.84 394.81 1094.9 391.079 1090.89C415.985 1112.47 443.342 1130.88 472.483 1145.66C504.177 1161.88 536.969 1175.54 570.542 1186.53C569.917 1185.74 573.305 1186.51 576.893 1187.01C579.401 1187.6 581.954 1187.87 584.494 1187.83C590.855 1190.29 597.347 1192.33 603.927 1193.93C611.153 1195.57 618.888 1197.23 626.641 1198.68L649.213 1202.08C656.343 1203.04 662.906 1203.74 668.343 1204.76L661.362 1202.64C684.146 1205.32 706.998 1206.42 729.757 1205.94C730.751 1205.67 728.938 1205.64 726.18 1205.61L716.975 1205.31C720.692 1205.2 723.684 1205.18 725.994 1205.38C728.304 1205.58 730.446 1205.34 731.705 1205.57C733.427 1205.61 735.133 1206.12 736.645 1207.04L751.671 1204.97L766.711 1202.13L775.076 1201.77C777.902 1201.61 780.695 1201.23 783.447 1201.03L800.66 1199.11C812.107 1197.05 823.964 1195.28 835.519 1192.23C847.074 1189.19 859.098 1185.71 871.039 1182.03C882.584 1177.56 894.605 1173.52 906.168 1168.24C952.895 1148.14 996.602 1119.2 1035.44 1087.64C1040.3 1081.77 1044.79 1076.38 1050.48 1070.42C1053.36 1067.45 1056.16 1063.99 1059.58 1060.36C1063 1056.72 1066.94 1052.73 1070.94 1047.97C1068.13 1050.97 1064.94 1053.65 1061.95 1056.47C1070.25 1046.71 1070.41 1046.35 1070.71 1046.78C1071.01 1047.2 1070.94 1047.97 1077.79 1039.47C1086.44 1027.44 1078.21 1033.81 1065.9 1049.57C1056.56 1057.92 1061.55 1051.99 1067.12 1045.03C1092.86 1016.89 1115.48 985.955 1134.63 952.714C1152.01 922.464 1166.68 890.592 1178.46 857.456Z" fill="#5F6AD8"/>
<path d="M231.254 660.969C234.191 665.605 239.465 643.167 242.48 644.417C234.851 643.621 247.212 608.883 251.634 589.927L248.656 580.577C247.306 583.06 246.085 585.618 244.999 588.242C243.776 591.26 242.767 594.771 241.608 598.544C240.449 602.317 239.338 606.431 238.019 610.902C236.699 615.372 236.056 620.016 235.065 624.842C231.098 645.534 228.38 666.519 226.926 687.684C228.445 678.687 229.826 669.799 231.254 660.969Z" fill="#FFB200"/>
<path d="M240.995 625.194C240.707 620.676 240.338 616.224 240.16 611.619C238.792 622.49 234.731 647.233 240.995 625.194Z" fill="white"/>
<path d="M217.619 648.872C212.746 681.811 222.464 629.436 219.342 662.829C219.698 651.533 221.438 638.657 217.619 648.872Z" fill="white"/>
<path d="M264.682 520.695C256.431 541.989 249.597 563.887 244.225 586.246L249.391 573.056L251.843 566.353L254.918 560.149C256.412 553.593 257.743 546.834 259.407 540.38L264.682 520.695Z" fill="#FFB200"/>
<path d="M276.823 522.643C273.222 530.548 266.313 542.565 269.3 530.07C272.492 524.913 275.237 520.206 277.51 515.639C279.784 511.072 281.566 506.563 283.419 502.142C285.271 497.721 287.386 493.518 289.716 489.19C290.867 487.037 292.147 484.877 293.505 482.701C295.02 480.465 296.667 478.327 298.437 476.297C295.198 482.632 292.544 489.307 289.724 495.83C292.542 495.765 296.285 485.23 301.308 475.906C303.361 471.619 305.73 467.508 308.395 463.605C310.625 460.781 312.873 459.273 314.415 460.7C319.938 447.226 315.404 450.702 311.786 453.304C308.168 455.905 305.094 458.121 313.894 441.225C309.319 448.863 304.656 455.717 300.562 462.497L288.63 481.986C284.818 488.446 281.312 494.614 277.645 500.863C273.979 507.111 270.847 513.693 267.302 520.319C272.523 513.209 273.676 509.821 280.215 499.476C270.843 518.633 261.922 546.164 254.894 570C259.47 563.678 262.87 556.53 264.942 548.881C266.153 544.781 268.079 540.396 269.908 535.946C271.809 531.292 274.123 526.84 276.823 522.643Z" fill="#FFB200"/>
<path d="M331.757 432.384C345.563 414.627 368.916 389.395 369.259 381.003C362.208 385.215 356.25 391.005 351.812 397.962C349.478 402.48 347.382 407.131 345.535 411.895C342.912 414.226 338.014 419.606 334.124 423.327C330.234 427.048 327.642 429.306 329.088 424.544C332.031 422.67 323.815 439.005 331.757 432.384Z" fill="#FFB200"/>
<path d="M392.117 368.742C394.938 363.737 397.745 358.602 400.907 353.8C398.353 356.218 395.845 358.694 393.476 361.343L389.955 359.121C389.168 362.247 388.033 365.253 386.573 368.086C385.008 371.004 383.195 373.769 381.152 376.351C378.306 380.162 375.137 383.708 371.677 386.95C375.689 384.697 379.222 381.7 382.105 378.107C385.011 374.544 388.376 371.397 392.117 368.742Z" fill="#FFB200"/>
<path d="M378.134 344.25C379.857 343.207 381.429 342.143 382.946 341.123C384.463 340.102 385.893 339.198 387.332 338.192C390.187 336.152 392.509 334.061 395.112 331.985C397.714 329.909 400.015 327.455 402.913 324.906C405.81 322.357 408.735 319.786 412.207 316.778C401.89 324.298 390.086 334.002 380.066 342.851C375.24 347.366 370.876 351.56 367.411 355.084C364.861 357.509 362.624 360.251 360.747 363.25L361.485 361.142C361.485 361.142 357.717 365.858 352.822 372.422C350.305 375.617 347.78 379.531 345.277 383.474C342.775 387.417 340.314 391.469 338.237 395.215C342.437 389.197 347.014 383.468 351.942 378.061C357.417 372.506 362.997 366.914 367.83 362.014C377.713 352.656 384.265 345.529 378.134 344.25Z" fill="#FFB200"/>
<path d="M353.959 366.148C357.68 361.091 361.15 355.664 365.184 350.831C361.173 355.693 357.68 361.091 353.959 366.148Z" fill="#FFB200"/>
<path d="M446.298 325.845C436.252 331.345 426.743 337.745 417.096 343.971L424.911 340.394L435.408 332.873L446.298 325.845Z" fill="#FFB200"/>
<path d="M402.575 336.331C405.406 334.551 407.989 332.41 410.266 329.957C410.304 329.5 408.353 330.201 406.297 330.94C404.242 331.678 402.325 332.591 402.106 332.148C401.887 331.705 403.413 329.966 408.927 326.088C411.666 323.903 403.588 329.399 395.395 336.885C387.202 344.372 378.461 352.913 378.523 354.62C380.475 353.18 382.294 351.57 383.962 349.806L387.18 346.479L390.697 343.245C395.326 338.934 399.901 335.284 402.575 336.331Z" fill="#FFB200"/>
<path d="M465.624 314.555C469.322 311.604 473.075 308.61 476.773 305.659L488.407 297.373L476.773 305.659C472.982 308.494 469.368 311.662 465.624 314.555Z" fill="#FFB200"/>
<path d="M530.288 286.601L534.313 281.87C547.627 278.272 562.778 272.876 577.56 269.152C584.529 267.241 591.643 265.814 598.855 264.883C602.216 264.432 605.413 264.112 608.442 263.974C611.296 263.933 614.161 264.106 617.014 264.492C614.292 263.104 616.709 260.795 616.791 259.212C616.831 258.42 616.295 257.803 614.218 257.561C610.242 257.309 606.28 257.597 602.438 258.416C599.151 261.039 590.755 262.991 592.696 264.86C582.369 266.359 583.713 263.435 576.715 264.272C560.126 271.575 533.377 278.392 521.323 286.491C525.436 284.441 529.795 282.89 534.313 281.87C529.072 285.071 523.463 287.652 517.589 289.565C513.718 290.978 509.728 292.082 505.655 292.868C498.909 294.358 494.105 295.248 490.255 302.166C494.347 298.473 501.359 296.249 508.733 293.973L519.89 290.482C523.47 289.481 526.947 288.182 530.288 286.601Z" fill="#FFB200"/>
<path d="M520.031 268.909C516.079 270.305 512.067 271.513 508.157 273.019L496.475 277.593C498.396 275.584 500.651 273.929 503.147 272.696C506.251 270.993 509.484 269.524 512.821 268.301C519.641 265.612 525.872 263.251 527.123 260.829C524.854 259.222 501.005 267.427 508.803 262.535C509.628 271.94 477.447 277.063 493.867 280.955C489.243 283.416 484.484 285.628 479.61 287.584C477.734 288.269 475.718 288.553 473.686 288.418C470.592 288.418 466.968 288.034 452.313 296.974L446.573 306.017C454.427 300.747 460.84 296.817 466.533 293.556C472.225 290.296 477.407 288.25 482.458 285.928C487.51 283.607 492.696 281.51 498.672 278.83C501.647 277.501 504.863 276.026 508.44 274.217C512.018 272.407 515.744 270.953 520.031 268.909Z" fill="#FFB200"/>
<path d="M613.6 244.43L626.223 245.418L618.868 242.268C622.32 241.65 625.713 241.126 628.996 240.69C632.279 240.254 635.611 240.159 638.791 240.043C645.132 239.731 651.281 239.571 657.131 239.936C667.87 240.574 678.594 241.945 689.231 244.039L703.488 246.905C708.051 247.679 712.447 248.919 716.78 249.686C721.113 250.453 725.323 251.177 729.479 251.611C733.636 252.045 737.811 252.558 741.975 252.607C747.206 252.42 752.401 252.358 757.543 252.622C762.685 252.886 767.785 253.659 773.005 254.526L780.577 255.7C783.091 256.21 785.596 256.822 788.079 257.405C793.067 258.599 798.046 259.895 802.998 261.213C807.95 262.531 812.841 264.278 817.748 265.822C822.656 267.365 827.622 268.814 832.5 270.713C842.296 274.338 852.309 277.504 862.44 281.098C883.256 284.712 843.993 272.082 842.285 269.884C846.022 267.377 850.957 269.516 855.87 272.527C860.783 275.537 866.154 278.562 871.784 277.583C873.948 275.856 863.772 270.351 850.747 264.983L830.284 257.148C823.495 254.875 817.284 252.71 812.791 250.788C809.682 250.055 806.531 249.583 803.373 249.379C801.567 249.206 799.759 249.218 797.976 249.413C795.666 249.848 793.438 250.588 791.349 251.615C787.716 249.072 783.702 247.18 779.493 246.026C775.282 244.926 771.221 243.207 767.443 240.925C763.155 240.833 759.173 240.45 755.354 240.27C751.534 240.09 747.929 239.786 744.48 239.452C737.512 238.698 731.06 237.58 724.613 237.028C718.165 236.476 711.701 235.51 704.787 235.33C697.213 235.316 689.677 235.841 682.235 236.9C671.464 233.009 707.242 235.934 696.067 235.357C689.973 235.473 683.988 235.501 677.811 235.682L679.761 236.215C672.707 237.671 665.537 238.634 658.3 239.098C650.346 239.748 641.812 240.908 633.704 241.253C617.347 242.722 601.849 243.695 593.798 244.28C598.296 243.502 602.946 243.609 607.501 244.597C609.65 245.493 608.354 246.622 601.401 248.752L588.416 246.58C578.608 250.751 569.181 256.184 559.969 260.876C565.408 258.282 571.118 256.254 577.016 254.822C582.797 253.247 588.751 252.674 593.835 251.798C598.284 251.177 602.679 250.287 606.994 249.131C608.413 248.952 609.751 248.432 610.899 247.616C612.046 246.799 612.972 245.707 613.6 244.43Z" fill="#FFB200"/>
<path d="M577.135 243.336C558.434 247.149 560.032 248.533 561.235 250.041C561.837 250.795 562.415 251.521 560.166 252.746C558.342 253.534 556.45 254.17 554.51 254.648C551.822 255.606 548.126 256.704 543.127 258.081L553.44 254.599C556.943 253.371 560.385 252.571 563.847 251.517C570.83 249.649 577.722 247.33 584.872 245.897C582.329 245.126 579.655 244.079 577.135 243.336Z" fill="#FFB200"/>
<path d="M235.83 716.751C236.215 722.852 236.361 727.53 236.354 731.285L235.79 716.925L235.83 716.751Z" fill="#FFB200"/>
<path d="M228.054 733.254C226.347 723.465 227.273 713.538 230.735 704.531C232.339 699.471 233.576 694.28 234.435 688.999C235.891 680.934 236.704 672.729 236.869 664.461C236.576 672.859 235.991 681.396 235.82 690.172L235.773 703.597C235.784 708.05 235.617 712.504 235.904 717.022C230.228 740.586 232.449 698.084 228.054 733.254Z" fill="#FFB200"/>
<path d="M330.608 407.57C330.876 407.119 331.136 406.77 331.403 406.319C332.831 404.23 332.173 405.373 330.608 407.57Z" fill="#FFB200"/>
<path d="M1196.9 731.617L1197.33 754.296C1197.31 761.909 1197.22 769.668 1197.15 777.841C1197.08 786.013 1196.55 794.557 1196.51 803.842L1195.85 818.234C1195.59 823.189 1195.61 828.492 1195.1 833.876C1200.63 833.885 1194.3 851.465 1199.46 855.231C1196.46 876.479 1192.07 897.425 1186.32 917.932C1185.03 923.282 1183.19 928.451 1181.58 933.627C1179.97 938.803 1178.5 943.87 1176.68 948.552C1173.1 958.004 1170.28 966.764 1167.35 973.374C1161.85 986.775 1159.63 993.253 1164.11 985.448L1166.41 974.452L1166.84 987.403C1155.84 1006.48 1136.93 1029.31 1131.07 1043.15C1130.63 1043.5 1131.84 1041.25 1134.37 1037.23C1135.67 1035.2 1137.25 1032.75 1139.08 1029.87C1140.91 1026.99 1142.77 1023.6 1144.92 1019.89C1155.66 1001.92 1165.21 983.199 1173.51 963.851L1180 947.992C1182 942.692 1183.75 937.407 1185.49 932.405C1186.39 929.882 1187.24 927.403 1188.08 924.975C1188.93 922.546 1189.56 920.089 1190.25 917.741L1193.9 904.286C1198.02 887.99 1200.12 877.582 1199.37 879.226C1200.67 877.429 1200.82 879.92 1200.1 885.762C1198.91 894.748 1197.15 903.618 1194.84 912.319C1187.44 941.514 1177.01 969.678 1163.71 996.353C1149.7 1024.5 1133.02 1051.1 1113.9 1075.79C1109.84 1080.93 1106.04 1085.66 1102.72 1089.88C1099.41 1094.09 1096.06 1097.66 1093.43 1100.71C1088.28 1106.95 1084.88 1110.62 1084.53 1111.52L1079.75 1111.15C1077.12 1114.48 1074.58 1117.65 1072.15 1120.73C1069.72 1123.81 1067.24 1126.59 1064.95 1129.46C1060.35 1134.93 1055.92 1140.61 1051.43 1145.38C1046.94 1150.15 1042.6 1155.32 1037.81 1160C1033.02 1164.67 1027.96 1169.23 1022.5 1173.97L1014.6 1174.01C1018.53 1171.87 1022.27 1169.42 1025.79 1166.69C1028.78 1164.3 1031.41 1162.21 1033.8 1159.87C1038.86 1155.41 1043.19 1150 1050.94 1142.63C1043.74 1148.38 1038.29 1153.35 1033.11 1156.86C1027.93 1160.38 1023.65 1163.27 1019.54 1165.98C1015.43 1168.69 1011.36 1170.85 1006.99 1173.57C1002.62 1176.3 997.929 1179.52 991.877 1183.12C993.659 1185.35 999.462 1182.9 1000.89 1182.33C1001.6 1182.05 1001.37 1182.43 999.08 1184.11C996.792 1185.79 992.456 1188.73 985.124 1193.87C980.058 1195.44 981.939 1191.9 981.629 1190.11C981.319 1188.31 979.107 1188.46 965.279 1196.08C930.233 1211.32 940.626 1215.75 909.057 1227.93L914.689 1226.62L920.214 1225.06L931.185 1221.95C919.745 1227 897.892 1235.8 885.268 1236.04C886.991 1235.62 888.979 1235.08 891.287 1234.37C893.596 1233.67 895.903 1232.68 898.388 1231.7C903.359 1229.73 908.691 1227.42 913.462 1225.08C922.837 1219.98 930.049 1214.74 928.432 1212.38C915.878 1219.12 885.386 1226.98 873.45 1230L879.652 1224C873.648 1224.21 867.782 1225.47 862.314 1227.73C855.898 1229.98 849.133 1231.24 842.24 1231.45C834.638 1234 837.302 1234.87 841.028 1235.55C844.755 1236.23 849.03 1236.47 844.819 1238.22C838.048 1238.31 831.312 1238.82 824.648 1239.74L817.431 1240.75C814.981 1241 812.606 1241.28 810.378 1241.63C806.61 1242.09 802.907 1242.88 799.314 1244.01C802.323 1245.9 805.845 1246.66 809.233 1246.16C814.195 1245.86 819.098 1245.12 823.887 1243.96C829.407 1242.6 835.008 1241.54 840.669 1240.77C846.209 1239.81 851.905 1239.68 857.575 1240.39C852.6 1241.17 847.668 1242.07 842.674 1242.78L827.65 1244.51C819.136 1250.03 831.038 1248.03 844.07 1245.65C856.952 1242.64 870.845 1239.15 866.967 1243.34C856.94 1249.82 844.701 1250.66 832.767 1250.59C820.833 1250.52 809.291 1250.67 799.443 1257.15C811.038 1257.15 822.579 1256.4 833.993 1254.88C846.493 1253.69 856.286 1252.14 853.785 1254.23C846.067 1254.55 838.497 1256 831.31 1258.54C827.691 1259.62 823.801 1261.21 819.462 1262.35C815.123 1263.48 810.344 1264.68 804.754 1265.49C795.666 1265.34 786.333 1264.43 777.186 1263.75C766.027 1266.96 775.221 1266.46 784.362 1267.52C764.292 1266.92 737.415 1267 708.387 1264.67C679.36 1262.34 648.347 1256.85 621.212 1246.55C617.062 1245.73 613.931 1244.95 611.522 1244.41C609.798 1244 608.056 1243.69 606.307 1243.49C604.102 1243.25 604.009 1243.76 604.487 1244.47C605.528 1245.77 608.573 1248.18 600.844 1247.37C590.8 1241.99 580.29 1237.65 569.482 1234.42C563.52 1232.34 557.652 1230.04 552.179 1228.24C547.094 1226.57 542.094 1224.6 537.204 1222.34C532.215 1219.63 521.02 1219.59 525.229 1223.68C540.233 1229.84 555.543 1235.1 570.927 1239.77C567.954 1241.38 573.368 1247.89 590.045 1253C587.752 1249.84 590.639 1249.87 596.254 1251.51C599.1 1252.32 602.629 1253.54 606.572 1255C610.515 1256.46 614.762 1257.96 619.44 1259.5C637.529 1265.76 658.04 1270.57 660.285 1265.74L659.026 1270.4C664.08 1271.11 669.298 1271.7 674.326 1272.1L689.628 1273.47C699.862 1273.99 710.147 1274.52 720.291 1274.59L718.486 1273.84C718.402 1274.24 721.611 1274.39 726.926 1274.42L736.413 1274.4C740.021 1274.37 744.005 1274.42 748.248 1274.12L761.623 1273.46C766.239 1273.29 771.03 1273.17 775.745 1272.73C780.461 1272.29 785.182 1272.09 789.775 1271.89C792.083 1271.8 794.204 1271.82 796.543 1271.66L802.994 1271.26C798.383 1272.9 781.974 1273.46 770.989 1274.58C760.004 1275.7 754.177 1275.99 770.965 1278.54C763.639 1279.36 756.249 1279.74 748.832 1279.68C744.519 1279.89 740.152 1279.53 735.473 1279.23L720.903 1278.28C715.862 1278.03 710.577 1277.02 705.277 1276.5C699.977 1275.99 694.649 1275.49 689.044 1274.65C683.439 1273.8 677.931 1273.02 672.294 1272.25L663.768 1271.17L655.24 1269.81L663.719 1274.82C636.579 1271.99 609.722 1265.6 583.826 1255.82C556.816 1245.5 530.338 1233.6 504.529 1220.21C509.976 1221.42 515.446 1222.66 520.731 1223.66C516.529 1221.32 512.227 1218.34 507.765 1215.45C503.303 1212.55 498.661 1209.66 494.098 1206.75C489.535 1203.84 484.994 1200.96 480.595 1198.53C476.298 1196.22 471.887 1194.14 467.385 1192.32C472.281 1195.53 475.401 1197.36 477.067 1198.83C478.734 1200.3 479.062 1200.66 478.664 1200.83C478.266 1201.01 473.611 1200.12 471.429 1199.91C464.396 1196.27 456.838 1191.57 448.799 1186.5C440.761 1181.42 432.613 1175.2 424.199 1168.81L411.67 1158.73L405.27 1153.63L398.792 1147.93L386.163 1137.21L373.835 1126.26C373.835 1126.26 376.02 1127.03 375.095 1125.25C372.205 1122.81 369.261 1120.41 366.426 1117.93L358.113 1110.32C352.553 1105.26 346.831 1100 341.516 1094.46C327.512 1077.86 325.224 1070.05 319.094 1058.04C313.84 1052.08 302.364 1036.12 304.701 1043.66C306.639 1046.83 308.775 1049.89 311.096 1052.8C293.507 1036.88 302.632 1039.04 284.163 1016.51C299.838 1033.01 285.178 1007.73 290.314 1007.76C271.567 979.995 282.463 1008.71 278.714 1006.15C276.334 1001.59 274.246 997.511 272.408 993.803C270.57 990.095 269.229 986.56 267.793 983.244C265.157 976.85 262.918 971.515 260.941 966.115C258.963 960.715 256.928 955.075 254.509 948.84C253.212 945.698 251.917 942.221 250.583 938.301C249.249 934.381 247.5 930.223 245.618 925.505C243.985 924.862 246.408 931.664 249.079 939.169L251.063 944.802C251.777 946.653 252.501 948.402 253.057 949.999C254.029 952.169 254.558 954.496 254.609 956.831C250.021 946.25 244.589 933.542 242.83 931.955C245.463 939.918 248.091 947.932 251.274 955.742C247.141 945.842 243.865 935.781 240.09 925.881C238.148 920.975 236.627 915.922 234.997 910.957L229.842 895.844C223.55 875.373 216.86 854.459 211.203 831.582L210.678 835.419L207.732 821.107C206.723 816.358 206.153 811.543 205.272 806.787L211.644 816.514C210.075 808.977 209.036 801.366 208.535 793.74C207.928 786.629 207.454 780.361 205.101 776.4L205.277 782.24C204.05 775.814 202.722 769.373 201.651 762.918C203.834 769.531 206.228 776.071 208.415 782.633C208.062 775.934 207.219 769.244 205.894 762.617C204.699 755.501 203.338 747.615 201.781 739.315C200.225 731.015 199.399 722.227 198.528 712.764C197.879 703.054 197.861 693.347 198.476 683.706C200.174 681.733 200.991 685.117 201.395 691.298C201.595 694.414 201.708 698.264 201.764 702.491C201.82 706.719 201.791 711.347 202.158 716.133L203.3 730.318L203.859 737.087L204.819 743.347C206.185 751.182 207.848 756.976 210.023 758.184C210.314 751.638 210.287 742.783 210.255 734.596C210.618 728.004 210.169 721.345 208.919 714.774C206.703 716.21 206.78 725.69 206.83 735.192C205.588 725.641 205.022 716.05 205.137 706.494C205.397 701.539 205.527 696.308 205.801 691.2L206.213 683.514L207.02 675.986L209.719 647.96C210.44 640.774 210.457 633.494 209.771 626.225C208.536 630.296 207.463 634.57 206.39 638.844L203.172 651.666C203.935 644.712 205.166 637.846 206.857 631.113C208.597 624.978 210.567 619.751 212.211 615.068C215.379 605.61 218.372 598.854 217.182 593.205L218.369 605.93C218.903 610.251 219.574 614.463 220.19 618.719C220.435 614.868 220.669 610.836 221.207 606.846C221.745 602.857 222.475 598.714 223.204 594.572C223.934 590.43 224.644 586.207 225.58 582.042L228.695 569.54C229.838 565.353 230.746 561.211 231.954 557.162C233.161 553.112 234.446 549.049 235.532 545.24L238.842 533.769C240.02 530.076 241.134 526.528 242.116 523.039C241.074 522.351 239.573 524.403 237.958 527.828C237.125 529.537 236.376 531.464 235.386 533.82C234.397 536.176 233.867 538.545 233.153 540.966C230.263 550.773 227.887 560.549 227.852 559.437C228.003 554.57 228.615 549.999 228.987 545.24C231.206 540.099 232.973 536.078 234.366 532.878C235.758 529.678 237.175 527.409 238.145 525.59C240.135 521.961 241.212 520.389 242.361 518.571C243.51 516.752 244.767 514.562 247.251 509.922C249.735 505.281 253.672 498.248 260.154 486.762L257.51 484.741C261.308 480.205 264.51 475.179 267.044 469.776L276.303 452.277C278.099 448.282 280.368 444.544 283.063 441.14C284.63 439.509 285.266 440.473 284.597 445.422C281.431 449.04 278.478 452.868 275.515 456.514L279.488 457.616C289.278 439.664 300.13 422.366 311.989 405.811C310.504 412.266 328.574 389.065 326.521 397.729C330.217 391.125 334.518 384.94 338.656 378.552C344.198 376.789 338.363 385.432 331.764 395.254C325.166 405.077 318.008 416.389 319.162 418.791C320.424 419.304 322.48 417.331 324.7 414.943C326.871 412.567 328.891 410.051 330.749 407.41C325.052 416.911 317.939 425.419 309.645 432.652C305.94 435.987 302.421 439.555 298.693 443.479C294.456 447.748 290.746 452.524 287.635 457.714L283.845 470.944L280.023 467.727C277.833 472.332 276.207 477.216 275.178 482.275C274.382 485.575 273.886 488.958 273.694 492.383C271.417 494.827 269.395 497.506 267.657 500.38C265.836 503.21 264.181 506.193 262.521 509.226C260.889 512.379 259.423 515.624 258.13 518.948C256.845 522.395 255.629 525.928 254.378 529.585C253.126 533.242 251.894 536.979 250.699 540.875L247.274 553.102C246.109 557.26 244.581 561.47 243.363 565.954C242.145 570.439 240.665 574.99 239.095 579.709C242.478 563.385 239.893 568.011 236.318 576.228C232.742 584.445 229.236 596.12 229.211 593.054C228.231 597.444 227.089 603.767 226.164 610.867L224.119 633.813C223.589 641.689 223.122 649.419 222.13 656.097C221.626 661.641 220.375 667.048 218.41 672.168C215.18 682.672 217.001 648.939 213.63 674.605C213.456 678.826 213.308 682.742 213.463 686.083C213.644 688.686 214.008 691.283 214.553 693.854C215.39 697.6 216.595 697.874 217.986 692.538C217.479 729.828 219.003 774.327 226.632 814.903L221.939 805.594C222.13 808.811 222.532 811.956 222.797 815.21C223.062 818.464 223.936 821.469 224.6 824.548C226.008 830.64 227.598 836.397 229.42 841.826C232.662 850.722 236.599 859.377 241.192 867.705C241.01 871.41 242.527 873.143 239.512 869.757C240.522 876.823 242.297 883.796 244.806 890.55C247.372 896.437 250.3 902.171 253.572 907.718C256.761 913.624 260.759 919.928 265.136 927.829C269.512 935.73 274.547 945.242 279.977 957.667C281.297 955.332 279.403 948.631 276.115 940.858C274.368 936.983 272.53 932.657 270.615 928.347C268.7 924.036 266.437 919.908 264.268 916.179L270.641 918.547C252.709 876.127 239.569 826.228 231.599 789.721L238.126 806.16C238.612 800.38 238.337 794.519 237.307 788.727C236.793 785.503 235.853 782.341 234.513 779.326C233.207 776.445 232.298 773.414 231.814 770.324C231.555 768.048 231.472 765.765 231.566 763.496C231.858 760.303 232.327 757.14 232.971 754.02C229.771 732.03 231.302 770.02 228.056 753.479C228.279 745.611 230.618 746.688 232.616 746.327C233.287 746.225 233.898 745.915 234.368 745.438C234.838 744.962 235.143 744.342 235.242 743.663C236.015 739.691 236.329 735.617 236.18 731.521C238.617 782.269 248.178 832.808 264.573 881.613C273.175 906.603 283.57 931.012 295.672 954.638C307.781 977.828 321.613 1000.12 337.042 1021.32C338.976 1022.34 335.949 1017.87 333.219 1013.21C338.652 1019.08 343.745 1025.26 348.471 1031.71C355.414 1040.41 364.021 1051.53 374.529 1063.47C398.25 1091.3 424.666 1116.69 453.338 1139.2C480.924 1160.69 510.763 1178.91 542.224 1193.46L551.565 1197.64C554.548 1198.96 557.483 1199.94 560.184 1200.97C565.664 1203 570.536 1204.67 574.675 1205.92C583.002 1208.16 588.422 1208.77 589.956 1207.55C594.156 1211.12 578.013 1207.58 598.435 1214.69C600.562 1214.32 606.104 1214.69 601.805 1211.38C626.5 1223.34 657.516 1230.64 690.013 1234.28C722.509 1237.93 756.35 1238.03 788.488 1238.02C787.585 1236.89 790.705 1235.97 793.9 1234.75C797.096 1233.53 800.558 1232.47 800.466 1231.74C806.802 1232.48 813.16 1232.47 819.413 1231.72C826.301 1230.97 833.42 1229.61 840.57 1228.18C847.721 1226.74 854.568 1224.65 861.081 1223.2C866.821 1221.62 872.669 1220.39 878.594 1219.53L871.455 1218.68C891.925 1213.27 911.922 1206.42 931.306 1198.17C931.938 1197.33 930.335 1197.85 927.917 1198.64L919.82 1201.31C922.335 1200.04 924.937 1198.95 927.61 1198.03C929.3 1197.42 931.059 1196.99 932.857 1196.74C933.784 1196.57 934.745 1196.6 935.684 1196.81C936.623 1197.02 937.522 1197.42 938.327 1197.98L949.892 1189.61L961.041 1180.71L968.268 1177.74C970.703 1176.75 973.027 1175.56 975.42 1174.46C980.187 1172.17 985.095 1169.73 989.825 1167.29C999.505 1161.85 1008.86 1155.86 1017.83 1149.35C1027.14 1142.92 1035.85 1135.35 1044.76 1127.87C1053.25 1119.86 1061.92 1111.84 1069.84 1103.11C1086.13 1085.56 1101.14 1066.83 1114.76 1047.04C1128.48 1027.26 1141.12 1007.03 1153.29 986.49C1154.38 978.975 1156.06 971.59 1158.3 964.402C1159.51 960.636 1160.52 956.507 1161.89 952.044C1163.26 947.58 1165.33 942.701 1167.13 937.038C1165.48 940.587 1163.58 943.817 1161.62 947.323C1164.58 935.467 1164.85 935.249 1165.72 935.603C1166.58 935.957 1167.24 936.951 1169.77 926.912C1171.83 912.64 1164.84 920.4 1160.89 938.985C1154.95 949.132 1156.5 941.864 1158.34 933.658C1170.84 900.267 1180.27 865.627 1186.49 830.162C1192.13 797.706 1195.6 764.785 1196.9 731.617Z" fill="#FFB200"/>
</g>
<defs>
<clipPath id="clip0">
<rect width="1168.67" height="1092.74" fill="white" transform="translate(1454.74 1036.98) rotate(161.607)"/>
</clipPath>
</defs>
</svg>
