<svg width="665" height="219" viewBox="0 0 665 219" fill="none" xmlns="http://www.w3.org/2000/svg">
<path d="M18.2688 208.168C16.1609 208.027 14.1935 207.746 14.1935 207.746C14.1935 207.746 14.1935 207.746 14.1935 207.887C15.7393 208.027 17.0041 208.168 18.2688 208.168Z" fill="#FFBC20"/>
<path d="M22.3438 207.746C21.9223 207.746 21.5007 207.605 21.0791 207.605C21.2196 207.605 21.2196 207.605 21.3602 207.746C21.6412 207.746 21.9223 207.746 22.3438 207.746Z" fill="#FFBC20"/>
<path d="M14.1934 207.888C14.4745 208.169 16.1608 208.591 14.0529 208.591C11.8045 208.31 7.30759 207.888 4.91863 207.747C2.6702 207.606 4.91863 208.028 4.91863 208.169C3.79442 208.028 2.6702 207.888 1.82704 207.888C0.983878 207.747 0.42177 207.747 0.42177 207.747C-1.12403 207.747 1.40546 208.169 5.7618 208.591C15.5987 208.872 40.472 210.842 14.1934 207.888Z" fill="#FFBC20"/>
<path d="M32.3214 209.012C28.3866 208.731 24.3113 208.309 20.3766 208.027C19.1118 208.027 17.4255 208.027 18.5497 208.309C24.8734 208.731 28.6677 208.871 32.3214 209.012Z" fill="#FFBC20"/>
<path d="M640.522 35.0103C640.522 35.0103 640.663 34.8697 641.927 33.1817C641.365 33.885 640.944 34.4477 640.522 35.0103C640.522 35.0103 640.663 35.0103 640.101 35.8543C645.019 29.6651 650.499 22.0693 655.418 14.4735C655.98 13.4888 656.542 12.5042 656.964 11.5195C645.159 30.6498 630.545 47.67 617.195 60.1891C626.61 51.3273 632.653 44.7161 640.522 35.0103Z" fill="#FFBC20"/>
<path d="M657.385 9.83257C657.807 9.12925 658.088 8.5666 658.51 7.86328C657.526 9.55124 657.385 9.69191 657.385 9.83257Z" fill="#FFBC20"/>
<path d="M480.462 70.034C488.894 81.1464 494.796 92.1181 498.73 104.075C494.796 91.2742 488.05 79.4584 480.462 69.612C476.527 64.5481 472.452 60.1875 468.236 56.1083C464.02 52.1697 459.945 48.6531 455.729 45.6992C460.507 49.0751 464.723 52.8731 468.939 56.9523C473.155 61.0315 476.949 65.3921 480.462 70.034Z" fill="#FFBC20"/>
<path d="M486.786 163.578C493.109 157.108 497.325 149.793 499.714 142.338C502.244 134.883 502.806 127.568 502.384 120.535C502.806 127.709 502.103 135.023 499.714 141.775C498.59 145.151 497.185 148.527 495.358 151.622C493.531 154.716 491.564 157.67 489.315 160.484C488.613 161.468 487.629 162.593 486.786 163.578Z" fill="#FFBC20"/>
<path d="M497.606 146.84C500.979 139.244 502.244 131.648 502.244 124.474C502.244 117.3 500.838 110.549 498.871 104.078C501.119 111.252 502.244 118.848 502.103 126.162C501.962 129.82 501.541 133.477 500.838 136.993C499.995 140.369 498.871 143.745 497.606 146.84Z" fill="#FFBC20"/>
<path d="M522.761 95.919C532.738 95.2157 538.781 94.231 542.153 93.6684C543.699 93.2464 545.526 92.8244 548.196 92.1211C547.634 92.2618 547.072 92.4024 546.51 92.5431C536.532 94.653 525.993 95.6377 515.313 95.7783C510.956 95.919 506.74 95.7783 503.368 95.7783C509.832 96.0597 516.296 96.2003 522.761 95.919Z" fill="#FFBC20"/>
<path d="M542.153 93.6681C535.83 95.0747 539.062 94.5121 542.294 93.9494C543.84 93.6681 545.526 93.2461 545.807 93.1054C546.229 92.9648 545.385 93.1054 542.153 93.6681Z" fill="#FFBC20"/>
<path d="M476.668 96.9027C476.106 96.762 475.684 96.762 475.122 96.6213C473.576 96.34 472.171 96.0587 470.625 95.7773C472.733 96.1993 474.7 96.4807 476.668 96.9027Z" fill="#FFBC20"/>
<path d="M435.353 39.2296C433.245 38.8076 431.137 38.5263 429.029 38.5263C426.921 38.5263 424.813 38.8076 422.705 39.3703C418.63 40.4956 414.836 42.8869 411.885 45.7001C414.976 42.7462 418.911 40.3549 422.986 39.2296C427.062 38.1043 431.418 38.245 435.634 39.2296C443.925 41.1989 451.092 45.8408 456.994 50.342C455.308 48.9354 453.481 47.5287 451.513 46.2628C447.86 44.0122 441.817 40.6362 435.353 39.2296Z" fill="#FFBC20"/>
<path d="M547.493 96.3402C535.408 98.8721 523.041 99.7161 510.956 99.7161C498.871 99.5755 486.926 98.5908 475.262 96.6215C463.458 94.3709 452.075 90.8543 441.114 86.9158C438.304 85.9311 435.634 84.8058 432.964 83.8212C430.294 82.8365 427.483 81.7112 424.954 80.3046C419.895 77.3506 415.117 74.1154 411.041 70.0362C409.074 67.9262 407.107 65.6756 405.842 63.003C404.577 60.3304 404.015 57.2358 404.437 54.2818C404.999 51.3279 406.404 48.6553 408.09 46.4047C409.917 44.1541 412.025 42.1848 414.274 40.6375C416.663 39.0902 419.192 37.8242 421.862 36.9803C424.532 36.1363 427.343 35.8549 430.153 35.8549C435.774 35.9956 440.974 37.8242 445.752 39.9342C454.183 44.0134 462.896 50.7653 471.187 59.3457C479.478 67.7855 487.067 78.1946 492.688 89.5884C498.309 100.982 501.962 113.642 501.681 125.88C501.541 131.928 500.417 137.836 498.73 143.04C496.903 148.245 494.374 153.028 491.704 156.966C494.093 153.59 496.201 150.214 497.747 146.698C495.498 151.902 492.688 156.403 489.596 160.342C487.066 163.437 484.256 166.109 481.305 168.782C478.354 171.314 475.122 173.564 471.89 175.674C465.425 179.894 458.54 183.411 451.654 186.505C437.742 192.554 423.267 197.055 408.934 201.416C405.42 202.541 401.767 203.666 397.972 204.51C394.319 205.495 390.525 206.339 386.73 207.042C379.282 208.449 371.694 209.574 364.105 210.559C349.069 212.388 333.752 213.653 318.434 214.779C309.3 215.341 302.555 215.904 293.42 216.326C284.146 216.748 275.152 217.17 266.018 217.451C266.018 217.451 266.158 217.451 266.299 217.451C247.609 218.155 228.919 218.717 210.088 218.858C191.257 218.999 172.286 218.858 152.893 218.577C134.625 218.155 116.356 217.451 98.2284 216.467C91.3426 216.045 91.3426 215.763 86.8457 215.482C68.7178 214.075 55.0867 212.809 34.5697 210.981V210.84C31.4781 210.559 28.6676 210.418 26.2786 210.137C36.1155 210.278 60.9888 211.965 34.7102 209.293C36.1155 209.434 37.5208 209.434 38.7855 209.574C38.9261 209.574 39.0666 209.574 39.2071 209.574C45.3903 209.996 49.1845 210.137 52.8382 210.137C48.9035 209.856 44.8282 209.574 40.8934 209.152C41.5961 209.152 42.1582 209.012 41.7366 208.871C42.0176 208.871 42.4392 208.871 42.7203 208.871C44.5471 209.012 45.9524 209.152 45.9524 209.152C46.5145 209.152 46.9361 209.152 47.2171 209.152C57.6161 209.715 74.0578 210.559 70.9662 210.137C68.5772 209.856 60.9888 209.434 52.2761 208.871C51.714 208.871 51.1519 208.73 50.5898 208.73C61.9725 209.574 50.5898 208.308 57.4756 208.73C66.6099 209.434 75.6036 209.856 84.7378 210.418C121.696 212.528 152.893 213.513 189.29 213.653C190.836 213.653 192.522 213.653 194.068 213.653C211.774 213.653 228.356 213.372 245.641 212.95C244.517 213.091 243.393 213.091 242.269 213.231C256.181 212.95 270.093 212.387 284.005 211.825C301.009 210.981 318.013 209.856 335.297 208.449C343.87 207.746 352.582 206.761 361.295 205.776C370.008 204.651 378.861 203.385 387.714 201.556C392.351 200.572 396.848 199.446 401.345 198.18C405.842 196.774 410.339 195.508 414.836 194.101C423.829 191.288 432.683 188.334 441.395 184.958C450.108 181.582 458.54 177.644 466.55 172.72C474.419 167.797 481.726 161.889 487.348 154.294C482.851 160.483 477.089 165.687 470.765 170.188C464.301 174.69 457.275 178.347 449.967 181.582C443.363 184.536 436.617 186.927 430.013 189.319C436.898 186.927 443.644 184.536 449.967 181.582C462.615 176.096 474.981 168.923 483.834 159.217C486.083 156.825 488.05 154.294 489.596 151.621C490.439 150.355 491.142 148.948 491.844 147.542C492.407 146.135 493.109 144.869 493.671 143.462C495.92 137.977 496.763 132.35 496.903 127.145C497.044 124.895 497.184 124.895 497.044 122.785C496.903 115.048 495.077 107.453 492.547 100.419C489.877 93.3863 486.504 86.9158 482.851 81.2892C482.851 81.2892 482.851 81.1486 482.71 81.0079C482.57 80.8672 482.429 80.5859 482.289 80.4452C482.008 80.0233 481.586 79.3199 481.164 78.7573C480.321 77.632 479.759 76.6473 480.321 77.632C478.494 74.9594 476.386 72.0054 474.138 69.3328C471.89 66.6602 469.36 63.9876 466.831 61.315C461.772 56.1105 456.151 51.4686 450.67 47.8113C445.892 44.7167 440.833 42.1848 435.493 41.0595C432.823 40.3562 430.013 40.2155 427.483 40.3562C424.813 40.6375 422.284 41.2002 419.895 42.4661C415.117 44.7167 410.76 48.796 409.215 53.2972C408.793 54.4225 408.652 55.5478 408.652 56.5325V57.3764L408.793 58.2204C408.793 58.7831 409.074 59.3457 409.215 59.9084C410.058 62.159 411.604 64.269 413.571 66.2382C415.538 68.2075 417.787 70.0361 420.035 71.7241C421.159 72.5681 422.424 73.4121 423.689 74.1154C424.954 74.9594 426.218 75.6627 427.483 76.366C430.013 77.7726 432.683 78.7573 435.634 79.8826C438.585 81.0079 441.395 82.1332 444.346 83.1178C450.108 85.2278 456.01 87.0564 462.053 88.6037C468.095 90.2917 474.138 91.5576 480.321 92.5423C486.504 93.5269 492.969 94.0896 499.433 94.5116C512.221 95.3556 527.117 95.0742 539.764 93.2456C530.489 94.7929 520.793 95.3556 510.956 95.3556C501.119 95.3556 491.142 94.6522 481.305 93.2456C471.749 91.839 462.615 89.4477 454.043 86.7751C449.686 85.3685 445.611 83.9618 441.676 82.5552C439.709 81.8519 437.742 81.1486 435.915 80.4452C433.947 79.7419 432.12 79.0386 430.434 78.3353C428.888 77.632 427.343 76.9287 425.937 76.0847C425.235 75.6627 424.391 75.2407 423.689 74.8187L421.44 73.4121C422.565 74.1154 423.689 74.8187 424.813 75.522C425.937 76.2253 427.062 76.788 428.186 77.3506C430.434 78.4759 432.823 79.4606 435.493 80.4452C440.552 82.4145 445.611 84.2431 450.67 85.9311C460.929 89.307 471.187 91.839 481.445 93.3863C492.688 95.2149 504.492 96.0589 516.015 95.9182C515.734 95.9182 515.594 95.9182 515.312 95.9182C506.319 96.0589 497.184 95.6369 488.05 94.6522C470.906 92.683 454.886 87.9004 441.395 83.1178C439.709 82.5552 438.023 81.8519 436.477 81.2892C432.964 79.8826 429.732 78.8979 426.78 77.21C429.591 78.7573 432.542 79.8826 435.774 81.1486C438.866 82.4145 441.957 83.5398 445.189 84.6651C451.513 86.9158 457.837 88.7444 464.161 90.4323C472.03 92.4016 480.04 93.8083 488.05 94.7929C493.109 95.3556 498.168 95.9182 503.368 96.1995C502.806 96.1995 502.243 96.1995 501.822 96.1995C497.325 96.0589 484.678 95.4962 491.423 96.4809C499.995 97.3248 509.551 97.7468 518.966 97.6062C528.381 97.3248 537.656 96.4809 545.666 94.7929C553.676 93.2456 560.422 90.8543 565.2 89.1664C567.589 88.1817 569.415 87.4784 570.68 86.9158C571.945 86.3531 572.647 86.0718 572.647 86.0718C573.772 85.6498 560.843 92.1203 546.931 94.9336C533.019 98.0282 518.545 98.0282 519.809 98.0282C521.496 98.0282 523.182 98.0282 524.868 97.8875C526.555 97.8875 528.241 97.7468 529.787 97.6062C528.241 97.7468 526.695 97.8875 525.149 98.0282C523.604 98.1688 522.198 98.3095 520.652 98.3095C513.907 98.5908 504.773 98.3095 500.276 98.0282C492.407 97.7468 483.834 96.9029 475.262 95.3556C466.69 93.8083 457.837 91.417 449.265 88.6037C443.784 86.9158 438.023 84.8058 431.839 82.4145C428.748 81.2892 425.797 79.8826 422.846 78.1946C419.895 76.5067 417.084 74.5374 414.414 72.4274C414.414 72.4274 413.009 71.4428 412.025 70.4581C411.041 69.4735 410.198 68.6295 410.901 69.4735C408.652 67.2229 406.685 64.4096 405.561 61.315C404.999 59.7677 404.858 58.0798 404.858 56.5325C404.999 54.9852 405.28 53.4379 405.842 52.0312C406.966 49.218 408.793 46.9674 410.479 45.2794C412.166 43.5914 413.711 42.3255 414.836 41.4815C415.117 41.3408 415.398 41.2002 415.679 40.9188C416.1 40.6375 416.522 40.3562 417.084 40.0748C417.646 39.7935 418.208 39.5122 418.911 39.2309C421.44 38.1056 423.97 37.5429 426.499 37.2616C429.029 36.9802 431.558 37.1209 433.807 37.5429C438.585 38.3869 442.801 40.0748 446.735 42.0441C450.67 44.0134 454.324 46.5454 457.977 49.218C461.631 51.8906 465.004 54.9852 468.517 58.3611C473.295 63.1436 477.792 68.2075 481.867 73.9747C480.462 72.1461 478.775 69.7548 476.949 67.5042C475.122 65.2536 473.154 63.1436 471.609 61.4557C470.484 60.3304 469.501 59.3457 468.376 58.2204C462.193 52.1719 455.588 46.686 448.141 42.4661C444.487 40.3562 440.552 38.8089 436.477 37.6836C432.402 36.5583 428.045 36.4176 423.97 37.1209C423.267 37.2616 422.424 37.5429 421.44 37.8242C420.457 38.1056 419.473 38.5275 418.63 38.9495C417.506 39.3715 416.381 39.9342 415.398 40.6375C415.117 40.7782 414.976 41.0595 414.695 41.2002C411.322 43.4508 408.231 46.264 406.264 49.9213C405.28 51.7499 404.577 53.7192 404.437 55.8291C404.296 57.9391 404.718 60.049 405.561 61.8777C407.247 65.6756 409.917 68.6295 412.728 71.1615C415.538 73.6934 418.63 75.8033 421.44 77.4913C424.11 79.1793 426.921 80.7266 429.872 81.8519C432.823 82.9772 435.915 84.2432 438.866 85.3685C444.908 87.6191 451.092 89.729 457.415 91.5576C463.739 93.3863 470.063 94.9336 476.527 96.1995C482.991 97.3248 489.455 98.1688 495.779 98.7315C489.455 98.3095 482.991 97.6062 476.808 96.6215C470.625 95.6369 464.442 94.2303 458.399 92.5423C473.435 96.9029 488.05 98.5908 502.243 99.2941C504.492 99.4348 506.6 99.4348 508.708 99.5755C513.205 99.7161 517.842 99.5755 522.339 99.4348C518.123 99.5755 513.907 99.5755 509.691 99.4348C518.123 99.5755 526.555 99.1535 534.705 98.1688C540.326 97.4655 545.947 96.4809 551.568 95.0742C557.049 93.5269 562.529 91.839 567.87 89.5884C578.55 85.2278 588.668 79.4606 598.083 72.7088C616.913 59.2051 633.074 42.0441 646.565 23.4766C646.143 24.3205 645.581 25.1645 645.019 26.1492C631.95 44.1541 616.07 60.049 601.596 71.0208C606.795 67.2229 610.871 63.7063 614.946 60.049C618.881 56.3918 622.675 52.7346 627.031 48.2333C627.031 48.2333 627.172 48.2333 626.469 48.9366C631.95 43.1694 637.852 36.1363 643.332 28.8218C641.787 31.2131 639.819 33.8857 637.992 36.4176C635.182 40.0748 630.685 45.2794 626.048 50.2026C615.789 60.893 604.688 70.3175 592.743 78.054C580.657 85.7904 567.588 91.9796 553.395 95.7775C540.748 99.0128 527.679 100.138 514.75 100.279C501.822 100.279 489.034 99.2941 476.386 97.0435C488.893 99.1535 500.979 99.8568 512.783 99.8568C524.868 99.7161 536.391 98.7315 547.493 96.3402ZM83.0515 213.091C85.4405 213.231 87.8294 213.372 90.2184 213.372C89.7968 213.372 89.5158 213.231 89.0942 213.231C86.9863 213.091 84.7378 213.091 83.0515 213.091ZM136.311 215.623C120.713 214.919 100.055 214.216 80.241 213.091C80.1004 213.091 80.1005 213.091 80.1005 213.091C96.6826 214.216 117.2 215.06 136.311 215.623ZM198.705 218.155C198.565 218.155 198.424 218.155 198.284 218.155C198.565 218.155 198.565 218.155 198.705 218.155ZM470.344 173.986C462.755 179.191 453.34 183.692 443.222 187.771C433.104 191.851 422.284 195.367 411.323 198.602C408.09 199.587 404.858 200.712 401.205 201.697C397.691 202.822 393.757 203.807 389.26 204.792C378.018 207.183 371.272 208.168 362.138 209.293C364.387 209.012 366.635 208.871 369.024 208.59C361.014 209.574 354.831 210.418 348.647 211.122C345.556 211.403 342.464 211.825 339.092 212.106C335.719 212.387 332.206 212.669 328.271 212.95C328.271 212.95 327.709 213.091 326.866 213.231C326.023 213.372 324.898 213.513 323.774 213.513C318.153 213.935 312.392 214.216 307.052 214.497C301.711 214.779 296.512 215.06 292.015 215.341C280.632 215.904 269.25 216.326 260.116 216.748C257.867 216.889 253.23 217.17 248.733 217.311C243.112 217.451 237.631 217.592 232.01 217.733C232.291 217.733 232.432 217.733 232.713 217.733C237.21 217.592 241.847 217.592 246.484 217.311C260.115 216.748 276.136 216.185 289.767 215.482C306.911 214.638 323.353 213.513 339.513 212.106C347.664 211.262 355.674 210.559 363.543 209.434C371.553 208.449 379.423 207.183 387.292 205.495C394.038 204.088 400.783 202.26 407.247 200.15C417.084 197.055 427.905 193.679 437.882 190.022C447.859 186.365 456.713 182.145 462.615 178.769C464.442 177.644 468.517 175.393 470.344 173.986ZM487.067 154.997C480.181 164.421 469.782 171.876 458.821 177.503C447.859 183.27 436.336 187.349 425.656 190.866C421.3 192.273 414.976 194.242 407.95 196.493C404.437 197.618 400.783 198.743 397.129 199.728C393.476 200.712 389.822 201.556 386.449 202.26C379.563 203.666 373.38 204.792 369.586 205.495C365.792 206.198 364.246 206.48 366.494 206.48C371.975 205.354 384.201 203.666 398.535 199.868C412.728 195.649 429.732 190.585 444.908 184.536C452.497 181.442 459.523 178.066 465.706 174.408C471.749 170.892 476.808 166.953 480.462 163.577C484.115 160.201 486.364 157.247 487.488 155.559C488.331 153.872 488.331 153.59 487.067 154.997ZM408.231 57.9391C407.95 56.1105 408.09 54.4225 408.934 52.5939C409.636 50.7653 410.76 49.0773 412.306 47.53C415.257 44.4354 419.192 41.7628 423.829 40.6375C419.614 41.7628 415.679 44.1541 412.587 47.2487C409.636 50.3433 407.669 54.2818 408.231 57.9391ZM478.213 70.7395C473.576 64.9723 468.376 59.4864 462.755 54.5632C457.134 49.64 450.951 44.9981 444.065 41.7628C440.693 40.2155 437.039 38.9495 433.385 38.3869C429.732 37.8242 425.937 38.1056 422.424 39.0902C418.911 40.2155 415.679 42.0441 413.009 44.4354C410.339 46.8267 407.95 49.64 406.966 53.0159C406.123 55.5478 406.264 58.2204 407.107 60.7524C407.95 63.2843 409.636 65.5349 411.604 67.6449C415.398 71.8648 420.316 75.1 425.235 78.054C427.624 79.4606 430.294 80.5859 432.964 81.7112C435.634 82.6959 438.304 83.8212 440.833 84.8058C446.033 86.7751 451.232 88.3224 456.01 89.729V89.5884L453.902 89.0257C446.314 86.6344 440.412 84.2431 434.228 81.7112C434.65 81.8519 434.931 81.9925 435.353 82.1332C434.79 81.8519 434.088 81.7112 433.385 81.4299C431.277 80.5859 429.31 79.7419 427.202 78.7573C426.218 78.1946 425.235 77.632 424.11 77.0693C422.986 76.366 422.003 75.8033 420.878 74.9594C418.911 73.6934 416.944 72.2868 415.117 70.5988C412.587 68.3482 410.198 65.8162 408.512 63.003C406.966 60.1897 406.264 56.9545 407.107 53.8599C407.95 50.7653 409.917 47.952 412.306 45.7014C414.695 43.4508 417.646 41.6221 420.738 40.3562C423.829 39.2309 427.061 38.6682 430.434 38.8089C433.666 38.9495 437.039 39.6529 440.131 40.7782C446.314 43.0288 451.935 46.686 456.994 50.4839C463.177 55.2665 468.517 60.471 473.576 65.8162C478.494 71.3021 482.991 77.21 487.067 84.1025C484.818 80.0233 481.024 74.2561 478.213 70.7395Z" fill="#FFBC20"/>
<path d="M505.616 99.1525C510.535 99.2931 515.453 99.2931 520.371 99.1525C525.29 99.0118 530.208 98.5898 535.267 98.0272C542.856 97.0425 550.444 95.4952 557.611 93.2446C575.036 87.8994 592.462 78.053 607.92 65.3932C623.378 52.7335 637.149 37.2606 648.251 21.2249C648.813 20.0996 648.673 19.959 647.689 20.9436C635.463 38.1046 621.129 53.9995 604.547 67.0812C596.256 73.5517 587.403 79.4596 577.988 84.1015C573.35 86.4928 568.432 88.4621 563.513 90.2907L559.719 91.5566L557.892 92.1193L555.925 92.682L552.131 93.6666L548.336 94.5106C548.055 94.6512 547.634 94.6512 547.353 94.7919C542.996 95.7766 537.797 96.7612 532.176 97.3239C526.555 97.8865 520.512 98.1678 514.329 98.1678C501.822 98.1678 488.893 97.1832 477.651 95.4952C466.409 93.8073 455.448 90.7127 444.768 87.0554C439.428 85.2268 434.088 83.1168 428.888 81.0069C426.218 79.8816 423.829 78.4749 421.44 76.9277C419.052 75.3804 416.663 73.8331 414.555 72.0044C417.646 74.677 421.159 76.9277 424.532 79.0376C428.045 81.1476 431.84 82.4135 435.634 83.9608C443.082 86.9148 450.67 89.5874 458.399 91.6973C473.576 96.1985 489.456 98.4492 505.616 99.1525Z" fill="#FFBC20"/>
<path d="M502.384 120.534C501.822 111.109 499.293 102.107 495.498 93.5262C492.828 87.6184 489.877 82.1325 486.505 76.928C483.132 71.8641 479.478 66.9409 475.544 62.5803C471.609 58.2197 467.393 54.1405 463.037 50.3426C458.54 46.5447 453.902 43.1687 448.703 40.3555C456.291 44.5754 463.037 50.0612 469.079 56.1098C472.171 59.0637 475.122 62.299 477.792 65.5342C480.603 68.9101 483.132 72.2861 485.521 75.9433C490.299 83.1171 494.093 90.291 497.044 97.6055C499.714 105.061 501.822 112.516 502.384 120.534Z" fill="#FFBC20"/>
<path d="M429.872 35.0096C436.618 35.1502 442.941 37.5415 448.422 40.4954C442.801 37.4008 436.477 35.0096 429.732 34.8689C426.359 34.7282 422.986 35.2909 419.754 36.4162C416.663 37.5415 413.712 39.2295 411.182 41.3394C408.653 43.4494 406.264 45.9813 404.718 49.0759C403.875 50.6232 403.313 52.3112 403.032 54.1398C402.891 54.9838 402.751 55.9684 402.891 56.8124V58.219L403.172 59.485C403.875 63.0016 405.702 65.9555 407.81 68.4874C409.917 71.0194 412.306 73.1293 414.836 75.0986C450.249 96.9015 492.266 103.372 532.598 99.7147C537.235 99.2927 541.732 98.5894 546.229 97.7454C541.591 98.5894 536.813 99.2927 532.176 99.7147C527.398 100.137 522.761 100.418 517.983 100.418C508.567 100.559 499.152 100.137 489.877 99.1521C480.603 98.1674 471.328 96.6201 462.475 94.0882C453.481 91.6969 444.909 88.8836 436.337 85.5077C434.229 84.6637 432.121 83.8198 430.013 82.9758C427.905 82.1318 425.797 81.1472 423.83 80.0218C419.895 77.7712 416.101 75.2393 412.728 72.2854C409.355 69.3314 406.123 65.8148 404.437 61.4543C404.296 60.8916 404.015 60.329 403.875 59.7663L403.594 57.9377C403.594 56.6717 403.453 55.5464 403.594 54.2804C403.875 51.8892 404.858 49.6386 406.123 47.8099C408.653 43.8714 412.166 40.9174 415.96 38.8075C419.754 36.5569 424.251 35.4316 428.748 35.2909C433.104 35.2909 437.461 36.2755 441.395 37.6822C445.33 39.2295 448.984 41.1988 452.497 43.3087C453.481 44.012 454.605 44.7153 455.589 45.4187C449.265 40.9174 442.379 36.9789 434.369 35.5722C430.434 34.8689 426.359 34.8689 422.424 35.8535C418.49 36.8382 414.836 38.8075 411.744 41.1988C408.653 43.7307 405.842 46.8253 404.156 50.6232C402.47 54.4211 402.751 59.3443 404.577 63.0016C406.404 66.7995 409.074 69.7534 411.885 72.2854C414.836 74.8173 417.927 77.0679 421.16 79.0372C416.663 76.2239 412.166 72.9887 408.512 68.9094C406.685 66.7995 404.999 64.5489 403.875 61.7356C402.751 59.063 402.469 55.8277 403.172 52.8738C403.875 49.9199 405.421 47.3879 407.107 45.1373C408.934 42.8867 411.042 41.0581 413.431 39.5108C415.82 37.9635 418.349 36.6975 421.019 35.8535C424.251 35.2909 427.062 34.8689 429.872 35.0096Z" fill="#FFBC20"/>
<path d="M496.201 98.5898C498.449 98.7305 500.557 98.8712 502.806 99.0118C505.335 99.1525 507.865 99.1525 510.394 99.1525C508.848 99.1525 507.303 99.0118 505.757 99.0118C502.525 99.0118 499.293 98.8712 496.201 98.5898Z" fill="#FFBC20"/>
<path d="M434.088 81.4315C433.807 81.2909 433.526 81.2909 433.245 81.1502C429.872 79.8842 426.781 78.4776 423.83 76.649C420.738 74.8204 417.787 72.7104 415.117 70.4598C413.29 68.9125 411.463 67.0839 410.058 65.2553C408.653 63.286 407.388 61.176 406.966 58.9254C405.842 54.4242 408.372 49.501 412.025 45.9844C408.653 49.2196 406.264 53.4395 406.685 57.6594C407.107 61.8793 409.917 65.8179 413.009 68.7718C416.241 71.8664 419.754 74.3984 423.408 76.649C426.921 78.6183 430.434 80.1656 434.088 81.4315Z" fill="#FFBC20"/>
<path d="M419.614 42.8878C420.457 42.4658 421.862 41.9032 423.268 41.4812C423.97 41.3405 424.673 41.0592 425.376 41.0592C426.078 40.9185 426.64 40.9185 427.062 40.7779C427.624 40.7779 428.186 40.6372 428.889 40.6372C429.451 40.6372 430.153 40.6372 430.716 40.6372C428.889 40.4966 426.921 40.6372 425.094 40.9185C423.127 41.3405 421.3 41.9032 419.614 42.8878Z" fill="#FFBC20"/>
<path d="M496.904 127.004C497.325 117.298 495.217 107.733 491.704 98.8714C488.191 90.0096 483.413 81.7105 477.792 74.2553C476.387 72.4267 474.981 70.5981 473.436 68.7694C471.89 66.9408 470.344 65.2528 468.798 63.5649C465.566 60.189 462.193 56.9537 458.68 53.9998C455.167 51.0458 451.513 48.3732 447.579 46.1226C443.784 43.872 439.709 42.0434 435.493 41.0587C434.65 40.9181 433.807 40.7774 433.104 40.6368C432.261 40.6368 431.558 40.4961 430.715 40.4961C436.196 40.9181 441.817 43.1687 446.876 45.982C451.935 48.9359 456.713 52.5931 461.21 56.6724C465.707 60.611 469.782 64.9715 473.576 69.3321C477.37 73.6927 480.743 78.4752 483.694 83.2578C486.083 87.0557 489.315 92.8229 491.001 97.0428C495.077 106.749 497.325 116.876 496.904 126.723C496.622 131.646 495.779 136.569 494.234 141.211C492.688 145.853 490.299 150.214 487.488 154.152C490.299 150.354 492.547 146.134 494.093 141.774C495.779 137.272 496.622 132.631 496.904 127.707C496.904 127.567 496.904 127.285 496.904 127.004Z" fill="#FFBC20"/>
<path d="M659.629 40.0895C659.91 40.0895 660.191 39.9489 660.332 40.0895C660.332 40.2302 660.332 40.6522 660.332 40.7928C660.472 40.9335 660.613 40.7928 660.753 40.7928C660.753 40.9335 660.753 41.2148 660.753 41.2148C660.894 41.3555 661.034 41.2148 661.175 40.7928C660.472 40.0895 660.332 38.1202 659.629 40.0895Z" fill="#FFBC20"/>
<path d="M659.208 38.6836L659.067 39.6682C659.208 39.8089 659.348 39.9496 659.489 39.8089C659.489 39.2462 659.348 38.9649 659.208 38.6836Z" fill="#FFBC20"/>
<path d="M622.249 17.0198C622.249 17.0198 622.249 17.0198 622.108 17.0198C622.108 17.0198 622.108 17.0198 622.249 17.0198C622.249 17.0198 622.108 16.8791 622.249 17.0198C621.687 17.1605 620.984 17.4418 620.422 17.7231L620.282 18.0044C621.968 17.4418 623.654 16.7385 624.919 16.0352C623.795 16.3165 623.092 16.7385 622.249 17.0198Z" fill="#FFBC20"/>
<path d="M620.14 18.4258H620C620.14 18.5657 620.14 18.5657 620.14 18.4258Z" fill="#FFBC20"/>
<path d="M649.652 6.6098C650.635 6.18781 651.479 5.62515 652.322 5.0625C650.495 5.90648 648.527 6.75046 647.122 7.45378C647.825 7.17245 648.809 6.89112 649.652 6.6098Z" fill="#FFBC20"/>
<path d="M659.208 1.82812C656.959 2.53144 654.992 3.37542 653.446 4.07874C655.273 3.37542 656.959 2.67211 658.786 2.10945C658.786 1.96879 659.067 1.82812 659.208 1.82812Z" fill="#FFBC20"/>
<path d="M656.678 3.09375C655.694 3.37508 654.851 3.79707 654.008 4.21906C653.868 4.35972 653.586 4.35972 653.446 4.50038L653.024 4.64105C652.743 4.78171 652.603 4.92237 652.322 5.06304L653.165 4.64105L653.586 4.50038L654.149 4.21906C654.992 3.93773 655.835 3.51574 656.678 3.09375Z" fill="#FFBC20"/>
<path d="M634.053 17.5821C633.351 18.0041 632.929 18.2854 632.648 18.4261C632.507 18.5668 632.507 18.7074 632.226 18.9887H632.367C633.21 18.5668 633.913 18.1448 634.615 17.8634C634.896 17.7228 635.177 17.4414 635.458 17.3008C635.037 17.3008 634.615 17.4414 634.053 17.5821Z" fill="#FFBC20"/>
<path d="M632.648 18.4264C633.491 17.3011 631.664 18.8484 632.648 18.4264V18.4264Z" fill="#FFBC20"/>
<path d="M636.302 12.6602L636.723 12.5195C636.583 12.5195 636.442 12.5195 636.302 12.6602Z" fill="#FFBC20"/>
<path d="M646.42 11.1135C645.717 11.3948 645.155 11.6762 644.452 11.9575C645.858 11.3948 647.122 10.8322 648.247 10.2695C648.106 10.2695 647.825 10.2695 647.685 10.4102C647.403 10.6915 646.982 10.9728 646.42 11.1135Z" fill="#FFBC20"/>
<path d="M631.102 15.051C632.929 14.207 634.615 13.363 636.302 12.519C639.955 11.2531 643.328 9.84644 646.279 8.29914C647.544 7.59582 649.371 6.75184 651.198 6.04853C651.619 5.90786 652.041 5.62654 652.603 5.48587C653.165 5.20455 653.586 5.06388 654.149 4.78256C655.413 4.2199 656.678 3.51658 657.943 2.81327C657.521 2.95393 656.959 3.09459 656.538 3.23526C657.24 2.95393 657.943 2.53194 658.505 2.25061C660.472 1.5473 662.44 0.84398 664.407 0C664.126 3.23526 663.986 6.47052 663.704 9.56511C663.564 11.8157 663.423 13.9257 663.142 16.1763C663.142 16.8796 663.283 17.4423 663.142 18.1456C663.142 18.8489 663.002 19.5522 663.002 20.2555C662.861 23.2095 662.721 26.1634 662.721 29.258C662.721 30.6646 662.44 32.2119 662.299 33.6185C662.299 34.1812 662.018 34.1812 661.878 34.4625C661.456 35.8692 661.034 36.9945 660.753 38.5418H660.613C660.613 38.8231 660.613 38.9638 660.613 39.2451C659.91 38.4011 659.77 36.4318 659.067 38.4011C659.067 38.2604 659.067 38.1198 659.067 38.1198C658.927 37.5571 658.927 37.2758 658.645 36.9945L658.505 37.9791C658.364 37.9791 658.364 37.8385 658.224 37.8385V37.6978C658.224 37.5571 658.224 37.4165 658.224 37.4165L658.083 37.2758C657.802 36.4318 657.802 35.0252 657.521 35.3065C657.381 35.4472 657.381 36.1505 657.521 36.8538C657.521 36.8538 657.521 36.9945 657.381 36.9945C657.381 36.1505 656.959 36.9945 656.819 36.4318C656.819 35.7285 656.959 35.0252 656.959 34.1812C657.24 31.2273 657.381 28.6953 657.381 25.8821V25.4601C657.381 24.0534 657.521 22.7875 657.662 21.3808C657.662 21.5215 657.802 21.5215 657.802 21.6622C657.943 20.5369 658.083 19.4115 658.083 18.2862C658.083 16.8796 658.083 15.473 658.083 14.207C658.083 12.941 658.083 11.1124 658.224 10.5498C658.224 9.42445 658.364 8.4398 658.224 7.59582C657.521 7.87715 656.819 8.29914 656.116 8.58047C656.678 8.15848 657.521 7.73649 658.224 7.45516C658.224 7.73649 658.224 8.15848 658.083 8.4398C658.083 8.01781 658.224 7.73649 658.224 7.45516C657.1 7.87715 655.554 8.29914 654.992 9.14312C654.851 9.14312 654.851 9.00246 654.851 9.14312L654.008 9.42445C653.727 9.56511 653.446 9.56511 653.165 9.70577C652.603 9.9871 652.041 10.1278 651.619 10.4091C651.619 10.4091 651.057 10.6904 651.338 10.6904C650.354 11.1124 649.09 11.5344 648.106 11.9564C647.684 12.0971 647.263 12.3784 646.841 12.8004C643.188 14.4883 639.674 16.0356 635.88 17.7236C634.896 18.1456 633.772 18.5676 632.789 18.8489C634.194 18.1456 635.599 17.4423 637.145 16.7389C638.691 16.317 640.096 15.7543 641.08 15.051C641.361 14.9103 641.642 14.7697 641.782 14.629C640.236 15.3323 638.55 16.0356 637.004 16.7389C636.161 17.0203 635.177 17.3016 634.334 17.5829C635.037 17.3016 635.74 16.8796 636.302 16.5983C637.707 16.1763 638.972 15.7543 639.955 15.1916C640.096 15.051 640.236 15.051 640.377 14.9103C640.658 14.7697 640.939 14.629 641.08 14.4883L638.129 15.7543L636.302 16.5983C635.88 16.7389 635.459 16.8796 635.177 17.0203L635.318 16.8796C635.599 16.7389 636.302 15.6136 635.74 15.6136C634.475 16.0356 632.929 16.7389 631.664 17.1609C631.102 17.4423 630.54 17.5829 630.119 17.7236C629.697 17.8642 629.556 18.0049 629.556 18.0049C629.275 17.8642 633.772 15.895 633.491 15.895C633.21 15.895 632.929 16.0356 632.648 16.0356C632.929 15.895 633.07 15.7543 633.351 15.6136C633.913 15.3323 634.615 15.1916 634.896 14.9103C636.021 14.0663 637.426 13.785 638.691 13.0817C639.393 12.6597 640.377 11.9564 641.361 11.3937C641.361 11.2531 641.923 11.1124 641.642 11.1124C642.625 10.8311 643.75 10.4091 644.031 9.84644C644.031 9.84644 644.171 9.70577 644.312 9.70577C645.998 9.14312 646.982 8.4398 648.387 7.73649C648.809 7.59582 649.371 7.3145 649.933 7.17383C649.652 7.3145 649.09 7.45516 648.668 7.59582L648.387 7.73649C647.122 8.29914 645.998 8.86179 644.733 9.42445C644.593 9.56511 644.452 9.56511 644.312 9.70577L644.031 9.84644C644.031 9.84644 644.031 9.84644 644.031 9.9871C643.188 10.5498 641.782 11.1124 640.939 11.6751C639.112 12.519 637.004 13.2224 635.037 13.785L637.707 12.3784C636.583 12.941 635.459 13.363 634.475 13.9257L633.913 14.0663L632.929 14.4883C633.21 14.3477 633.632 14.3477 633.913 14.207C633.351 14.4883 632.648 14.7697 632.086 15.051C628.713 16.5983 625.2 18.0049 621.687 18.9896C621.687 18.8489 621.827 18.8489 621.827 18.7082C623.514 18.1456 625.2 17.4423 626.465 16.7389C625.481 17.0203 624.919 17.4423 623.935 17.7236V17.5829C623.373 17.8643 622.671 18.1456 621.968 18.4269C622.108 18.1456 622.249 17.8642 622.53 17.7236C622.811 17.4423 623.373 17.3016 623.795 17.0203C626.043 16.1763 628.151 15.473 630.259 14.4883C632.226 13.785 634.194 13.2224 636.161 12.519C634.475 13.5037 632.789 14.207 631.102 15.051ZM659.91 34.6032C659.91 34.4625 659.91 34.1812 659.91 34.0405V34.1812C659.77 34.3219 659.91 34.4625 659.91 34.6032ZM660.332 30.3833C660.051 31.6493 660.191 33.3372 660.051 34.8845C660.332 33.6185 660.332 31.9306 660.332 30.3833ZM659.91 3.93858C660.613 3.51658 661.315 3.23526 662.159 2.95393C662.159 4.2199 662.018 5.7672 662.018 7.3145C662.018 8.01781 662.159 8.72113 662.159 9.70577C662.159 10.9717 662.159 11.9564 662.159 12.519L662.299 11.9564C662.159 13.2224 662.44 13.9257 662.159 15.1916C662.159 15.1916 662.299 15.3323 662.299 15.6136C662.299 16.4576 662.018 17.4423 662.159 18.1456C662.159 18.9896 662.018 19.9742 662.159 20.6775C662.159 20.8182 662.299 21.2402 662.299 21.6622C662.299 22.0842 662.299 22.5061 662.299 22.9281C662.299 22.5061 662.299 22.2248 662.299 21.8028C662.299 20.6775 662.159 19.4115 662.299 18.2862C662.299 16.8796 662.299 15.6136 662.299 14.3477V12.3784V11.9564V11.2531V9.84644C662.299 9.00246 662.159 8.29914 662.159 7.59582C662.159 5.90786 662.299 3.93857 662.159 2.6726C661.597 2.95393 661.175 3.23526 660.753 3.51658C660.753 3.51658 660.191 3.65725 659.91 3.93858ZM656.538 8.29914C657.24 7.87715 658.083 7.45516 658.927 7.03317C658.927 7.45516 658.927 8.01781 658.786 8.4398C658.786 8.86179 658.786 9.70577 658.927 10.5498C659.067 10.9717 659.067 11.2531 659.208 11.5344C659.348 11.8157 659.489 11.9564 659.77 11.8157C659.067 10.6904 659.348 8.4398 659.489 6.32985C657.662 7.03317 656.397 7.59582 656.538 8.29914ZM643.89 13.9257C644.593 13.6443 645.295 13.2224 645.998 12.941L643.89 13.9257ZM650.214 8.86179C648.106 10.1278 645.717 10.9717 643.609 11.9564C641.923 12.8004 639.955 13.0817 638.55 14.0663V14.207L638.691 14.0663C639.253 13.9257 639.815 13.785 640.377 13.6443H640.236H640.377C640.658 13.5037 641.08 13.5037 641.501 13.2224L642.063 12.941C644.171 12.0971 646.42 11.2531 648.106 10.1278C649.23 9.56511 650.214 8.86179 651.338 8.15848C651.198 8.4398 650.635 8.58047 650.214 8.86179Z" fill="#FFBC20"/>
<path d="M634.334 14.0671C633.632 14.3484 632.929 14.7704 632.226 15.0517C631.664 15.3331 631.102 15.6144 630.54 15.8957C627.87 17.1617 624.638 18.1463 621.687 19.4123C621.687 19.6936 621.687 19.8343 621.968 19.975C625.2 19.131 628.292 17.5837 631.664 16.599C632.929 15.7551 635.177 15.0517 636.723 14.2078C638.269 13.2231 639.955 12.5198 641.642 11.5352C639.112 12.3791 636.864 13.3638 634.334 14.0671Z" fill="#FFBC20"/>
<path d="M653.305 4.07812C652.603 4.35945 651.9 4.64078 651.338 4.92211C649.511 5.76609 647.825 6.4694 646.279 7.31338C647.544 6.89139 648.809 6.32874 650.073 5.90675C651.338 5.48476 652.181 4.78144 653.305 4.07812Z" fill="#FFBC20"/>
<path d="M644.874 8.01582C645.295 7.73449 645.717 7.59383 646.139 7.3125L640.658 9.42245C637.707 10.6884 634.756 12.0951 631.805 13.5017C631.524 13.6424 631.102 13.783 630.821 13.9237C636.583 12.0951 642.204 10.1258 646.701 7.59383L646.982 7.45316C644.733 8.29714 642.485 9.14112 640.236 10.1258C641.782 9.42245 643.328 8.71913 644.874 8.01582Z" fill="#FFBC20"/>
<path d="M635.037 13.7852L634.475 13.9258L634.053 14.2071L634.334 14.0665L635.037 13.7852Z" fill="#FFBC20"/>
<path d="M640.517 13.7857C641.08 13.5043 641.642 13.3637 642.204 13.0823C642.906 12.6603 643.75 12.379 644.452 11.957C643.047 12.5197 641.642 13.0823 640.517 13.7857Z" fill="#FFBC20"/>
<path d="M645.858 13.6447C645.998 13.6447 646.42 13.504 646.56 13.3634L646.841 13.082L646.42 13.2227L645.858 13.6447Z" fill="#FFBC20"/>
<path d="M655.273 9.28531C652.462 10.5513 649.792 11.8173 647.122 12.9426C646.982 13.0832 646.841 13.0832 646.701 13.2239C648.668 12.6612 650.495 11.8173 652.041 10.9733C652.322 10.8326 652.743 10.4106 653.165 10.27C653.586 10.1293 654.008 9.98863 654.289 9.84796L654.851 9.56664C655.132 9.42597 655.273 9.42597 655.273 9.28531C655.694 9.14465 655.975 8.86332 656.397 8.72266C655.975 8.86332 655.694 9.00398 655.273 9.28531Z" fill="#FFBC20"/>
</svg>
