<svg width="1440" height="794" viewBox="0 0 1440 794" fill="none" xmlns="http://www.w3.org/2000/svg">
<rect y="1" width="1440" height="793" fill="#191919"/>
<g clip-path="url(#clip0)">
<path d="M1327.78 290.243C1294.15 299.048 1262.49 313.486 1234.07 332.977C1249.15 324.244 1264.8 316.507 1280.95 309.812C1296.89 303.517 1313.23 298.182 1329.89 293.834C1359.79 286.008 1390.51 281.033 1421.63 278.972C1389.86 279.38 1358.41 283.157 1327.78 290.243Z" fill="#7D4AC4"/>
<path d="M1119.02 444.152C1122.5 439.807 1126.49 436.05 1130 432.068C1133.5 428.086 1137.1 424.119 1140.64 420.631C1144.18 417.143 1147.62 413.307 1151.01 409.747C1154.4 406.187 1158 402.939 1161.35 399.553C1164.7 396.168 1168.11 392.92 1171.49 389.796C1174.87 386.671 1178.16 383.431 1181.51 380.38C1188.44 374.567 1194.84 368.268 1201.84 362.927C1172.82 383.474 1146.75 407.865 1124.26 435.503C1122.45 438.282 1120.51 441.25 1119.02 444.152Z" fill="#7D4AC4"/>
<path d="M1148.08 403.258C1151.87 399.806 1155.53 396.361 1159.14 392.91C1162.75 389.458 1166.49 386.384 1170 383.15C1177.02 376.553 1184.35 370.848 1191.25 364.824C1205.49 353.459 1219.24 342.487 1234.02 333.024C1201.62 351.468 1172.61 375.174 1148.08 403.258Z" fill="#7D4AC4"/>
<path d="M1484.87 237.153C1512.51 240.576 1539.97 246.086 1567.02 253.637C1539.83 245.536 1512.1 239.9 1484.19 236.799C1458.71 233.952 1433.17 233.665 1407.92 235.942C1411.38 235.84 1414.87 235.999 1418.36 236.158C1421.85 236.317 1425.36 236.789 1428.86 236.846C1432.36 236.903 1436.21 236.008 1440.46 235.657C1444.71 235.306 1449.23 235.404 1454.15 235.277C1459.07 235.149 1464.03 235.131 1469.18 235.628C1474.32 236.124 1479.55 236.555 1484.87 237.153Z" fill="#7D4AC4"/>
<path d="M1899.03 641.98C1889.47 606.064 1875.72 571.21 1858.07 538.177C1841.2 506.195 1820.68 476.188 1796.95 448.811C1753.42 393.425 1698.38 348.275 1636.14 316.885C1578.64 288.257 1516.1 273.158 1453.44 272.772C1423.7 272.725 1394.14 275.135 1365.05 279.978L1359.01 280.95C1357.01 281.362 1355 281.824 1353 282.236L1340.79 284.806C1336.68 285.615 1332.72 286.88 1328.59 287.892C1324.47 288.904 1320.42 289.953 1316.35 291.204L1304.16 295.089L1298.05 297.028L1292.05 299.294C1288.04 300.785 1284.03 302.276 1280.02 303.818C1276 305.36 1272.14 307.207 1268.19 308.887C1252.63 315.761 1237.56 323.632 1223.07 332.455C1216.11 337.105 1209.07 341.487 1202.48 346.319L1192.79 353.62C1191.23 354.866 1189.67 356.112 1188.11 357.357C1186.55 358.603 1185.01 359.827 1183.57 361.218C1161.69 379.299 1142.65 400.597 1127.02 424.469C1130.49 420.611 1134.23 417.151 1137.77 413.664C1141.31 410.176 1144.65 406.609 1148.22 403.382C1143.52 408.74 1139.43 414.335 1135.31 419.568C1131.19 424.801 1127.79 430.315 1124.43 435.604C1074.61 496.653 1043.31 571.487 1034.03 651.76C1024.75 732.034 1037.84 814.589 1071.86 890.22C1074.53 895.822 1077.22 900.988 1079.9 905.922C1082.58 910.855 1085.72 915.519 1088.44 920.046C1089.91 922.338 1091.27 924.667 1092.77 926.938L1097.41 933.821C1100.55 938.485 1103.48 943.454 1107.02 948.509C1120.45 969.217 1135.67 988.727 1152.5 1006.79C1152.66 1006.66 1152.66 1006.32 1152.38 1005.69C1221.57 1081.06 1314.84 1128.81 1413.62 1139.42C1460.33 1145.33 1507.26 1143.39 1552.49 1133.67C1555.81 1132.88 1559.2 1132.33 1562.62 1132.04C1564.81 1131.79 1567.02 1131.69 1569.24 1131.74C1573.57 1132.06 1577.89 1131.81 1582.09 1130.99C1603.68 1126.84 1624.75 1120.74 1645.07 1112.78C1666.98 1104.15 1687.7 1092.93 1706.82 1079.36L1708.69 1081.71L1713.38 1077.98L1717.81 1074.44C1720.55 1072.25 1723.29 1070.06 1725.65 1068.18C1721.68 1075.71 1716.89 1082.72 1711.35 1089.09C1708.4 1092.53 1705.48 1095.95 1702.87 1099.03C1700.27 1102.11 1697.62 1104.69 1695.74 1106.95C1692.04 1111.47 1690.71 1114.24 1694.41 1113.76C1698.11 1113.28 1707.05 1109.94 1722.75 1100.4C1719.71 1103.11 1716.98 1105.53 1714.36 1107.86L1713.4 1108.63C1703.46 1116.84 1694.03 1125.66 1685.17 1135.05C1689.94 1132.09 1694.96 1129.51 1699.57 1126.3C1704.19 1123.1 1708.94 1120.11 1713.62 1116.99C1712.69 1119.31 1712.46 1121.15 1714.12 1121.77L1712.06 1124.08L1704.32 1129.21C1703.53 1130.44 1702.93 1131.78 1702.53 1133.2C1696.82 1138.14 1689.93 1143.26 1683.1 1148.18C1676.27 1153.11 1668.89 1157.62 1662.68 1161.53C1650.16 1169.05 1641.96 1174.5 1647.05 1174.53C1653.75 1172.7 1660.17 1170.05 1666.16 1166.63C1670.45 1164.36 1675.05 1161.53 1680.03 1158.61C1682.5 1157.11 1685.11 1155.65 1687.7 1154.01L1695.44 1148.82C1696.96 1148.37 1698.68 1147.76 1700.39 1147.11C1686.28 1155.99 1687.22 1157.62 1689.47 1158.19C1690.64 1158.54 1692.17 1158.65 1692.36 1159.4C1692.55 1160.15 1691.42 1161.53 1687.07 1164C1663.41 1177.33 1638.46 1188.34 1612.55 1196.92C1586.86 1205.24 1560.4 1211.35 1533.46 1215.17C1507.78 1218.86 1481.73 1220.38 1455.57 1219.69C1402.23 1218.6 1348.95 1208.74 1297.78 1190.5C1293.04 1188.83 1288.31 1187.23 1283.7 1185.22C1258.39 1175.33 1233.95 1163.04 1210.71 1148.52C1187.63 1134.3 1165.79 1118 1145.49 1099.82C1148.59 1101.57 1151.76 1103.46 1154.99 1105.44L1142.53 1094.59L1130.51 1083.24C1122.34 1075.86 1114.94 1067.66 1107.16 1059.87C1092.25 1043.61 1077.56 1027.04 1064.17 1009.43C1047.31 987.981 1032.16 965.242 1018.9 941.447C1005.57 917.285 994.144 892.176 984.726 866.367C975.116 839.98 967.838 812.898 962.979 785.454C957.822 757.32 955.113 728.918 954.882 700.579C954.261 579.044 995.589 463.467 1071.74 373.78C1040.63 412.012 1015.02 454.627 995.605 500.466C993.348 505.653 991.1 510.833 988.862 516.005C986.813 521.248 984.889 526.533 982.918 531.761L980.135 539.678L977.572 547.704C975.951 553.033 974.233 558.296 972.745 563.567L977.846 547.486L980.409 539.46L983.339 531.615C985.186 526.438 987.114 521.213 989.123 515.939L995.605 500.466C997.687 495.434 1000.14 490.583 1002.56 485.754C1004.98 480.924 1007.34 475.957 1009.91 471.201C1015.33 461.802 1020.3 452.137 1026.24 443.173C1029.12 438.641 1031.84 433.956 1034.84 429.62C1037.83 425.283 1040.91 420.881 1043.96 416.552C1045.44 414.369 1046.95 412.215 1048.46 410.061L1053.22 403.839C1056.39 399.655 1059.52 395.544 1062.72 391.519C1086.72 362.053 1112.52 334.16 1139.97 307.989C1144.34 305.946 1148.57 303.659 1152.67 301.139C1172.87 287.394 1194.07 275.141 1216.12 264.468C1237.51 253.805 1259.06 245.249 1278.7 236.886C1278.37 235.965 1299.14 230.076 1291.62 230.144C1294.21 229.354 1296.81 228.563 1299.46 227.78C1302.11 226.997 1304.84 226.431 1307.55 225.735C1313.01 224.422 1318.52 222.964 1324.15 221.752C1335.47 219.598 1347.02 217.218 1358.75 215.789C1370.48 214.36 1382.21 213.112 1393.77 211.916C1405.39 211.374 1416.78 210.309 1427.78 210.32C1432.56 210.251 1437.33 210.153 1442.1 209.953L1456.42 209.87C1466.01 209.528 1475.63 209.782 1485.32 209.789C1525.35 213.738 1565.04 222.523 1603.52 235.954C1622.94 242.674 1642.01 250.519 1660.65 259.447C1669.92 264.104 1679.24 268.819 1688.38 273.869L1702.04 281.72L1708.89 285.75L1715.49 289.978C1789.56 336.815 1852.17 400.712 1897.83 476.076C1922.12 517.38 1940.8 561.591 1953.33 607.436C1931.95 542.224 1899.22 480.846 1856.73 426.314C1837.76 399.513 1816.2 374.622 1792.4 352.036C1771.2 332.051 1747.88 314.552 1722.92 299.906L1707.1 290.593C1701.78 287.626 1696.41 284.885 1691.01 281.934C1754.72 318.675 1811.11 367.733 1856.77 426.139C1880.1 459.039 1900.03 494.179 1916.2 530.961L1915.07 528.871C1900.99 500.663 1884.63 473.584 1866.18 447.926C1850.37 423.579 1832.44 400.652 1812.61 379.443C1807.93 374.252 1802.85 369.571 1798.06 364.751L1790.8 357.728L1783.32 351.164C1778.31 346.853 1773.45 342.563 1768.47 338.616C1763.48 334.668 1758.44 331.047 1753.5 327.441C1748.56 323.834 1743.54 320.577 1738.66 317.493C1733.78 314.41 1728.56 310.79 1723.4 307.641L1707.81 298.386L1721.97 307.594C1726.73 310.634 1731.19 314.096 1735.81 317.347C1740.42 320.599 1745.08 323.806 1749.44 327.356L1762.66 338.077C1767.15 341.517 1771.43 345.314 1775.6 348.966L1788.32 360.131L1800.49 371.836C1804.58 375.734 1808.61 379.597 1812.45 383.794C1831.93 403.854 1849.89 425.367 1866.16 448.129C1870.91 455.492 1875.74 462.84 1880.03 470.574C1884.32 478.308 1888.98 485.838 1892.81 493.609L1889.56 489.084C1886.73 484.744 1883.49 480.681 1879.88 476.96C1875.99 472.682 1871.85 468.648 1867.47 464.886C1859.33 458.511 1853.73 456.432 1858.69 466.526C1875.17 492.291 1889.63 519.249 1901.94 547.135C1913.97 574.445 1923.84 602.578 1931.45 631.256C1934.61 644.441 1937.7 656.791 1939.6 667.995C1941.5 679.2 1943.09 689.229 1944.32 697.457C1945.55 705.684 1945.94 712.403 1946.43 716.95L1947.08 722.317C1947.16 723.537 1947.18 724.132 1947.11 724.147C1946.7 725.042 1946.04 722.813 1945.14 718.26C1944.72 715.987 1944.25 713.09 1943.8 709.836C1943.36 706.583 1942.61 702.72 1941.87 698.421C1940.33 690.15 1938.75 680.02 1936.24 669.398C1934.99 664.076 1933.97 658.528 1932.55 652.974L1928.07 636.131C1915.95 590.879 1895.88 548.413 1896.76 551.934C1900.74 562.045 1904.03 572.287 1907.36 582.588C1903.03 573.227 1899.1 563.973 1894.51 555.862C1885.78 535.818 1872.92 509.528 1864.22 497.619C1849.06 476.871 1833.37 454.735 1815.54 433.07C1797.59 410.833 1777.39 390.528 1755.31 372.52C1740.06 360.59 1724.16 349.576 1707.69 339.539C1703.37 336.818 1698.82 334.424 1694.35 331.862C1689.89 329.301 1685.43 326.587 1680.69 324.346C1671.36 319.682 1662.08 314.792 1652.45 310.753C1652.02 311.619 1647.35 309.312 1643.45 307.396C1639.54 305.48 1636.4 304.186 1639.01 306.665L1625.7 300.099L1618.97 296.78L1612.14 293.832L1598.61 288.11C1594.1 286.391 1589.67 284.941 1585.36 283.483C1581.06 282.026 1577.04 280.633 1573.01 279.625C1568.97 278.617 1565.29 277.761 1561.9 276.948C1558.75 276.259 1555.56 275.74 1552.37 275.394C1549.86 275.162 1547.35 275.134 1544.86 275.309C1543.96 275.079 1543.05 274.899 1542.15 274.72C1539.57 274.021 1535.82 273.31 1531.81 272.666C1504.54 265.46 1476.64 261.997 1448.87 262.373C1422.69 262.718 1396.72 265.381 1371.25 270.331L1357.14 272.426L1343.05 275.168C1340.69 275.631 1338.32 276.094 1335.93 276.528L1328.86 278.23L1314.57 281.561C1320.86 280.108 1328.73 278.572 1336.62 276.934C1344.5 275.296 1352.41 274.253 1358.77 272.735L1371.25 270.331C1395.14 266.894 1419.33 265.149 1443.65 265.109C1467.55 265.262 1491.5 267.291 1515.29 271.178C1519.21 271.474 1525.62 271.866 1531.47 272.514L1541.62 275.52C1542.57 275.33 1543.54 275.209 1544.52 275.157C1568.04 280.272 1591.19 287.516 1613.65 296.8C1616.53 297.876 1619.32 299.017 1622.05 300.304L1630.26 303.961L1638.37 307.553C1641.01 308.774 1643.58 310.141 1646.16 311.407L1661.15 318.957L1675.46 326.668C1709.69 346.557 1741.12 371.291 1768.73 400.073C1782.78 414.575 1795.97 429.916 1808.2 446.003C1820.16 462.071 1831.22 478.782 1841.32 496.052C1830.66 479.66 1819.05 463.891 1806.56 448.833C1803.55 445.062 1800.18 441.575 1797.03 437.965C1793.88 434.354 1790.79 430.649 1787.36 427.308L1777.38 417.044L1772.39 411.964L1767.19 407.137C1783.78 423.21 1799.24 440.431 1813.46 458.66C1820.54 467.252 1826.91 476.696 1833.33 485.53C1836.42 490.135 1839.45 494.887 1842.39 499.42L1846.93 506.34L1851.09 513.414C1854.17 519.458 1857.52 525.182 1860.31 531.263C1863.1 537.344 1866.4 543.831 1869.26 550.232L1877.39 569.522L1870.37 551.392C1868.03 545.375 1865.17 539.541 1862.71 533.764C1865.68 539.561 1868.96 545.249 1871.72 551.12L1880.04 568.739C1885.08 580.67 1890.28 592.47 1894.58 604.607C1906.3 638.251 1914.31 672.917 1918.44 707.948C1922.6 743.488 1922.84 779.166 1919.17 814.32C1911.8 885.197 1888.13 952.444 1850.05 1010.75C1850.47 1007.75 1851.13 1004.47 1851.92 1000.9C1868.73 973.073 1882.34 943.267 1892.5 912.03C1901.75 883.765 1907.24 854.187 1908.82 824.049C1907.35 833.438 1906.25 842.34 1904.48 850.582L1902.07 862.668C1901.37 866.687 1900.29 870.547 1899.36 874.326L1896.59 886.029C1895.62 889.932 1894.41 893.799 1893.28 897.783C1892.15 901.766 1890.79 905.896 1889.58 909.996C1888.36 914.096 1886.61 918.248 1885.07 922.559C1884.56 922.306 1883.69 922.337 1884.4 919.299C1876.71 944.132 1866.47 967.956 1853.84 990.394C1855.71 981.498 1858.43 972.157 1860.12 962.36C1862.19 955.963 1865.6 948.494 1868.6 939.784L1873.67 926.53C1875.21 921.884 1876.73 917.159 1878.28 912.411C1879.16 909.86 1880.08 907.366 1880.86 904.8L1883.14 897.094C1884.64 891.955 1886.31 886.917 1887.61 881.749C1890.14 871.427 1892.83 861.207 1894.7 850.793C1896.57 840.379 1898.25 830.016 1899.86 819.616C1900.5 814.355 1901.01 809.204 1901.6 803.986L1902.38 796.146L1902.84 788.285C1904.18 767.304 1904.07 746.171 1902.49 725.041C1900.83 703.762 1897.72 682.543 1893.2 661.534C1885.97 623.806 1874.4 586.827 1858.74 551.368C1843.02 516.3 1823.3 483.041 1800 452.305C1845.7 508.343 1879.48 573.035 1899.03 641.98ZM1602.82 1158.93C1599.85 1160.16 1596.81 1161.4 1593.76 1162.69C1590.71 1163.99 1587.51 1164.97 1584.37 1166.1L1587.48 1165.95C1590.37 1165.17 1593.19 1164.15 1595.89 1162.89C1598.27 1161.7 1600.58 1160.38 1602.82 1158.93ZM1457.1 1179.31C1481.84 1180.85 1506.51 1179.52 1530.63 1175.32C1557.55 1170.67 1583.82 1163.34 1609.05 1153.43C1609.14 1153.31 1609.2 1153.18 1609.23 1153.03C1609.26 1152.88 1609.26 1152.73 1609.23 1152.58C1585.73 1160.62 1561.63 1167 1537.09 1171.69C1510.85 1176.73 1484.08 1179.28 1457.1 1179.31ZM1293.77 1120.69L1294.61 1121.4L1294.67 1120.97L1293.77 1120.69ZM1062.84 465.616C1049.95 490.856 1038.69 516.989 1029.15 543.86C1018.7 573.592 1011.44 604.539 1007.51 636.183C1007.15 638.603 1006.81 640.921 1006.57 643.384C1006.34 645.847 1006.31 648.339 1006.21 650.794C1006 655.706 1005.86 660.857 1005.95 666.145C1006.05 671.433 1006.25 676.918 1006.23 682.678C1006.21 688.439 1006.68 694.475 1006.39 700.97C1006.33 709.041 1007.18 716.34 1007.64 723.095C1008.09 729.85 1009.1 736.167 1009.88 742.144L1011.11 751.041L1012.72 759.863C1013.84 765.709 1014.65 771.714 1016.13 778.075C1015.49 771.654 1015.63 765.138 1015.42 758.753C1017.38 777.872 1021.39 796.834 1027.37 815.301L1031.55 828.012L1033.59 834.502L1035.93 841.085C1037.47 845.549 1039 850.166 1040.51 855.037C1042.02 859.908 1043.91 864.909 1045.66 870.201C1046.56 869.915 1050.5 875.311 1053.11 881.16C1066.09 910.348 1080.01 939.491 1095.77 959.861C1114.08 986.123 1134.73 1010.76 1153.95 1027.61C1157.25 1030.71 1160.78 1033.55 1164.49 1036.1C1169.16 1039.25 1174.38 1042.87 1179.35 1046.79C1185.1 1051.7 1191.18 1056.34 1197.18 1061.38C1203.17 1066.42 1209.53 1070.51 1215.64 1075.14L1214.58 1073.37C1209.66 1069.56 1204.71 1065.77 1199.63 1062.04C1194.54 1058.31 1189.81 1054.11 1184.69 1050.22C1180.88 1047.47 1177.34 1044.17 1173.54 1041.08C1169.73 1038 1165.88 1034.8 1162.14 1031.18C1154.82 1024.31 1147.16 1017.41 1140.17 1009.83C1133.19 1002.26 1126.31 994.646 1119.66 986.99C1116.49 983.016 1113.39 979.129 1110.29 975.243C1107.19 971.356 1104.18 967.585 1101.6 963.567C1047.9 887.648 1016.72 798.576 1011.95 707.546C1011.86 702.875 1011.58 697.972 1011.29 693.171L1010.92 685.966L1010.83 678.723L1010.68 664.267L1011.75 649.932C1013.68 619.654 1019.04 589.893 1027.73 561.232C1035.98 532.86 1046.42 507.912 1052.51 489.242C1053.66 486.189 1055.67 481.971 1057.81 477.462C1059.78 473.66 1061.46 469.701 1062.84 465.616ZM1073.6 378.752C1050.16 408.518 1029.76 440.69 1012.7 474.812C996.516 507.98 983.525 542.79 973.902 578.783C969.282 597.359 965.982 616.316 964.025 635.512C961.827 658.612 961.459 681.954 962.923 705.319C964.079 723.282 966.994 741.184 971.626 758.759C975.286 770.65 978.441 775.11 980.468 767.986C978.234 762.721 976.403 757.308 974.994 751.799C973.472 745.228 971.97 737.502 970.618 728.897C967.975 708.497 967.104 688.002 968.013 667.648C968.944 643.059 972.029 618.723 977.233 594.924C982.683 569.955 990.063 545.561 999.306 521.96C1008.09 500.238 1018.22 479.166 1029.66 458.864C1032.32 454.223 1035.1 449.778 1037.71 445.464C1040.32 441.15 1042.65 436.772 1045.44 433.075C1048.23 429.378 1050.48 425.399 1052.84 421.849C1054.02 420.059 1055.13 418.313 1056.22 416.589L1059.67 411.801C1064.07 405.58 1067.76 399.978 1070.84 395.292C1073.43 391.748 1075.77 388.012 1077.83 384.111C1080.72 378.293 1079.72 376.145 1073.6 378.752ZM1621.1 248.372C1590.51 237.152 1559.3 228.076 1527.7 221.213C1559.46 227.252 1590.73 236.347 1621.1 248.372ZM1321.6 257.724C1326.81 256.042 1332.05 254.417 1337.48 253.177C1342.9 251.937 1348.26 250.457 1353.76 249.253C1364.77 247.157 1375.9 244.974 1387.27 243.779C1392.93 243.01 1398.64 242.3 1404.39 242.032C1410.14 241.765 1415.92 241.142 1421.72 240.932L1439.15 240.645C1444.97 240.516 1450.74 240.895 1456.67 241.143C1480.06 242.085 1503.43 244.876 1526.59 249.489C1549.43 253.87 1572.02 259.86 1594.2 267.416C1628.79 279.547 1661.87 296.266 1692.54 317.12C1721.63 337.082 1749.78 358.481 1776.87 381.232L1778.86 379.171C1776.91 377.687 1775.07 376.114 1773.05 374.695C1763.77 365.767 1755.84 357.234 1747.54 349.807C1743.43 346.01 1739.53 342.242 1735.51 338.611L1723.09 328.208L1726.3 330.387L1721.02 326.578C1715.51 321.861 1709.47 317.713 1703.09 313.311C1699.87 311.131 1696.73 308.887 1693.4 306.795C1690.08 304.703 1686.28 302.648 1682.55 300.55C1678.81 298.452 1675.56 296.629 1671.93 294.778L1661.13 289.492C1651.16 283.914 1640.71 279.296 1630.38 274.387C1625.16 272.002 1619.86 269.965 1614.6 267.754L1606.71 264.554C1604.09 263.514 1601.38 262.59 1598.6 261.529L1582.56 255.863L1566.32 250.967C1560.94 249.28 1555.5 247.97 1550.07 246.661C1544.63 245.351 1539.22 243.918 1533.66 242.95C1522.78 240.897 1512 238.728 1501.18 237.532C1490.36 236.336 1479.72 235.242 1469.21 234.554C1448.67 233.391 1428.17 233.88 1407.89 236.017C1395.72 236.844 1384.2 238.868 1372.96 240.673C1361.71 242.479 1350.82 245.184 1340.16 248.333C1329.49 251.481 1318.96 254.752 1308.28 258.053C1297.93 261.941 1286.94 265.584 1276.21 270.396L1286.88 266.914C1290.62 265.975 1294.8 264.818 1298.86 263.719C1302.91 262.62 1306.99 261.55 1310.84 260.473C1314.69 259.397 1318.2 258.633 1321.6 257.724Z" fill="#7D4AC4"/>
<path d="M1856.57 521C1871.81 547.708 1884.54 575.705 1894.58 604.6C1902.85 626.954 1909.59 649.781 1914.75 672.913C1926.94 732.202 1927.47 792.703 1916.3 850.882C1904.69 911.387 1882.05 968.587 1849.51 1019.62C1850.02 1024.25 1852.22 1026.39 1857.12 1024.56C1894.34 970.508 1918.95 908.192 1929.24 841.982C1939.47 776.069 1937.34 708.109 1922.94 641.598L1921.94 638.55C1912.58 610.799 1900.76 574.75 1883.16 538.759C1866.36 503.329 1844.98 470.125 1819.61 440.071C1795.83 413.23 1769.73 388.563 1741.68 366.391C1713.98 344.468 1684.02 325.772 1652.4 310.688C1674.16 322.769 1695.06 336.487 1714.91 351.72C1734.57 366.64 1753.13 383.039 1770.41 400.767L1776.91 407.348C1779.03 409.602 1781.03 411.944 1783.12 414.22C1787.18 418.86 1791.43 423.347 1795.4 428.155L1806.97 442.657C1810.81 447.472 1814.35 452.578 1818.05 457.553C1832.63 477.627 1845.52 498.857 1856.57 521Z" fill="#7D4AC4"/>
<path d="M1201.79 362.812C1221 349.035 1241.47 337.086 1262.96 327.105C1291.79 313.387 1322.18 302.984 1353.61 296.081C1383.81 289.319 1414.82 285.899 1446.11 285.881C1399.68 283.885 1353.64 289.276 1309.66 301.855C1289.03 308.227 1269.32 316.997 1250.9 327.997C1233.58 338.229 1217.16 349.87 1201.79 362.812Z" fill="#7D4AC4"/>
<path d="M1497.29 288.953L1484.37 287.537L1471.52 286.775C1463.02 286.01 1454.47 286.138 1446.12 286.012C1508.64 289.271 1570.53 305.601 1627.89 333.973C1685.25 362.344 1736.83 402.141 1779.39 450.85C1818.35 495.78 1849.02 547.261 1869.82 602.616C1872.05 609.004 1874.51 615.297 1876.43 621.692L1882.14 640.872C1869.43 587.254 1847.54 535.817 1817.5 488.945C1787.94 443.052 1750.73 402.479 1707.67 369.173C1666.47 337.307 1620.35 312.906 1571.52 297.137C1526 282.622 1478.74 276.302 1431.95 278.475C1428.69 278.606 1425.04 278.81 1421.58 278.964C1506.43 277.954 1591.14 301.838 1665.51 347.745C1613.47 316.639 1556.16 296.609 1497.29 288.953Z" fill="#7D4AC4"/>
<path d="M1139.9 307.769C1236.5 231.818 1359.71 196.817 1485.34 209.633C1491.38 209.562 1497.3 209.911 1503.32 210.144C1482.91 206.525 1462.36 204.254 1441.81 203.348C1421.51 202.596 1401.27 203.196 1381.2 205.143C1342.64 208.797 1305.08 217.986 1269.65 232.437C1256.05 237.873 1237.04 248.152 1224.17 254.102C1164.92 281.974 1113.01 322.781 1071.95 373.755C1091.81 350.2 1113.87 328.661 1137.84 309.408L1139.9 307.769Z" fill="#7D4AC4"/>
<path d="M1259.02 279.178C1260.28 278.173 1259.92 277.556 1258.24 277.756C1256.39 278.023 1254.66 278.74 1253.18 279.845C1252.11 280.698 1252.49 281.445 1253.96 281.267C1255.81 281 1257.54 280.284 1259.02 279.178Z" fill="#7CEBDB"/>
<path d="M1252.5 227.412C1261.5 223.127 1269.88 218.626 1277.39 214.388C1278.79 213.664 1280.31 213.175 1281.88 212.939C1280.98 212.142 1282.48 210.657 1285.76 209.087C1319.94 193.475 1356.07 182.174 1393.39 175.424C1432.88 168.404 1473.32 166.272 1513.85 169.075C1514.84 168.105 1516.09 167.453 1517.46 167.193C1521.5 166.163 1525.71 165.752 1529.94 165.973C1535.57 166.207 1541.2 166.994 1546.74 168.324L1555.65 170.716C1591.18 179.33 1625.86 191.91 1659.05 208.218C1667.34 210.482 1675.43 213.566 1683.2 217.425C1713.74 229.36 1742.98 244.828 1770.32 263.508C1769.04 261.629 1768.55 260.17 1769.1 259.45C1770.82 258.073 1778 261.841 1785.15 267.818C1788.87 270.686 1792.42 273.787 1795.86 276.925C1791.13 272.112 1786.05 267.663 1780.98 263.214C1775.91 258.766 1770.98 254.106 1765.67 249.985C1764.23 248.902 1762.84 247.744 1761.51 246.514C1749.53 237.563 1737.13 229.238 1724.35 221.573C1669.49 189.459 1609.26 168.891 1547.49 161.174C1518.17 157.388 1488.71 156.356 1459.5 158.092C1431.17 159.839 1403.18 164.066 1375.84 170.728C1373.83 171.325 1371.7 171.539 1369.57 171.36C1368.42 171.043 1368.46 170.302 1370.38 169.673C1403.43 158.552 1437.59 150.585 1472.43 145.873C1511.08 140.817 1550.59 141.765 1589.62 148.685C1615.45 153.45 1641 160.134 1666.06 168.683C1717.81 186.518 1766.71 212.867 1810.74 246.634C1821.7 255.595 1833.07 264.279 1843.38 274.331L1859.22 289.18L1863.12 292.949L1866.8 296.892L1874.15 304.801C1911.52 349.198 1943.19 398.09 1968.33 450.202C1993.3 501.633 2011.76 555.758 2023.24 611.225L2028.68 640.118C2030.33 649.717 2031.34 659.406 2032.6 669.028C2033.2 673.822 2033.87 678.651 2034.34 683.452L2035.38 697.906L2036.32 712.345C2036.73 717.241 2036.91 721.846 2036.84 726.648L2037.04 755.444C2036.96 765.004 2036.26 774.631 2035.77 784.185C2035.59 789.075 2035.28 793.739 2034.93 798.527L2033.3 812.835L2031.85 827.142C2031.21 831.967 2030.72 836.683 2029.74 841.356L2024.87 868.972C2023.17 878.071 2020.7 887.165 2018.58 896.258C2017.44 900.779 2016.47 905.35 2015.2 909.828L2011.24 923.189C2008.51 932.065 2006.14 941.122 2002.89 949.746L1993.45 975.89C1989.9 984.369 1986.35 992.898 1982.75 1001.42C1979.15 1009.94 1975.06 1018.14 1971.12 1026.51L1965.07 1038.93C1962.98 1043.06 1960.78 1047.1 1958.55 1051.11C1955.4 1057.26 1952.15 1063.25 1948.8 1069.05C1945.36 1074.74 1941.66 1080.06 1938.04 1085.18C1934.42 1090.3 1930.8 1095.09 1927.1 1099.56C1923.4 1104.03 1919.58 1107.84 1915.87 1111.51C1901.7 1126.05 1888.48 1133.36 1881.31 1131.96C1876.97 1131.01 1875.16 1126.95 1875.51 1120.64C1876.61 1111.91 1878.91 1103.45 1882.34 1095.49C1879.85 1098.95 1877.59 1102.46 1874.92 1105.69L1861.68 1120.57C1855.94 1127 1849.64 1132.9 1842.85 1138.2C1837.81 1142.44 1832.23 1146 1826.24 1148.8L1812.99 1155.05C1808.01 1156.56 1802.76 1158.7 1797.19 1160.87C1791.61 1163.04 1785.81 1165.21 1780.09 1167.54C1770.13 1171.87 1759.54 1174.78 1748.64 1176.16L1748.18 1170.92L1744.82 1172.32C1740.59 1174.61 1736.07 1176.37 1731.37 1177.55C1728.29 1178.31 1725.02 1178.24 1721.88 1177.34L1719.39 1172.82C1717.37 1166.98 1717.81 1159.6 1720.69 1149.9C1719.84 1149.03 1719.21 1147.96 1718.86 1146.81C1718.5 1145.65 1718.45 1144.44 1718.69 1143.28C1709.96 1144.26 1703.99 1142.39 1704.08 1134.19C1700.03 1135.91 1699.19 1133.68 1701.87 1129.45C1703.01 1127.83 1704.28 1126.3 1705.68 1124.9C1703.1 1125.48 1702.34 1125.66 1699.12 1126.62L1693.84 1130.45C1684.94 1136.89 1684.89 1136.83 1677.13 1142.27C1673.11 1144.59 1668.77 1146.31 1664.22 1147.39C1651.57 1145.75 1651.66 1145.69 1650.32 1141.77C1650.5 1141.11 1650.72 1140.47 1650.99 1139.86C1644.64 1143.13 1644.18 1143.34 1642.48 1144.18C1641.32 1144.56 1640.14 1144.84 1638.93 1145.02C1637.44 1143.55 1637.44 1143.55 1636.05 1143.66C1635.57 1143.4 1635.17 1143.02 1634.86 1142.57C1636.55 1138.33 1636.52 1138.35 1636.21 1137.74C1636.47 1136.96 1636.81 1136.22 1637.22 1135.52C1640.36 1132.2 1641.62 1130.86 1642.07 1130.36L1653.15 1128.69L1653.64 1125.92L1656.95 1126.42L1654.55 1125.49L1659.17 1123.36L1653.63 1125.46C1658.11 1122.4 1662.41 1119.09 1666.52 1115.55C1669.03 1113.63 1671.39 1111.51 1673.57 1109.21C1673.15 1109.09 1672.75 1108.87 1672.42 1108.56C1682.15 1100.8 1682.15 1100.8 1691.6 1093.26C1692.81 1092.87 1693.8 1092.65 1694.71 1092.39C1695.51 1090.53 1696.73 1088.91 1698.28 1087.65L1703.08 1083.44L1703.79 1082.25C1705.02 1080.42 1705.84 1079.2 1706.83 1077.69L1707.42 1076.74C1709.51 1073.75 1712.37 1068.9 1719.77 1056.59C1722.49 1054.04 1724.99 1051.9 1727.55 1049.49C1726.67 1050.18 1725.74 1050.64 1724.83 1051.13C1722.98 1052.13 1722.69 1049.47 1721.84 1050.09C1701.42 1066.86 1680.15 1085.5 1657.59 1101.94C1653.93 1105.33 1649.59 1107.42 1647.93 1106.69C1646.28 1105.97 1648.14 1102.4 1651.78 1098.88C1669.54 1076.64 1689.8 1053.59 1709.85 1030.23C1729.9 1006.87 1749.94 983.436 1767.84 961.268C1776.19 948.914 1784.28 936.24 1791.42 922.944L1789.59 924.409C1791.75 921.113 1793.92 917.868 1796.01 914.536L1796.59 913.409C1794.39 915.593 1791.86 917.655 1789.57 919.723C1788.36 921.353 1787.14 923.034 1785.93 924.715C1769.22 955.235 1747.76 978.908 1724.94 1002.96C1721.83 1006.2 1718.89 1009.3 1715.76 1012.18L1706.26 1020.33C1703.05 1022.89 1700.04 1025.63 1696.81 1028.15C1693.58 1030.68 1690.34 1033.31 1687.06 1035.94C1683.77 1038.56 1681.07 1040.29 1680.4 1038.83C1679.73 1037.37 1681.63 1033.8 1684.52 1030.79C1702.25 1009.52 1720.21 986.359 1736.96 963.975C1753.71 941.592 1768.93 919.763 1783.56 902.302C1787.35 893.656 1791.89 885.406 1797.15 877.644L1797.48 877.382L1792.56 882.065C1795.82 875.243 1799.5 872.394 1802.91 866.262C1801.38 866.484 1799.76 866.872 1798.21 867.116C1800.25 862.876 1801.77 858.434 1803.4 853.955L1808.27 840.57C1809.8 836.026 1810.94 831.324 1812.3 826.678C1813.66 822.033 1815.06 817.446 1816.22 812.772C1817.38 808.099 1818.38 803.454 1819.53 798.832C1820.69 794.209 1822.04 789.665 1822.85 785.174C1823.66 780.683 1824.76 776.336 1825.81 772.033C1826.42 769.881 1826.91 767.788 1827.58 765.593C1828.24 763.397 1828.58 761.232 1829.06 759.138C1829.23 757.721 1829.46 756.442 1829.68 755.134C1828.71 747.407 1828.27 739.78 1827.03 731.705C1826.55 727.674 1826.12 723.6 1825.84 719.365C1825.7 717.288 1825.58 715.16 1825.5 712.988L1824.98 706.378C1824.98 712.452 1824.29 718.323 1823.79 724.324C1823.42 721.056 1823.08 717.817 1822.76 714.556C1822.45 711.295 1821.98 707.962 1821.54 704.759C1820.76 698.165 1820.29 691.511 1819.95 684.618C1819.52 679.926 1819.18 675.169 1818.94 670.375C1818.7 665.581 1818.74 660.75 1818.25 655.971C1817.75 651.192 1817.64 646.441 1817.5 641.713C1817.35 636.984 1817.36 632.327 1817.02 627.853C1816.44 618.817 1816.78 610.194 1816.83 602.508C1816.72 595.648 1817.29 588.832 1818.53 582.163C1807.68 546.232 1792.34 511.62 1772.91 479.192C1754.29 448.284 1730.97 420.388 1703.88 396.607C1700.96 394.188 1699.19 391.467 1699.48 390.145C1699.77 388.822 1702.48 389.796 1705.32 392.129C1708.17 394.462 1710.55 395.931 1712.85 398.185L1720.03 404.656C1725 408.853 1729.74 413.33 1734.22 418.062L1747.79 432.488L1760.34 448.208C1764.58 453.514 1768.55 459.024 1772.25 464.715L1778.07 473.129C1780.2 475.797 1781.64 479.012 1783.47 481.921C1786.93 487.892 1790.59 493.76 1793.97 499.796L1803.43 518.452L1796.72 502.296L1795.04 498.225C1794.47 496.882 1793.78 495.627 1793.15 494.328L1789.3 486.477C1786.64 481.289 1784.31 475.889 1781.35 470.891L1772.56 455.779C1771.08 453.305 1769.75 450.621 1768.08 448.3L1763.13 441.09C1759.82 436.325 1756.65 431.4 1753.21 426.693L1742.33 413.06C1740.53 410.798 1738.7 408.507 1736.9 406.244L1730.9 399.967C1726.64 395.865 1722.47 391.596 1718.13 387.559C1713.7 383.727 1709.5 379.626 1705.56 375.282C1683.32 356.072 1658.88 339.719 1632.84 326.631C1606.31 313.213 1578.21 303.656 1549.41 298.258C1525.28 293.671 1500.89 291.565 1476.62 291.974C1452.47 292.389 1428.55 295.149 1405.18 300.216C1396.53 301.899 1388.07 304.381 1379.59 306.398C1371.11 308.416 1362.95 311.275 1354.81 314.163C1346.66 317.051 1338.64 320.033 1330.52 323.052C1322.39 326.071 1314.65 329.401 1306.83 333.03C1291.07 339.858 1275.6 347.499 1260.02 355.562C1244.45 363.625 1228.89 372.284 1212.98 381.328C1209.25 383.749 1205.2 385.642 1200.93 386.957C1197.35 388.098 1194.45 388.279 1193.08 387.236C1190.41 385.237 1194.93 378.878 1203.34 373.635C1219.49 362.796 1235.79 352.494 1252.58 343.317C1269.38 334.14 1286.26 325.231 1303.79 317.599C1321.02 309.944 1338.71 303.28 1356.77 297.639C1374.74 292.097 1393.08 287.688 1411.69 284.437C1430.25 281.353 1449.06 279.57 1468 279.099C1487.03 278.849 1506.13 280.08 1525.14 282.782C1544.37 285.537 1563.43 289.928 1582.1 295.91C1600.98 301.842 1619.36 309.499 1637.03 318.783C1652.11 326.594 1666.68 335.466 1680.62 345.33C1680.63 344.881 1680.75 344.446 1680.96 344.065C1681.84 342.697 1684.05 342.314 1686.88 342.947C1671.08 331.156 1654.54 320.466 1637.37 310.959C1611.95 300.303 1585.73 292.028 1559.06 286.243C1531.57 280.385 1503.82 276.434 1476.01 274.417C1466.25 273.423 1456.68 273.277 1447.19 272.733C1437.69 272.188 1428.23 272.238 1418.9 272.565C1409.56 272.891 1400.26 273.196 1390.92 273.573C1381.58 273.951 1372.31 275.032 1362.97 276.361C1316.82 289.149 1272.58 307.387 1231.14 330.711C1229.87 331.674 1228.3 332.191 1226.67 332.189C1225.74 331.98 1226.41 330.969 1228.04 329.861C1256.42 311.063 1286.68 295.197 1318.41 282.486C1312.65 282.339 1308.52 280.881 1308.06 278.216C1307.59 275.551 1310.62 271.425 1316.38 267.918C1308.63 270.064 1301.12 272.834 1293.43 275.22C1288.74 276.822 1284.67 277.173 1284.25 275.801C1283.83 274.429 1287.06 271.901 1291.54 270.27C1322.57 259.476 1354.63 251.526 1387.35 246.514C1406.7 242.845 1426.31 240.37 1446.08 239.1C1465.91 238.059 1485.85 238.337 1505.79 239.93C1501.43 238.372 1497.5 235.664 1494.43 232.096L1484.92 231.42L1475.51 231.144C1417.91 233.156 1361.45 244.149 1308.12 263.738C1253.95 283.763 1202.06 309.021 1153.12 339.179C1151.21 340.374 1149.32 340.931 1148.91 340.358C1148.49 339.785 1149.71 338.438 1151.48 337.403C1181.34 319.218 1212.18 302.643 1243.88 287.742C1242.43 287.948 1241.86 287.405 1243.08 286.341C1244.54 285.219 1246.25 284.442 1248.08 284.063C1249.73 283.834 1249.9 284.553 1248.88 285.464C1278.16 271.922 1308.42 260.463 1339.46 251.164C1370.22 241.851 1401.88 235.335 1434.07 231.689C1404.07 233.638 1374.41 238.118 1345.41 245.084C1316.35 252.193 1287.86 261.165 1260.11 271.948C1257.26 273.552 1254.42 275.157 1251.6 276.791C1248.78 278.424 1245.97 280.138 1243.14 281.874C1241.7 282.722 1240.03 283.136 1238.32 283.069C1237.65 282.794 1238.54 281.659 1240.14 280.754L1244.9 277.954C1240.49 279.888 1235.81 281.224 1231 281.93C1227.27 282.433 1224.63 281.981 1223.94 280.392C1223.26 278.803 1225.04 276.147 1228.23 273.459C1232.31 270.264 1236.81 267.632 1241.61 265.626C1270.58 252.219 1300.74 241.363 1331.79 233.173L1341.72 229.997C1345.13 228.653 1348.29 227.454 1351.57 226.168C1302.22 235.749 1254.4 250.976 1209.01 271.563C1205.17 273.439 1201.47 274.203 1200.91 273.275C1200.35 272.346 1202.84 269.74 1206.73 267.871C1225.98 256.997 1245.83 247.179 1266.2 238.459C1286.8 229.501 1307.99 221.852 1329.65 215.554C1351.56 209.14 1373.94 204.192 1396.65 200.741C1419.64 197.351 1442.93 195.616 1466.34 195.547C1497.88 191.011 1529.99 189.827 1562.15 192.015C1558.12 191.007 1554.04 189.941 1549.88 189.224C1524.53 184.12 1498.85 181.842 1473.31 182.433C1449.11 182.872 1425.11 185.47 1401.59 190.196C1378.69 194.846 1356.13 200.786 1334.02 207.989C1311.94 215.21 1290.15 223.526 1267.98 232.484C1265.77 233.484 1263.71 233.656 1263.19 233.221C1262.66 232.786 1263.99 231.585 1266.28 230.751C1309.39 212.636 1350.22 197.004 1397.86 187.764C1436.1 180.665 1475.19 177.649 1514.5 178.765C1475.86 174.763 1437.14 176.046 1399.42 182.581C1362.77 188.961 1326.91 198.522 1292.21 211.158C1289.56 212.291 1286.73 212.951 1283.81 213.109C1283.52 213.743 1283.01 214.237 1282.37 214.5C1278.32 216.783 1273.97 218.871 1269.7 221.096C1265.42 223.322 1260.8 225.679 1256.24 227.941C1254.63 228.86 1252.78 229.318 1250.89 229.268C1249.79 229.576 1250.52 228.419 1252.5 227.412ZM1797.94 992.748L1796.54 993.863C1797.8 992.574 1799.14 991.169 1800.65 989.633L1809.08 985.422C1809.08 985.422 1803.35 988.908 1797.94 992.748ZM1750.49 1086.39L1745.22 1087.98C1747.42 1087.32 1749.12 1086.81 1750.49 1086.39ZM1788.55 475.022C1792.47 482.474 1796.59 489.824 1800.28 497.421L1810.25 520.601C1813.12 528.571 1815.75 536.534 1818.38 544.497C1819.82 548.431 1820.62 552.585 1821.71 556.65L1824.65 568.877C1821.74 561.183 1819.19 553.438 1816.06 545.919C1811.97 533.993 1808.47 521.738 1803.51 510.076L1800.06 501.199L1798.37 496.713C1797.77 495.24 1797.07 493.854 1796.4 492.396L1788.55 475.022ZM1744.15 1036.14C1750.72 1031.5 1757.67 1027.41 1764.94 1023.92C1768.19 1018.9 1771.3 1013.53 1775.02 1008.47C1777.51 1005.07 1779.99 1001.66 1782.42 998.298C1784.85 994.936 1787.06 991.415 1789.36 988.01C1791.67 984.605 1794.02 981.207 1796.25 977.766C1798.48 974.325 1800.61 970.869 1802.81 967.45C1800.3 968.407 1802.37 965.097 1803.14 963.25L1805.72 957.723C1796.41 972.374 1786.33 986.485 1775.53 999.999C1770.42 1006.07 1765.6 1012.67 1760.23 1018.81C1754.86 1024.94 1749.66 1031.08 1744.15 1036.14ZM1664.87 1126.12L1663.32 1126.6L1664.13 1122.49L1664.87 1126.12ZM1663.8 1132.87L1665.95 1131.58C1666.14 1132.94 1665.14 1133.32 1663.91 1133.01L1663.8 1132.87ZM1683.48 1120.68C1682.24 1120.92 1681.05 1121.3 1679.91 1121.82L1683.48 1120.68ZM1747.78 1166.93L1746.1 1150.56L1746.76 1167.12L1747.78 1166.93Z" fill="#7CEBDB"/>
<path d="M929.175 683.633C926.415 667.701 927.035 632.743 929.666 633.681C928.479 633.204 927.885 632.966 927.557 629.857C927.354 628.311 927.26 626.059 927.16 622.674C927.098 620.967 927.007 618.998 926.937 616.775L927.187 608.886C928.761 609.623 930.207 588.342 932.518 575.057C929.726 585.83 926.853 600.939 924.866 631.767C925.106 635.326 925.206 639.328 925.313 643.563C925.419 647.798 925.668 652.774 925.572 657.598C925.476 662.422 925.419 667.689 925.592 672.962L926.044 688.979L926.291 697.042L926.908 704.952C927.366 710.189 927.809 715.295 928.327 720.102C929.317 728.398 930.919 736.641 933.119 744.762C931.054 725.712 931.003 707.049 929.175 683.633Z" fill="white"/>
<path d="M948.455 561.435L948.317 557.273C947.687 561.146 946.905 564.998 946.371 568.937L944.954 580.702L943.579 592.575C943.224 596.513 943.021 600.473 942.717 604.418C942.742 601.977 942.932 598.17 943.197 593.782C943.461 589.393 944.282 584.466 944.902 579.794C945.522 575.121 946.172 570.71 946.783 567.374C947.057 565.309 947.619 563.309 948.455 561.435Z" fill="white"/>
<path d="M996.087 418.189C995.604 422.752 1008.14 402.731 1009.28 404.051C1005.3 402.484 1028 372.168 1039.92 355.868L1042.83 347.711C1041.1 349.473 1039.1 351.635 1036.9 354.153C1034.69 356.672 1032.41 359.772 1030.05 362.937C1027.69 366.103 1025.04 369.741 1022.27 373.467C1019.5 377.193 1017.03 381.448 1014.16 385.777C1002.61 403.948 992.202 422.875 982.99 442.453C987.277 434.285 991.564 426.117 996.087 418.189Z" fill="#5F6AD8"/>
<path d="M1017.31 386.584C1019.24 382.533 1021.02 378.309 1023.09 374.33C1017.24 383.845 1003.72 405.837 1017.31 386.584Z" fill="white"/>
<path d="M994.174 405.854C977.568 435.101 1004.99 388.73 989.166 418.68C993.953 408.499 1000.61 397.014 994.174 405.854Z" fill="white"/>
<path d="M1083.06 298.804C1066.69 315.592 1051.45 333.489 1037.45 352.383L1046.96 341.377L1051.61 335.962L1056.48 330.836C1060.77 325.473 1064.84 319.848 1069.29 314.636L1083.06 298.804Z" fill="#5F6AD8"/>
<path d="M1089.98 300.5C1083.4 306.748 1072.8 316.441 1081.21 306.361C1085.93 302.216 1090.18 298.495 1094.2 294.998C1098.23 291.502 1101.69 287.927 1105.28 284.498C1108.86 281.068 1112.67 277.979 1116.6 274.752C1118.6 273.156 1120.65 271.517 1122.76 269.834C1124.87 268.151 1127.29 266.744 1129.72 265.184C1123.97 269.773 1118.56 274.849 1113.09 279.787C1115.08 279.811 1123.28 271.656 1131.9 264.772C1136.21 261.34 1140.42 257.974 1143.7 255.788C1146.98 253.601 1149.4 252.76 1149.75 253.761C1172.98 234.61 1128.78 263.609 1160.02 240.059C1152.52 245.43 1145.25 250.139 1138.65 255.022C1132.06 259.904 1125.69 264.51 1119.64 269.238C1113.6 273.967 1107.84 278.658 1101.98 283.336C1096.11 288.013 1090.66 293.263 1084.84 298.383C1092.05 292.918 1094.57 290.239 1104.41 282.291C1100.3 285.955 1096.04 290.163 1091.48 294.511C1089.25 296.717 1086.87 298.851 1084.63 301.261C1082.38 303.67 1080.13 306.08 1077.88 308.54C1068.59 318.187 1059.89 329.024 1051.7 338.93C1057.83 333.615 1063.51 327.784 1068.67 321.492C1071.64 318.028 1075.1 314.656 1078.59 311.06C1082.19 307.326 1085.99 303.801 1089.98 300.5Z" fill="#5F6AD8"/>
<path d="M1178.56 234.194C1198.92 222.176 1231.93 206.75 1236.78 201.981C1228.54 204.281 1220.67 207.627 1213.35 211.943C1208.45 214.853 1205.31 217.316 1200.71 220.653C1197.46 222.201 1190.48 225.537 1185.46 228.069C1180.44 230.601 1177.2 232.047 1180.87 228.835C1184.07 227.615 1168.83 238.684 1178.56 234.194Z" fill="#5F6AD8"/>
<path d="M1262.78 195.47C1267.87 192.691 1272.95 189.78 1278.24 187.364C1274.69 188.534 1271.21 189.792 1267.85 191.194L1265.92 189.738C1263.53 191.614 1261 193.303 1258.34 194.79C1256.03 196.161 1253.02 197.614 1249.27 199.373C1245.51 201.132 1241.06 203.307 1235.58 205.543C1240.27 204.26 1244.81 202.57 1249.17 200.492C1253.57 198.499 1258.12 196.821 1262.78 195.47Z" fill="#5F6AD8"/>
<path d="M1263.35 180.777L1269.05 179.217C1270.88 178.755 1272.74 178.22 1274.33 177.853C1277.73 176.945 1280.93 176.008 1284.18 174.976C1287.44 173.944 1290.71 172.709 1294.39 171.582L1306.6 168.009C1293.74 171.053 1278.44 175.759 1265.53 180.082C1259.12 182.443 1253.29 184.629 1248.61 186.463C1245.22 187.736 1241.94 189.258 1238.79 191.018L1240.44 189.707C1240.44 189.707 1234.89 192.422 1227.4 196.122C1223.62 197.903 1219.53 200.31 1215.42 202.688C1211.31 205.065 1207.19 207.545 1203.5 209.827C1209.29 206.581 1216.42 202.983 1223.67 199.48C1230.91 195.976 1238.69 193.19 1245.26 190.466C1258.8 185.64 1267.96 181.842 1263.35 180.777Z" fill="#5F6AD8"/>
<path d="M1231.84 192.581L1240.39 188.181L1244.68 185.984L1249.07 184.005L1244.68 185.984L1240.39 188.181L1231.84 192.581Z" fill="#5F6AD8"/>
<path d="M1333.66 175.803C1321.6 177.545 1309.73 180.37 1297.8 183.005L1306.73 181.669L1320 178.297L1333.66 175.803Z" fill="#5F6AD8"/>
<path d="M1288.67 177.903C1295.88 175.707 1298.45 175.273 1298.68 174.945C1298.91 174.618 1296.84 174.942 1294.65 175.172C1293.27 175.445 1291.85 175.555 1290.43 175.502C1293.25 174.102 1296.3 173.161 1299.46 172.713C1293.56 173.94 1287.78 175.599 1282.17 177.678C1273.99 179.933 1266.09 182.967 1258.55 186.74C1260.33 186.271 1262.81 185.336 1265.58 184.312L1270.05 182.551L1274.76 180.979C1281.02 178.93 1286.83 177.232 1288.67 177.903Z" fill="#5F6AD8"/>
<path d="M1357.35 172.23C1362.27 171.252 1367.15 169.963 1372.15 169.254L1387.05 166.859L1372.15 169.254C1367.06 169.847 1362.17 171.136 1357.35 172.23Z" fill="#5F6AD8"/>
<path d="M1432.69 168.609L1438.61 167.208C1453.33 168.184 1470.62 169.06 1486.83 171.122C1494.57 171.947 1502.29 173.176 1509.94 174.803C1513.49 175.485 1516.86 176.219 1520.02 176.974C1523.17 177.73 1525.97 178.82 1528.53 179.672C1526.15 178.253 1529.31 178.006 1529.88 177.315C1530.45 176.623 1529.79 176.581 1527.73 175.852C1523.73 174.504 1519.65 173.504 1515.53 172.866C1511.35 173.253 1502.2 171.676 1503.53 172.944C1492.54 170.797 1494.89 169.92 1487.56 168.6C1468.42 167.489 1438.89 165.137 1423.69 166.719C1428.61 166.566 1433.54 166.671 1438.47 167.034C1431.91 167.511 1425.31 167.643 1418.7 167.428C1413.43 167.455 1409.23 167.246 1405.57 167.037C1399.06 166.087 1392.51 166.778 1386.51 169.049C1393.61 167.96 1400.86 167.622 1408.12 168.041C1412.25 168.162 1416.45 168.087 1420.6 168.288C1424.75 168.489 1428.92 168.72 1432.69 168.609Z" fill="#5F6AD8"/>
<path d="M1429.54 158.641C1425.06 158.651 1420.75 158.298 1416.34 158.344L1403.13 158.636C1405.89 157.975 1408.72 157.574 1411.59 157.44C1415.29 157.107 1419.03 156.982 1422.77 157.065C1428.42 157.439 1434.06 157.202 1439.6 156.358C1437.98 155.178 1411.49 154.389 1421.13 153.72C1418.21 158.042 1385.02 155.328 1399.12 159.844C1390.51 160.299 1385.8 160.971 1382.57 160.848C1380.56 160.915 1378.54 160.776 1376.54 160.433C1373.61 160.018 1370.36 159.147 1352.64 161.94L1343.12 165.74C1352.9 164.061 1360.7 162.823 1367.5 161.906C1374.3 160.99 1380.14 160.89 1386.03 160.462C1391.92 160.034 1397.71 159.876 1404.61 159.591L1415.83 159.043C1420.05 158.713 1424.56 158.812 1429.54 158.641Z" fill="#5F6AD8"/>
<path d="M975.97 471.413C973.917 477.324 972.259 481.875 970.883 485.488L975.907 471.559L975.97 471.413Z" fill="#5F6AD8"/>
<path d="M966.133 486.004C968.775 476.375 972.826 467.273 978.156 458.989C980.507 455.024 983.071 450.652 986.069 444.747C989.068 438.841 993.032 431.785 997.478 422.019C993.882 429.873 989.924 437.779 986.321 446.017L981.077 458.604C979.366 462.865 977.43 467.069 975.986 471.496C964.516 493.417 981.163 452.981 966.133 486.004Z" fill="#5F6AD8"/>
<path d="M1191.15 217.786L1192.3 216.868C1194.67 215.685 1193.54 216.4 1191.15 217.786Z" fill="#5F6AD8"/>
<path d="M1943.46 857.456L1935.82 880.023C1933.07 887.533 1929.91 895.088 1926.94 903.108C1923.97 911.128 1920.02 919.266 1916.3 928.26C1914.24 932.653 1912.08 937.183 1909.84 941.961C1907.6 946.739 1905.42 951.706 1902.67 956.696C1905.55 957.205 1894.4 973.074 1895.43 976.951C1883.91 996.034 1871.29 1014.38 1857.63 1031.89C1854.26 1036.53 1850.37 1040.77 1846.77 1045.07C1843.16 1049.37 1839.63 1053.66 1835.97 1057.44C1828.61 1065.07 1822.33 1072.26 1816.83 1077.45C1805.99 1087.96 1801.06 1093.03 1808.23 1086.84L1815.67 1078.19L1808.95 1088.3C1791.44 1102.99 1765.33 1119.88 1753.15 1129.45C1754.93 1127.93 1756.82 1126.54 1758.82 1125.31C1760.88 1123.91 1763.43 1122.16 1766.36 1120.1L1776.02 1112.82C1793.6 1099.63 1810.24 1085.24 1825.84 1069.75L1838.31 1056.95C1842.33 1052.6 1846.07 1048.19 1849.79 1044.03L1855.19 1037.88L1860.08 1031.75C1863.22 1027.77 1866.17 1023.99 1868.88 1020.59C1879.22 1006.46 1885.35 997.344 1884.22 998.857C1885.95 997.48 1884.75 999.524 1881.41 1004.71C1878.06 1009.9 1873 1018.11 1865.45 1027.65C1846.67 1052.39 1825.41 1075.05 1801.97 1095.29C1777.31 1116.67 1750.58 1135.52 1722.13 1151.59C1716.1 1154.88 1710.53 1157.9 1705.55 1160.65C1700.57 1163.39 1695.87 1165.38 1692.11 1167.24C1684.58 1171.06 1679.73 1173.13 1678.95 1173.66L1675.28 1173.22C1671.28 1175.17 1667.5 1177.01 1663.79 1178.77C1660.09 1180.54 1656.5 1181.99 1653.04 1183.56C1646.02 1186.55 1639.52 1189.59 1632.93 1192.06C1626.33 1194.52 1620.1 1197.11 1613.5 1199.29C1606.91 1201.47 1600.09 1203.44 1592.81 1205.55L1585.56 1204.78C1590.23 1204.11 1594.83 1203.15 1599.35 1201.9C1603.25 1200.88 1606.68 1199.85 1610.01 1198.85C1616.87 1196.94 1623.5 1194.12 1634.06 1190.44L1621.46 1194.32C1617.66 1195.51 1614.2 1196.46 1610.97 1197.19C1604.54 1198.62 1599.19 1199.84 1594.21 1201.07C1589.22 1202.29 1584.27 1202.83 1578.87 1203.81C1573.47 1204.8 1567.63 1206.08 1560.24 1207.09C1561.03 1208.36 1567.48 1207.91 1569.03 1207.72C1569.83 1207.65 1569.45 1207.86 1566.54 1208.42L1548.91 1211.67C1543.4 1211.84 1546.75 1210.31 1547.18 1209.49C1547.6 1208.68 1545.55 1208.52 1528.84 1210.22C1488.17 1212.24 1496.61 1215.85 1460.74 1215.28L1466.8 1215.9L1472.92 1216.1L1485.04 1216.73C1471.84 1217.05 1447.04 1216.48 1434.35 1213.5C1436.23 1213.71 1438.45 1213.98 1440.94 1214.23C1443.42 1214.47 1446.14 1214.45 1448.95 1214.72C1454.66 1214.91 1460.79 1215 1466.44 1215C1477.66 1214.45 1486.82 1213.41 1486.19 1212.06C1471.13 1213.02 1437.68 1210.03 1424.62 1208.21L1432.73 1207.15C1426.48 1205.74 1420.16 1204.82 1413.82 1204.39C1406.55 1203.65 1399.32 1202.38 1392.17 1200.59C1383.65 1199.51 1386.13 1200.66 1389.54 1202.07C1392.95 1203.48 1397.41 1204.62 1392.62 1204.35C1390.87 1203.9 1381.86 1201.36 1371.77 1199.11L1364.14 1197.37L1356.73 1195.44C1352.12 1194.38 1347.83 1193.34 1344.91 1192.87C1347.81 1194.82 1351.01 1196.22 1354.35 1197.01C1359.42 1198.51 1364.55 1199.7 1369.72 1200.6C1375.46 1201.67 1381.63 1202.83 1387.63 1204.21C1393.37 1205.35 1399.06 1206.86 1404.66 1208.71C1399.4 1207.73 1394.16 1206.79 1388.88 1205.78L1373.25 1202.1C1363.06 1201.97 1375.63 1204.63 1389.43 1207.43C1403.23 1210.23 1418.39 1211.76 1413.11 1212.55C1400.82 1212.33 1388.53 1210.19 1376.67 1206.21C1364.61 1203.07 1353.05 1199.09 1341.58 1198.75C1348.72 1201.08 1363.85 1205.71 1376.66 1208.45C1389.47 1211.19 1399.69 1213.48 1396.57 1213.74C1388.85 1211.82 1381.06 1210.29 1373.23 1209.15C1369.24 1208.53 1365 1208.17 1360.37 1207.31C1355.74 1206.44 1350.78 1205.46 1344.98 1203.97C1335.88 1201.11 1327.05 1197.34 1318.18 1193.93C1306.37 1191.48 1315.58 1194.43 1324.4 1198.13C1304.59 1191 1278.23 1180.89 1250.8 1167.7C1222.68 1154.62 1195.95 1138.41 1171.14 1119.37C1167.43 1116.97 1164.7 1115.02 1162.58 1113.48C1160.46 1111.94 1159 1111.02 1158 1110.39C1156.04 1109.16 1155.91 1109.4 1156.3 1109.99C1157.01 1111.23 1159.56 1114.08 1152.77 1109.67C1145.77 1103.15 1136.12 1094.81 1126.11 1086.71C1121.16 1082.64 1116.38 1078.28 1111.8 1074.39C1107.46 1070.83 1103.3 1067.05 1099.32 1063.08C1095.28 1058.8 1086.08 1052.89 1089.42 1057.59C1101.44 1069.22 1114.05 1080.19 1126.98 1090.66C1124.34 1090.06 1128.59 1096.45 1142.72 1107.58C1140.93 1104.78 1143.45 1106.19 1148.31 1109.87C1150.74 1111.68 1153.78 1114.09 1157.17 1116.75C1160.55 1119.42 1164.25 1122.49 1168.4 1125.21C1184.02 1137.2 1202.41 1148.73 1205.17 1147.42L1203.4 1149.13C1207.97 1151.89 1212.73 1154.26 1217.53 1156.84L1231.67 1164.17C1241.29 1168.64 1250.85 1173.21 1260.56 1177.34L1258.96 1176.29C1261.47 1177.64 1264.08 1178.78 1266.75 1179.7L1276.07 1183.47C1279.54 1184.83 1283.37 1186.48 1287.57 1187.87L1300.73 1192.51C1305.3 1194.14 1309.96 1195.88 1314.68 1197.24L1328.5 1201.64L1335.19 1203.85L1341.63 1205.74C1336.58 1205.02 1320.49 1199.63 1309.43 1196.39C1298.38 1193.16 1292.7 1190.76 1308.57 1198.13C1302.5 1196.13 1295.04 1193.59 1286.86 1190.53C1282.71 1189.09 1278.5 1187.18 1274.06 1185.22L1260.23 1179.12C1255.44 1177.1 1250.7 1174.42 1245.66 1172.09C1240.61 1169.75 1235.64 1167.12 1230.57 1164.42L1215.22 1155.97L1207.39 1151.78L1199.67 1147.21L1206.89 1153.56C1182.19 1139.99 1158.76 1124.04 1136.93 1105.94C1114.18 1086.91 1092.7 1066.37 1072.62 1044.46C1076.95 1048.03 1081.16 1051.89 1085.59 1055.09C1082.21 1051.52 1078.95 1047.38 1075.47 1043.18L1064.84 1030.49C1061.39 1026.17 1057.9 1021.79 1054.66 1017.73C1051.42 1013.67 1047.79 1010.01 1044.77 1006.63C1048.33 1011.43 1050.81 1014.2 1052.02 1015.99C1053.22 1017.78 1053.54 1018.24 1053.17 1018.11C1051.24 1016.74 1049.39 1015.24 1047.64 1013.65C1042.37 1007.5 1036.95 1000.25 1030.91 992.675C1024.86 985.105 1019.34 976.218 1013.5 967.26L1004.92 953.31C1003.48 950.996 1001.99 948.624 1000.58 946.237L996.48 938.968L988.217 924.341L980.48 909.532C980.48 909.532 981.868 911.272 981.305 909.443C979.539 906.106 977.602 902.667 975.844 899.227L970.928 888.908C967.614 882.058 964.271 874.947 961.254 867.907C956.085 854.564 952.199 840.811 949.651 826.846C947.132 819.362 941.669 799.985 942.451 807.764C943.395 811.757 944.571 816.041 945.502 818.668C936.631 796.931 941.504 802.87 933.35 775.007C940.479 796.472 934.522 767.711 937.401 769.971C930.176 737.094 933.166 767.416 931.45 763.468C930.673 758.392 929.977 753.868 929.407 749.671C928.837 745.473 928.629 741.841 928.303 738.399C927.725 731.549 927.163 725.732 926.845 720.052C926.527 714.372 926.35 708.531 925.997 701.74C925.721 698.304 925.623 694.585 925.558 690.459L925.052 676.621C924.384 675.446 924.496 682.667 924.623 690.636L924.846 696.534L925.127 702.054C925.338 704.367 925.291 706.683 924.985 708.956C923.989 697.313 923.493 683.657 922.855 681.508L922.93 694.076C922.912 698.267 923.303 702.465 923.491 706.635C922.64 696.016 922.808 685.438 922.461 674.891C922.238 669.61 922.524 664.35 922.58 659.083L922.84 643.115C923.846 621.901 925.199 599.886 928.583 576.821L927.371 580.304L929.336 565.966C930.039 561.228 931.251 556.511 932.16 551.751L932.411 562.516C933.691 554.849 935.699 547.028 937.351 540.108C939.112 534.559 940.328 528.819 940.981 522.97L939.375 528.429C940.796 522.121 942.098 515.718 943.621 509.423C942.555 516.065 941.737 522.794 940.8 529.429C942.642 523.591 944.113 517.006 945.805 509.912C947.497 502.818 949.557 495.287 951.564 487.183C953.57 479.078 956.434 470.812 959.317 462.008C962.2 453.204 966.203 444.456 970.24 435.301C971.804 433.721 970.949 436.919 968.807 442.663C967.721 445.571 966.326 449.105 964.746 453.024C963.166 456.943 961.381 461.168 959.879 465.69C958.376 470.212 956.745 474.741 955.227 479.133L953.104 485.574L951.474 491.622C949.529 499.297 948.384 505.053 948.995 506.607C951.373 500.485 954.199 492.059 957.071 484.308C959.6 478.202 961.747 471.924 963.499 465.507C961.904 466.542 958.557 475.384 955.18 484.298C957.818 475.974 960.825 466.596 964.701 457.238L970.885 443.188L974.028 436.171C975.165 433.887 976.325 431.633 977.539 429.334C982.097 420.381 986.298 411.712 990.471 404.3C994.643 396.888 997.517 390.039 999.828 385.013C997.212 388.477 994.91 392.166 992.557 395.847L985.526 406.869C989.176 400.206 992.767 394.256 996.127 388.916C999.488 383.576 1003.14 379.332 1006.13 375.381C1011.97 367.304 1016.88 361.772 1018.82 356.849L1013.61 367.845C1012.01 371.452 1010.45 375.117 1009 378.927C1010.84 375.61 1012.75 372.046 1014.91 368.568L1021.82 358.302C1024.16 354.774 1026.48 351.165 1029.09 347.752C1031.71 344.339 1034.3 340.897 1036.88 337.455C1039.47 334.013 1042.04 330.542 1044.74 327.296C1047.44 324.05 1050.16 320.833 1052.8 317.681C1055.44 314.53 1058 311.494 1060.5 308.503C1063 305.512 1065.55 302.811 1067.94 300.139C1067.55 299.646 1065.69 301.132 1062.91 303.776C1061.55 305.101 1059.93 306.674 1058.33 308.428C1056.73 310.182 1055.12 312.22 1053.45 314.171C1046.89 322.017 1040.64 329.855 1041.22 329.011C1043.64 325.083 1046.31 321.343 1048.86 317.458C1052.72 313.424 1055.75 310.199 1058.16 307.658C1060.57 305.118 1062.66 303.456 1064.18 302.051C1067.23 299.24 1068.71 298.009 1070.36 296.596C1072.01 295.183 1073.84 293.486 1077.79 289.953C1081.75 286.421 1087.94 281.097 1098.28 272.472L1097.59 270.882C1102.5 267.601 1107.21 264.022 1111.68 260.164C1116.85 255.75 1122.64 251.422 1127.29 247.706C1129.65 245.826 1131.81 244.1 1133.56 242.701C1134.94 241.663 1136.39 240.716 1137.89 239.865C1139.88 238.756 1139.85 239.396 1136.75 242.868C1132.55 245.362 1128.51 248.11 1124.38 250.742L1126.56 251.565C1142.9 238.796 1160.01 227.032 1177.8 216.331C1173.23 220.497 1199.51 205.893 1193.39 211.436C1199.73 207.186 1206.45 203.531 1213.11 199.687C1218.51 198.803 1209.26 203.902 1198.86 209.919C1188.47 215.936 1176.81 223.293 1176.46 225.044C1177.17 225.428 1179.71 224.064 1182.77 222.567C1185.84 221.071 1189.3 219.065 1191.56 217.738C1168.67 232.538 1154.73 235.686 1132.42 251.544L1122.7 261.105L1121.75 258.681C1117.81 261.933 1114.13 265.489 1110.73 269.319C1107.75 272.552 1105.56 275.252 1104.35 276.882C1101.46 278.688 1098.7 280.697 1096.1 282.894C1093.36 285.08 1090.62 287.265 1088.12 289.741C1085.61 292.217 1082.87 294.402 1080.2 297.241C1077.54 300.081 1075.06 302.767 1072.39 305.657C1069.72 308.547 1067 311.481 1064.28 314.596C1061.57 317.712 1058.88 321.089 1056.06 324.524C1053.25 327.959 1050.18 331.308 1047.26 335.012C1044.35 338.717 1041.31 342.559 1038.07 346.475C1048.01 332.802 1044.31 336.755 1038.29 343.314C1032.27 349.874 1024.65 359.938 1026.18 357.297C1023.48 361.11 1019.97 366.377 1016 372.634L1004.55 392.783C1000.82 399.794 997.266 406.806 993.882 412.734C990.498 418.662 987.784 423.913 985.295 427.086C979.253 436.37 994.018 405.6 981.859 428.736C980.053 432.598 978.421 436.226 977.147 439.237C975.873 442.247 975.083 444.966 974.576 446.747C973.559 450.36 974.034 450.787 976.733 446.023C960.305 483.922 948.024 523.719 940.1 564.736L940.179 554.609C939.328 557.756 938.578 560.918 937.879 564.087C937.18 567.256 936.76 570.439 936.381 573.447C935.45 579.697 934.738 585.771 934.188 591.432C933.614 602.904 933.392 612.907 933.787 619.808C932.952 623.369 933.338 625.482 932.59 621.285C931.608 628.449 931.02 635.685 930.83 642.959C930.851 649.446 931.411 655.598 931.919 662.36C932.428 669.122 933.328 676.712 934.013 685.66C934.697 694.608 936.093 705.741 937.242 719.541C938.222 717.905 938.189 710.952 937.538 702.215C937.114 697.806 936.991 693.157 936.637 688.218C936.282 683.279 935.907 678.594 935.428 674.229L938.189 678.814C935.966 631.36 942.061 578.599 949.223 541.221L947.546 558.842C949.471 553.235 951.043 547.494 952.255 541.65C952.998 538.43 953.545 535.156 953.892 531.847C954.174 528.691 954.682 525.572 955.413 522.516C955.905 520.604 956.578 518.358 957.429 515.828C958.279 513.298 959.728 510.338 961.321 506.884C967.292 484.982 955.12 522.037 959.25 505.356C962.136 497.736 962.752 499.238 963.845 499.315C964.938 499.393 965.018 499.044 966.019 497.153C967.021 495.262 968.31 491.765 970.77 485.577C953.55 535.17 943.821 587.484 941.9 640.82C941.09 668.26 942.324 695.838 945.593 723.322C949.04 750.334 954.509 777.154 961.952 803.549C963.024 805.399 961.459 799.955 960.257 794.458C961.778 798.893 964.588 807.19 967.917 818.442C971.247 829.695 976.137 843.69 982.418 859.09C996.333 895.031 1013.95 929.563 1034.97 962.09C1055.09 993.201 1078.43 1022.15 1104.56 1048.41L1112.33 1056.07C1114.81 1058.5 1117.37 1060.64 1119.67 1062.74C1124.34 1066.85 1128.51 1070.45 1132.07 1073.45C1136.14 1077.12 1140.71 1080.16 1145.61 1082.49C1149.19 1086.7 1135.03 1076.31 1152.83 1090.98C1154.77 1091.84 1159.81 1094.9 1156.08 1090.89C1180.98 1112.47 1208.34 1130.88 1237.48 1145.66C1269.18 1161.88 1301.97 1175.54 1335.54 1186.53C1334.92 1185.74 1338.3 1186.51 1341.89 1187.01C1344.4 1187.6 1346.95 1187.87 1349.49 1187.83C1355.85 1190.29 1362.35 1192.33 1368.93 1193.93C1376.15 1195.57 1383.89 1197.23 1391.64 1198.68L1414.21 1202.08C1421.34 1203.04 1427.91 1203.74 1433.34 1204.76L1426.36 1202.64C1449.15 1205.32 1472 1206.42 1494.76 1205.94C1495.75 1205.67 1493.94 1205.64 1491.18 1205.61L1481.98 1205.31C1485.69 1205.2 1488.68 1205.18 1490.99 1205.38C1493.3 1205.58 1495.45 1205.34 1496.71 1205.57C1498.43 1205.61 1500.13 1206.12 1501.64 1207.04L1516.67 1204.97L1531.71 1202.13L1540.08 1201.77C1542.9 1201.61 1545.69 1201.23 1548.45 1201.03L1565.66 1199.11C1577.11 1197.05 1588.96 1195.28 1600.52 1192.23C1612.07 1189.19 1624.1 1185.71 1636.04 1182.03C1647.58 1177.56 1659.61 1173.52 1671.17 1168.24C1717.89 1148.14 1761.6 1119.2 1800.44 1087.64C1805.3 1081.77 1809.79 1076.38 1815.48 1070.42C1818.36 1067.45 1821.16 1063.99 1824.58 1060.36C1828 1056.72 1831.94 1052.73 1835.94 1047.97C1833.13 1050.97 1829.94 1053.65 1826.95 1056.47C1835.25 1046.71 1835.41 1046.35 1835.71 1046.78C1836.01 1047.2 1835.94 1047.97 1842.79 1039.47C1851.44 1027.44 1843.21 1033.81 1830.9 1049.57C1821.56 1057.92 1826.55 1051.99 1832.12 1045.03C1857.86 1016.89 1880.48 985.955 1899.63 952.714C1917.01 922.464 1931.68 890.592 1943.46 857.456Z" fill="#5F6AD8"/>
<path d="M996.254 660.969C999.191 665.605 1004.47 643.167 1007.48 644.417C999.851 643.621 1012.21 608.883 1016.63 589.927L1013.66 580.577C1012.31 583.06 1011.08 585.618 1010 588.242C1008.78 591.26 1007.77 594.771 1006.61 598.544C1005.45 602.317 1004.34 606.431 1003.02 610.902C1001.7 615.372 1001.06 620.016 1000.06 624.842C996.098 645.534 993.38 666.519 991.926 687.684C993.445 678.687 994.826 669.799 996.254 660.969Z" fill="#FFB200"/>
<path d="M1005.99 625.194C1005.71 620.676 1005.34 616.224 1005.16 611.619C1003.79 622.49 999.731 647.233 1005.99 625.194Z" fill="white"/>
<path d="M982.619 648.872C977.746 681.811 987.464 629.436 984.342 662.829C984.698 651.533 986.438 638.657 982.619 648.872Z" fill="white"/>
<path d="M1029.68 520.695C1021.43 541.989 1014.6 563.887 1009.22 586.246L1014.39 573.056L1016.84 566.353L1019.92 560.149C1021.41 553.593 1022.74 546.834 1024.41 540.38L1029.68 520.695Z" fill="#FFB200"/>
<path d="M1041.82 522.643C1038.22 530.548 1031.31 542.565 1034.3 530.07C1037.49 524.913 1040.24 520.206 1042.51 515.639C1044.78 511.072 1046.57 506.563 1048.42 502.142C1050.27 497.721 1052.39 493.518 1054.72 489.19C1055.87 487.037 1057.15 484.877 1058.5 482.701C1060.02 480.465 1061.67 478.327 1063.44 476.297C1060.2 482.632 1057.54 489.307 1054.72 495.83C1057.54 495.765 1061.28 485.23 1066.31 475.906C1068.36 471.619 1070.73 467.508 1073.39 463.605C1075.62 460.781 1077.87 459.273 1079.42 460.7C1084.94 447.226 1080.4 450.702 1076.79 453.304C1073.17 455.905 1070.09 458.121 1078.89 441.225C1074.32 448.863 1069.66 455.717 1065.56 462.497L1053.63 481.986C1049.82 488.446 1046.31 494.614 1042.65 500.863C1038.98 507.111 1035.85 513.693 1032.3 520.319C1037.52 513.209 1038.68 509.821 1045.22 499.476C1035.84 518.633 1026.92 546.164 1019.89 570C1024.47 563.678 1027.87 556.53 1029.94 548.881C1031.15 544.781 1033.08 540.396 1034.91 535.946C1036.81 531.292 1039.12 526.84 1041.82 522.643Z" fill="#FFB200"/>
<path d="M1096.76 432.384C1110.56 414.627 1133.92 389.395 1134.26 381.003C1127.21 385.215 1121.25 391.005 1116.81 397.962C1114.48 402.48 1112.38 407.131 1110.54 411.895C1107.91 414.226 1103.01 419.606 1099.12 423.327C1095.23 427.048 1092.64 429.306 1094.09 424.544C1097.03 422.67 1088.81 439.005 1096.76 432.384Z" fill="#FFB200"/>
<path d="M1157.12 368.742C1159.94 363.737 1162.74 358.602 1165.91 353.8C1163.35 356.218 1160.85 358.694 1158.48 361.343L1154.95 359.121C1154.17 362.247 1153.03 365.253 1151.57 368.086C1150.01 371.004 1148.19 373.769 1146.15 376.351C1143.31 380.162 1140.14 383.708 1136.68 386.95C1140.69 384.697 1144.22 381.7 1147.11 378.107C1150.01 374.544 1153.38 371.397 1157.12 368.742Z" fill="#FFB200"/>
<path d="M1143.13 344.25C1144.86 343.207 1146.43 342.143 1147.95 341.123C1149.46 340.102 1150.89 339.198 1152.33 338.192C1155.19 336.152 1157.51 334.061 1160.11 331.985C1162.71 329.909 1165.02 327.455 1167.91 324.906C1170.81 322.357 1173.73 319.786 1177.21 316.778C1166.89 324.298 1155.09 334.002 1145.07 342.851C1140.24 347.366 1135.88 351.56 1132.41 355.084C1129.86 357.509 1127.62 360.251 1125.75 363.25L1126.49 361.142C1126.49 361.142 1122.72 365.858 1117.82 372.422C1115.31 375.617 1112.78 379.531 1110.28 383.474C1107.77 387.417 1105.31 391.469 1103.24 395.215C1107.44 389.197 1112.01 383.468 1116.94 378.061C1122.42 372.506 1128 366.914 1132.83 362.014C1142.71 352.656 1149.27 345.529 1143.13 344.25Z" fill="#FFB200"/>
<path d="M1118.96 366.148C1122.68 361.091 1126.15 355.664 1130.18 350.831C1126.17 355.693 1122.68 361.091 1118.96 366.148Z" fill="#FFB200"/>
<path d="M1211.3 325.845C1201.25 331.345 1191.74 337.745 1182.1 343.971L1189.91 340.394L1200.41 332.873L1211.3 325.845Z" fill="#FFB200"/>
<path d="M1167.57 336.331C1170.41 334.551 1172.99 332.41 1175.27 329.957C1175.3 329.5 1173.35 330.201 1171.3 330.94C1169.24 331.678 1167.32 332.591 1167.11 332.148C1166.89 331.705 1168.41 329.966 1173.93 326.088C1176.67 323.903 1168.59 329.399 1160.4 336.885C1152.2 344.372 1143.46 352.913 1143.52 354.62C1145.47 353.18 1147.29 351.57 1148.96 349.806L1152.18 346.479L1155.7 343.245C1160.33 338.934 1164.9 335.284 1167.57 336.331Z" fill="#FFB200"/>
<path d="M1230.62 314.555C1234.32 311.604 1238.07 308.61 1241.77 305.659L1253.41 297.373L1241.77 305.659C1237.98 308.494 1234.37 311.662 1230.62 314.555Z" fill="#FFB200"/>
<path d="M1295.29 286.601L1299.31 281.87C1312.63 278.272 1327.78 272.876 1342.56 269.152C1349.53 267.241 1356.64 265.814 1363.86 264.883C1367.22 264.432 1370.41 264.112 1373.44 263.974C1376.3 263.933 1379.16 264.106 1382.01 264.492C1379.29 263.104 1381.71 260.795 1381.79 259.212C1381.83 258.42 1381.29 257.803 1379.22 257.561C1375.24 257.309 1371.28 257.597 1367.44 258.416C1364.15 261.039 1355.76 262.991 1357.7 264.86C1347.37 266.359 1348.71 263.435 1341.71 264.272C1325.13 271.575 1298.38 278.392 1286.32 286.491C1290.44 284.441 1294.79 282.89 1299.31 281.87C1294.07 285.071 1288.46 287.652 1282.59 289.565C1278.72 290.978 1274.73 292.082 1270.66 292.868C1263.91 294.358 1259.11 295.248 1255.25 302.166C1259.35 298.473 1266.36 296.249 1273.73 293.973L1284.89 290.482C1288.47 289.481 1291.95 288.182 1295.29 286.601Z" fill="#FFB200"/>
<path d="M1285.03 268.909C1281.08 270.305 1277.07 271.513 1273.16 273.019L1261.47 277.593C1263.4 275.584 1265.65 273.929 1268.15 272.696C1271.25 270.993 1274.48 269.524 1277.82 268.301C1284.64 265.612 1290.87 263.251 1292.12 260.829C1289.85 259.222 1266.01 267.427 1273.8 262.535C1274.63 271.94 1242.45 277.063 1258.87 280.955C1254.24 283.416 1249.48 285.628 1244.61 287.584C1242.73 288.269 1240.72 288.553 1238.69 288.418C1235.59 288.418 1231.97 288.034 1217.31 296.974L1211.57 306.017C1219.43 300.747 1225.84 296.817 1231.53 293.556C1237.22 290.296 1242.41 288.25 1247.46 285.928C1252.51 283.607 1257.7 281.51 1263.67 278.83C1266.65 277.501 1269.86 276.026 1273.44 274.217C1277.02 272.407 1280.74 270.953 1285.03 268.909Z" fill="#FFB200"/>
<path d="M1378.6 244.43L1391.22 245.418L1383.87 242.268C1387.32 241.65 1390.71 241.126 1394 240.69C1397.28 240.254 1400.61 240.159 1403.79 240.043C1410.13 239.731 1416.28 239.571 1422.13 239.936C1432.87 240.574 1443.59 241.945 1454.23 244.039L1468.49 246.905C1473.05 247.679 1477.45 248.919 1481.78 249.686C1486.11 250.453 1490.32 251.177 1494.48 251.611C1498.64 252.045 1502.81 252.558 1506.97 252.607C1512.21 252.42 1517.4 252.358 1522.54 252.622C1527.69 252.886 1532.79 253.659 1538 254.526L1545.58 255.7C1548.09 256.21 1550.6 256.822 1553.08 257.405C1558.07 258.599 1563.05 259.895 1568 261.213C1572.95 262.531 1577.84 264.278 1582.75 265.822C1587.66 267.365 1592.62 268.814 1597.5 270.713C1607.3 274.338 1617.31 277.504 1627.44 281.098C1648.26 284.712 1608.99 272.082 1607.28 269.884C1611.02 267.377 1615.96 269.516 1620.87 272.527C1625.78 275.537 1631.15 278.562 1636.78 277.583C1638.95 275.856 1628.77 270.351 1615.75 264.983L1595.28 257.148C1588.49 254.875 1582.28 252.71 1577.79 250.788C1574.68 250.055 1571.53 249.583 1568.37 249.379C1566.57 249.206 1564.76 249.218 1562.98 249.413C1560.67 249.848 1558.44 250.588 1556.35 251.615C1552.72 249.072 1548.7 247.18 1544.49 246.026C1540.28 244.926 1536.22 243.207 1532.44 240.925C1528.16 240.833 1524.17 240.45 1520.35 240.27C1516.53 240.09 1512.93 239.786 1509.48 239.452C1502.51 238.698 1496.06 237.58 1489.61 237.028C1483.16 236.476 1476.7 235.51 1469.79 235.33C1462.21 235.316 1454.68 235.841 1447.23 236.9C1436.46 233.009 1472.24 235.934 1461.07 235.357C1454.97 235.473 1448.99 235.501 1442.81 235.682L1444.76 236.215C1437.71 237.671 1430.54 238.634 1423.3 239.098C1415.35 239.748 1406.81 240.908 1398.7 241.253C1382.35 242.722 1366.85 243.695 1358.8 244.28C1363.3 243.502 1367.95 243.609 1372.5 244.597C1374.65 245.493 1373.35 246.622 1366.4 248.752L1353.42 246.58C1343.61 250.751 1334.18 256.184 1324.97 260.876C1330.41 258.282 1336.12 256.254 1342.02 254.822C1347.8 253.247 1353.75 252.674 1358.84 251.798C1363.28 251.177 1367.68 250.287 1371.99 249.131C1373.41 248.952 1374.75 248.432 1375.9 247.616C1377.05 246.799 1377.97 245.707 1378.6 244.43Z" fill="#FFB200"/>
<path d="M1342.13 243.336C1323.43 247.149 1325.03 248.533 1326.24 250.041C1326.84 250.795 1327.42 251.521 1325.17 252.746C1323.34 253.534 1321.45 254.17 1319.51 254.648C1316.82 255.606 1313.13 256.704 1308.13 258.081L1318.44 254.599C1321.94 253.371 1325.38 252.571 1328.85 251.517C1335.83 249.649 1342.72 247.33 1349.87 245.897C1347.33 245.126 1344.66 244.079 1342.13 243.336Z" fill="#FFB200"/>
<path d="M1000.83 716.751C1001.22 722.852 1001.36 727.53 1001.35 731.285L1000.79 716.925L1000.83 716.751Z" fill="#FFB200"/>
<path d="M993.054 733.254C991.347 723.465 992.273 713.538 995.735 704.531C997.339 699.471 998.576 694.28 999.435 688.999C1000.89 680.934 1001.7 672.729 1001.87 664.461C1001.58 672.859 1000.99 681.396 1000.82 690.172L1000.77 703.597C1000.78 708.05 1000.62 712.504 1000.9 717.022C995.228 740.586 997.449 698.084 993.054 733.254Z" fill="#FFB200"/>
<path d="M1095.61 407.57C1095.88 407.119 1096.14 406.77 1096.4 406.319C1097.83 404.23 1097.17 405.373 1095.61 407.57Z" fill="#FFB200"/>
<path d="M1961.9 731.617L1962.33 754.296C1962.31 761.909 1962.22 769.668 1962.15 777.841C1962.08 786.013 1961.55 794.557 1961.51 803.842L1960.85 818.234C1960.59 823.189 1960.61 828.492 1960.1 833.876C1965.63 833.885 1959.3 851.465 1964.46 855.231C1961.46 876.479 1957.07 897.425 1951.32 917.932C1950.03 923.282 1948.19 928.451 1946.58 933.627C1944.97 938.803 1943.5 943.87 1941.68 948.552C1938.1 958.004 1935.28 966.764 1932.35 973.374C1926.85 986.775 1924.63 993.253 1929.11 985.448L1931.41 974.452L1931.84 987.403C1920.84 1006.48 1901.93 1029.31 1896.07 1043.15C1895.63 1043.5 1896.84 1041.25 1899.37 1037.23C1900.67 1035.2 1902.25 1032.75 1904.08 1029.87C1905.91 1026.99 1907.77 1023.6 1909.92 1019.89C1920.66 1001.92 1930.21 983.199 1938.51 963.851L1945 947.992C1947 942.692 1948.75 937.407 1950.49 932.405C1951.39 929.882 1952.24 927.403 1953.08 924.975C1953.93 922.546 1954.56 920.089 1955.25 917.741L1958.9 904.286C1963.02 887.99 1965.12 877.582 1964.37 879.226C1965.67 877.429 1965.82 879.92 1965.1 885.762C1963.91 894.748 1962.15 903.618 1959.84 912.319C1952.44 941.514 1942.01 969.678 1928.71 996.353C1914.7 1024.5 1898.02 1051.1 1878.9 1075.79C1874.84 1080.93 1871.04 1085.66 1867.72 1089.88C1864.41 1094.09 1861.06 1097.66 1858.43 1100.71C1853.28 1106.95 1849.88 1110.62 1849.53 1111.52L1844.75 1111.15C1842.12 1114.48 1839.58 1117.65 1837.15 1120.73C1834.72 1123.81 1832.24 1126.59 1829.95 1129.46C1825.35 1134.93 1820.92 1140.61 1816.43 1145.38C1811.94 1150.15 1807.6 1155.32 1802.81 1160C1798.02 1164.67 1792.96 1169.23 1787.5 1173.97L1779.6 1174.01C1783.53 1171.87 1787.27 1169.42 1790.79 1166.69C1793.78 1164.3 1796.41 1162.21 1798.8 1159.87C1803.86 1155.41 1808.19 1150 1815.94 1142.63C1808.74 1148.38 1803.29 1153.35 1798.11 1156.86C1792.93 1160.38 1788.65 1163.27 1784.54 1165.98C1780.43 1168.69 1776.36 1170.85 1771.99 1173.57C1767.62 1176.3 1762.93 1179.52 1756.88 1183.12C1758.66 1185.35 1764.46 1182.9 1765.89 1182.33C1766.6 1182.05 1766.37 1182.43 1764.08 1184.11C1761.79 1185.79 1757.46 1188.73 1750.12 1193.87C1745.06 1195.44 1746.94 1191.9 1746.63 1190.11C1746.32 1188.31 1744.11 1188.46 1730.28 1196.08C1695.23 1211.32 1705.63 1215.75 1674.06 1227.93L1679.69 1226.62L1685.21 1225.06L1696.19 1221.95C1684.74 1227 1662.89 1235.8 1650.27 1236.04C1651.99 1235.62 1653.98 1235.08 1656.29 1234.37C1658.6 1233.67 1660.9 1232.68 1663.39 1231.7C1668.36 1229.73 1673.69 1227.42 1678.46 1225.08C1687.84 1219.98 1695.05 1214.74 1693.43 1212.38C1680.88 1219.12 1650.39 1226.98 1638.45 1230L1644.65 1224C1638.65 1224.21 1632.78 1225.47 1627.31 1227.73C1620.9 1229.98 1614.13 1231.24 1607.24 1231.45C1599.64 1234 1602.3 1234.87 1606.03 1235.55C1609.76 1236.23 1614.03 1236.47 1609.82 1238.22C1603.05 1238.31 1596.31 1238.82 1589.65 1239.74L1582.43 1240.75C1579.98 1241 1577.61 1241.28 1575.38 1241.63C1571.61 1242.09 1567.91 1242.88 1564.31 1244.01C1567.32 1245.9 1570.85 1246.66 1574.23 1246.16C1579.2 1245.86 1584.1 1245.12 1588.89 1243.96C1594.41 1242.6 1600.01 1241.54 1605.67 1240.77C1611.21 1239.81 1616.9 1239.68 1622.57 1240.39C1617.6 1241.17 1612.67 1242.07 1607.67 1242.78L1592.65 1244.51C1584.14 1250.03 1596.04 1248.03 1609.07 1245.65C1621.95 1242.64 1635.84 1239.15 1631.97 1243.34C1621.94 1249.82 1609.7 1250.66 1597.77 1250.59C1585.83 1250.52 1574.29 1250.67 1564.44 1257.15C1576.04 1257.15 1587.58 1256.4 1598.99 1254.88C1611.49 1253.69 1621.29 1252.14 1618.78 1254.23C1611.07 1254.55 1603.5 1256 1596.31 1258.54C1592.69 1259.62 1588.8 1261.21 1584.46 1262.35C1580.12 1263.48 1575.34 1264.68 1569.75 1265.49C1560.67 1265.34 1551.33 1264.43 1542.19 1263.75C1531.03 1266.96 1540.22 1266.46 1549.36 1267.52C1529.29 1266.92 1502.41 1267 1473.39 1264.67C1444.36 1262.34 1413.35 1256.85 1386.21 1246.55C1382.06 1245.73 1378.93 1244.95 1376.52 1244.41C1374.8 1244 1373.06 1243.69 1371.31 1243.49C1369.1 1243.25 1369.01 1243.76 1369.49 1244.47C1370.53 1245.77 1373.57 1248.18 1365.84 1247.37C1355.8 1241.99 1345.29 1237.65 1334.48 1234.42C1328.52 1232.34 1322.65 1230.04 1317.18 1228.24C1312.09 1226.57 1307.09 1224.6 1302.2 1222.34C1297.22 1219.63 1286.02 1219.59 1290.23 1223.68C1305.23 1229.84 1320.54 1235.1 1335.93 1239.77C1332.95 1241.38 1338.37 1247.89 1355.04 1253C1352.75 1249.84 1355.64 1249.87 1361.25 1251.51C1364.1 1252.32 1367.63 1253.54 1371.57 1255C1375.52 1256.46 1379.76 1257.96 1384.44 1259.5C1402.53 1265.76 1423.04 1270.57 1425.28 1265.74L1424.03 1270.4C1429.08 1271.11 1434.3 1271.7 1439.33 1272.1L1454.63 1273.47C1464.86 1273.99 1475.15 1274.52 1485.29 1274.59L1483.49 1273.84C1483.4 1274.24 1486.61 1274.39 1491.93 1274.42L1501.41 1274.4C1505.02 1274.37 1509 1274.42 1513.25 1274.12L1526.62 1273.46C1531.24 1273.29 1536.03 1273.17 1540.75 1272.73C1545.46 1272.29 1550.18 1272.09 1554.78 1271.89C1557.08 1271.8 1559.2 1271.82 1561.54 1271.66L1567.99 1271.26C1563.38 1272.9 1546.97 1273.46 1535.99 1274.58C1525 1275.7 1519.18 1275.99 1535.97 1278.54C1528.64 1279.36 1521.25 1279.74 1513.83 1279.68C1509.52 1279.89 1505.15 1279.53 1500.47 1279.23L1485.9 1278.28C1480.86 1278.03 1475.58 1277.02 1470.28 1276.5C1464.98 1275.99 1459.65 1275.49 1454.04 1274.65C1448.44 1273.8 1442.93 1273.02 1437.29 1272.25L1428.77 1271.17L1420.24 1269.81L1428.72 1274.82C1401.58 1271.99 1374.72 1265.6 1348.83 1255.82C1321.82 1245.5 1295.34 1233.6 1269.53 1220.21C1274.98 1221.42 1280.45 1222.66 1285.73 1223.66C1281.53 1221.32 1277.23 1218.34 1272.77 1215.45C1268.3 1212.55 1263.66 1209.66 1259.1 1206.75C1254.53 1203.84 1249.99 1200.96 1245.59 1198.53C1241.3 1196.22 1236.89 1194.14 1232.39 1192.32C1237.28 1195.53 1240.4 1197.36 1242.07 1198.83C1243.73 1200.3 1244.06 1200.66 1243.66 1200.83C1243.27 1201.01 1238.61 1200.12 1236.43 1199.91C1229.4 1196.27 1221.84 1191.57 1213.8 1186.5C1205.76 1181.42 1197.61 1175.2 1189.2 1168.81L1176.67 1158.73L1170.27 1153.63L1163.79 1147.93L1151.16 1137.21L1138.83 1126.26C1138.83 1126.26 1141.02 1127.03 1140.09 1125.25C1137.21 1122.81 1134.26 1120.41 1131.43 1117.93L1123.11 1110.32C1117.55 1105.26 1111.83 1100 1106.52 1094.46C1092.51 1077.86 1090.22 1070.05 1084.09 1058.04C1078.84 1052.08 1067.36 1036.12 1069.7 1043.66C1071.64 1046.83 1073.78 1049.89 1076.1 1052.8C1058.51 1036.88 1067.63 1039.04 1049.16 1016.51C1064.84 1033.01 1050.18 1007.73 1055.31 1007.76C1036.57 979.995 1047.46 1008.71 1043.71 1006.15C1041.33 1001.59 1039.25 997.511 1037.41 993.803C1035.57 990.095 1034.23 986.56 1032.79 983.244C1030.16 976.85 1027.92 971.515 1025.94 966.115C1023.96 960.715 1021.93 955.075 1019.51 948.84C1018.21 945.698 1016.92 942.221 1015.58 938.301C1014.25 934.381 1012.5 930.223 1010.62 925.505C1008.98 924.862 1011.41 931.664 1014.08 939.169L1016.06 944.802C1016.78 946.653 1017.5 948.402 1018.06 949.999C1019.03 952.169 1019.56 954.496 1019.61 956.831C1015.02 946.25 1009.59 933.542 1007.83 931.955C1010.46 939.918 1013.09 947.932 1016.27 955.742C1012.14 945.842 1008.87 935.781 1005.09 925.881C1003.15 920.975 1001.63 915.922 999.997 910.957L994.842 895.844C988.55 875.373 981.86 854.459 976.203 831.582L975.678 835.419L972.732 821.107C971.723 816.358 971.153 811.543 970.272 806.787L976.644 816.514C975.075 808.977 974.036 801.366 973.535 793.74C972.928 786.629 972.454 780.361 970.101 776.4L970.277 782.24C969.05 775.814 967.722 769.373 966.651 762.918C968.834 769.531 971.228 776.071 973.415 782.633C973.062 775.934 972.219 769.244 970.894 762.617C969.699 755.501 968.338 747.615 966.781 739.315C965.225 731.015 964.399 722.227 963.528 712.764C962.879 703.054 962.861 693.347 963.476 683.706C965.174 681.733 965.991 685.117 966.395 691.298C966.595 694.414 966.708 698.264 966.764 702.491C966.82 706.719 966.791 711.347 967.158 716.133L968.3 730.318L968.859 737.087L969.819 743.347C971.185 751.182 972.848 756.976 975.023 758.184C975.314 751.638 975.287 742.783 975.255 734.596C975.618 728.004 975.169 721.345 973.919 714.774C971.703 716.21 971.78 725.69 971.83 735.192C970.588 725.641 970.022 716.05 970.137 706.494C970.397 701.539 970.527 696.308 970.801 691.2L971.213 683.514L972.02 675.986L974.719 647.96C975.44 640.774 975.457 633.494 974.771 626.225C973.536 630.296 972.463 634.57 971.39 638.844L968.172 651.666C968.935 644.712 970.166 637.846 971.857 631.113C973.597 624.978 975.567 619.751 977.211 615.068C980.379 605.61 983.372 598.854 982.182 593.205L983.369 605.93C983.903 610.251 984.574 614.463 985.19 618.719C985.435 614.868 985.669 610.836 986.207 606.846C986.745 602.857 987.475 598.714 988.204 594.572C988.934 590.43 989.644 586.207 990.58 582.042L993.695 569.54C994.838 565.353 995.746 561.211 996.954 557.162C998.161 553.112 999.446 549.049 1000.53 545.24L1003.84 533.769C1005.02 530.076 1006.13 526.528 1007.12 523.039C1006.07 522.351 1004.57 524.403 1002.96 527.828C1002.12 529.537 1001.38 531.464 1000.39 533.82C999.397 536.176 998.867 538.545 998.153 540.966C995.263 550.773 992.887 560.549 992.852 559.437C993.003 554.57 993.615 549.999 993.987 545.24C996.206 540.099 997.973 536.078 999.366 532.878C1000.76 529.678 1002.17 527.409 1003.14 525.59C1005.14 521.961 1006.21 520.389 1007.36 518.571C1008.51 516.752 1009.77 514.562 1012.25 509.922C1014.74 505.281 1018.67 498.248 1025.15 486.762L1022.51 484.741C1026.31 480.205 1029.51 475.179 1032.04 469.776L1041.3 452.277C1043.1 448.282 1045.37 444.544 1048.06 441.14C1049.63 439.509 1050.27 440.473 1049.6 445.422C1046.43 449.04 1043.48 452.868 1040.51 456.514L1044.49 457.616C1054.28 439.664 1065.13 422.366 1076.99 405.811C1075.5 412.266 1093.57 389.065 1091.52 397.729C1095.22 391.125 1099.52 384.94 1103.66 378.552C1109.2 376.789 1103.36 385.432 1096.76 395.254C1090.17 405.077 1083.01 416.389 1084.16 418.791C1085.42 419.304 1087.48 417.331 1089.7 414.943C1091.87 412.567 1093.89 410.051 1095.75 407.41C1090.05 416.911 1082.94 425.419 1074.64 432.652C1070.94 435.987 1067.42 439.555 1063.69 443.479C1059.46 447.748 1055.75 452.524 1052.63 457.714L1048.85 470.944L1045.02 467.727C1042.83 472.332 1041.21 477.216 1040.18 482.275C1039.38 485.575 1038.89 488.958 1038.69 492.383C1036.42 494.827 1034.39 497.506 1032.66 500.38C1030.84 503.21 1029.18 506.193 1027.52 509.226C1025.89 512.379 1024.42 515.624 1023.13 518.948C1021.84 522.395 1020.63 525.928 1019.38 529.585C1018.13 533.242 1016.89 536.979 1015.7 540.875L1012.27 553.102C1011.11 557.26 1009.58 561.47 1008.36 565.954C1007.14 570.439 1005.67 574.99 1004.09 579.709C1007.48 563.385 1004.89 568.011 1001.32 576.228C997.742 584.445 994.236 596.12 994.211 593.054C993.231 597.444 992.089 603.767 991.164 610.867L989.119 633.813C988.589 641.689 988.122 649.419 987.13 656.097C986.626 661.641 985.375 667.048 983.41 672.168C980.18 682.672 982.001 648.939 978.63 674.605C978.456 678.826 978.308 682.742 978.463 686.083C978.644 688.686 979.008 691.283 979.553 693.854C980.39 697.6 981.595 697.874 982.986 692.538C982.479 729.828 984.003 774.327 991.632 814.903L986.939 805.594C987.13 808.811 987.532 811.956 987.797 815.21C988.062 818.464 988.936 821.469 989.6 824.548C991.008 830.64 992.598 836.397 994.42 841.826C997.662 850.722 1001.6 859.377 1006.19 867.705C1006.01 871.41 1007.53 873.143 1004.51 869.757C1005.52 876.823 1007.3 883.796 1009.81 890.55C1012.37 896.437 1015.3 902.171 1018.57 907.718C1021.76 913.624 1025.76 919.928 1030.14 927.829C1034.51 935.73 1039.55 945.242 1044.98 957.667C1046.3 955.332 1044.4 948.631 1041.11 940.858C1039.37 936.983 1037.53 932.657 1035.61 928.347C1033.7 924.036 1031.44 919.908 1029.27 916.179L1035.64 918.547C1017.71 876.127 1004.57 826.228 996.599 789.721L1003.13 806.16C1003.61 800.38 1003.34 794.519 1002.31 788.727C1001.79 785.503 1000.85 782.341 999.513 779.326C998.207 776.445 997.298 773.414 996.814 770.324C996.555 768.048 996.472 765.765 996.566 763.496C996.858 760.303 997.327 757.14 997.971 754.02C994.771 732.03 996.302 770.02 993.056 753.479C993.279 745.611 995.618 746.688 997.616 746.327C998.287 746.225 998.898 745.915 999.368 745.438C999.838 744.962 1000.14 744.342 1000.24 743.663C1001.01 739.691 1001.33 735.617 1001.18 731.521C1003.62 782.269 1013.18 832.808 1029.57 881.613C1038.17 906.603 1048.57 931.012 1060.67 954.638C1072.78 977.828 1086.61 1000.12 1102.04 1021.32C1103.98 1022.34 1100.95 1017.87 1098.22 1013.21C1103.65 1019.08 1108.74 1025.26 1113.47 1031.71C1120.41 1040.41 1129.02 1051.53 1139.53 1063.47C1163.25 1091.3 1189.67 1116.69 1218.34 1139.2C1245.92 1160.69 1275.76 1178.91 1307.22 1193.46L1316.56 1197.64C1319.55 1198.96 1322.48 1199.94 1325.18 1200.97C1330.66 1203 1335.54 1204.67 1339.67 1205.92C1348 1208.16 1353.42 1208.77 1354.96 1207.55C1359.16 1211.12 1343.01 1207.58 1363.43 1214.69C1365.56 1214.32 1371.1 1214.69 1366.8 1211.38C1391.5 1223.34 1422.52 1230.64 1455.01 1234.28C1487.51 1237.93 1521.35 1238.03 1553.49 1238.02C1552.59 1236.89 1555.7 1235.97 1558.9 1234.75C1562.1 1233.53 1565.56 1232.47 1565.47 1231.74C1571.8 1232.48 1578.16 1232.47 1584.41 1231.72C1591.3 1230.97 1598.42 1229.61 1605.57 1228.18C1612.72 1226.74 1619.57 1224.65 1626.08 1223.2C1631.82 1221.62 1637.67 1220.39 1643.59 1219.53L1636.46 1218.68C1656.92 1213.27 1676.92 1206.42 1696.31 1198.17C1696.94 1197.33 1695.34 1197.85 1692.92 1198.64L1684.82 1201.31C1687.33 1200.04 1689.94 1198.95 1692.61 1198.03C1694.3 1197.42 1696.06 1196.99 1697.86 1196.74C1698.78 1196.57 1699.75 1196.6 1700.68 1196.81C1701.62 1197.02 1702.52 1197.42 1703.33 1197.98L1714.89 1189.61L1726.04 1180.71L1733.27 1177.74C1735.7 1176.75 1738.03 1175.56 1740.42 1174.46C1745.19 1172.17 1750.1 1169.73 1754.82 1167.29C1764.51 1161.85 1773.86 1155.86 1782.83 1149.35C1792.14 1142.92 1800.85 1135.35 1809.76 1127.87C1818.25 1119.86 1826.92 1111.84 1834.84 1103.11C1851.13 1085.56 1866.14 1066.83 1879.76 1047.04C1893.48 1027.26 1906.12 1007.03 1918.29 986.49C1919.38 978.975 1921.06 971.59 1923.3 964.402C1924.51 960.636 1925.52 956.507 1926.89 952.044C1928.26 947.58 1930.33 942.701 1932.13 937.038C1930.48 940.587 1928.58 943.817 1926.62 947.323C1929.58 935.467 1929.85 935.249 1930.72 935.603C1931.58 935.957 1932.24 936.951 1934.77 926.912C1936.83 912.64 1929.84 920.4 1925.89 938.985C1919.95 949.132 1921.5 941.864 1923.34 933.658C1935.84 900.267 1945.27 865.627 1951.49 830.162C1957.13 797.706 1960.6 764.785 1961.9 731.617Z" fill="#FFB200"/>
</g>
<defs>
<clipPath id="clip0">
<rect width="1168.67" height="1092.74" fill="white" transform="translate(2219.74 1036.98) rotate(161.607)"/>
</clipPath>
</defs>
</svg>
