<svg width="384" height="600" viewBox="0 0 384 600" fill="none" xmlns="http://www.w3.org/2000/svg">
<path d="M345.441 481.903C345.441 481.903 345.619 481.928 347.525 481.923C346.712 481.899 346.076 481.901 345.441 481.903C345.441 481.903 345.517 482.004 344.602 482.057C351.746 482.242 360.21 482.068 368.369 481.487C369.386 481.358 370.402 481.228 371.342 480.997C351.111 482.879 330.874 481.585 314.575 478.755C326.094 480.733 334.154 481.5 345.441 481.903Z" fill="#6237B6"/>
<path d="M372.791 480.38C373.528 480.302 374.087 480.198 374.824 480.12C373.07 480.328 372.892 480.303 372.791 480.38Z" fill="#6237B6"/>
<path d="M233.101 385.392C229.664 397.523 224.953 407.752 218.461 417.095C225.562 407.292 230.424 395.996 233.406 385.162C234.922 379.568 235.853 374.254 236.506 368.992C237.056 363.806 237.379 358.951 237.218 354.301C237.38 359.586 236.931 364.696 236.278 369.958C235.626 375.22 234.542 380.331 233.101 385.392Z" fill="#6237B6"/>
<path d="M169.007 440.836C177.118 441.882 184.692 440.948 191.373 438.618C198.131 436.389 203.718 432.817 208.566 428.687C203.616 432.893 197.953 436.364 191.779 438.312C188.731 439.336 185.529 440.158 182.301 440.522C179.074 440.886 175.871 441.072 172.617 440.979C171.524 441.007 170.177 440.909 169.007 440.836Z" fill="#6237B6"/>
<path d="M186.977 439.542C194.296 437.846 200.467 434.628 205.647 430.726C210.826 426.824 214.936 422.138 218.537 417.198C214.581 422.723 209.709 427.666 204.351 431.543C201.635 433.43 198.765 435.115 195.844 436.52C192.948 437.748 189.899 438.772 186.977 439.542Z" fill="#6237B6"/>
<path d="M237.421 430.008C243.355 436.829 247.352 440.656 249.593 442.784C250.738 443.671 252.036 444.76 253.996 446.306C253.589 445.976 253.182 445.647 252.774 445.318C245.825 439.262 239.382 432.188 233.471 424.554C231 421.486 228.809 418.365 226.975 415.931C230.288 420.75 233.702 425.494 237.421 430.008Z" fill="#6237B6"/>
<path d="M249.593 442.786C245.138 438.986 247.302 441.013 249.466 443.041C250.51 444.004 251.732 444.992 251.986 445.118C252.317 445.346 251.757 444.814 249.593 442.786Z" fill="#6237B6"/>
<path d="M211.641 397.268C211.436 396.785 211.207 396.481 211.003 395.999C210.365 394.73 209.804 393.562 209.167 392.293C210.008 394.044 210.875 395.618 211.641 397.268Z" fill="#6237B6"/>
<path d="M230.807 336.073C229.965 334.322 229.022 332.647 227.876 331.125C226.729 329.603 225.38 328.234 223.827 327.019C220.798 324.688 217.008 323.25 213.372 322.649C217.186 323.275 221.052 324.815 224.081 327.145C227.11 329.475 229.378 332.697 230.96 336.276C234.048 343.333 234.594 351.032 234.555 357.741C234.653 355.758 234.675 353.674 234.519 351.565C234.156 347.704 233.307 341.505 230.807 336.073Z" fill="#6237B6"/>
<path d="M250.567 448.093C242.166 440.745 234.831 432.276 228.258 423.551C221.787 414.749 216.001 405.59 211.079 396.098C206.284 386.352 202.632 376.221 199.514 366.166C198.696 363.601 198.056 361.062 197.315 358.598C196.574 356.135 195.858 353.494 195.497 350.903C194.879 345.644 194.616 340.435 195.344 335.274C195.798 332.706 196.352 330.062 197.594 327.695C198.836 325.328 200.764 323.239 203.126 321.937C205.564 320.736 208.258 320.297 210.8 320.291C213.419 320.386 215.987 320.836 218.327 321.618C220.743 322.501 223.033 323.639 225.094 325.108C227.156 326.576 228.888 328.452 230.416 330.481C233.372 334.616 234.88 339.365 235.955 343.962C237.596 352.268 237.46 362.23 235.774 372.882C234.19 383.458 230.803 394.598 225.634 404.853C220.465 415.108 213.313 424.632 204.325 431.084C199.882 434.273 195.005 436.674 190.33 438.287C185.579 439.799 180.751 440.574 176.455 440.788C180.192 440.677 183.775 440.363 187.155 439.566C182.174 440.774 177.396 441.193 172.871 441.103C169.261 440.96 165.803 440.384 162.269 439.707C158.836 438.954 155.453 437.844 152.172 436.658C145.609 434.287 139.326 431.228 133.346 427.94C121.413 421.185 110.291 413.184 99.3471 405.207C96.6239 403.282 93.8243 401.257 91.1514 398.976C88.4534 396.874 85.7805 394.594 83.2091 392.237C78.1428 387.625 73.2032 382.758 68.3651 377.815C58.867 367.954 49.6222 357.584 40.4789 347.138C35.1048 340.849 31.0299 336.285 25.7574 329.92C20.4083 323.454 15.2122 317.19 10.0412 310.749C10.0412 310.749 10.1176 310.85 10.194 310.952C-0.478887 297.841 -11.0502 284.653 -21.3934 271.135C-31.7365 257.616 -41.9529 243.843 -52.2971 229.69C-61.9283 216.271 -71.3563 202.699 -80.5049 189.076C-83.9453 183.875 -83.7422 183.722 -85.9848 180.323C-94.8287 166.47 -101.328 155.94 -111.167 140.133L-111.065 140.057C-112.544 137.672 -113.971 135.566 -115.067 133.688C-109.818 140.867 -97.509 159.742 -109.872 139.317C-109.209 140.408 -108.445 141.422 -107.858 142.412C-107.782 142.513 -107.706 142.615 -107.629 142.716C-104.571 147.41 -102.609 150.226 -100.622 152.863C-102.559 149.87 -104.572 146.774 -106.407 143.704C-106.025 144.212 -105.618 144.541 -105.746 144.16C-105.593 144.363 -105.364 144.667 -105.211 144.87C-104.319 146.266 -103.656 147.357 -103.656 147.357C-103.35 147.762 -103.121 148.067 -102.968 148.27C-97.7185 156.083 -89.3855 168.413 -90.7623 165.951C-91.8585 164.073 -95.6811 158.365 -100.013 151.769C-100.319 151.363 -100.523 150.881 -100.829 150.475C-95.2476 159.152 -100.524 150.246 -97.084 155.446C-92.6239 162.423 -88.037 169.146 -83.4753 176.047C-64.8977 203.877 -48.6412 226.935 -28.9475 253.289C-28.1067 254.405 -27.1896 255.622 -26.3488 256.738C-16.7187 269.521 -7.49692 281.34 2.20858 293.59C1.49558 292.854 0.884136 292.043 0.171153 291.308C7.94078 301.199 15.9135 310.937 23.8863 320.675C33.7436 332.492 43.804 344.156 54.2203 355.87C59.3903 361.676 64.8398 367.431 70.2893 373.185C75.8404 378.863 81.5694 384.566 87.7047 389.964C90.9377 392.776 94.1959 395.411 97.5556 397.969C101.017 400.45 104.377 403.008 107.838 405.49C114.76 410.453 121.708 415.238 128.884 419.692C136.06 424.146 143.489 428.091 151.4 431.196C159.235 434.2 167.474 436.263 176.015 436.19C169.101 436.309 162.21 434.98 155.521 432.863C148.755 430.644 142.294 427.561 135.984 424.045C130.259 420.883 124.864 417.313 119.545 413.846C125.017 417.516 130.412 421.086 135.984 424.045C146.823 430.192 158.728 435.218 170.55 436.331C173.499 436.654 176.397 436.697 179.168 436.359C180.54 436.28 181.938 436.022 183.335 435.764C184.657 435.405 185.953 435.224 187.274 434.864C192.458 433.504 196.978 431.053 200.812 428.324C202.513 427.201 202.59 427.302 204.037 426.053C209.546 421.744 214.036 416.294 217.738 410.643C221.363 404.89 224.201 398.936 226.276 393.238C226.276 393.238 226.377 393.161 226.402 392.983C226.427 392.805 226.554 392.551 226.579 392.373C226.731 391.941 227.009 391.254 227.186 390.643C227.54 389.423 227.945 388.481 227.54 389.422C228.476 386.65 229.462 383.522 230.169 380.445C230.876 377.368 231.429 374.088 231.983 370.808C232.989 364.325 233.283 357.743 232.943 351.797C232.578 346.664 231.655 341.635 229.563 337.167C228.619 334.857 227.192 332.752 225.714 331.002C224.059 329.227 222.277 327.707 220.064 326.671C215.84 324.446 210.526 323.519 206.436 324.851C205.394 325.159 204.505 325.669 203.794 326.205L203.185 326.664L202.652 327.224C202.246 327.53 201.992 328.039 201.663 328.447C200.496 330.28 199.814 332.543 199.462 335.035C199.11 337.526 199.013 340.144 199.017 342.685C199.019 343.956 199.098 345.328 199.278 346.624C199.357 347.996 199.537 349.291 199.717 350.587C200.077 353.178 200.818 355.641 201.611 358.384C202.403 361.126 203.12 363.768 204.014 366.434C205.624 371.741 207.514 376.997 209.683 382.201C211.751 387.481 214.124 392.532 216.776 397.532C219.428 402.531 222.537 407.504 225.748 412.401C232.094 422.092 240.399 432.693 248.598 440.83C242.436 434.975 236.756 428.281 231.406 421.179C226.056 414.077 221.137 406.491 216.803 398.625C212.621 390.961 209.38 383.066 206.647 375.423C205.293 371.513 204.092 367.806 202.968 364.2C202.405 362.397 201.843 360.594 201.357 358.893C200.795 357.09 200.309 355.389 199.9 353.789C199.567 352.29 199.234 350.792 199.079 349.318C199.002 348.581 198.848 347.743 198.77 347.006L198.563 344.618C198.667 345.812 198.77 347.006 198.874 348.2C198.978 349.394 199.183 350.512 199.388 351.63C199.798 353.865 200.387 356.125 201.128 358.588C202.458 363.312 203.889 367.959 205.422 372.529C208.564 381.772 212.315 390.555 216.778 398.803C221.572 407.913 227.383 416.895 233.751 425.138C233.599 424.935 233.522 424.833 233.369 424.63C228.376 418.214 223.713 411.39 219.456 404.259C211.553 390.811 206.293 376.644 202.409 364.303C201.898 362.78 201.488 361.18 201.054 359.758C200.159 356.456 199.112 353.587 198.725 350.539C199.137 353.409 199.929 356.152 200.773 359.174C201.541 362.094 202.41 364.938 203.355 367.884C205.17 373.673 207.289 379.234 209.509 384.717C212.368 391.47 215.709 398.018 219.354 404.336C221.7 408.294 224.045 412.253 226.67 416.16C226.364 415.754 226.058 415.348 225.829 415.044C223.485 411.721 217.012 402.284 219.97 407.689C224.023 414.337 228.915 421.465 234.138 428.186C239.462 434.831 245.115 441.068 250.69 445.932C256.164 450.874 261.559 454.443 265.376 456.975C267.387 458.164 268.888 459.1 269.982 459.707C271.076 460.314 271.661 460.669 271.661 460.669C272.577 461.251 260.874 455.436 251.277 446.922C241.476 438.561 233.604 428.111 234.292 429.024C235.209 430.242 236.126 431.459 237.145 432.6C238.062 433.818 239.081 434.959 240.023 435.998C239.081 434.959 238.138 433.919 237.196 432.88C236.254 431.84 235.388 430.902 234.547 429.786C230.675 425.069 225.911 418.322 223.668 414.922C219.591 409.088 215.538 402.44 211.993 395.41C208.448 388.379 205.359 380.687 202.728 372.968C200.966 368.093 199.356 362.786 197.719 357.022C196.85 354.178 196.261 351.282 195.874 348.233C195.488 345.185 195.381 342.085 195.452 339.01C195.452 339.01 195.399 337.459 195.575 336.214C195.751 334.968 195.901 333.9 195.674 334.867C196.076 332.019 197.037 329.069 198.66 326.574C199.471 325.327 200.613 324.307 201.731 323.466C202.924 322.726 204.194 322.087 205.515 321.728C208.158 321.009 210.776 321.104 212.912 321.404C215.048 321.703 216.803 322.13 218.023 322.483C218.278 322.61 218.532 322.736 218.888 322.786C219.32 322.937 219.753 323.088 220.262 323.341C220.77 323.594 221.279 323.847 221.865 324.201C224.053 325.415 225.835 326.936 227.414 328.609C228.992 330.282 230.267 332.185 231.185 334.037C233.174 337.946 234.248 341.908 234.967 345.819C235.685 349.731 235.844 353.746 235.902 357.837C235.959 361.929 235.56 366.047 235.033 370.419C234.179 376.47 232.969 382.471 231.021 388.549C231.577 386.54 232.387 384.022 233.018 381.479C233.649 378.936 234.102 376.368 234.48 374.334C234.681 372.911 234.857 371.665 235.058 370.241C236.062 362.488 236.43 354.736 235.426 347.063C234.962 343.278 233.939 339.596 232.535 336.042C231.131 332.487 228.864 329.266 226.139 326.706C225.656 326.275 224.994 325.82 224.256 325.262C223.518 324.705 222.678 324.225 221.915 323.845C220.999 323.263 219.981 322.758 218.938 322.43C218.684 322.303 218.404 322.355 218.15 322.229C214.691 321.018 210.978 320.316 207.268 320.885C205.413 321.169 203.609 321.733 202.009 322.779C200.409 323.825 199.115 325.277 198.254 326.88C196.429 330.163 195.748 333.697 195.449 337.104C195.15 340.51 195.308 343.889 195.618 346.836C195.851 349.682 196.263 352.553 197.055 355.295C197.848 358.038 198.615 360.958 199.408 363.701C201.07 369.288 202.909 374.899 205.028 380.459C207.148 386.019 209.47 391.426 212.072 396.782C214.775 402.061 217.681 407.187 220.714 412.058C217.58 407.263 214.572 402.214 211.92 397.214C209.268 392.215 206.92 386.986 204.853 381.705C209.882 394.932 216.612 406.402 223.824 417.031C224.945 418.731 226.092 420.253 227.137 421.851C229.481 425.174 232.105 428.446 234.652 431.616C232.258 428.648 229.965 425.605 227.773 422.485C232.258 428.648 237.148 434.506 242.292 439.855C245.857 443.531 249.625 447.053 253.697 450.347C257.795 453.462 261.995 456.5 266.524 459.132C275.481 464.471 285.147 468.639 295.143 471.764C315.133 478.015 336.312 480.348 357.054 479.99C356.216 480.144 355.301 480.197 354.284 480.327C334.177 480.684 314.065 477.865 298.272 473.382C303.842 475.071 308.597 476.1 313.454 477.053C318.234 477.905 322.938 478.655 328.557 479.352C328.557 479.352 328.634 479.453 327.744 479.329C334.888 480.149 343.176 480.585 351.438 480.563C348.87 480.748 345.871 480.781 343.049 480.839C338.88 480.799 332.677 480.383 326.601 479.713C313.303 478.121 300.461 475.232 288.379 470.816C276.221 466.298 264.645 460.229 254.183 452.048C244.969 444.677 237.048 435.853 229.915 426.596C222.884 417.262 216.64 407.494 211.386 397.139C216.665 407.316 222.73 416.424 229.15 424.946C235.825 433.595 242.803 441.379 250.567 448.093ZM-86.322 176.283C-85.1243 178.084 -83.9265 179.885 -82.6272 181.61C-82.8565 181.306 -82.9078 181.026 -83.1371 180.722C-84.182 179.124 -85.4049 177.5 -86.322 176.283ZM-59.1831 216.111C-67.1591 204.467 -77.8865 189.171 -87.8506 174.254C-87.927 174.152 -87.927 174.152 -87.927 174.152C-79.7208 186.736 -69.1714 202.007 -59.1831 216.111ZM-27.0764 262.534C-27.1528 262.433 -27.2292 262.331 -27.3057 262.23C-27.1528 262.433 -27.1528 262.433 -27.0764 262.534ZM152.55 434.624C144.665 431.976 136.295 427.627 127.847 422.541C119.399 417.455 110.975 411.555 102.677 405.401C100.209 403.604 97.6384 401.882 94.9404 399.78C92.2172 397.855 89.3663 395.55 86.2097 392.839C78.3689 386.023 73.9894 381.689 68.2091 375.707C69.6351 377.177 70.9595 378.724 72.4619 380.295C67.3945 375.048 63.4223 371.043 59.5517 366.961C57.6671 364.882 55.681 362.88 53.6436 360.598C51.6061 358.316 49.4923 355.933 47.1492 353.245C47.1492 353.245 46.7419 352.916 46.1818 352.383C45.6216 351.851 44.9086 351.116 44.2972 350.304C40.9354 346.476 37.5986 342.469 34.4912 338.767C31.3838 335.065 28.3528 331.464 25.7039 328.37C19.1069 320.458 12.6115 312.47 7.33889 306.105C6.01447 304.558 3.28916 301.363 0.741862 298.193C-2.41688 294.212 -5.49916 290.331 -8.6579 286.35C-8.50505 286.552 -8.42861 286.654 -8.27575 286.857C-5.72845 290.027 -3.20629 293.375 -0.481019 296.57C7.33887 306.105 16.4581 317.365 24.3795 326.823C34.3132 338.742 44.0679 350 53.8729 360.902C58.9151 366.328 63.7794 371.728 68.8718 376.798C73.9392 382.045 79.1332 387.038 84.6319 391.801C89.3161 395.906 94.3049 399.781 99.3439 403.301C106.928 408.72 115.251 414.695 123.317 419.91C131.384 425.124 139.246 429.22 144.893 431.645C146.699 432.352 150.541 434.07 152.55 434.624ZM175.355 436.369C164.805 436.524 153.767 433.071 143.744 428.218C133.618 423.441 124.406 417.34 116.059 411.542C112.674 409.162 107.813 405.668 102.366 401.819C99.6433 399.895 96.8437 397.869 94.1457 395.767C91.4476 393.664 88.8511 391.485 86.509 389.433C81.7485 385.227 77.5731 381.375 75.0018 379.018C72.4304 376.661 71.3866 375.698 72.6094 377.322C76.4026 380.666 84.2706 388.575 94.8084 396.858C105.574 404.809 118.478 414.331 131.099 421.999C137.461 425.794 143.72 429.031 149.723 431.506C155.548 433.956 161.143 435.466 165.568 436.268C169.992 437.069 173.348 437.086 175.178 436.98C176.855 436.67 177.058 436.517 175.355 436.369ZM202.549 326.666C203.717 325.468 205.012 324.652 206.791 324.266C208.493 323.778 210.323 323.672 212.281 323.947C216.12 324.394 220.189 325.781 223.524 328.517C220.419 326.086 216.552 324.545 212.637 323.996C208.798 323.549 204.884 324.271 202.549 326.666ZM231.37 384.152C233.011 377.667 234.144 370.93 234.641 364.194C235.138 357.458 235.127 350.47 233.718 343.739C233 340.462 231.927 337.136 230.346 334.192C228.765 331.248 226.498 328.662 223.877 326.661C221.154 324.737 218.076 323.398 214.897 322.771C211.718 322.144 208.388 321.949 205.416 323.075C203.129 323.843 201.276 325.398 199.907 327.384C198.537 329.37 197.83 331.811 197.376 334.379C196.393 339.414 196.733 344.724 197.275 349.882C197.559 352.371 198.199 354.911 198.838 357.451C199.58 359.914 200.219 362.454 200.884 364.815C202.29 369.64 204.001 374.236 205.584 378.45L205.686 378.374L204.946 376.546C202.545 369.767 201.061 364.205 199.526 358.364C199.654 358.745 199.705 359.024 199.833 359.405C199.73 358.846 199.45 358.262 199.271 357.602C198.734 355.621 198.273 353.742 197.837 351.685C197.709 350.668 197.58 349.652 197.375 348.535C197.271 347.34 197.142 346.324 197.14 345.054C196.984 342.945 196.93 340.759 197.155 338.522C197.404 335.472 197.932 332.37 199.046 329.623C200.237 326.977 202.19 324.71 204.883 323.635C207.576 322.561 210.677 322.451 213.601 322.952C216.525 323.453 219.45 324.589 222.046 326.132C224.54 327.752 226.704 329.78 228.436 332.291C230.093 334.701 231.419 337.518 232.288 340.362C234.026 346.051 234.443 352.098 234.453 357.816C234.363 364.881 233.51 371.567 232.402 378.126C231.117 384.661 229.297 391.121 226.537 397.812C228.26 393.97 230.36 388.094 231.37 384.152Z" fill="#6237B6"/>
<path d="M225.76 419.391C228.334 423.018 231.009 426.569 233.785 430.044C236.562 433.518 239.542 436.839 242.699 440.186C247.537 445.129 252.782 449.766 258.304 453.716C271.641 463.389 288.227 470.614 305.774 474.889C323.321 479.164 341.982 480.691 359.597 479.984C360.715 479.778 360.74 479.6 359.494 479.426C340.455 479.932 321.184 478.229 302.721 473.372C293.54 470.906 284.46 467.727 275.988 463.454C271.739 461.407 267.642 458.927 263.647 456.37L260.669 454.32L259.27 453.307L257.793 452.192L255.019 449.989L252.346 447.708C252.092 447.582 251.862 447.278 251.608 447.151C248.528 444.542 244.989 441.323 241.526 437.571C238.062 433.819 234.573 429.61 231.21 425.146C224.407 416.116 218.087 406.247 213.191 397.212C208.295 388.178 204.568 378.581 201.4 368.882C199.816 364.032 198.435 359.029 197.13 354.128C196.49 351.588 196.207 349.098 196.024 346.532C195.842 343.966 195.66 341.399 195.834 338.883C195.586 342.568 195.871 346.329 196.182 349.911C196.57 353.595 197.719 357.023 198.666 360.604C200.584 367.588 202.782 374.52 205.462 381.247C210.467 394.653 217.479 407.341 225.76 419.391Z" fill="#6237B6"/>
<path d="M208.566 428.687C215.064 423.156 220.188 416.433 224.319 409.027C227.132 403.886 229.488 398.772 231.411 393.507C233.233 388.318 234.8 383.002 235.808 377.79C236.816 372.577 237.468 367.315 237.841 362.104C238.137 356.792 238.052 351.608 237.255 346.324C238.336 354.098 238.044 361.951 236.964 369.604C236.513 373.442 235.782 377.332 234.898 381.02C233.99 384.885 232.928 388.547 231.587 392.261C229.006 399.612 225.891 406.253 222.215 412.362C218.285 418.344 214.049 423.921 208.566 428.687Z" fill="#6237B6"/>
<path d="M230.873 329.821C234.44 334.767 236.153 340.633 237.001 346.196C236.178 340.455 234.465 334.589 230.898 329.643C229.165 327.131 226.925 325.002 224.354 323.281C221.861 321.661 219.037 320.449 216.138 319.77C213.239 319.091 210.112 318.744 207.037 319.311C205.461 319.544 203.937 320.056 202.464 320.847C201.778 321.205 200.991 321.639 200.458 322.199L199.442 322.965L198.681 323.856C196.524 326.276 195.385 329.201 194.704 332.1C194.022 334.999 193.798 337.871 193.752 340.769C197.272 378.193 215.453 412.048 240.028 439.176C242.855 442.294 245.809 445.159 248.864 447.946C245.732 445.057 242.626 441.99 239.799 438.872C236.896 435.652 234.171 432.457 231.572 429.007C226.35 422.286 221.533 415.259 217.2 408.028C212.866 400.796 208.939 393.259 205.952 385.49C202.787 377.696 200.156 369.977 197.931 361.953C197.394 359.972 196.857 357.991 196.32 356.01C195.782 354.029 195.347 351.972 195.089 349.939C194.574 345.875 194.339 341.758 194.637 337.717C194.935 333.675 195.716 329.429 197.947 325.84C198.277 325.433 198.53 324.924 198.86 324.516L200.027 323.319C200.941 322.63 201.677 321.917 202.668 321.33C204.547 320.232 206.707 319.718 208.715 319.637C212.934 319.321 216.977 320.251 220.564 321.842C224.253 323.358 227.511 325.992 230.058 329.162C232.428 332.307 234.086 335.988 235.211 339.594C236.234 343.276 236.799 346.985 237.186 350.669C237.214 351.761 237.317 352.956 237.345 354.048C237.155 347.035 236.253 339.921 232.912 333.373C231.28 330.15 229.064 327.208 226.213 324.903C223.362 322.597 219.953 321.031 216.545 320.099C213.036 319.244 209.273 318.898 205.614 319.746C201.955 320.595 198.553 323.475 196.906 326.783C195.158 330.168 194.478 333.702 194.178 337.108C193.955 340.616 194.012 344.072 194.348 347.476C193.933 342.7 193.823 337.693 194.781 332.837C195.311 330.371 196.019 327.929 197.438 325.587C198.756 323.322 200.939 321.36 203.454 320.26C205.969 319.161 208.637 318.9 211.179 318.893C213.798 318.988 216.264 319.515 218.681 320.399C221.097 321.282 223.387 322.419 225.448 323.888C227.613 325.916 229.446 327.715 230.873 329.821Z" fill="#6237B6"/>
<path d="M221.045 412.285C222.167 413.985 223.212 415.583 224.333 417.283C225.607 419.186 226.983 421.012 228.359 422.838C227.518 421.722 226.779 420.53 225.938 419.414C224.18 417.08 222.524 414.67 221.045 412.285Z" fill="#6237B6"/>
<path d="M199.653 358.109C199.602 357.83 199.449 357.627 199.398 357.347C198.477 354.224 197.811 351.227 197.526 348.102C197.165 344.875 197.083 341.597 197.256 338.445C197.38 336.285 197.706 333.972 198.262 331.962C198.92 329.877 199.755 327.816 201.151 326.288C203.789 323.028 208.719 322.177 213.245 322.902C209.075 322.227 204.729 322.797 201.912 325.396C199.094 327.996 197.78 332.167 197.328 336.006C196.852 340.022 196.935 343.936 197.297 347.797C197.786 351.405 198.58 354.783 199.653 358.109Z" fill="#6237B6"/>
<path d="M219.606 326.699C220.37 327.079 221.54 327.787 222.609 328.572C223.093 329.003 223.678 329.357 224.06 329.864C224.544 330.295 224.85 330.701 225.18 330.929C225.486 331.335 225.893 331.664 226.276 332.171C226.581 332.577 226.963 333.084 227.269 333.49C226.377 332.095 225.205 330.751 224.009 329.585C222.634 328.394 221.234 327.381 219.606 326.699Z" fill="#6237B6"/>
<path d="M200.914 428.249C208.151 423.275 213.91 416.551 218.397 409.195C222.884 401.838 226.277 393.875 228.602 385.762C229.158 383.753 229.714 381.744 230.193 379.634C230.673 377.523 231.051 375.489 231.429 373.455C232.108 369.285 232.61 365.091 232.831 360.948C233.053 356.805 232.996 352.714 232.481 348.649C232.042 344.685 231.145 340.749 229.563 337.17C229.206 336.484 228.849 335.799 228.569 335.215C228.11 334.607 227.83 334.023 227.371 333.414C230.047 337.6 231.48 342.883 232.2 348.065C232.819 353.324 232.777 358.763 232.278 364.228C231.88 369.616 230.948 374.93 229.864 380.041C228.779 385.152 227.161 390.188 225.313 394.92C223.87 398.71 221.464 404.18 219.335 407.693C214.544 415.914 208.455 423.045 201.117 428.096C197.41 430.571 193.397 432.64 189.205 434.048C185.013 435.457 180.566 436.104 176.194 436.217C180.464 436.18 184.734 435.509 188.722 434.253C192.889 433.022 196.699 431.106 200.406 428.632C200.508 428.555 200.711 428.402 200.914 428.249Z" fill="#6237B6"/>
<path d="M352.169 498.455C352.322 498.658 352.576 498.784 352.551 498.962C352.45 499.039 352.145 499.268 352.044 499.345C352.018 499.523 352.196 499.548 352.273 499.649C352.171 499.726 351.968 499.879 351.968 499.879C351.943 500.057 352.121 500.082 352.502 499.954C352.628 499.064 353.973 497.891 352.169 498.455Z" fill="#6237B6"/>
<path d="M352.955 497.387L352.168 497.821C352.143 497.999 352.118 498.177 352.296 498.202C352.702 497.896 352.829 497.641 352.955 497.387Z" fill="#6237B6"/>
<path d="M348.493 458.925C348.493 458.925 348.493 458.925 348.417 458.823C348.417 458.823 348.417 458.823 348.493 458.925C348.493 458.925 348.519 458.747 348.493 458.925C348.086 458.595 347.501 458.241 346.992 457.988L346.713 458.04C348.036 458.951 349.461 459.786 350.656 460.317C349.842 459.658 349.155 459.38 348.493 458.925Z" fill="#6237B6"/>
<path d="M346.33 458.167L346.254 458.066C346.229 458.243 346.229 458.243 346.33 458.167Z" fill="#6237B6"/>
<path d="M370.911 473.047C371.751 473.527 372.616 473.83 373.481 474.133C371.878 473.273 370.198 472.312 368.926 471.679C369.512 472.034 370.25 472.591 370.911 473.047Z" fill="#6237B6"/>
<path d="M379.561 477.343C377.831 476.102 376.151 475.141 374.803 474.408C376.304 475.344 377.729 476.179 379.129 477.192C379.231 477.115 379.485 477.242 379.561 477.343Z" fill="#6237B6"/>
<path d="M377.272 476.208C376.534 475.65 375.771 475.271 375.008 474.892C374.83 474.867 374.677 474.664 374.499 474.639L374.168 474.411C373.913 474.285 373.736 474.26 373.481 474.134L374.244 474.513L374.575 474.741L375.084 474.993C375.746 475.449 376.509 475.828 377.272 476.208Z" fill="#6237B6"/>
<path d="M354.507 467.753C353.82 467.475 353.388 467.324 353.133 467.198C352.955 467.173 352.854 467.249 352.498 467.199L352.574 467.301C353.337 467.68 354.024 467.958 354.609 468.312C354.864 468.438 355.22 468.488 355.474 468.615C355.245 468.31 354.914 468.082 354.507 467.753Z" fill="#6237B6"/>
<path d="M353.134 467.198C354.405 467.195 352.294 466.717 353.134 467.198V467.198Z" fill="#6237B6"/>
<path d="M359.285 466.698L359.616 466.925C359.539 466.824 359.463 466.723 359.285 466.698Z" fill="#6237B6"/>
<path d="M365.905 473.161C365.319 472.806 364.81 472.554 364.225 472.199C365.396 472.908 366.49 473.515 367.507 474.021C367.431 473.919 367.278 473.716 367.1 473.691C366.744 473.641 366.312 473.49 365.905 473.161Z" fill="#6237B6"/>
<path d="M354.73 464.245C356.333 465.105 357.86 465.863 359.386 466.622C362.287 468.571 365.137 470.241 367.859 471.53C369.055 472.061 370.658 472.92 372.159 473.857C372.49 474.085 372.922 474.236 373.33 474.565C373.838 474.818 374.169 475.046 374.678 475.299C375.772 475.906 376.968 476.437 378.163 476.967C377.832 476.739 377.425 476.41 377.094 476.182C377.68 476.536 378.366 476.814 378.875 477.067C380.453 478.105 382.031 479.143 383.71 480.104C381.222 481.661 378.809 483.319 376.422 484.799C374.721 485.922 373.121 486.968 371.344 487.989C370.836 488.371 370.506 488.779 369.922 489.06C369.414 489.442 368.83 489.723 368.322 490.106C366.113 491.611 363.904 493.116 361.67 494.799C360.654 495.564 359.384 496.203 358.292 496.867C357.886 497.173 357.733 496.97 357.454 497.021C356.209 497.482 355.167 497.79 353.897 498.428L353.821 498.327C353.618 498.48 353.516 498.556 353.313 498.709C353.54 497.743 354.886 496.57 353.082 497.134C353.183 497.058 353.285 496.981 353.285 496.981C353.615 496.574 353.818 496.421 353.868 496.065L353.081 496.499C353.004 496.397 353.106 496.321 353.029 496.219L353.131 496.143C353.233 496.066 353.334 495.99 353.334 495.99L353.359 495.812C353.816 495.15 354.831 494.385 354.475 494.335C354.297 494.31 353.789 494.693 353.358 495.177C353.358 495.177 353.257 495.253 353.18 495.152C353.789 494.693 352.951 494.847 353.281 494.44C353.788 494.057 354.373 493.776 354.982 493.317C357.267 491.914 359.172 490.638 361.203 489.108L361.508 488.878C362.523 488.113 363.513 487.526 364.605 486.863C364.504 486.939 364.58 487.041 364.479 487.117C365.368 486.607 366.256 486.096 367.069 485.484C368.084 484.719 369.1 483.954 370.014 483.265C370.928 482.577 372.248 481.582 372.731 481.378C373.543 480.766 374.33 480.332 374.863 479.771C374.278 479.417 373.591 479.139 373.006 478.785C373.616 478.961 374.38 479.34 374.965 479.695C374.762 479.848 374.457 480.077 374.178 480.129C374.482 479.899 374.762 479.848 374.965 479.695C374.049 479.113 372.903 478.226 371.988 478.279C371.912 478.178 372.014 478.101 371.912 478.178L371.25 477.722C370.996 477.596 370.843 477.393 370.589 477.266C370.08 477.014 369.673 476.684 369.24 476.533C369.24 476.533 368.731 476.28 368.884 476.483C368.044 476.002 367.052 475.319 366.212 474.838C365.881 474.61 365.449 474.459 364.915 474.384C361.709 472.664 358.681 470.969 355.399 469.148C354.56 468.667 353.643 468.085 352.905 467.528C354.177 468.16 355.449 468.792 356.798 469.526C357.943 470.412 359.114 471.121 360.157 471.448C360.411 471.575 360.665 471.701 360.843 471.726C359.495 470.993 358.07 470.158 356.722 469.424C356.06 468.969 355.322 468.411 354.66 467.956C355.245 468.31 355.932 468.588 356.441 468.84C357.51 469.625 358.502 470.309 359.444 470.713C359.622 470.738 359.698 470.84 359.876 470.865C360.13 470.991 360.385 471.117 360.563 471.142L358.044 469.7L356.441 468.84C356.11 468.613 355.779 468.385 355.525 468.258L355.703 468.283C355.957 468.41 357.152 468.305 356.846 467.899C355.854 467.216 354.505 466.482 353.513 465.798C353.004 465.546 352.596 465.216 352.266 464.988C351.935 464.761 351.757 464.736 351.757 464.736C351.705 464.456 355.573 466.632 355.42 466.429C355.267 466.226 355.013 466.1 354.86 465.897C355.114 466.023 355.292 466.048 355.547 466.174C356.056 466.427 356.539 466.858 356.895 466.908C358.116 467.26 359.083 468.122 360.279 468.653C360.966 468.93 362.009 469.258 362.95 469.662C363.051 469.586 363.459 469.915 363.306 469.712C364.044 470.269 364.96 470.851 365.519 470.748C365.519 470.748 365.697 470.773 365.774 470.875C367.097 471.786 368.14 472.114 369.412 472.746C369.743 472.974 370.251 473.226 370.659 473.556C370.404 473.429 369.997 473.1 369.666 472.872L369.412 472.746C368.318 472.139 367.3 471.633 366.206 471.026C366.028 471.001 365.952 470.9 365.774 470.875L365.519 470.748C365.519 470.748 365.519 470.748 365.418 470.825C364.553 470.522 363.382 469.814 362.517 469.511C360.915 468.651 359.26 467.512 357.784 466.397L360.252 467.56C359.234 467.054 358.318 466.472 357.377 466.068L356.97 465.739L356.13 465.258C356.384 465.384 356.614 465.689 356.868 465.815C356.359 465.562 355.774 465.208 355.265 464.955C352.314 463.362 349.387 461.591 346.766 459.59C346.867 459.513 346.944 459.615 347.045 459.538C348.369 460.45 349.794 461.285 350.989 461.815C350.251 461.258 349.641 461.082 348.903 460.524L349.004 460.448C348.495 460.195 347.91 459.841 347.325 459.487C347.604 459.435 347.884 459.383 348.138 459.51C348.494 459.56 348.902 459.889 349.334 460.04C351.166 461.205 352.82 462.344 354.678 463.33C356.256 464.368 357.732 465.483 359.31 466.52C357.682 465.838 356.257 465.004 354.73 464.245ZM356.282 495.677C356.384 495.601 356.587 495.448 356.688 495.371L356.587 495.448C356.409 495.423 356.384 495.601 356.282 495.677ZM359.558 493.687C358.491 494.172 357.349 495.192 356.156 495.932C357.222 495.446 358.441 494.528 359.558 493.687ZM378.421 479C379.108 479.277 379.693 479.632 380.355 480.087C379.441 480.776 378.247 481.516 377.13 482.357C376.622 482.74 376.191 483.224 375.48 483.759C374.566 484.448 373.855 484.983 373.449 485.29L373.932 485.085C372.941 485.672 372.586 486.257 371.52 486.743C371.52 486.743 371.494 486.921 371.291 487.074C370.682 487.533 369.818 487.866 369.387 488.35C368.778 488.809 367.99 489.243 367.559 489.727C367.457 489.803 367.229 490.134 366.925 490.364C366.62 490.593 366.315 490.823 366.011 491.052C366.315 490.823 366.518 490.67 366.823 490.44C367.635 489.828 368.473 489.038 369.362 488.528C370.377 487.763 371.291 487.074 372.205 486.386L373.627 485.314L373.932 485.085L374.439 484.702L375.455 483.937C376.064 483.478 376.496 482.994 377.003 482.612C378.222 481.694 379.72 480.724 380.558 479.934C380.049 479.681 379.617 479.53 379.184 479.379C379.184 479.379 378.777 479.049 378.421 479ZM373.438 478.936C374.125 479.214 374.889 479.593 375.652 479.972C375.347 480.202 374.941 480.508 374.56 480.636C374.255 480.866 373.646 481.325 373.113 481.885C372.885 482.216 372.682 482.369 372.555 482.623C372.428 482.878 372.403 483.056 372.657 483.182C373.088 482.063 374.865 481.042 376.465 479.996C374.964 479.059 373.87 478.452 373.438 478.936ZM362.498 472.865C363.083 473.22 363.77 473.497 364.355 473.852L362.498 472.865ZM369.593 474.677C367.532 473.843 365.624 472.578 363.767 471.591C362.24 470.833 360.967 469.566 359.492 469.087L359.39 469.163L359.568 469.188C359.975 469.517 360.383 469.847 360.79 470.176L360.714 470.075L360.79 470.176C361.044 470.302 361.274 470.607 361.706 470.758L362.215 471.011C363.971 472.074 365.803 473.238 367.532 473.843C368.55 474.349 369.593 474.677 370.712 475.106C370.433 475.157 370.025 474.828 369.593 474.677Z" fill="#6237B6"/>
<path d="M357.199 466.043C356.614 465.689 355.927 465.411 355.342 465.057C354.833 464.804 354.324 464.551 353.815 464.298C351.449 463.059 348.98 461.261 346.461 459.819C346.258 459.972 346.157 460.049 346.208 460.328C348.575 462.203 351.374 463.593 353.919 465.493C355.216 465.947 356.947 467.187 358.397 467.844C359.949 468.425 361.373 469.26 363.001 469.942C361.016 468.575 359.083 467.487 357.199 466.043Z" fill="#6237B6"/>
<path d="M374.727 474.307C374.142 473.953 373.557 473.599 373.048 473.346C371.445 472.486 370.02 471.651 368.57 470.994C369.563 471.678 370.657 472.285 371.649 472.968C372.642 473.652 373.608 473.878 374.727 474.307Z" fill="#6237B6"/>
<path d="M367.298 470.36C367.731 470.511 368.062 470.739 368.494 470.891L363.99 468.081C361.471 466.639 358.85 465.274 356.23 463.908C355.975 463.782 355.644 463.554 355.39 463.428C359.844 466.593 364.323 469.58 368.597 471.449L368.851 471.576C367.019 470.412 365.187 469.247 363.253 468.16C364.601 468.893 365.95 469.627 367.298 470.36Z" fill="#6237B6"/>
<path d="M357.784 466.398L357.377 466.068L356.944 465.917L357.199 466.043L357.784 466.398Z" fill="#6237B6"/>
<path d="M360.765 470.354C361.274 470.607 361.681 470.936 362.19 471.189C362.876 471.467 363.538 471.922 364.225 472.2C363.054 471.492 361.884 470.783 360.765 470.354Z" fill="#6237B6"/>
<path d="M363.771 474.13C363.847 474.232 364.178 474.46 364.356 474.484L364.712 474.534L364.381 474.307L363.771 474.13Z" fill="#6237B6"/>
<path d="M372.04 478.557C369.597 477.217 367.231 475.978 364.966 474.662C364.788 474.637 364.712 474.536 364.534 474.511C366.01 475.625 367.613 476.485 369.063 477.142C369.318 477.268 369.852 477.343 370.182 477.571C370.513 477.799 370.844 478.027 371.098 478.153L371.607 478.406C371.862 478.532 371.938 478.634 372.04 478.557C372.371 478.785 372.726 478.835 373.057 479.063C372.726 478.835 372.472 478.709 372.04 478.557Z" fill="#6237B6"/>
</svg>
