<svg width="1440" height="2923" viewBox="0 0 1440 2923" fill="none" xmlns="http://www.w3.org/2000/svg">
<path d="M1310.26 474.748L1330.82 477.58C1324.2 477.297 1315.99 476.694 1306.61 475.813L1275.45 474.239C1302.67 475.781 1330.84 479.834 1359.48 482.974C1388.12 486.114 1417.55 491.693 1446.93 498.337C1506.74 510.592 1565.57 527.238 1622.93 548.138C1678.33 568.578 1732.34 592.608 1784.62 620.074C1830.21 644.626 1874.44 671.633 1917.1 700.976C1943.43 721.578 1968.3 740.916 1986.64 756.601C1995.95 764.231 2004.04 770.396 2009.95 775.174C2013.46 778.38 2017.34 781.145 2021.51 783.409C2028.05 785.712 1995.03 748.212 1941.31 705.727C1930.03 695.828 1915.9 685.606 1907.42 678.729C1865.51 644.868 1820.92 614.47 1774.08 587.837C1761.23 580.775 1748.46 572.932 1734.84 566.304L1693.36 545.688L1649.66 526.609C1634.84 520.15 1619.4 514.928 1604.09 508.873L1639.77 522.864L1675.15 538.743C1657.62 531.24 1640.35 523.313 1621.92 516.853C1603.5 510.394 1584.83 503.01 1564.38 497.093L1577.9 502.98C1509.72 478.992 1439.03 462.815 1367.2 454.76C1305.55 447.736 1243.35 447.006 1181.55 452.584C1136.34 458.022 1122.24 462.497 1135.35 464.911C1148.47 467.325 1188.58 467.038 1253.08 470.336C1272.26 471.631 1291.3 472.743 1310.26 474.748Z" fill="#FF6F44"/>
<path d="M1541.13 534.776C1470.61 512.091 1398.03 496.357 1324.45 487.797L1310.09 485.38L1314.44 490.63L1315.86 490.482C1411.49 494.144 1506.07 511.713 1596.64 542.635C1608.42 546.669 1620.28 550.429 1631.94 554.564C1642.34 558.809 1653.05 562.261 1663.97 564.89C1668.41 565.533 1663.31 562.239 1651.41 556.449C1645.43 553.579 1637.84 549.882 1628.73 546.211C1619.62 542.541 1609.06 538.622 1597.51 534.497C1579.91 527.664 1561.9 522.82 1543.91 517.134C1525.92 511.447 1509.6 507.268 1490.62 502.502C1471.64 497.736 1452.38 493.618 1431.95 489.335L1416.87 486.286L1401.49 483.997L1370.55 479.459C1349.93 476.678 1329.17 475.347 1308.96 473.45C1288.76 471.553 1268.85 471.991 1249.98 471.458C1231.11 470.925 1213.13 472.333 1196.46 472.963C1179.8 473.594 1164.68 475.721 1151.2 477.102L1132.52 479.401C1126.68 480.429 1121.46 481.459 1116.6 482.297C1099.7 486.002 1114.89 486.697 1118.78 488.414C1116.34 490.436 1127.87 489.943 1148.57 490.197C1158.82 490.147 1171.52 489.819 1185.75 489.354C1199.98 488.889 1215.9 489.596 1232.86 489.443C1300.7 490.071 1359.01 495.096 1364.04 492.472L1398.53 498.076L1371.32 495.295C1389.24 495.939 1407.11 497.711 1424.81 500.601L1461.56 506.81C1474.1 508.776 1486.36 511.898 1497.62 514.306C1508.88 516.715 1520.29 519.306 1531.34 522.709L1564.73 532.319L1529 514.044C1517.23 511.137 1505.3 508.665 1493.44 506.032C1496.11 507.014 1501.13 508.724 1500.68 508.682C1432.43 493.745 1363 484.777 1293.2 481.878L1245.74 481.25L1198.4 482.885C1185.41 483.354 1179.82 485.307 1180.48 486.1C1187.97 487.403 1195.57 488.003 1203.17 487.893L1245.29 489.034L1226.39 488.216C1324.13 489.495 1421.27 503.614 1515.32 530.213C1529.74 534.326 1547.21 539.625 1555.18 541.05C1563.15 542.474 1555.93 539.6 1541.13 534.776Z" fill="#FF6F44"/>
<path d="M1205.9 491.092C1188.31 490.511 1170.69 490.906 1153.15 492.275C1147.85 492.959 1145.11 493.266 1143.75 493.363L1174.26 492.906C1195.6 492.208 1206.99 492.039 1205.9 491.092Z" fill="#FF6F44"/>
<path d="M1143.49 493.168L1134.3 493.374L1130.84 493.556C1133.73 493.433 1136.59 493.533 1139.34 493.622L1141.84 493.406L1143.49 493.168Z" fill="#FF6F44"/>
<path d="M658.523 2601.74C527.84 2525.64 413.49 2424.45 322.049 2304C230.631 2183.55 164.292 2045.99 126.955 1899.46C125.553 1893.23 123.661 1887.13 121.295 1881.2C121.861 1886.78 122.984 1892.3 124.646 1897.67C161.632 2044.39 227.682 2182.19 318.885 2302.92C409.978 2423.54 523.965 2525 654.321 2601.51C659.916 2605.08 665.777 2608.2 671.853 2610.87C667.744 2607.36 663.276 2604.3 658.523 2601.74Z" fill="#FF6F44"/>
<path d="M574.316 736.313C569.005 740.712 569.542 740.988 575.441 736.925C581.34 732.862 589.365 727.141 594.767 722.976C600.169 718.81 598.849 719.08 593.642 722.363C586.885 726.56 580.427 731.221 574.316 736.313Z" fill="#FF6F44"/>
<path d="M548.133 802.47C540.624 808.689 533.469 815.337 526.295 821.588C519.121 827.839 512.675 834.722 506.059 841.025C499.443 847.329 493.09 853.826 486.83 859.938C480.57 866.05 475.211 872.753 469.57 878.867C465.425 883.432 460.569 888.381 456.793 892.024C458.927 890.873 453.947 896.542 445.044 907.416C351.302 1015.51 279.918 1141.11 235.021 1276.96C188.904 1415.95 172.91 1563.17 188.103 1708.82C189.476 1712.72 190.493 1716.74 191.142 1720.82C194.585 1740.51 200.638 1780.38 208.778 1821.4L214.877 1852.37C243.113 1976.67 293.91 2094.73 364.748 2200.7C372.675 2211.02 380.415 2222.72 389.8 2234.3C399.184 2245.88 408.586 2258.47 419.064 2271C454.684 2312.86 493.549 2351.84 535.298 2387.59C577.263 2423.9 622.119 2456.74 669.42 2485.76C663.85 2481.52 660.57 2478.68 660.958 2478.16C666.832 2480.32 672.423 2483.19 677.608 2486.7C686.626 2491.99 698.959 2498.56 711.856 2506.3C724.754 2514.04 738.466 2520.9 751.812 2528.07L723.094 2512.53L695.121 2495.66L681.22 2487.21L667.505 2477.98L640.499 2459.79L626.666 2449.43C587.39 2421.3 550.14 2390.45 515.191 2357.1C438.632 2284.43 373.501 2200.61 322.008 2108.46C246.787 1973.05 202.534 1822.65 192.436 1668.07L190.869 1648.78C190.452 1642.44 190.603 1636.04 190.347 1629.76C190.131 1617.07 189.814 1604.26 189.649 1591.64C190.567 1566.28 190.642 1540.89 193.184 1515.63C195.725 1490.36 198.642 1465.3 201.681 1440.14C206.524 1415.54 210.02 1390.31 216.517 1366.09C223.013 1341.87 229.167 1317.11 235.897 1292.8C242.628 1268.49 251.397 1244.66 261.14 1221.25C263.411 1215.05 267.499 1205.69 269.931 1200.17C271.779 1196.69 271.979 1197.55 269.36 1204.46C246.389 1261.86 228.947 1321.32 217.271 1382.03C205.901 1441.37 199.737 1501.58 198.852 1561.99C196.804 1691.39 218.273 1820.1 262.214 1941.83C290.407 2020.36 328.142 2095.13 374.57 2164.47C421.011 2233.39 475.599 2296.45 537.149 2352.29C599.185 2407.97 667.646 2456.04 741.08 2495.48C759.748 2504.72 777.865 2515.03 797.38 2523.06C806.949 2527.28 816.374 2531.82 826.015 2535.88L855.283 2547.36C860.17 2549.28 864.985 2551.36 870.187 2552.92L885.122 2558.15L914.963 2568.33L945.335 2577.04L960.578 2581.4L975.944 2585.04L1008.02 2592.95L1040.36 2599.31L1056.45 2602.45L1072.51 2604.69L1104.85 2609.3C1147.75 2614.14 1190.92 2616.2 1234.1 2615.47C1255.57 2615.8 1276.98 2613.81 1298.38 2612.56C1309.05 2612.26 1319.64 2610.39 1330.32 2609.36C1341 2608.34 1351.93 2607.11 1362.21 2605.6L1393.69 2600.11L1409.43 2597.37L1425.41 2594.42L1456.68 2587.56C1467.1 2584.6 1477.15 2581.83 1487.43 2579.08C1628.97 2539.23 1759.98 2468.67 1871.14 2372.41C1982.3 2276.16 2070.87 2156.58 2130.55 2022.19C2178.12 1914.89 2206.53 1800.09 2214.48 1682.98C2221.57 1566.51 2208.7 1449.69 2176.43 1337.55C2143.24 1225.15 2090.55 1119.47 2020.75 1025.33L2000.62 999.282C1994.12 990.564 1986.81 982.616 1979.99 974.374C1966.38 957.952 1952.11 942.705 1938.65 927.704C1932.18 919.889 1924.63 913.381 1917.91 906.388C1911.19 899.395 1904.57 892.525 1897.91 886.1C1884.22 873.667 1871.77 861.125 1859.44 850.34C1810.77 806.246 1772.99 778.658 1765.81 768.243C1761.7 762.172 1768.84 763.573 1785.06 771.234C1795.59 776.182 1805.81 781.785 1815.64 788.011C1827.54 795.547 1841.96 803.883 1857.03 815.488C1845.66 805.863 1833.61 797.413 1821.65 788.689C1803.25 774.181 1783.37 761.729 1764.13 748.324C1708.42 712.127 1657.35 686.387 1625.57 669.271L1603.31 658.061L1592.18 652.455L1580.78 647.387C1565.79 640.349 1548.55 631.468 1529.45 624.438L1500.41 612.984L1470.28 602.836C1430.07 589.207 1390.23 579.385 1363.34 571.906L1376 570.786L1363.32 567.907C1320.67 560.523 1291.3 555.513 1281.6 552.632L1285.88 549.092C1295.27 545.019 1317.42 543.552 1353.14 543.303C1351.87 541.777 1356.43 540.573 1365.82 540.723C1355.62 538.414 1345.6 535.403 1335.81 531.712C1331.59 529.344 1334.17 527.616 1346.48 526.689C1328.21 523.904 1331.37 522.625 1353.5 523.858C1361.11 524.347 1370.21 525.765 1379.5 526.919C1369.68 524.758 1366.52 523.673 1353.03 521.055L1324.06 517.771C1299.57 514.796 1287.25 514.708 1275.78 513.913L1257.75 512.895C1251.04 512.378 1243.06 512.192 1232.36 512.2L1188.82 510.701L1172.84 510.552C1131.78 506.583 1131.54 506.673 1137.74 503.596L1145.63 502.31C1137.4 502.438 1131.06 502.855 1125.99 503.449L1114.53 504.4L1101.29 505.071C1091.95 505.601 1085.58 505.735 1085.58 505.735C1083.96 504.4 1083.96 504.4 1078.26 504.485C1076.37 504.195 1076.71 503.607 1076.71 503.607C1094.9 499.967 1094.9 499.967 1095.29 499.44C1099.66 498.499 1105.54 497.532 1105.54 497.532C1127.09 494.714 1135.5 493.308 1139.32 493.441L1186.05 494.564C1190.99 493.564 1193.55 493.298 1194.99 492.926L1196.24 492.819L1206.97 494.221L1200.81 492.741L1224.47 493.725L1197.67 492.559L1249.18 492.611L1275.59 493.795L1305.97 495.185L1320.78 496.407C1318.87 495.721 1318.79 495.375 1318.79 495.375C1348.35 498.376 1363.44 499.568 1377.64 502.422L1401.17 505.983C1405.61 506.738 1410.56 507.372 1416.15 508.403L1434.97 512.367L1448.21 515.918C1457.49 517.063 1466.69 518.792 1475.76 521.095L1505.17 528.643L1511.57 530.032C1521.64 531.991 1528.53 534.102 1536.44 536.196L1541.55 537.52C1550.06 539.84 1560.52 542.398 1576.96 547.207L1606.42 556.673L1625.1 563.326L1647.18 571.593C1663.77 578.443 1679.06 585.228 1693.37 592.314L1680.28 585.455C1671.92 580.954 1680.32 583.262 1675.68 581.137C1615.57 553.393 1553.02 531.291 1488.82 515.115C1422.17 498.32 1354.12 487.67 1285.52 483.3C1273.38 483.061 1261.31 482.152 1251.97 481.444C1246.01 481.276 1240.06 480.774 1234.16 479.94C1230.88 478.844 1248.59 477.354 1274.15 478.516C1347.73 479.627 1420.98 488.469 1492.71 504.896C1568.72 522.381 1642.61 548.046 1713.09 581.442C1783.98 614.991 1851.08 656.04 1913.22 703.886C1972.62 749.649 2027.11 801.445 2075.83 858.443C2125.89 915.761 2170.1 977.927 2207.82 1044.02C2206.22 1040.72 2204.68 1037.36 2202.94 1034.27C2212.58 1051.5 2221.51 1069.12 2230.98 1086.39L2233.77 1092.12C2227.8 1078.32 2220.87 1065.12 2214.49 1051.57L2207.27 1037.89C2204.72 1033.31 2201.98 1028.89 2199.37 1024.36C2107.64 872.86 1994.96 751.985 1852.38 655.158C1780.69 606.019 1703.67 565.149 1622.8 533.327C1601.45 525.58 1586.94 519.487 1589.81 519.475C1604.73 523.125 1619.4 527.756 1633.72 533.339C1776.64 586.249 1907.17 667.953 2017.21 773.386C2069.68 823.513 2117.06 878.712 2158.65 938.173C2195.44 990.897 2227.19 1046.96 2253.5 1105.62C2265.79 1129.41 2275.61 1153.7 2285.23 1176.61C2290.12 1188.11 2293.89 1199.5 2297.63 1210.6C2301.37 1221.71 2305.23 1232.2 2308.21 1242.39L2308.9 1244.71C2306.32 1233.77 2302.86 1223.87 2299.7 1213.1C2303.1 1222.54 2306.1 1230.76 2308.57 1238.6L2314.46 1261C2318.17 1275.42 2322.63 1289.12 2326.6 1306.84L2325.78 1292.8C2352.78 1389.6 2367.5 1489.42 2369.6 1589.9C2371.5 1686.68 2360.18 1783.26 2335.94 1876.97L2330.67 1897.19C2321.82 1936.09 2310.83 1974.48 2297.74 2012.16C2291.18 2031.7 2282.88 2051.14 2274.88 2071.55C2270.57 2081.51 2265.86 2091.48 2261.18 2101.74C2256.5 2112 2251.98 2122.44 2246.4 2132.61C2254.06 2118.86 2260.19 2104.52 2267.12 2090.64C2274.05 2076.77 2280.09 2062.3 2286.13 2047.72C2261.29 2112.19 2230.02 2173.99 2192.8 2232.18C2186.04 2242.42 2179.04 2252.85 2172.39 2263.09C2165.74 2273.33 2158.02 2283.02 2150.47 2293.29C2136.35 2313.53 2119.57 2332.67 2103.92 2351.92C2072.4 2388.5 2038.44 2422.89 2002.25 2454.86C1946.91 2504.87 1885.59 2547.84 1819.71 2582.81C1739.66 2632.51 1653.61 2671.82 1563.64 2699.79C1473.82 2728.1 1380.82 2745.11 1286.79 2750.42C1239.75 2753.12 1192.59 2752.99 1145.56 2750.05C1098.58 2746.71 1051.84 2740.57 1005.58 2731.67C959.334 2722.8 913.671 2711.13 868.846 2696.7L835.488 2685.01L818.87 2679.11L802.285 2672.26L769.632 2659.06L737.622 2644.4C725.181 2639.2 713.281 2632.78 702.094 2625.25C701.386 2624.39 704.002 2625.31 708.918 2627.52C713.834 2629.73 720.979 2633.38 729.848 2637.26C977.691 2754.32 1259.37 2778.36 1523.46 2704.97C1413.05 2734.2 1298.88 2746.79 1184.75 2742.3C1127.32 2740.18 1070.15 2733.49 1013.78 2722.3L992.559 2718.06C985.479 2716.72 978.409 2715.27 971.492 2713.38L929.412 2702.84C902.032 2694.64 873.738 2686.58 846.496 2676.3L825.659 2669.17C818.694 2666.6 811.821 2663.65 804.927 2660.91L783.953 2652.25L773.603 2647.95L763.396 2643.33L723.643 2624.79L685.065 2603.94C423.93 2460.88 229.355 2221.07 143.173 1936.06C107.264 1816.84 90.9438 1692.59 94.8484 1568.15C95.284 1537.74 98.2972 1507.45 101.098 1477.03L107.232 1431.49C109.338 1416.26 112.905 1401.06 115.335 1385.97C144.811 1235.44 204.493 1092.44 290.776 965.613C340.271 893.307 397.754 826.807 462.137 767.369C526.625 708.133 597.879 656.715 674.419 614.18C713.112 592.642 753.008 573.343 793.913 556.377C804.268 552.226 814.764 548.37 825.209 544.453C835.655 540.536 846.031 536.162 856.81 532.895C867.588 529.628 878.226 526.067 889.219 522.314C894.614 520.625 900.019 518.824 905.525 517.145L921.981 512.779C933.591 509.647 945.019 506.666 955.806 503.907C966.593 501.148 976.748 499.737 985.511 498.139C996.376 495.725 1007.44 494.314 1018.56 493.924C1021.6 494.491 1014.84 497.009 1001.16 500.622C994.4 502.409 985.98 504.545 976.361 506.851C971.516 508.085 966.397 509.237 960.983 510.53C955.569 511.823 950.063 513.502 944.222 515.149C762.717 563.138 596.114 655.804 459.609 784.698C451.191 792.803 442.682 800.674 434.426 808.85L410.326 834.062L398.272 846.724L386.844 859.895L363.99 886.236C334.558 922.127 307.265 959.719 282.253 998.819C231.806 1077.23 191.384 1161.65 161.931 1250.11C160.067 1255.56 158.031 1261.06 156.269 1266.63L151.428 1283.41L141.574 1316.99L133.363 1351.07C130.559 1362.35 127.855 1373.75 125.872 1385.27L119.315 1419.73C117.473 1431.55 116.058 1443.02 114.461 1454.64C110.768 1477.77 109.024 1501.14 106.945 1524.47C105.53 1535.94 105.658 1547.77 105.115 1559.55C104.573 1571.32 103.98 1583.03 103.955 1594.68L103.381 1630.77L103.582 1648.41L104.636 1665.97L106.785 1701.24C107.602 1712.92 109.263 1724.62 110.476 1736.27C111.69 1747.93 112.771 1759.79 114.838 1771.36L120.56 1806.35C122.22 1818.05 124.744 1829.55 127.318 1841.11L134.907 1875.99L144.123 1910.36C147.103 1921.79 150.134 1933.27 153.978 1944.5L164.92 1978.47C168.53 1989.78 173.126 2000.8 177.315 2011.95C185.47 2034.22 195.118 2056.18 204.665 2078.02C209.2 2089.09 214.964 2099.65 220.149 2110.38C225.334 2121.12 230.559 2132.02 236.395 2142.43C248.268 2163.47 259.34 2184.67 272.687 2205.01C341.524 2316.71 429.535 2415.39 532.67 2496.51C531.962 2495.66 531.305 2494.86 531.621 2494.5C531.936 2494.13 539.041 2497.62 550.266 2504.58C513.11 2476.16 477.786 2445.43 444.505 2412.56C427.541 2396.56 412.064 2379.11 396.22 2361.97C388.115 2353.56 381.303 2343.96 373.381 2335.39C365.459 2326.83 357.845 2317.38 350.98 2308.35C181.027 2099.04 94.1531 1834.44 106.956 1565.12C109.137 1518.41 114.334 1471.88 122.514 1425.83C130.749 1381.4 141.695 1337.51 155.293 1294.41C168.441 1252.26 184.073 1210.92 202.107 1170.61C206.704 1160.63 211.625 1150.78 216.324 1140.92C221.022 1131.06 225.619 1121.08 231.078 1111.51C241.71 1092.41 251.604 1072.79 263.221 1054.01C375.531 858.571 544.307 701.657 747.397 603.862C753.768 600.504 760.399 597.663 767.224 595.365C770.404 594.481 766.134 596.782 757.841 600.564C615.338 669.36 488.868 767.312 386.618 888.08C404.353 870.097 415.221 860.476 415.6 863.045C415.978 865.615 404.339 881.637 385.747 904.551C397.642 891.198 409.385 877.663 421.594 864.565C433.802 851.468 446.476 838.808 459.252 826.27C468.312 816.94 478.248 808.503 488.924 801.075C480.727 811.229 471.591 820.588 461.639 829.028C292.623 991.83 181.444 1205.41 145.033 1437.24C131.792 1523.41 128.589 1610.83 135.488 1697.75C135.039 1680.89 135.72 1664.03 137.527 1647.27C137.515 1620.41 136.489 1593.57 138.202 1566.93C139.962 1505.35 147.076 1444.05 159.463 1383.7C172.188 1323 190 1263.49 212.71 1205.78C258.49 1088.98 324.474 981.157 407.641 887.239C576.589 694.733 808.487 568.579 1061.89 531.323C1067.9 530.062 1074.02 529.373 1080.16 529.266C1074.85 530.893 1069.39 531.965 1063.87 532.466C911.684 554.647 765.99 609.069 636.532 692.089L636.959 691.735C642.368 688.696 643.566 688.527 638.023 692.398C632.48 696.269 623.044 702.026 617.938 705.432C612.833 708.837 612.194 708.439 616.752 704.87C380.446 864.14 216.298 1109.99 159.781 1389.3C186.43 1262.84 235.38 1142.12 304.34 1032.82C373.212 923.661 461.168 827.794 564.002 749.799C574.808 740.848 585.614 731.898 597.38 724.107C609.147 716.317 620.074 707.265 632.064 699.496C637.92 695.621 643.985 692.074 650.233 688.872C652.286 687.995 647.486 691.148 640.977 695.716C634.467 700.284 627.503 704.303 621.145 709.055C641.545 695.657 660.334 685.035 673.815 677.574C687.295 670.114 696.175 667.288 696.394 668.547C689.046 675.162 680.968 680.92 672.319 685.71C665.331 690.571 656.982 696.149 647.809 702.1C643.141 705.04 638.341 708.192 633.307 711.435C628.273 714.679 623.32 718.267 618.204 721.784C507.323 797.771 411.439 893.595 335.381 1004.43L311.907 1040.96C304.37 1053.48 297.642 1066.36 290.642 1079.16C395.162 899.11 549.672 753.25 735.438 659.265C745.1 653.984 755.198 649.545 765.622 645.997C757.029 652.093 747.806 657.248 738.111 661.374C727.967 666.276 718.196 672.002 708.435 677.616C698.675 683.231 688.702 688.712 678.981 694.499L650.416 712.704L636.159 721.837L622.296 731.57L594.61 751.209L567.823 772.058L554.455 782.514L541.391 793.335L516.245 815.295L491.582 838.709L479.226 850.385L467.436 862.621L443.907 887.154L421.46 912.746L410.349 925.553C406.672 929.936 403.207 934.453 399.692 938.908L378.552 965.58L358.678 993.159L348.761 1007.03C345.509 1011.68 342.521 1016.53 339.37 1021.3L320.863 1049.91C314.998 1059.6 309.498 1069.61 303.877 1079.11L295.46 1093.8C292.634 1098.71 290.182 1103.83 287.396 1108.92L271.472 1139.4C251.671 1180.26 234.463 1222.33 219.953 1265.35C190.337 1351.64 171.992 1441.39 165.374 1532.38C160.064 1652.67 175.089 1772.98 209.817 1888.27C206.025 1873.5 201.785 1858.69 198.989 1843.5L191.32 1807.65L185.56 1771.87L182.468 1753.84L180.48 1736.03L176.435 1700.58L174.185 1665.18L173.019 1647.62L172.481 1630.56L171.885 1595.54L173.003 1560.85C177.786 1424.16 209.23 1289.72 265.57 1165.08C274.401 1144.18 285.168 1124.25 295.409 1103.93C300.474 1093.76 306.714 1084.27 311.941 1074.18C317.167 1064.08 322.992 1054.22 329.405 1044.68C335.817 1035.15 341.693 1025.34 347.842 1015.62C353.992 1005.89 361.042 996.759 367.617 987.299C380.564 968.134 395.527 950.284 409.762 931.803C417.198 922.761 424.999 914.035 432.648 905.126L444.258 891.804C448.22 887.39 452.383 883.221 456.446 878.929L481.156 853.212C489.808 845.017 498.459 836.821 507.233 828.524C511.634 824.006 516.504 819.971 521.763 816.489C518.512 820.43 514.91 824.068 511.002 827.358C502.534 835.402 494.065 843.446 485.719 851.389C477.372 859.331 469.632 868.007 461.65 876.265C445.423 892.589 431.151 910.278 416.21 927.285C387.695 961.855 361.43 998.222 337.58 1036.16C289.595 1112.4 251.438 1194.39 224.019 1280.2C179.208 1420.01 164.737 1567.77 181.572 1713.61C167.255 1571.5 181.654 1427.95 223.914 1291.51C266.386 1155.18 336.311 1028.99 429.384 920.697C437.542 911.16 446.076 901.827 451.736 896.109C453.078 894.152 454.587 892.316 456.249 890.621C481.788 861.791 509.089 834.571 537.994 809.118C543.265 804.263 548.788 799.689 554.539 795.414C557.772 793.353 554.474 796.703 548.133 802.47ZM2021.27 843.523C2019.35 841.204 2017.83 839.372 2016.21 837.418C2021.63 843.22 2027.46 850.129 2033.87 857.375L2036.86 860.977C2039.84 864.579 2045.81 871.783 2056.48 887.029C2056.48 887.029 2052.41 881.241 2045.62 873.172L2021.27 843.523ZM1631.36 597.357L1617.78 590.283C1614.41 588.446 1612.35 587.577 1612.35 587.577C1620.38 591.427 1626.31 594.855 1631.36 597.357ZM1305.2 2737.85C1467.27 2726.6 1625.14 2681.22 1768.44 2604.68C1751.45 2614.74 1733.66 2623.2 1716.05 2632.02C1698.45 2640.84 1680.29 2648.37 1662.35 2656.53C1605.52 2679.55 1546.99 2698.09 1487.28 2711.99C1427.33 2725.23 1366.46 2733.87 1305.2 2737.85ZM1781.17 640.645C1811.42 659.773 1840.45 680.757 1868.11 703.477L1902.88 728.306L1937.23 755.741C1997.06 805.406 2051.28 861.452 2098.94 922.882C2093.84 914.24 2104.86 928.787 2110.71 936.092L2128.34 958.748C2080.55 891.859 2025.65 830.338 1964.62 775.26C1907.95 724.558 1846.47 679.507 1781.05 640.746L1781.17 640.645ZM1236.07 497.91L1229.13 497.484L1244.14 495.346L1236.07 497.91ZM1212.12 501.178L1223.95 501.67C1219.98 502.27 1215.92 502.138 1212 501.28L1212.12 501.178ZM1318.47 507.169C1312.26 506.135 1308.35 505.261 1303.55 504.81L1318.47 507.169ZM1385.35 569.525C1392.11 568.977 1399.02 568.5 1405.66 567.941L1425.76 567.351L1403.78 567.54L1381.7 568.844L1385.35 569.525Z" fill="#FF6F44"/>
<path d="M471.616 2439.11C445.603 2418.14 400.241 2361.02 407.071 2357.83C403.89 2359.33 402.243 2360.08 397.191 2355.72C393.477 2352.35 389.959 2348.77 386.657 2344.99C381.679 2339.85 375.762 2332.71 368.2 2322.71C372.641 2320.98 346.898 2284.56 332.7 2260.09C341.688 2281.88 357.021 2310.45 394.326 2363.44C400.226 2369.26 405.815 2375.39 411.07 2381.79C417.19 2388.56 423.532 2395.97 430.106 2403.91C436.68 2411.84 443.079 2420.44 450.333 2428.33L471.988 2453.72L482.658 2466.61L494.182 2478.78C501.66 2486.69 509.057 2494.25 516.424 2501.53C528.922 2513.54 542.562 2524.31 557.151 2533.67C528.806 2505.17 505.687 2473.78 471.616 2439.11Z" fill="white"/>
<path d="M348.639 2210.96L342.293 2204.79C346.312 2211.75 350.148 2218.87 354.765 2226.06L368.081 2246.73L381.458 2267.36C385.904 2273.97 391.009 2280.75 395.791 2287.39C392.554 2283.49 387.497 2277.38 382.293 2269.86C377.088 2262.33 371.664 2253.54 366.471 2245.29C361.279 2237.03 356.461 2228.98 353.161 2222.76C350.912 2219.15 349.377 2215.14 348.639 2210.96Z" fill="white"/>
<path d="M233.438 1915.43C239.91 1923.24 234.273 1873.56 238.83 1873.6C227.908 1877.19 225.642 1796.41 222.359 1753.43L214.046 1736.43C213.492 1741.73 212.998 1747.59 212.854 1755.12C212.71 1762.65 213.073 1770.18 213.382 1778.87L215.441 1806.71C216.041 1816.51 217.654 1826.91 218.84 1837.66C224.682 1883.13 233.251 1928.21 244.503 1972.66C240.663 1953.6 237.116 1934.41 233.438 1915.43Z" fill="#FFB200"/>
<path d="M226.634 1834.49C223.84 1825.28 220.7 1816.14 218.251 1806.85C222.18 1830.36 230.21 1884.54 226.634 1834.49Z" fill="white"/>
<path d="M208.712 1899.27C221.107 1969.91 203.968 1856.26 219.084 1926.71C213.013 1903.22 208.051 1875.73 208.712 1899.27Z" fill="white"/>
<path d="M210.822 1601.17C207.641 1651.29 207.715 1701.57 211.044 1751.68L211.878 1720.62L212.553 1705.04L213.726 1689.55C213.019 1674.9 211.743 1660.31 211.441 1645.53L210.822 1601.17Z" fill="#FFB200"/>
<path d="M228.381 1594.65C226.355 1613.83 221.809 1644.26 220.887 1616.3C223.089 1603.05 225.215 1591.2 226.781 1579.92C228.347 1568.64 229.181 1557.97 230.105 1547.52C231.029 1537.08 232.796 1526.66 234.716 1515.81C235.615 1510.43 236.697 1504.9 237.952 1499.34C239.207 1493.77 241.041 1488.03 243.007 1482.08C240.139 1497.63 238.773 1513.38 237.021 1529.03C241.038 1526.42 242.512 1501.73 246.864 1478.78C248.706 1466.96 250.982 1455.91 253.259 1447.85C255.536 1439.79 258.626 1435.07 261.261 1436.38C270.028 1372.41 239.052 1481.03 255.1 1398.87C250.525 1418.2 245.601 1435.87 241.733 1453.07C237.866 1470.28 234.032 1486.53 231.082 1502.35L221.948 1549.85L214.669 1597.98C219.547 1579.02 219.651 1571.31 225.069 1544.8C218.622 1599.66 216.199 1654.93 217.817 1710.15C221.266 1693.14 222.782 1675.79 222.335 1658.44C222.405 1648.7 223.257 1638.43 223.969 1627.85C224.689 1616.7 226.163 1605.61 228.381 1594.65Z" fill="#FFB200"/>
<path d="M279.283 1364.33C295.198 1316.56 326.061 1245.71 325.214 1230.14C314.821 1245.17 306.828 1261.73 301.521 1279.21C298.228 1290.89 297.553 1299.27 294.939 1311.53C291.589 1318.42 285.373 1333.66 280.144 1344.37C274.915 1355.08 271.991 1362.24 272.875 1351.62C277.066 1345.37 269.183 1384.95 279.283 1364.33Z" fill="#FFB200"/>
<path d="M359.443 1184.5C363.041 1172.56 366.437 1160.38 370.918 1148.64C367.111 1155.6 363.416 1162.57 360.147 1169.81L353.987 1169.46C353.375 1176.17 352.204 1182.82 350.487 1189.34C348.433 1196.29 346.024 1203.13 343.27 1209.83C339.542 1219.81 335.261 1229.58 330.445 1239.09C336.412 1230.71 341.346 1221.65 345.141 1212.09C349.097 1202.49 353.883 1193.26 359.443 1184.5Z" fill="#FFB200"/>
<path d="M331.774 1154.92C336.739 1147.61 341.051 1141.26 345.475 1134.92C349.899 1128.58 353.337 1122.54 356.97 1116.24C360.602 1109.94 364.042 1103.28 368.457 1096.43C372.872 1089.58 377.026 1081.92 382.361 1073.08C366.539 1096.48 348.832 1125.55 334.567 1150.96C327.728 1163.83 321.603 1175.69 316.814 1185.32C313.253 1192.19 310.301 1199.35 307.991 1206.73L308.644 1202.18L297.464 1231.31C294.09 1239.66 291.209 1249.35 288.408 1259.39C285.607 1269.43 282.383 1278.59 279.716 1287.8C283.939 1274.01 290.36 1258.39 297.085 1242.53L318.717 1197.44C332.815 1170.22 341.885 1150.97 331.774 1154.92Z" fill="#FFB200"/>
<path d="M297.878 1218.5C302.636 1205.6 306.888 1192.1 312.285 1179.6C306.705 1192.25 302.636 1205.6 297.878 1218.5Z" fill="#FFB200"/>
<path d="M442.378 1053.22C425.836 1072.89 411.036 1093.8 395.851 1114.61L408.449 1100.37L424.881 1076.46L442.378 1053.22Z" fill="#FFB200"/>
<path d="M370.197 1116.19C374.425 1110.14 378.271 1103.82 381.712 1097.29C381.735 1096.45 378.66 1099.82 375.119 1102.75C371.578 1105.68 368.785 1109.64 368.33 1109.09C367.875 1108.54 370 1103.9 378.522 1091.7C370.83 1101.93 364.027 1112.8 358.186 1124.19C348.386 1139.4 340.358 1155.68 334.261 1172.72C337.144 1168.18 339.732 1163.46 342.007 1158.59C343.517 1155.69 345.049 1152.57 346.581 1149.45L351.734 1140.13C358.824 1128.19 365.708 1117.24 370.197 1116.19Z" fill="#FFB200"/>
<path d="M474.13 1014.26C480.236 1005.6 485.876 996.504 492.396 988.221L511.726 962.843L492.396 988.221C485.876 996.504 480.236 1005.6 474.13 1014.26Z" fill="#FFB200"/>
<path d="M586.506 903.475L593.046 891.985C617.319 873.32 644.985 850.302 672.711 830.836C685.715 821.289 699.249 812.484 713.247 804.465C719.683 800.678 725.915 797.266 731.831 794.218C737.747 791.171 743.681 789.138 749.035 787.276C743.198 787.685 747.315 782.216 747.027 779.881C746.74 777.546 745.662 778.233 741.405 779.804C733.348 782.95 725.65 786.945 718.441 791.722C712.888 798.689 696.698 809.217 701.111 810.194C681.202 821.949 683.127 816.444 669.838 824.26C639.869 850.215 590.38 887.399 569.702 912.144C577.031 904.918 584.83 898.184 593.046 891.985C583.891 902.278 573.995 911.886 563.435 920.732C555.252 928.127 548.172 933.374 542.311 938.229C530.135 947.388 521.499 953.615 516.085 968.702C525.317 956.671 536.134 945.944 548.243 936.815C554.836 931.354 561.36 925.436 568.267 920.229C575.175 915.022 580.978 908.98 586.506 903.475Z" fill="#FFB200"/>
<path d="M563.461 886.119C556.379 891.985 549.236 897.902 542.407 904.073L522.163 923.003C525.272 917.795 528.975 912.966 533.198 908.613C538.561 902.731 544.272 897.176 550.299 891.977C562.105 881.375 573.279 871.502 574.989 866.483C570.452 866.226 527.889 902.202 541.535 886.988C545.087 900.721 487.661 940.875 518.344 930.695C505.67 943.355 498.958 951.282 493.88 955.591C490.742 958.515 487.213 960.988 483.394 962.939C477.924 966.028 471.247 968.779 447.459 998.468L439.146 1019.25C451.862 1002.54 462.477 989.631 471.696 978.392C480.915 967.154 490.085 958.838 498.627 950.012C507.169 941.187 516.186 932.688 526.488 922.508C531.589 917.357 537.117 911.852 543.337 905.567C549.557 899.283 555.958 893.466 563.461 886.119Z" fill="#FFB200"/>
<path d="M736.201 761.462L761.758 751.307L746.192 753.392C753.055 749.251 759.298 745.727 765.662 742.102C772.027 738.477 778.703 735.726 785.005 732.771C797.598 726.972 809.561 721.284 821.449 716.995C843.177 708.835 865.349 701.914 887.86 696.264L917.439 688.851C927.028 686.261 936.634 684.686 945.857 682.399C955.08 680.113 963.917 677.733 972.816 675.304C981.714 672.874 990.44 670.484 999.056 667.465C1009.8 663.406 1020.41 659.449 1031.01 656.334C1041.61 653.219 1052.72 650.603 1063.6 648.078L1080.13 644.676C1085.57 643.667 1091.11 642.892 1096.54 641.994L1129.46 637.373C1140.4 635.923 1151.6 635.398 1162.68 634.355C1173.75 633.313 1184.84 632.158 1196.06 632.029C1218.49 631.152 1241.12 629.392 1264.35 628.984C1309.56 622.42 1220.65 626.794 1215.73 625.206C1221.83 620.149 1233.13 619.746 1245.44 621.184C1257.39 623.474 1269.72 622.835 1281.36 619.321C1284.29 615.767 1260.21 613.788 1230.2 613.841L1183.69 614.484C1168.49 615.646 1154.5 616.528 1144.1 616.396C1133.43 617.617 1122.96 620.171 1112.92 623.997C1108.52 625.997 1104.33 628.433 1100.42 631.267C1091.35 630.207 1082.17 630.33 1073.13 631.633C1064.08 633.013 1054.91 633.472 1045.76 633.003L1020.92 640.298C1012.84 642.973 1005.5 645.043 998.213 647.061C983.647 651.098 969.905 654.143 956.616 658.356C943.328 662.569 929.656 666.071 915.624 671.002C901.593 675.934 886.865 682.883 870.55 691.148C847.338 694.316 920.895 670.033 898.064 678.136C885.829 683.124 873.402 687.756 861.358 693.099L865.492 692.249C853.809 699.147 839.313 706.624 823.579 714.099C807.845 721.573 791.478 730.395 775.266 738.162C743.225 754.408 713.187 769.716 697.765 778.064C706.178 772.809 715.275 768.738 724.799 765.965C729.297 765.43 726.721 768.285 713.904 777.666L688.351 786.582C670.036 801.753 654.112 818.442 637.307 834.317C647.162 825.297 657.596 816.93 668.542 809.269C679.192 801.374 690.568 795.348 700.37 789.288C710.173 783.227 718.674 777.832 725.234 773.325C730.13 770.729 733.997 766.546 736.201 761.462Z" fill="#FFB200"/>
<path d="M664.959 792.887C630.188 816.027 633.688 816.524 636.394 817.679C637.692 818.252 638.857 819.037 634.958 822.78C632.883 824.5 629.708 827.129 624.824 831.175C619.94 835.22 613.469 840.58 604.233 847.201L622.548 832.031C628.653 826.974 635.213 822.467 641.571 817.715C654.438 808.395 666.749 798.404 680.274 789.878C675.399 790.827 670.078 791.735 664.959 792.887Z" fill="#FFB200"/>
<path d="M1029.69 644.46L1070.22 639.709C1058.4 637.867 1037.68 643.297 1025.14 647.411C1012.59 651.524 1008.96 654.224 1029.69 644.46Z" fill="white"/>
<path d="M1177.12 617.866L1156.88 628.97C1169.21 625.962 1181.56 622.223 1194.17 619.804C1188.41 618.813 1182.66 618.217 1177.12 617.866Z" fill="white"/>
<path d="M1313.22 621.766C1328.16 619.679 1326.92 617.929 1317.32 616.409C1302.38 614.409 1287.27 613.952 1272.24 615.047C1280.14 614.888 1287.11 614.979 1293.05 615.312C1297.86 615.706 1302.65 616.344 1307.39 617.222C1314.58 618.684 1316.89 620.366 1313.22 621.766Z" fill="#FFB200"/>
<path d="M918.384 700.943C911.19 703.815 903.405 706.968 896.242 709.505C903.782 706.553 910.905 703.844 918.384 700.943Z" fill="#FFB200"/>
<path d="M932.902 695.602C927.975 697.11 923.118 699.074 918.383 700.938C923.129 698.914 927.975 697.133 932.902 695.602Z" fill="#FFB200"/>
<path d="M1424.3 657.809L1419.26 656.322L1424.3 657.809Z" fill="#FFB200"/>
<path d="M275.032 2027.77C279.674 2040.08 282.984 2049.8 285.641 2057.48L275.112 2028.11L275.032 2027.77Z" fill="#FFB200"/>
<path d="M275.93 2066.14C266.734 2047.18 261.249 2026.64 259.769 2005.62C258.674 1994.12 256.966 1982.68 254.653 1971.36C251.635 1953.66 247.699 1936.14 242.863 1918.85C247.683 1936.47 251.942 1954.66 257.268 1972.9L265.935 2000.51C268.79 2009.68 271.157 2019.24 274.936 2028.16C283.694 2079.99 257.72 1991.46 275.93 2066.14Z" fill="#FFB200"/>
<path d="M271.335 1318.21L272.187 1315.14C273.928 1309.78 273.158 1312.58 271.335 1318.21Z" fill="#FFB200"/>
<path d="M2263.65 1287.64L2280.71 1334.34C2286.31 1350.29 2291.29 1366.75 2296.77 1383.42C2302.24 1400.09 2306.95 1418.83 2313.01 1438.21L2320.99 1468.96C2323.71 1479.58 2327.07 1490.59 2329.46 1502.3C2336.73 1498.65 2338.6 1539.81 2347.43 1544.13C2354.89 1590.72 2359.44 1637.72 2361.07 1684.87C2361.96 1697 2361.55 1709.18 2361.6 1721.18C2361.66 1733.17 2361.97 1744.86 2361.25 1756.05C2360 1778.4 2359.63 1798.57 2358.24 1814.54C2355.52 1846.55 2354.72 1861.62 2358 1841.71L2357.19 1817.37L2362.47 1843.26C2354 1891.45 2333.89 1954.53 2328.8 1987.16C2329.35 1982.13 2330.42 1977.17 2331.99 1972.37L2336.87 1953.4L2342.32 1928.3C2352.16 1882.53 2359.01 1836.18 2362.84 1789.53L2365.45 1751.54C2366 1739.04 2366.04 1726.66 2366.07 1715.01L2366.46 1697.59L2365.94 1680.93L2365.06 1650.79C2364.34 1632.02 2362.59 1613.3 2359.8 1594.72C2360.69 1589.97 2362.07 1595.11 2364.02 1607.9C2367.03 1627.44 2368.98 1647.13 2369.85 1666.89C2373.7 1732.86 2370.86 1799.04 2361.38 1864.44C2351.29 1933.35 2334.74 2001.17 2311.96 2066.98L2298.26 2104.88L2286.26 2134.38C2279.66 2151.27 2274.99 2161.42 2274.69 2163.42L2267.43 2167.07C2264.25 2175.67 2260.88 2184.02 2257.45 2192.31C2254.03 2200.61 2250.85 2208.08 2247.57 2215.43C2241.05 2230.3 2235.49 2244.58 2228.73 2257.8C2221.97 2271.01 2216.15 2284.37 2209.02 2297.38C2201.89 2310.39 2194.2 2323.35 2185.92 2337.1L2172.15 2345.32C2178.56 2337.71 2184.46 2329.69 2189.83 2321.31C2194.31 2314.3 2198.36 2307.76 2201.93 2301C2209.72 2288.16 2215.61 2274.02 2227.03 2253.13C2216.31 2270.76 2208.32 2285.1 2199.9 2296.19C2191.48 2307.28 2185.11 2316.98 2178.7 2325.9C2172.29 2334.81 2165.54 2342.56 2158.83 2351.62C2152.13 2360.67 2144.16 2371.18 2134.37 2383.1C2138.05 2384.68 2147.68 2375.06 2149.99 2372.63C2151.27 2371.57 2150.66 2372.08 2147.17 2377.43C2143.69 2382.79 2136.41 2391.91 2124.5 2407.85C2115.89 2415.6 2118.47 2407.9 2117.6 2405.23C2116.72 2402.56 2112.98 2405.24 2089.55 2431.65C2029.17 2491.96 2048.92 2487.85 1992.71 2537.8L2003.04 2530.38L2012.81 2522.29L2032.7 2506.53C2012.65 2525.71 1974.07 2560.03 1949.55 2572.42C1952.54 2569.95 1956.54 2567.45 1960.66 2564.35C1964.78 2561.24 1969.09 2557.37 1973.67 2553.58C1982.76 2546.04 1992.11 2537.07 2000.59 2528.91C2017.13 2511.6 2029.18 2496.58 2025.67 2494.45C2003.78 2517.72 1947.77 2558.97 1925.45 2574.78L1935.63 2560.48C1923.84 2566.66 1912.78 2574.14 1902.63 2582.77C1890.67 2592.07 1877.8 2600.14 1864.22 2606.86C1849.94 2617.46 1855.46 2616.28 1862.86 2614.17C1870.27 2612.05 1878.61 2608.33 1871.15 2614.61C1867.69 2616.14 1850.24 2624.52 1831.64 2634.88C1827.01 2637.48 1822.25 2640.19 1817.61 2642.8L1803.69 2650.1C1796.35 2653.99 1789.23 2658.31 1782.38 2663.02C1789.58 2662.96 1796.65 2661.04 1802.89 2657.46C1812.75 2652.84 1822.25 2647.49 1831.31 2641.44C1841.49 2634.96 1852.44 2628.05 1863.6 2621.89C1874.19 2615.72 1885.3 2610.51 1896.82 2606.32L1868.51 2623.59L1839.37 2639.49C1824.15 2655.29 1847.06 2641.56 1872.25 2626.36C1896.51 2610.17 1922.57 2592.3 1916.14 2602.05C1897.56 2620.05 1875.59 2634.16 1851.49 2643.56C1828.29 2654.95 1804.95 2664.3 1787.59 2681.86C1810.72 2672.04 1833.3 2660.97 1855.23 2648.69C1879.38 2636.1 1897.91 2624.66 1893.69 2630.01C1878.96 2637.52 1864.88 2646.25 1851.6 2656.12C1844.78 2661.05 1837.83 2666.71 1829.56 2672.01C1821.29 2677.32 1812.14 2683.04 1801.51 2688.97C1783.38 2696.78 1764.51 2702.84 1746.23 2709.23C1725.13 2722.9 1743.3 2714.64 1762.11 2708.63C1721.62 2724.37 1667.59 2745.76 1607.36 2763.52C1546.35 2782.62 1483.21 2794.09 1419.38 2797.66C1410.39 2799.24 1403.63 2799.9 1398.39 2800.53C1393.15 2801.17 1389.3 2801.99 1387.25 2802.25C1382.6 2803.22 1382.76 2803.91 1384.26 2804.73C1387.01 2806.05 1394.82 2807.41 1378.71 2810.45C1354.74 2809.06 1330.71 2809.1 1306.75 2810.56C1293.63 2811.13 1280.53 2810.97 1268.32 2811.52C1256.11 2812.06 1244.25 2811.79 1234.26 2810.91C1222.64 2809.31 1200.1 2814.91 1211.42 2818.5C1245.52 2819.9 1279.64 2819.22 1313.53 2817.51C1308.77 2821.45 1323.71 2827.19 1360.65 2824.69C1354.17 2821.83 1359.95 2820.23 1372.32 2819.14C1378.57 2818.6 1386.17 2817.97 1395.24 2817.86C1404.32 2817.76 1413.93 2817.31 1423.93 2816.33C1464.13 2813.91 1508.46 2806.54 1510.31 2798.83L1510.21 2805.91C1520.93 2803.82 1531.46 2800.76 1542.09 2797.93L1573.69 2789.35C1594.38 2782.51 1615.46 2776.27 1635.81 2768.78L1631.89 2769.15C1637.84 2767.89 1643.63 2766.02 1649.19 2763.56C1654.51 2761.53 1660.98 2759.15 1668.27 2756.4C1675.57 2753.66 1683.56 2750.75 1692.01 2747.04C1700.47 2743.33 1709.38 2739.55 1718.44 2735.44C1727.49 2731.34 1736.79 2727.65 1746.41 2722.98C1756.02 2718.31 1764.99 2714.48 1774.05 2710.37C1778.57 2708.38 1783.1 2706.38 1787.5 2704.49C1791.9 2702.59 1795.98 2700.44 1800.05 2698.52C1791.63 2704.88 1759.11 2718.94 1737.74 2729.54C1716.36 2740.15 1704.61 2744.73 1739.24 2735.09C1727.15 2740.99 1712.27 2747.14 1695.47 2753.95C1687.09 2757.5 1677.98 2760.41 1668.45 2763.57C1658.92 2766.73 1648.8 2769.55 1638.78 2773.11C1628.76 2776.68 1617.67 2779.07 1606.74 2782.15C1595.81 2785.24 1584.53 2788.4 1573.07 2791.21C1561.6 2794.02 1549.81 2796.68 1538.11 2799.58C1532.22 2801.05 1526.29 2802.47 1520.41 2803.94L1502.69 2807.4L1522.51 2808.59C1465.85 2822.73 1407.79 2830.49 1349.41 2831.74C1288.63 2833 1227.84 2830.19 1167.45 2823.32C1179.01 2822.5 1190.42 2822.1 1201.94 2820.48C1191.91 2819.43 1181.27 2817.02 1170.41 2815.1L1137.25 2809.12C1126.15 2806.78 1115.2 2804.74 1104.54 2803.17C1093.87 2801.61 1083.59 2800.76 1074.16 2799.93C1086.06 2802.62 1093.56 2803.72 1097.79 2804.85C1102.02 2805.98 1103.03 2806.58 1102.31 2807.07C1097.48 2808.05 1092.59 2808.67 1087.67 2808.91C1071.27 2806.64 1053.22 2802.86 1033.77 2798.89C1014.33 2794.93 994.271 2788.48 973.056 2782.38L941.318 2772.02L925.205 2766.74L909.217 2760.73L876.996 2748.92L845.57 2735.84C845.57 2735.84 850.197 2736.33 846.987 2733.95C839.708 2731.12 832.134 2728.44 824.926 2725.46L803.244 2715.93C788.687 2709.67 774.131 2703.4 760.065 2696.11C720.669 2673.78 710.311 2661.77 689.008 2644.01C674.56 2635.39 641.235 2612.55 652.071 2624.27C659.181 2629.49 666.229 2634.77 671.245 2637.72C627.623 2616.62 644.723 2617.38 594.304 2584.72C634.733 2608.06 587.915 2569.43 596.456 2567.81C541.488 2525.43 584.65 2571.82 576.408 2568.46L555.202 2549.07L538.627 2531.92C528.864 2521.38 520.485 2512.88 512.738 2503.65L453.687 2435.21C450.644 2434.65 460.251 2446.25 470.759 2459.06L478.749 2468.7L486.132 2477.61C489.494 2481.11 492.328 2485.07 494.541 2489.38C477.836 2471.82 459.011 2450.46 454.947 2448.17C466.072 2461.6 476.637 2475.6 488.373 2488.52C473.176 2472.29 459.729 2454.81 445.477 2438.1C438.448 2429.62 431.847 2420.78 425.001 2412.14L404.445 2385.83C378.285 2349.65 351.254 2312.54 325.528 2270.55L328.174 2278.34L312.754 2251.89C307.614 2243.08 303.297 2233.89 298.513 2224.88L314.735 2240.99C306.575 2227.16 299.507 2211.3 293.133 2197.64C288.843 2185.99 282.959 2175 275.651 2164.97L280.287 2176.16C273.938 2164.02 267.418 2151.93 261.314 2139.59C268.961 2151.68 277.086 2163.47 284.928 2175.3C280.275 2163.1 273.806 2150.44 266.885 2136.62C259.963 2122.79 253.218 2107.69 245.002 2092.06C236.787 2076.42 230.333 2058.81 222.978 2040.61C215.623 2022.41 210.059 2002.52 204.385 1982C205.364 1976.97 208.604 1983.24 212.973 1995.48C215.207 2001.65 217.753 2009.33 220.498 2017.86C223.243 2026.39 226.189 2035.79 229.866 2045.2L240.551 2073.51L245.88 2086.9L251.67 2098.99C258.984 2114.03 265.296 2124.76 268.906 2125.89C264.754 2112.55 258.372 2094.78 252.717 2078.26C248.882 2064.8 243.916 2051.7 237.872 2039.08C235.901 2043.29 242.269 2062.41 248.748 2081.54C240.604 2062.92 233.484 2043.87 227.421 2024.48L218.552 1993.02L214.296 1977.19L210.77 1961.38C206.153 1940.39 201.381 1920.47 197.933 1902.63C194.829 1887.61 190.805 1872.79 185.885 1858.26C186.243 1867.64 187.342 1876.92 188.441 1886.2L191.706 1914.38C188.608 1898.21 186.622 1883.39 184.987 1870.23C183.351 1857.07 183.845 1844.61 183.613 1833.9C182.641 1812.47 183.521 1796.5 179.208 1786.08L187.162 1811.09C189.777 1819.22 193.162 1827.53 196.112 1835.69C194.39 1827.65 192.71 1819.15 191.193 1810.74L187.709 1784.29C186.498 1774.99 185.469 1766.17 184.755 1756.98L183.143 1729.19C182.713 1719.97 182 1710.78 181.844 1701.65L181.559 1674.71C181.372 1665.91 181.337 1657.29 180.925 1649.09L181.403 1624.81C179.71 1624.26 178.476 1629.61 177.791 1638.1C177.403 1642.23 176.952 1647.03 176.754 1652.13L176.807 1668.35C177.046 1690.39 178.058 1711.99 177.649 1709.76C175.749 1700.01 174.591 1690.16 173.047 1680.22L174.991 1651.12L177.266 1633.49C178.551 1624.6 179.325 1620.56 180.211 1615.92C181.098 1611.27 182.119 1605.79 183.37 1594.88C184.62 1583.96 187.809 1566.19 192.919 1537.56L188.519 1535.85C192.201 1523.41 194.81 1510.68 196.315 1497.79C198.632 1483.31 201.793 1468.24 203.902 1455.38C205.172 1445.95 207.289 1436.65 210.226 1427.6C212.057 1423.1 213.241 1424.28 213.748 1434.46C210.227 1444.37 207.304 1454.52 204.047 1464.62L210.039 1463.16C218.369 1419.26 229.248 1375.88 242.621 1333.24C242.022 1346.81 263.508 1285.88 262.591 1304.04C266.466 1287.96 271.76 1272.36 276.678 1256.55C284.865 1247.91 277.766 1269.54 269.979 1294.31C262.191 1319.09 254.353 1347.4 256.778 1350.95C258.88 1350.75 261.211 1345.12 264.103 1338.3C266.996 1331.47 269.608 1323.44 271.4 1318.15C256.666 1374.93 235.657 1398.4 221.734 1455.53L220.429 1485.02L213.952 1482.05C212.207 1492.89 211.44 1503.86 211.662 1514.83C211.62 1521.99 212.077 1529.14 213.029 1536.24C208.446 1550.36 205.288 1564.91 203.603 1579.66C201.435 1595.53 200.309 1611.52 200.233 1627.54C200.066 1635.91 199.756 1644.61 199.709 1653.5L200.226 1680.97C200.462 1690.45 200.108 1700.21 200.504 1710.38C200.9 1720.55 200.911 1730.63 201.162 1741.75C198.183 1705.72 196.82 1717.24 196.032 1736.42C195.244 1755.6 195.895 1782.24 194.554 1776.15C195.154 1785.94 196.96 1799.68 199.361 1814.88L208.757 1863.51C212.26 1880.16 216.323 1896.25 218.746 1910.61C221.272 1922.24 222.835 1934.07 223.422 1945.96C225.382 1969.45 207.534 1899.31 218.567 1953.89C220.632 1962.47 223.003 1970.8 225.246 1977.49C227.49 1984.17 229.859 1989.52 231.453 1992.93C235.105 2000.2 236.71 1999.9 235.1 1988.27C259.584 2072.47 292.749 2153.91 334.059 2231.26L320.456 2214.84C323.127 2221.17 326.032 2227.41 329.008 2233.49C331.984 2239.57 335.55 2245.36 338.902 2251.03C345.72 2262.37 352.6 2273.03 359.392 2282.85C371.251 2298.62 384.009 2313.69 397.603 2327.99C400.475 2335.18 404.161 2337.89 396.889 2332.59C404.382 2345.74 412.836 2358.31 422.182 2370.21C430.779 2380.59 440.03 2389.4 449.957 2399.39C459.884 2409.39 471.363 2419.65 484.975 2432.97C498.587 2446.3 514.851 2461.96 534.592 2482.56C534.576 2477.94 525.749 2466.42 513.477 2453.21C507.274 2446.72 500.536 2439.33 493.788 2432.05C487.04 2424.78 479.925 2417.8 473.356 2411.61L485.327 2413.64C420.108 2340.74 360.47 2247.99 321.599 2178.69L343.281 2208.59C339.397 2196.66 334.494 2185.09 328.626 2174C325.525 2167.81 321.878 2161.91 317.727 2156.37C313.756 2150.98 310.3 2145.22 307.405 2139.19C305.347 2134.75 303.537 2130.2 301.985 2125.56C300.418 2120.06 298.733 2113.43 297.112 2105.51C277.134 2062.25 306.411 2138.98 290.186 2106.72C284.835 2090.56 288.689 2091.49 291.211 2089.81C292.432 2088.8 293.714 2087.74 292.815 2082.92C291.049 2074.41 288.714 2066.03 285.825 2057.83C343.442 2214.59 436.052 2356.15 556.609 2471.73C597.025 2510 640.335 2545.09 686.154 2576.68C690.433 2577.87 680.731 2570.88 672.083 2564.05C680.372 2568.71 695.559 2577.85 715.139 2591.17C734.719 2604.5 760.677 2620.05 790.307 2636.06C858.195 2674.1 929.935 2704.8 1004.32 2727.66C1075.56 2749.6 1149.07 2763.31 1223.43 2768.51L1245.2 2769.93C1252.2 2770.31 1258.92 2770.1 1265.16 2770.18C1277.73 2770.06 1288.83 2769.92 1298.16 2769.5C1316.82 2768.05 1328.4 2765.87 1330.62 2763.21C1341.7 2765.77 1306.34 2769.93 1352.78 2768.21C1356.94 2766.52 1368.62 2763.85 1357.72 2761.75C1416.46 2763.95 1485.18 2754.07 1554.25 2736.18C1624.01 2717.24 1692.3 2693.23 1758.56 2664.33C1756.45 2663.4 1762.43 2659.68 1768.49 2655.07C1773.08 2652.38 1777.2 2648.96 1780.7 2644.96C1793.76 2640.56 1806.42 2635.06 1818.56 2628.53C1831.87 2621.11 1845.93 2612.86 1859.99 2603.99C1874.05 2595.12 1886.59 2585.77 1899.06 2577.59C1911.54 2569.42 1922.29 2561.14 1932.12 2555.36L1918.08 2560.91C1956.56 2533.21 1993.11 2502.94 2027.48 2470.29C2028.47 2468.25 2025.59 2470.73 2021.29 2474.5C2017 2478.26 2010.97 2483.04 2006.58 2486.68C2012.23 2481.08 2016.67 2476.99 2020.57 2473.75C2023.47 2471.01 2026.55 2468.46 2029.79 2466.12C2032.75 2463.8 2036.39 2462.52 2040.15 2462.48L2059.8 2437.35L2078.18 2411.32C2082.38 2407.33 2086.58 2403.33 2090.8 2399.22C2095.01 2395.11 2098.86 2390.69 2102.99 2386.35C2111.02 2377.53 2119.13 2368.55 2127.19 2359.4C2142.22 2340.26 2158.34 2320.83 2172.29 2299.4C2186.24 2277.96 2199.97 2255.88 2213.45 2233.39C2225.67 2209.99 2238.45 2186.65 2249.16 2161.92C2294.31 2064.2 2322.93 1956.71 2342.9 1852.57C2341.89 1836.32 2341.16 1821.38 2341.73 1803.93C2342.1 1795.18 2341.75 1785.69 2342.18 1775.15C2342.6 1764.6 2343.36 1752.96 2343.5 1739.46C2342.91 1748.19 2341.31 1756.82 2340.11 1765.44C2339.5 1738.35 2339.51 1737.62 2340.84 1737.86C2342.17 1738.1 2343.5 1739.46 2342.63 1716.41C2339.19 1685.29 2333.23 1706.8 2335.74 1748.98C2331.59 1775.16 2330.99 1758.78 2330.05 1740C2333.14 1659.67 2328.26 1579.23 2315.5 1499.86C2303.85 1427.86 2286.51 1356.9 2263.65 1287.64Z" fill="#FFB200"/>
<path d="M2154.47 1136.19C2150.81 1127.79 2161.1 1142.33 2170.19 1154.04C2179.28 1165.76 2185.65 1175.2 2177.35 1154.49C2146.34 1091.45 2090.05 1016.92 2021.79 950.038C1987.18 916.944 1950.63 885.933 1912.34 857.167C1874.42 829.284 1836.83 803.29 1800.88 781.503C1791.68 775.122 1784.13 769.741 1777.27 765.437L1758.45 754.267C1746.59 747.411 1735.22 740.881 1716.97 731.905C1715.93 732.765 1715.02 733.523 1716.5 735.69C1706 731.213 1694.04 725.473 1680.7 720.673L1639.33 705.528C1625.19 700.878 1610.99 696.167 1597.2 691.944C1583.41 687.722 1571.03 684.082 1560.19 680.192C1547.27 678.134 1536.91 680.539 1561.18 685.859C1544.25 682.073 1528.38 678.951 1513.77 675.101L1492.64 669.233L1472.91 664.17C1460.08 661.107 1448.4 657.195 1437.19 655.467C1426.78 653.471 1416.24 652.293 1405.65 651.942C1438.86 659.227 1371.8 652.704 1411.52 660.151C1393.56 657.844 1380.42 656.272 1370.05 653.948C1361.41 651.974 1352.95 649.315 1344.73 645.996C1326.72 638.78 1307.57 634.809 1288.18 634.267C1284.71 635.8 1281.2 637.271 1292.95 637.418C1273.8 635.863 1254.57 635.562 1235.38 636.516C1224.72 637.316 1213.72 638.197 1202.76 639.139C1197.31 639.64 1191.87 640.03 1186.52 640.653L1170.66 642.88C1160.34 644.219 1150.42 645.54 1141.19 646.7C1131.96 647.86 1123.88 649.409 1116.71 650.2C1102.38 651.781 1092.77 652.118 1090.39 649.36C1082.46 652.219 1074.31 656.296 1066.26 659.875C1038.14 662.582 1043.96 656.936 998.29 668.411C969.343 678.698 1000.77 672.53 990.519 677.422C983.468 676.366 960.843 683.474 935.121 691.193C922.169 694.818 909.05 700.23 896.473 704.059C883.896 707.889 871.786 711.537 862.898 713.856C861.584 712.268 865.03 710.34 871.381 708.065C877.731 705.79 887.278 703.646 897.832 700.978C908.386 698.309 919.977 694.781 931.253 691.618C941.675 688.863 951.752 684.937 961.29 679.913C961.915 678.057 956.663 679.422 949.359 681.664C993.265 667.196 1038.31 656.435 1084.01 649.493C1125.61 643.544 1167.53 640.204 1209.54 639.494C1288.17 639.131 1366.74 643.446 1444.85 652.414C1459.48 657.284 1474.68 660.262 1490.07 661.278C1500.68 662.236 1511.35 662.183 1521.95 661.119C1515.11 659.068 1505.06 655.76 1493.67 652.945C1482.28 650.13 1469.45 647.687 1457.49 645.55C1447.02 643.528 1436.4 642.474 1425.75 642.4C1417.24 642.446 1411.78 643.678 1410.87 646.183C1394.75 641.516 1378.42 638.575 1362.14 635.076C1343.3 634.208 1344.23 623.147 1336.02 621.194C1351.22 622.568 1366.53 621.866 1381.54 619.107C1390.02 616.92 1388.87 613.039 1364.68 609.191C1412.01 611.778 1403.7 617.529 1394.31 622.22C1389.57 624.703 1384.67 627.114 1386.01 629.098C1387.34 631.081 1394.79 632.118 1415.47 634.341L1428.41 627.843C1420.35 629.169 1434.06 632.428 1452.89 636.28C1471.73 640.132 1495.88 644.426 1509.11 646.231C1505.57 644.942 1502.15 643.551 1498.6 642.374C1556.19 654.654 1612.83 671.036 1668.08 691.394C1728.28 713.619 1786.48 740.933 1842.04 773.039C1954.15 837.619 2053.78 921.781 2136.18 1021.53C2139.23 1029.44 2143.04 1037.04 2147.56 1044.22C2152.27 1052.68 2157.42 1060.88 2162.99 1068.81L2200.64 1121.1C2203.83 1125.56 2207.24 1129.94 2210.25 1134.44L2218.96 1147.82C2224.7 1156.86 2230.23 1165.76 2235.28 1174.35C2244.02 1189.43 2250.55 1205.68 2254.67 1222.61C2269.27 1245.21 2243.63 1185.54 2268.98 1230.32C2280.85 1253.22 2277.07 1257.48 2275.25 1257.03L2286.43 1277.73C2281.32 1290.2 2270.38 1287.32 2250.79 1264.53C2246.04 1258.79 2240.37 1251.96 2234.57 1243.59C2228.77 1235.21 2221.13 1226.11 2213.47 1215.26L2201.41 1198.08L2187.15 1179L2171.95 1158.04L2154.47 1136.19Z" fill="#FFB200"/>
</svg>
