<svg width="483" height="10" viewBox="0 0 483 10" fill="none" xmlns="http://www.w3.org/2000/svg">
<g clip-path="url(#clip0)">
<path d="M15.2448 8.27309C15.7287 8.27309 16.2127 8.27309 16.6967 8.27309C15.7287 8.19277 14.5188 8.19277 12.8249 8.15261C16.6967 8.15261 20.8104 8.19277 24.9241 8.23293C27.102 8.27309 29.0379 8.31325 31.2157 8.35341C33.3936 8.39357 35.5714 8.43374 37.5073 8.4739C45.9767 8.6747 54.2042 8.91566 60.4958 9.19679C65.0935 9.23695 69.2072 9.35743 69.6912 9.51807C70.1751 9.67871 66.5454 9.7992 61.9477 9.7992C60.9797 9.7992 59.7698 9.7992 59.0439 9.7992C52.0263 9.95984 43.7989 10 34.6035 10C36.2974 9.95984 38.2332 9.95984 39.9271 9.91968C37.2653 9.91968 34.6035 9.91968 31.6997 9.87952C31.9417 9.83936 32.4256 9.83936 32.6676 9.7992C30.4898 9.83936 27.8279 9.7992 25.4081 9.75904C22.9883 9.71888 20.3264 9.67871 17.9066 9.59839C13.0669 9.47791 8.46921 9.27711 5.56541 9.07631C-0.484192 8.63454 2.17763 8.27309 11.373 8.31325L15.2448 8.27309Z" fill="#6237B6"/>
<path d="M32.4258 7.75226C27.1022 7.75226 22.0205 7.75226 16.6968 7.7121L15.7289 7.75226L16.2129 7.5113C18.6327 7.7121 21.7785 7.83258 25.1663 7.99322C26.8602 8.07355 28.5541 8.11371 30.4899 8.19403C32.4258 8.23419 34.1197 8.27435 36.0556 8.31451L38.7174 8.39483C39.9273 8.43499 40.6533 8.51531 40.8952 8.55547C41.3792 8.67595 39.2014 8.75628 35.8136 8.71612L31.9418 8.67595C22.2625 8.59563 7.25947 8.27435 2.41979 7.75226C0.967889 7.59162 2.17781 7.5113 2.41979 7.39081C2.17781 7.23017 6.04955 7.19001 10.6472 7.31049C15.4869 7.39081 19.3587 7.59162 19.6007 7.75226C20.3266 7.75226 21.2945 7.75226 22.0205 7.79242C21.2945 7.75226 20.8106 7.7121 20.0846 7.67194C21.2945 7.83258 25.6503 7.95306 28.796 8.11371C30.4899 8.15387 31.9418 8.19403 33.6357 8.23419L30.7319 8.55547L28.3121 8.43499C28.5541 8.43499 28.796 8.39483 28.796 8.39483C23.9564 8.23419 19.6007 8.03338 14.519 7.83258L7.98542 7.55146C6.29154 7.47114 6.53352 7.35065 8.46939 7.35065H11.3732C10.8892 7.35065 10.4053 7.35065 9.9213 7.35065C16.9388 7.43097 23.9564 7.5113 30.7319 7.59162C31.6999 7.59162 33.1518 7.63178 33.6357 7.67194C33.8777 7.7121 33.3937 7.75226 32.4258 7.75226Z" fill="#6237B6"/>
<path d="M8.95337 7.1875C7.74345 7.1875 6.77551 7.1875 5.08162 7.14734C4.83964 7.10718 4.59766 7.10718 4.59766 7.10718C5.08162 7.10718 6.04956 7.10718 6.77551 7.10718C8.22742 7.06702 8.95337 7.10718 8.95337 7.1875Z" fill="#6237B6"/>
<path d="M4.59806 7.10938C4.11409 7.10938 3.63013 7.10938 3.63013 7.10938C3.87211 7.10938 4.11409 7.10937 4.35608 7.06921C4.35608 7.06921 4.35608 7.06921 4.59806 7.10938C4.35608 7.06921 4.35608 7.06921 4.59806 7.10938Z" fill="#6237B6"/>
<path d="M294.01 6.7478C303.932 6.547 314.095 6.46668 324.016 6.30604C329.098 6.22572 333.938 6.18555 339.02 6.14539L354.023 6.02491C354.748 6.02491 355.232 6.02491 355.232 6.06507C355.232 6.06507 354.748 6.10523 354.023 6.10523C348.941 6.14539 344.101 6.18556 339.02 6.22572C334.18 6.26588 329.098 6.30604 324.258 6.38636C314.337 6.547 304.416 6.62732 294.252 6.82812C293.526 6.82812 293.043 6.82812 292.801 6.82812C292.801 6.78796 293.285 6.7478 294.01 6.7478Z" fill="#6237B6"/>
<path d="M444.04 4.495C443.556 4.45484 443.556 4.45483 444.04 4.45483C444.524 4.45483 445.25 4.45484 445.734 4.495C446.218 4.53516 445.976 4.53516 445.734 4.53516C445.25 4.53516 444.524 4.53516 444.04 4.495Z" fill="#6237B6"/>
<path d="M440.895 2.64938C437.991 2.56906 435.329 2.48874 432.909 2.40842C432.425 2.40842 431.941 2.36826 431.457 2.40842C431.699 2.36826 431.215 2.32809 430.005 2.28793C427.344 2.20761 424.924 2.12729 422.262 2.04697C419.6 1.96665 416.938 1.92649 414.519 1.88633C409.195 1.80601 403.871 1.68552 398.548 1.6052C395.886 1.56504 393.224 1.52488 390.32 1.48472C387.658 1.44456 384.996 1.44456 382.093 1.4044C376.527 1.36424 371.203 1.32408 365.638 1.28392C365.396 1.24376 365.154 1.24376 364.67 1.2036C363.218 1.12328 360.072 1.04295 356.926 1.08311L354.507 1.12328C345.069 1.24376 335.39 1.32408 325.952 1.44456C324.017 1.4044 321.839 1.4044 319.419 1.44456C311.191 1.4044 302.964 1.36424 294.494 1.4044C294.978 1.36424 295.22 1.32408 295.22 1.32408C294.978 1.24376 293.043 1.2036 290.865 1.24376L287.477 1.28392C290.623 1.2036 294.011 1.16344 297.156 1.08311C297.64 1.08311 298.124 1.08312 298.366 1.04295C301.996 1.00279 305.626 0.962633 309.256 0.922472C317.241 0.882312 325.226 0.801991 333.212 0.801991C341.197 0.801991 348.941 0.801991 356.684 0.842152C364.428 0.882312 372.171 0.962633 379.673 1.04295C383.545 1.08312 387.174 1.12328 391.046 1.16344L402.419 1.36424C402.903 1.36424 403.629 1.4044 404.113 1.36424C404.355 1.36424 404.355 1.32408 403.871 1.32408C399.032 1.2036 394.434 1.04295 389.836 0.922472C385.238 0.801991 380.641 0.681509 376.043 0.601188C366.848 0.400384 357.168 0.15942 346.279 0.119259C339.745 0.0790987 333.454 0.0389385 326.92 -0.00122261C320.387 -0.00122261 314.095 -0.00122261 307.562 -0.00122261C294.736 -0.00122261 281.911 0.0790987 268.602 0.15942C255.051 0.360224 241.984 0.520866 228.917 0.641348C222.383 0.721669 215.85 0.76183 209.316 0.842152C202.783 0.882312 196.007 0.962633 189.231 1.00279C152.45 1.32408 118.088 1.6052 83.0005 1.44456C76.4669 1.36424 70.1753 1.4044 65.3357 1.52488C60.496 1.64536 56.8662 1.76585 56.1403 1.96665C54.9304 2.24777 57.8342 2.5289 63.1578 2.81002C62.1899 2.81002 60.98 2.76986 60.012 2.76986H54.9304C50.0907 2.76986 45.977 2.81002 43.3151 2.9305L39.6854 3.09115C34.6037 3.41243 26.6182 3.53291 22.5045 3.8542L23.2305 4.01484L22.2625 4.055C19.1167 4.09516 16.9389 4.17548 15.9709 4.29597L16.9389 4.45661C17.4228 4.65741 18.8747 4.89838 21.0526 5.13934C20.8106 5.21966 21.0526 5.29998 21.7786 5.3803C19.6007 5.50078 18.3908 5.66143 19.8427 5.94255C18.3908 5.98271 18.6328 6.06303 20.0847 6.14336C20.5686 6.18352 21.2946 6.18352 21.7786 6.22368C21.2946 6.22368 21.2946 6.22368 20.0847 6.22368C18.8748 6.22368 17.9068 6.18352 17.9068 6.18352C14.761 6.18352 14.761 6.18352 11.6152 6.14336C8.95341 6.14336 7.25952 6.18352 7.25952 6.18352C4.11373 6.42448 4.11373 6.42448 4.35571 6.58512C4.5977 6.58512 4.5977 6.62528 4.83968 6.62528C2.41984 6.62528 2.41984 6.62528 1.69389 6.62528C0.967936 6.62528 0.483968 6.66544 0.483968 6.66544C0.483968 6.7056 0.483968 6.7056 0.241984 6.74576C0 6.74576 0 6.78593 0 6.78593C1.20992 6.90641 1.20992 6.90641 1.20992 6.90641C1.4519 6.94657 1.93587 6.94657 1.93587 6.94657C3.38778 6.98673 4.11373 7.02689 4.35571 7.02689C7.74349 6.90641 7.74349 6.90641 7.74349 6.90641C8.46944 6.98673 8.46944 6.98673 8.46944 6.98673C9.19539 6.90641 9.19539 6.90641 9.19539 6.90641C8.71142 7.02689 8.71142 7.02689 8.71142 7.02689C10.4053 7.02689 10.4053 7.02689 10.4053 7.02689C8.46944 7.06705 8.46944 7.06705 8.46944 7.06705C12.3412 7.14737 12.3412 7.14737 13.7931 7.14737C15.487 7.18753 16.6969 7.22769 16.9389 7.22769C16.6969 7.26785 16.6969 7.26785 16.6969 7.26785C20.8106 7.34817 20.8106 7.34817 24.9243 7.38833C25.4083 7.38833 25.6503 7.38833 25.8923 7.34817C26.3763 7.38833 27.1022 7.4285 27.8282 7.4285L30.006 7.46866C30.248 7.46866 30.248 7.46866 30.49 7.50882C31.2159 7.54898 31.6999 7.54898 32.1839 7.58914C32.4258 7.58914 32.6678 7.58914 32.6678 7.58914C33.8778 7.6293 35.5716 7.70962 40.4113 7.87026C41.6212 7.87026 42.8312 7.87026 44.0411 7.87026C43.7991 7.87026 43.3151 7.87026 43.0731 7.91042C42.3472 7.91042 43.0731 7.99074 42.5892 7.99074C38.2335 7.99074 33.3938 8.03091 28.7961 7.95058C23.9564 7.87026 19.1167 7.8301 14.519 7.74978C12.8252 7.70962 11.1313 7.70962 10.8893 7.74978C10.1633 7.78994 11.1313 7.87026 13.0671 7.91042C17.9068 8.11123 22.9885 8.31203 28.0701 8.47267C33.3938 8.63331 38.7174 8.71364 44.2831 8.79396C49.8487 8.87428 55.1723 8.91444 60.496 8.9546C65.8196 8.9546 71.1433 8.91444 76.2249 8.87428C81.5486 8.87428 86.8722 8.87428 91.9539 8.87428L91.228 8.91444C92.6799 8.91444 93.8898 8.87428 95.3417 8.87428H95.8256C94.8577 8.91444 93.6478 8.9546 92.6799 8.99476C91.9539 8.99476 91.228 8.99476 90.502 9.03492C84.4524 9.03492 78.4028 9.07508 72.5952 9.11524C66.7876 9.1554 60.98 9.23572 54.9304 9.19556C48.3968 9.19556 42.8312 9.23572 36.7816 9.23572C35.3297 9.23572 34.1197 9.23572 34.3617 9.31605C34.6037 9.35621 36.0556 9.43653 37.5075 9.43653C42.5892 9.51685 47.9128 9.59717 52.9945 9.67749C55.6563 9.71765 58.3181 9.75781 60.98 9.75781C63.6418 9.75781 66.3036 9.75781 68.7234 9.75781C73.8051 9.75781 78.8868 9.71765 83.7264 9.67749C88.5661 9.63733 92.9218 9.59717 97.0356 9.43653C100.665 9.43653 104.295 9.39637 107.199 9.31605H107.441C106.715 9.35621 105.989 9.39637 105.263 9.43653C107.925 9.39637 109.377 9.31605 112.039 9.27588L111.071 9.43653C114.458 9.39637 117.846 9.39637 121.476 9.35621C124.864 9.35621 128.493 9.27588 131.881 9.27588C138.657 9.19556 145.432 9.11524 151.724 8.9546C152.208 8.9546 152.692 8.9546 153.176 8.91444C158.499 8.9546 163.823 8.99476 170.357 8.9546C168.179 8.99476 166.243 9.03492 164.065 9.07508C168.663 9.07508 173.261 9.07508 178.1 8.99476C191.409 8.83412 205.928 8.35219 212.704 7.91042C238.112 7.58914 263.521 7.18753 288.445 6.94657C289.655 6.94657 290.865 6.90641 291.107 6.82609C291.107 6.78593 290.381 6.74576 288.929 6.74576C270.78 6.82609 252.631 7.02689 233.998 7.26785C249.243 6.94657 264.73 6.62528 280.459 6.42448C282.395 6.38432 284.573 6.38432 286.509 6.34416C288.445 6.304 290.381 6.304 292.317 6.22368C312.401 5.98271 331.276 5.74175 351.603 5.78191C360.314 5.74175 368.3 5.82207 376.527 5.90239C380.641 5.94255 384.513 5.94255 388.626 5.98271C392.74 6.02287 396.854 6.10319 401.209 6.18352C407.259 6.26384 413.067 6.38432 418.874 6.46464C424.682 6.58512 430.247 6.7056 435.813 6.86625L444.283 7.06705C447.186 7.10721 449.848 7.18753 452.752 7.26785C458.318 7.4285 464.125 7.58914 469.933 7.74978C473.079 7.8301 475.982 7.8301 476.466 7.74978C476.95 7.66946 474.773 7.50882 471.627 7.38833C465.577 7.18753 459.528 6.98673 453.478 6.78593C450.574 6.66544 447.428 6.62528 444.283 6.54496L435.087 6.34416L425.892 6.14336C422.746 6.06303 419.842 5.98271 416.696 5.94255C410.405 5.86223 404.355 5.78191 398.064 5.70159C394.918 5.66143 391.772 5.62127 388.626 5.58111C385.48 5.58111 382.335 5.54095 379.189 5.54095C372.897 5.50078 366.606 5.50078 360.314 5.46062C354.023 5.46062 347.489 5.50078 340.955 5.54095C337.81 5.54095 334.422 5.58111 331.276 5.58111C328.13 5.62127 324.742 5.66143 321.355 5.70159C315.789 5.78191 310.223 5.82207 304.658 5.90239C304.658 5.90239 304.9 5.86223 304.658 5.86223C304.658 5.78191 304.174 5.74175 303.206 5.70159C309.497 5.62127 315.789 5.54095 322.081 5.42046C339.745 5.42046 357.41 5.3803 376.285 5.3803C389.11 5.29998 400.725 5.29998 412.825 5.25982C420.326 5.29998 427.828 5.54095 435.329 5.66143C442.831 5.82207 450.332 5.94255 457.834 6.18352C458.318 6.22368 459.044 6.22368 459.286 6.18352C459.528 6.18352 459.286 6.14336 458.56 6.10319C455.898 6.02287 453.478 5.90239 450.816 5.82207C448.154 5.74175 445.492 5.66143 442.831 5.62127C437.507 5.50079 432.183 5.34014 426.86 5.21966C428.554 5.1795 429.764 5.09918 429.522 5.01886C429.522 4.89838 428.07 4.81805 426.134 4.69757L433.635 4.81805C435.087 4.85821 436.297 4.81805 436.297 4.77789C436.297 4.73773 435.087 4.65741 433.635 4.65741C428.554 4.57709 423.472 4.49677 418.632 4.45661L403.387 4.37629L394.192 4.25581C391.288 4.21564 388.142 4.17548 384.996 4.17548C378.947 4.13532 372.897 4.13532 366.848 4.09516C368.542 4.01484 369.751 3.93452 370.477 3.8542C372.413 3.8542 374.349 3.8542 376.043 3.8542C410.405 4.17548 445.492 4.73773 480.338 5.70159C481.064 5.70159 481.548 5.70159 481.548 5.70159C481.548 5.66143 481.064 5.66143 480.338 5.62127C469.691 5.3803 459.286 5.09918 448.638 4.81805C449.122 4.81805 449.122 4.77789 448.638 4.77789C448.154 4.73773 447.428 4.73773 446.944 4.73773C446.46 4.73773 446.46 4.77789 446.944 4.77789C437.023 4.57709 427.344 4.41645 417.422 4.21564C407.501 4.09516 397.822 3.97468 388.142 3.81404L415.245 4.01484C419.842 4.01484 424.198 4.13532 428.796 4.17548L442.347 4.37629C444.283 4.41645 446.218 4.49677 448.154 4.53693C448.638 4.53693 449.364 4.53693 449.606 4.53693C449.848 4.53693 449.364 4.49677 448.88 4.45661L447.186 4.41645C450.574 4.45661 453.236 4.45661 453.236 4.29597C453.236 4.17548 450.332 3.97468 446.702 3.93452C437.265 3.77388 427.828 3.57307 418.148 3.45259L415.003 3.41243L411.857 3.33211C419.358 3.33211 426.618 3.45259 434.119 3.53291L445.25 3.6534L450.816 3.73372L456.382 3.8542C457.592 3.89436 458.802 3.89436 458.802 3.8542C458.802 3.81404 457.834 3.73372 456.624 3.73372C450.332 3.49275 443.799 3.41243 437.265 3.25179C430.731 3.13131 424.198 2.97066 417.664 2.85018C411.131 2.76986 404.597 2.68954 397.822 2.60922C394.434 2.56906 391.288 2.5289 387.9 2.48874L377.979 2.44858C373.623 2.36826 369.268 2.24777 364.912 2.16745C362.734 2.12729 360.556 2.08713 358.378 2.00681C356.2 1.96665 354.023 1.92649 351.603 1.88633C352.813 1.88633 353.781 1.88633 354.99 1.84617C362.25 1.80601 369.268 1.88633 376.043 1.92649C382.819 1.96665 389.594 2.04697 396.128 2.16745C402.661 2.28793 409.195 2.40842 415.97 2.5289C419.358 2.56906 422.746 2.64938 425.892 2.7297C429.28 2.81002 432.667 2.89034 436.055 2.97066C436.781 2.97066 437.265 2.97066 437.507 2.97066C437.507 2.9305 437.023 2.9305 436.539 2.89034C433.151 2.81002 429.764 2.7297 426.618 2.64938C423.23 2.56906 420.084 2.48874 416.938 2.40842C410.405 2.28793 403.871 2.16745 397.096 2.04697C394.192 2.00681 391.53 1.96665 388.868 1.92649C386.206 1.88633 383.303 1.88633 380.641 1.84617C375.317 1.80601 369.993 1.72569 364.67 1.64536C385.964 1.68552 406.533 2.00681 427.586 2.36826C428.554 2.40842 429.522 2.40842 430.005 2.36826C430.005 2.36826 430.247 2.40842 430.489 2.40842C433.151 2.5289 436.055 2.60922 438.959 2.68954C439.443 2.68954 440.169 2.7297 440.653 2.68954C441.863 2.68954 441.379 2.68954 440.895 2.64938ZM73.0792 7.34817C72.8372 7.34817 72.5952 7.34817 72.5952 7.38833C73.0792 7.38833 73.8051 7.34817 74.5311 7.34817C74.5311 7.34817 74.5311 7.34817 77.1929 7.18753C76.9509 7.18753 75.015 7.26785 73.0792 7.34817ZM40.6533 6.34416C39.6854 6.38432 39.2014 6.42448 39.2014 6.42448C39.6854 6.42448 40.1693 6.38432 40.6533 6.34416ZM248.518 6.78593C237.386 6.94657 226.497 7.18753 215.608 7.4285C218.27 7.38833 220.931 7.34817 223.593 7.34817C232.063 7.14737 240.29 6.94657 248.518 6.78593ZM50.8166 7.8301C53.7204 7.78994 56.1403 7.70962 58.3181 7.6293C60.254 7.66946 62.1899 7.70962 64.3677 7.70962C69.9334 7.70962 75.257 7.74978 80.5807 7.70962C79.8547 7.74978 81.0646 7.74978 81.7906 7.78994C82.5165 7.78994 83.2425 7.78994 83.7264 7.8301C77.9188 7.8301 72.3532 7.87026 66.5456 7.87026C61.4639 7.91042 55.8983 7.78994 50.8166 7.8301ZM11.3732 6.86625C11.1313 6.86625 11.1313 6.86625 10.8893 6.86625C10.8893 6.86625 10.8893 6.86625 11.8572 6.98673C11.8572 6.98673 11.6152 6.90641 11.3732 6.86625ZM9.67936 6.66544C9.92134 6.66544 10.1633 6.66544 10.4053 6.66544C10.4053 6.62528 9.92134 6.62528 9.67936 6.66544ZM17.1809 6.7056C16.6969 6.7056 16.4549 6.74576 15.9709 6.74576C17.1809 6.7056 17.1809 6.7056 17.1809 6.7056ZM24.6824 4.13532L27.1022 4.65741L24.4404 4.13532H24.6824Z" fill="#6237B6"/>
</g>
<defs>
<clipPath id="clip0">
<rect width="483" height="10" fill="white" transform="matrix(1 0 0 -1 0 10)"/>
</clipPath>
</defs>
</svg>
