<svg width="50" height="29" viewBox="0 0 50 29" fill="none" xmlns="http://www.w3.org/2000/svg">
<g clip-path="url(#clip0)">
<path d="M48.5467 8.51532L47.9002 8.40204C43.9396 7.8871 40.0036 8.17289 35.6161 7.82016C32.5438 7.44684 29.0422 7.69658 25.9774 7.71203C33.2496 8.05961 40.8772 7.78154 47.9002 9.0457C47.1743 9.62287 46.2973 9.95601 45.3856 10.0009C43.015 9.86359 40.6724 9.7709 38.3577 9.72284C38.3577 9.51172 38.3577 9.09977 38.3453 8.89122C31.7715 9.6353 25.622 8.00811 19.0506 9.056C19.2974 9.16929 19.1469 9.33922 19.0975 9.47567C19.0531 9.59411 19.0802 9.6868 19.4899 9.6868C19.0802 9.6868 19.0531 9.59411 19.0975 9.47567C25.5702 9.27227 31.6209 9.42418 38.0986 9.71769C28.0551 9.49885 18.3794 9.94426 8.08674 9.83355L6.33222 9.81295C4.64079 9.20606 2.86474 8.89548 1.07608 8.8938C1.52766 7.86393 -0.187368 5.72696 3.29699 6.20327V5.36651C-0.167627 4.25683 -1.41627 1.28824 2.08042 0.515838C6.00649 -0.256562 11.2108 0.641996 16.008 0.237774C19.4948 0.0420993 22.9693 -0.174173 26.4512 0.222326C31.2434 0.822223 36.465 0.544159 41.2695 1.28824C43.0167 1.46331 46.0494 0.773304 46.9452 1.36805C47.5794 1.65127 47.6164 2.09668 47.5325 2.59874C44.6626 2.59874 41.805 2.64251 38.9771 2.59874C35.5051 2.42624 32.0355 2.21512 28.5684 1.82634C31.9615 2.37475 35.4434 2.54725 38.9771 2.59874L47.4511 3.00039C47.3598 3.43036 47.2709 3.87835 47.4511 4.28772L48.7589 4.25168C50.5332 5.25322 50.1384 6.73365 49.2895 7.80471C49.0649 8.02099 48.8206 8.26558 48.5467 8.51532Z" fill="#5F6AD8"/>
</g>
<g clip-path="url(#clip1)">
<path d="M1.45329 27.1087L2.09982 26.9947C6.06044 26.4765 9.99638 26.7641 14.3839 26.4091C17.4562 26.0334 20.9578 26.2847 24.0226 26.3003C16.7504 26.6501 9.12282 26.3702 2.09982 27.6424C2.82573 28.2233 3.70273 28.5586 4.61438 28.6037C6.98499 28.4655 9.32764 28.3723 11.6423 28.3239C11.6423 28.1114 11.6423 27.6969 11.6547 27.487C18.2285 28.2358 24.378 26.5982 30.9494 27.6528C30.7026 27.7668 30.8531 27.9378 30.9025 28.0752C30.9469 28.1943 30.9198 28.2876 30.5101 28.2876C30.9198 28.2876 30.9469 28.1943 30.9025 28.0752C24.4298 27.8705 18.3791 28.0233 11.9014 28.3187C21.9449 28.0985 31.6206 28.5467 41.9133 28.4353L43.6678 28.4146C45.3592 27.8038 47.1353 27.4913 48.9239 27.4896C48.4723 26.4531 50.1874 24.3025 46.703 24.7819V23.9398C50.1676 22.823 51.4163 19.8355 47.9196 19.0582C43.9935 18.2809 38.7892 19.1852 33.992 18.7784C30.5052 18.5814 27.0307 18.3638 23.5488 18.7628C18.7566 19.3665 13.535 19.0867 8.73046 19.8355C6.98335 20.0117 3.95058 19.3173 3.05481 19.9158C2.42062 20.2009 2.38361 20.6491 2.46751 21.1544C5.33741 21.1544 8.19498 21.1984 11.0229 21.1544C14.4949 20.9808 17.9645 20.7683 21.4316 20.3771C18.0385 20.929 14.5566 21.1026 11.0229 21.1544L2.54894 21.5586C2.64024 21.9913 2.72908 22.4421 2.54894 22.8541L1.24107 22.8179C-0.533184 23.8258 -0.138359 25.3157 0.710522 26.3935C0.935081 26.6112 1.17938 26.8574 1.45329 27.1087Z" fill="#5F6AD8"/>
</g>
<defs>
<clipPath id="clip0">
<rect width="50" height="10" fill="white"/>
</clipPath>
<clipPath id="clip1">
<rect width="50" height="10.0638" fill="white" transform="matrix(-1 0 0 1 50 18.5391)"/>
</clipPath>
</defs>
</svg>
