<svg width="752" height="26" viewBox="0 0 752 26" fill="none" xmlns="http://www.w3.org/2000/svg">
<path d="M337.388 7.39045C340.841 6.69609 348.816 6.51881 348.54 7.8041C348.816 6.51881 348.816 6.51881 354.202 5.67672C354.202 6.53359 358.829 6.37108 361.867 6.3563C359.416 5.70627 355.963 5.54376 349.127 5.21875C342.671 6.99156 329.896 3.93345 323.82 5.86878C327.997 6.37108 332.071 7.75978 337.388 7.39045Z" fill="white"/>
<path d="M365.112 13.475L366.079 12.9727L355.1 13.6079C357.344 13.2977 364.802 12.8545 365.112 13.475Z" fill="white"/>
<path d="M400.502 12.6066C399.466 13.5373 404.955 14.1578 404.783 15.0146C404.783 13.1236 413.518 14.7487 418.317 14.5714L420.354 13.0941C415.762 11.9861 404.023 12.2963 394.114 12.0156L400.502 12.6066Z" fill="#FFB200"/>
<path d="M409.306 13.8152L412.517 12.9141C409.858 13.1357 403.954 13.18 409.306 13.8152Z" fill="white"/>
<path d="M402.953 8.60459C395.219 8.36821 407.58 9.29894 399.742 9.49099C402.401 9.28417 405.439 9.25462 402.953 8.60459Z" fill="white"/>
<path d="M435.235 11.9102L418.697 12.4125L425.464 13.1364L435.235 11.9102Z" fill="#FFB200"/>
<path d="M435.96 15.0237C433.785 15.0237 430.436 14.418 433.543 13.96C439.413 15.1714 443.176 13.6055 448.597 14.6248L443.314 15.068C443.97 16.2942 454.363 13.9305 453.983 16.0874C461.164 14.6101 448.666 14.1964 457.953 13.1327C450.447 13.3188 442.916 13.0904 435.546 12.4531C437.464 12.7932 439.452 13.0554 441.484 13.2361C436.271 13.2361 429.228 13.8123 423.151 13.8862C426.362 15.393 430.919 14.1668 435.96 15.0237Z" fill="#FFB200"/>
<path d="M462.303 15.6024C467.931 15.7649 476.562 15.8979 478.151 14.2728C472.281 13.0762 471.245 14.4353 468.483 15.0854C466.792 14.8047 461.164 14.6422 463.512 13.8001C464.306 14.1694 459.817 14.9672 462.303 15.6024Z" fill="#FFB200"/>
<path d="M484.331 16.0868L488.474 14.6094L485.85 14.831L485.574 13.7969C484.817 14.4273 483.645 14.9491 482.203 15.2982C480.762 15.6473 479.113 15.8085 477.46 15.7617C480.326 16.6334 481.362 15.7027 484.331 16.0868Z" fill="#FFB200"/>
<path d="M485.988 8.94141C489.751 9.68008 491.995 9.2812 496.346 8.94141C490.269 9.04482 481.638 8.94141 479.808 9.51757L480.291 9.26642C476.894 9.68683 473.599 10.2459 470.451 10.9358C476.735 9.946 487.714 11.5563 485.988 8.94141Z" fill="#FFB200"/>
<path d="M478.254 8.76567L482.708 7.95312L478.254 8.76567Z" fill="#FFB200"/>
<path d="M501.697 15.8717L493.135 15.3398L495.206 15.783L501.697 15.8717Z" fill="#FFB200"/>
<path d="M491.616 11.4348C498.521 11.686 487.922 10.2677 494.412 10.3416C496.173 10.1939 484.883 10.3416 484.331 10.9916C486.023 11.2723 490.96 10.2086 491.616 11.4348Z" fill="#FFB200"/>
<path d="M507.325 16.0146L514.403 14.9805L507.325 16.0146Z" fill="#FFB200"/>
<path d="M524.968 16.8244L526.383 16.071C533.288 16.7358 542.472 15.7164 547.409 17.4006C546.27 16.4403 550.31 15.4505 544.302 15.1255C543.335 15.6426 541.195 15.613 541.506 16.2187C538.951 16.0267 539.503 15.3323 537.811 15.0664C533.357 15.8789 526.521 15.2141 522.931 15.938C524.088 15.8469 525.282 15.8928 526.383 16.071C518.787 17.3563 517.614 14.0618 514.23 16.2631C516.923 15.613 521.342 17.1347 524.968 16.8244Z" fill="#FFB200"/>
<path d="M524.519 11.5719L518.477 11.2469C520.411 10.2275 525.866 11.2469 526.867 10.3014C526.522 9.6957 520.549 9.37069 522.758 8.95703C521.93 11.3651 514.507 9.0309 517.545 11.7492C509.708 12.0004 515.197 10.2719 506.945 10.2719L504.598 11.5276C513.782 11.0105 515.335 12.1481 524.519 11.5719Z" fill="#FFB200"/>
<path d="M547.79 12.0698L550.69 12.8676L549.136 11.73C562.601 11.6118 570.369 16.295 578.518 15.6598C588.703 14.1824 598.094 16.4871 608.452 16.2802C613.527 15.32 603.618 15.6893 603.1 15.0984C604.585 13.1926 608.003 16.1177 610.385 14.5517C611.076 13.1778 599.786 13.0744 595.366 12.1732C591.499 12.3653 591.568 12.7937 590.36 13.5619C589.393 12.7937 585.457 12.5426 584.491 11.7743C576.412 12.8232 572.234 10.7697 564.293 11.8925C561.842 10.8288 570.231 11.7152 567.746 11.5527H563.43L563.879 11.7152C557.975 12.7642 547.134 11.7152 543.37 10.9766C546.305 11.3607 548.342 12.2323 544.82 12.5426L541.989 11.3164L534.359 13.0448C540.021 11.8925 546.616 14.3006 547.79 12.0698Z" fill="#FFB200"/>
<path d="M539.503 9.82173C530.526 9.12737 540.504 11.6389 530.665 11.0184H541.022L539.503 9.82173Z" fill="#FFB200"/>
<path d="M582.488 13.0781L586.942 13.9202C584.56 12.2065 577.482 14.4668 582.488 13.0781Z" fill="white"/>
<path d="M598.957 13.1211L596.541 14.6723L600.753 13.8007L598.957 13.1211Z" fill="white"/>
<path d="M613.907 15.0676C617.359 14.2846 613.285 13.5903 609.418 13.7823C612.906 13.8562 614.563 14.5505 613.907 15.0676Z" fill="#FFB200"/>
<path d="M638.731 18.1602C631.17 18.1602 645.429 18.5738 639.974 19.9625C640.802 19.2977 644.669 18.4261 638.731 18.1602Z" fill="white"/>
<path d="M662.899 21.9378C660.137 22.2333 659.032 21.9378 658.687 21.5685C660.144 21.5204 661.604 21.6483 662.899 21.9378Z" fill="#FFB200"/>
<path d="M568.747 16.7812C567.862 16.8105 566.973 16.8105 566.088 16.7812H568.747Z" fill="#FFB200"/>
<path d="M626.543 20.393C626.335 20.3474 626.139 20.293 625.957 20.2305L626.543 20.393Z" fill="#FFB200"/>
<path d="M387.037 14.5078C385.888 14.5475 384.733 14.5475 383.584 14.5078H387.037Z" fill="#FFB200"/>
<path d="M383.239 12.28C389.523 11.3641 389.695 14.7324 399.811 14.1415C395.737 14.304 391.456 14.4222 387.106 14.496C381.374 12.8562 391.525 13.7278 383.239 12.28Z" fill="#FFB200"/>
<path d="M467.033 11.4066H467.379C468 11.318 467.689 11.3623 467.033 11.4066Z" fill="#FFB200"/>
<path d="M110.38 9.0623L110.276 9.49073L104.786 8.85547L110.38 9.0623Z" fill="white"/>
<path d="M111.07 9.85397L120.392 10.8438L64.5979 10.1199L66.4623 9.5585C65.5992 8.76074 112.624 10.5779 111.07 9.85397Z" fill="white"/>
<path d="M113.936 9.22084C119.529 7.53666 122.878 10.0334 129.645 8.89582C125.122 9.64927 121.877 10.5357 117.665 10.0038L113.936 9.22084Z" fill="white"/>
<path d="M141.28 1.05162C141.739 1.02967 142.203 1.02967 142.662 1.05162C142.169 1.11365 141.685 1.18764 141.211 1.27322L141.28 1.05162Z" fill="#FFB200"/>
<path d="M141.211 1.28906V1.90955C140.107 1.64363 140.417 1.48112 141.211 1.28906Z" fill="#FFB200"/>
<path d="M142.661 1.06529C143.864 0.929273 145.024 0.73082 146.114 0.474354L145.009 0.356167C146.77 0.223205 149.912 -0.219999 150.706 0.134565C147.253 -0.0279435 147.253 0.400487 146.977 1.25735L152.467 1.47895C151.189 3.50292 147.633 1.2869 142.661 1.06529Z" fill="#FFB200"/>
<path d="M168.763 2.37823C167.382 2.68847 161.858 2.46687 165.138 3.07258C164.119 3.2256 163.027 3.26625 161.962 3.19077C165.725 2.95439 162.272 1.47704 168.763 2.37823Z" fill="#FFB200"/>
<path d="M161.961 3.18987C161.421 3.20663 160.879 3.20663 160.339 3.18987C160.877 3.16067 161.423 3.16067 161.961 3.18987Z" fill="#FFB200"/>
<path d="M180.157 3.84232H182.298C181.723 3.8286 181.146 3.8286 180.571 3.84232H180.157Z" fill="#FFB200"/>
<path d="M0 11.6284C8.41549 12.3314 17.0364 12.466 25.5492 12.0273C25.5492 10.55 29.9686 11.6875 30.7281 10.1511C19.4381 10.1511 73.2642 9.94424 64.3219 9.14647L61.5944 9.78173L64.5291 8.30438C69.8806 8.77714 77.1656 10.1363 80.929 9.32375C81.8612 9.81128 34.8713 8.6294 36.5976 9.08738C32.5925 7.22592 99.7456 8.42257 101.541 7.66913L102.197 8.61463C110.656 7.77254 116.007 6.5168 123.223 5.98495L124.708 7.13728C119.598 6.6793 118.113 7.41798 112.796 7.81686C121.946 7.81686 123.534 8.49644 130.474 8.39303C130.474 6.91568 124.604 7.56571 133.408 6.91568C135.894 7.56571 129.956 9.07261 137.759 8.9101C147.184 9.47149 145.493 7.27024 153.744 7.29979L148.255 6.64976C151.293 6.64976 156.99 6.41338 159.821 7.25547C156.368 7.09296 147.564 7.75777 147.668 9.22034C151.12 8.95442 158.854 9.66354 161.892 9.64877L159.959 10.6386C163.17 11.658 165.241 10.2397 169.35 11.2C173.39 10.6829 167.106 9.72264 169.35 9.29421C172.858 9.97445 176.802 10.1255 180.536 9.72264C178.879 7.53616 171.318 10.2102 166.726 8.02369L173.977 8.54076C178.776 6.48725 162.307 8.34871 164.827 6.6793C170.455 4.5667 176.083 9.01351 181.331 6.29519C177.878 5.70426 167.209 5.45311 168.66 4.69966C172.388 5.57129 175.289 4.10872 180.571 3.91667L186.82 5.03945C189.582 4.41896 187.407 4.35987 185.37 3.88712C194.589 5.30537 210.609 4.13827 223.556 5.91108C231.393 5.74858 224.626 4.98035 228.251 4.30078C232.291 5.68948 239.438 4.72921 243.754 4.83262C245.031 4.95081 247.517 3.70984 246.309 3.16322L235.329 3.76893C235.916 3.08935 234.432 1.93702 230.53 2.01089C232.981 4.58147 215.304 0.193751 214.234 2.95639L214.51 1.6711L200.493 2.27681L200.872 2.46887C200.872 2.04043 188.995 3.13367 181.331 2.46887C183.575 2.08475 196.453 2.82343 188.995 1.25744C194.796 0.622182 204.912 1.98134 215.408 1.62678L213.44 0.755143C224.523 -0.279 238.885 1.612 251.039 1.55291L247.31 2.67569C251.522 3.20754 256.908 4.286 261.12 3.3405C255.907 3.3405 258.669 2.69047 259.636 2.18817C266.541 1.6711 276.899 2.60183 286.531 2.30636C286.531 2.30636 286.048 2.55751 286.531 2.73479L296.647 2.18817C300.047 2.41198 303.217 3.05942 305.762 4.04963C307.523 3.91667 311.839 4.04963 310.285 3.28141C309.476 3.18711 308.636 3.15214 307.799 3.17799C312.978 1.96657 311.252 3.6212 317.708 2.94162C312.702 3.94621 319.089 4.52238 318.399 5.63039C325.856 5.27582 319.297 3.66552 320.263 3.16322C329.205 3.97576 330.276 4.95081 339.287 5.32014C339.874 4.64056 332.934 4.74398 332.382 3.96099C334.351 4.21793 336.455 4.21793 338.424 3.96099L332.934 3.32573C342.346 4.34628 352.096 4.67105 361.763 4.286L360.969 3.93144L367.426 4.0644L365.009 5.30537C368.462 5.03945 372.156 6.2361 374.124 5.2315L372.846 5.12809L377.231 4.7883L372.328 5.91108C377.853 6.54634 385.725 4.00531 394.736 4.43374C396.531 6.19178 379.096 4.81785 377.749 7.04864C380.684 7.44752 385.794 7.89073 387.658 7.31456C387.347 6.70885 385.172 6.66453 383.031 6.62021C391.042 5.57129 402.746 7.61003 407.89 5.71903L401.986 4.92126C408.891 4.7883 413.207 7.19637 415.624 5.94063L409.996 8.08278C417.109 7.07819 426.154 7.4032 432.783 6.60544C433.025 5.32014 423.289 6.60544 423.738 6.28042L426.949 5.39401C437.306 6.25087 429.814 6.22133 442.209 7.10773V6.25087C446.283 7.61003 457.539 5.18718 453.223 7.44752L449.77 6.88613L450.012 7.92028L464.651 7.38843C463.201 8.14188 470.141 7.97937 468.104 8.98396L473.455 8.11233C475.803 9.58968 463.65 9.78173 463.097 10.9045C463.097 11.5841 465.721 11.5102 466.964 11.4364C460.508 12.4705 457.504 9.87037 451.186 9.78173L447.975 10.6829L448.217 9.39762C445.927 9.61419 443.851 10.1305 442.278 10.875C436.133 9.05783 429.262 11.0966 419.836 10.5943C427.743 9.94424 414.864 9.30898 416.384 8.98396C412.068 8.98396 401.227 11.0375 397.671 9.41239C395.185 8.76236 403.022 8.57031 397.049 8.20097C393.113 8.28961 390.386 8.93964 392.871 9.58968C384.136 9.8556 373.848 9.39762 364.318 9.27943L366.666 8.46689C364.121 8.18845 361.466 8.14724 358.881 8.34605C356.296 8.54486 353.841 8.97905 351.682 9.61922C350.888 9.24989 350.404 9.50104 351.371 9.01351C343.914 7.53616 341.497 10.609 329.033 10.0772C329.62 11.2886 335.213 11.5545 339.391 10.9932L338.251 12.3523C348.785 12.6434 359.361 12.4651 369.808 11.8205L365.699 12.7807C373.088 14.7456 371.258 11.0818 378.163 13.2978C383.48 12.8694 374.435 12.5296 378.44 11.9978C382.134 12.4557 377.3 14.3615 383.515 14.5388C360.072 14.8934 333.452 14.332 308.939 14.1251C308.455 14.3763 309.733 14.4797 311.01 14.5979C302.379 16.3264 234.777 10.0772 232.222 13.6376C231.048 13.091 235.088 12.5887 229.874 12.5444C229.391 12.7955 228.01 13.1058 229.184 13.6524C216.236 11.4511 198.455 13.1796 182.781 11.5989C183.057 12.2194 179.535 12.4853 179.328 12.9137C174.011 11.4364 164.62 12.7364 159.579 11.85L161.167 12.5739L145.182 12.2932C144.664 12.5444 146.839 12.5887 148.117 12.7069C144.664 12.9728 143.904 12.175 143.594 11.5693L136.343 12.9433C115.628 10.0624 89.3533 13.5194 65.4958 11.4659C61.7474 12.6292 57.1702 13.1984 52.5486 13.0762L55.4833 13.4899C49.1996 14.3911 55.1726 12.8842 49.8901 13.283C46.2648 13.9774 48.6471 15.0706 53.5498 14.4797C56.5191 14.9377 54.6201 15.3218 52.4105 15.5729C34.5798 15.3777 16.9162 14.0483 0 11.6284H0Z" fill="#FFB200"/>
<path d="M730.225 25.0014C728.153 24.4401 738.546 24.5287 733.47 23.3025C717.347 20.9387 691.107 22.7707 671.98 20.8796C668.436 20.2279 664.745 19.7328 660.966 19.4023C660.813 19.6191 660.813 19.8503 660.966 20.0671C655.752 19.9785 647.328 20.3035 642.149 19.7125C640.665 19.9489 639.56 20.8796 642.391 20.6728C634.45 21.4706 628.58 18.8852 624.299 19.6239C628.132 20.2444 620.467 20.4955 625.024 21.0126C616.738 21.1012 617.532 17.8068 611.007 17.3783C610.592 17.6443 610.178 17.9102 611.525 17.984C604.378 16.5067 589.532 18.7227 588.806 16.4033L585.906 17.3636C582.764 16.5806 583.559 16.0635 578.311 15.7385C574.858 16.093 578.311 16.5953 577.171 16.9499C575.756 16.0044 566.606 16.3885 562.463 15.0441C562.256 13.5668 569.817 17.0533 573.995 15.7385C573.995 15.4578 573.546 15.3691 572.683 15.3248C594.4 15.768 610.869 19.9341 628.719 18.8852C629.421 19.0829 630.212 19.2165 631.041 19.2774C631.87 19.3384 632.719 19.3254 633.536 19.2395C634.353 19.1535 635.119 18.9963 635.787 18.7777C636.455 18.5592 637.011 18.2839 637.419 17.9693C634.208 17.4965 625.059 16.4919 624.783 18.5307L619.224 17.1863C617.118 17.2749 617.187 15.2214 616.289 14.8668C620.225 15.118 624.714 13.1236 619.431 12.3701C629.789 12.1633 615.978 16.7135 625.197 16.226L626.543 14.7487C624.783 15.5464 632.724 16.226 635.693 15.7533L634.484 15.4578C658.86 16.226 691.452 15.6498 718.452 15.2066C725.046 18.8852 738.27 13.9509 744.484 16.9351C747.453 16.4476 740.238 15.6203 745.969 15.1919C748.8 14.9703 749.042 15.9305 748.938 16.2112L751.528 15.9158C753.703 19.5057 748.662 22.682 730.225 25.0014Z" fill="#FFB200"/>
</svg>
