<svg width="45" height="45" viewBox="0 0 45 45" fill="none" xmlns="http://www.w3.org/2000/svg">
<g clip-path="url(#clip0)">
<path d="M18.4396 43.6899L18.577 43.108C19.2016 39.5435 18.855 36.0011 19.2828 32.0523C19.7357 29.2873 19.4328 26.1359 19.414 23.3775C18.9924 29.9225 19.3297 36.7873 17.7962 43.108C17.0961 42.4547 16.692 41.6654 16.6375 40.8449C16.8041 38.7114 16.9165 36.603 16.9748 34.5198C17.2309 34.5198 17.7306 34.5198 17.9836 34.5087C17.081 28.5922 19.0549 23.0577 17.7837 17.1434C17.6463 17.3655 17.4402 17.23 17.2746 17.1856C17.131 17.1456 17.0185 17.1701 17.0185 17.5387C17.0185 17.1701 17.131 17.1456 17.2746 17.1856C17.5214 23.011 17.3371 28.4567 16.9811 34.2866C17.2465 25.2475 16.7062 16.5393 16.8405 7.27592L16.8655 5.69685C17.6017 4.17456 17.9784 2.57611 17.9805 0.966324C19.2298 1.37275 21.822 -0.17078 21.2442 2.96514L22.2592 2.96514C23.6053 -0.153013 27.2064 -1.27679 28.1433 1.87023C29.0803 5.40369 27.9903 10.0876 28.4806 14.405C28.718 17.5432 28.9803 20.6702 28.4994 23.8039C27.7716 28.1169 28.109 32.8163 27.2064 37.1404C26.994 38.7128 27.831 41.4423 27.1095 42.2485C26.766 42.8193 26.2257 42.8526 25.6167 42.7771C25.6167 40.1942 25.5636 37.6224 25.6167 35.0772C25.8259 31.9524 26.082 28.8298 26.5536 25.7094C25.8884 28.7632 25.6791 31.8969 25.6167 35.0772L25.1294 42.7038C24.6079 42.6216 24.0644 42.5417 23.5678 42.7038L23.6116 43.8809C22.3967 45.4777 20.6008 45.1224 19.3016 44.3584C19.0392 44.1563 18.7425 43.9364 18.4396 43.6899Z" fill="#5F6AD8"/>
</g>
<g clip-path="url(#clip1)">
<path d="M43.6918 19.8403L43.11 19.9319C39.5454 20.3483 36.0031 20.1172 32.0543 20.4024C29.2893 20.7043 26.1378 20.5024 23.3794 20.4899C29.9244 20.2088 36.7893 20.4337 43.11 19.4113C42.4566 18.9446 41.6673 18.6752 40.8469 18.6389C38.7133 18.7499 36.6049 18.8249 34.5217 18.8637C34.5217 19.0345 34.5217 19.3676 34.5106 19.5363C28.5941 18.9345 23.0596 20.2504 17.1454 19.403C17.3674 19.3114 17.232 19.174 17.1876 19.0636C17.1476 18.9679 17.172 18.8929 17.5407 18.8929C17.172 18.8929 17.1476 18.9679 17.1876 19.0636C23.013 19.2281 28.4586 19.1053 34.2885 18.8679C25.2494 19.0449 16.5413 18.6847 7.27787 18.7742L5.69881 18.7909C4.17652 19.2817 2.57807 19.5328 0.968277 19.5342C1.3747 20.367 -0.168826 22.0952 2.96709 21.71V22.3867C-0.151059 23.2841 -1.27484 25.6848 1.87219 26.3094C5.40565 26.934 10.0895 26.2074 14.407 26.5343C17.5451 26.6925 20.6722 26.8674 23.8059 26.5468C28.1189 26.0616 32.8183 26.2865 37.1424 25.6848C38.7148 25.5432 41.4443 26.1012 42.2505 25.6202C42.8212 25.3912 42.8546 25.031 42.779 24.625C40.1961 24.625 37.6243 24.5896 35.0792 24.625C31.9544 24.7645 28.8318 24.9352 25.7114 25.2496C28.7651 24.8061 31.8988 24.6666 35.0792 24.625L42.7058 24.3002C42.6236 23.9524 42.5436 23.5902 42.7058 23.2591L43.8828 23.2882C45.4797 22.4783 45.1243 21.2811 44.3603 20.4149C44.1582 20.24 43.9384 20.0422 43.6918 19.8403Z" fill="#5F6AD8"/>
</g>
<defs>
<clipPath id="clip0">
<rect width="45" height="12.1304" fill="white" transform="translate(28.7686) rotate(90)"/>
</clipPath>
<clipPath id="clip1">
<rect width="45" height="8.08696" fill="white" transform="matrix(1 0 0 -1 0 26.7266)"/>
</clipPath>
</defs>
</svg>
